%TF.GenerationSoftware,KiCad,Pcbnew,8.0.6*%
%TF.CreationDate,2024-12-18T15:27:08+01:00*%
%TF.ProjectId,RTR_submodule,5254525f-7375-4626-9d6f-64756c652e6b,rev?*%
%TF.SameCoordinates,Original*%
%TF.FileFunction,Legend,Top*%
%TF.FilePolarity,Positive*%
%FSLAX46Y46*%
G04 Gerber Fmt 4.6, Leading zero omitted, Abs format (unit mm)*
G04 Created by KiCad (PCBNEW 8.0.6) date 2024-12-18 15:27:08*
%MOMM*%
%LPD*%
G01*
G04 APERTURE LIST*
%ADD10C,0.100000*%
%ADD11C,0.150000*%
%ADD12C,0.254000*%
%ADD13C,0.120000*%
%ADD14C,0.200000*%
G04 APERTURE END LIST*
D10*
X157250000Y-118000000D02*
X157250000Y-128500000D01*
X138500000Y-118000000D02*
X138500000Y-128500000D01*
X119750000Y-118000000D02*
X119750000Y-128500000D01*
X176000000Y-118000000D02*
X101000000Y-118000000D01*
D11*
X101369819Y-121806077D02*
X102369819Y-121472744D01*
X102369819Y-121472744D02*
X101369819Y-121139411D01*
X102322200Y-120377506D02*
X102369819Y-120472744D01*
X102369819Y-120472744D02*
X102369819Y-120663220D01*
X102369819Y-120663220D02*
X102322200Y-120758458D01*
X102322200Y-120758458D02*
X102274580Y-120806077D01*
X102274580Y-120806077D02*
X102179342Y-120853696D01*
X102179342Y-120853696D02*
X101893628Y-120853696D01*
X101893628Y-120853696D02*
X101798390Y-120806077D01*
X101798390Y-120806077D02*
X101750771Y-120758458D01*
X101750771Y-120758458D02*
X101703152Y-120663220D01*
X101703152Y-120663220D02*
X101703152Y-120472744D01*
X101703152Y-120472744D02*
X101750771Y-120377506D01*
X101703152Y-119520363D02*
X102369819Y-119520363D01*
X101703152Y-119948934D02*
X102226961Y-119948934D01*
X102226961Y-119948934D02*
X102322200Y-119901315D01*
X102322200Y-119901315D02*
X102369819Y-119806077D01*
X102369819Y-119806077D02*
X102369819Y-119663220D01*
X102369819Y-119663220D02*
X102322200Y-119567982D01*
X102322200Y-119567982D02*
X102274580Y-119520363D01*
X101703152Y-119187029D02*
X101703152Y-118806077D01*
X101369819Y-119044172D02*
X102226961Y-119044172D01*
X102226961Y-119044172D02*
X102322200Y-118996553D01*
X102322200Y-118996553D02*
X102369819Y-118901315D01*
X102369819Y-118901315D02*
X102369819Y-118806077D01*
X101393922Y-116669819D02*
X101727255Y-117669819D01*
X101727255Y-117669819D02*
X102060588Y-116669819D01*
X102822493Y-117622200D02*
X102727255Y-117669819D01*
X102727255Y-117669819D02*
X102536779Y-117669819D01*
X102536779Y-117669819D02*
X102441541Y-117622200D01*
X102441541Y-117622200D02*
X102393922Y-117574580D01*
X102393922Y-117574580D02*
X102346303Y-117479342D01*
X102346303Y-117479342D02*
X102346303Y-117193628D01*
X102346303Y-117193628D02*
X102393922Y-117098390D01*
X102393922Y-117098390D02*
X102441541Y-117050771D01*
X102441541Y-117050771D02*
X102536779Y-117003152D01*
X102536779Y-117003152D02*
X102727255Y-117003152D01*
X102727255Y-117003152D02*
X102822493Y-117050771D01*
X103679636Y-117003152D02*
X103679636Y-117669819D01*
X103251065Y-117003152D02*
X103251065Y-117526961D01*
X103251065Y-117526961D02*
X103298684Y-117622200D01*
X103298684Y-117622200D02*
X103393922Y-117669819D01*
X103393922Y-117669819D02*
X103536779Y-117669819D01*
X103536779Y-117669819D02*
X103632017Y-117622200D01*
X103632017Y-117622200D02*
X103679636Y-117574580D01*
X104012970Y-117003152D02*
X104393922Y-117003152D01*
X104155827Y-116669819D02*
X104155827Y-117526961D01*
X104155827Y-117526961D02*
X104203446Y-117622200D01*
X104203446Y-117622200D02*
X104298684Y-117669819D01*
X104298684Y-117669819D02*
X104393922Y-117669819D01*
X120369819Y-121806077D02*
X121369819Y-121472744D01*
X121369819Y-121472744D02*
X120369819Y-121139411D01*
X121322200Y-120377506D02*
X121369819Y-120472744D01*
X121369819Y-120472744D02*
X121369819Y-120663220D01*
X121369819Y-120663220D02*
X121322200Y-120758458D01*
X121322200Y-120758458D02*
X121274580Y-120806077D01*
X121274580Y-120806077D02*
X121179342Y-120853696D01*
X121179342Y-120853696D02*
X120893628Y-120853696D01*
X120893628Y-120853696D02*
X120798390Y-120806077D01*
X120798390Y-120806077D02*
X120750771Y-120758458D01*
X120750771Y-120758458D02*
X120703152Y-120663220D01*
X120703152Y-120663220D02*
X120703152Y-120472744D01*
X120703152Y-120472744D02*
X120750771Y-120377506D01*
X120703152Y-119520363D02*
X121369819Y-119520363D01*
X120703152Y-119948934D02*
X121226961Y-119948934D01*
X121226961Y-119948934D02*
X121322200Y-119901315D01*
X121322200Y-119901315D02*
X121369819Y-119806077D01*
X121369819Y-119806077D02*
X121369819Y-119663220D01*
X121369819Y-119663220D02*
X121322200Y-119567982D01*
X121322200Y-119567982D02*
X121274580Y-119520363D01*
X120703152Y-119187029D02*
X120703152Y-118806077D01*
X120369819Y-119044172D02*
X121226961Y-119044172D01*
X121226961Y-119044172D02*
X121322200Y-118996553D01*
X121322200Y-118996553D02*
X121369819Y-118901315D01*
X121369819Y-118901315D02*
X121369819Y-118806077D01*
X157869819Y-121806077D02*
X158869819Y-121472744D01*
X158869819Y-121472744D02*
X157869819Y-121139411D01*
X158822200Y-120377506D02*
X158869819Y-120472744D01*
X158869819Y-120472744D02*
X158869819Y-120663220D01*
X158869819Y-120663220D02*
X158822200Y-120758458D01*
X158822200Y-120758458D02*
X158774580Y-120806077D01*
X158774580Y-120806077D02*
X158679342Y-120853696D01*
X158679342Y-120853696D02*
X158393628Y-120853696D01*
X158393628Y-120853696D02*
X158298390Y-120806077D01*
X158298390Y-120806077D02*
X158250771Y-120758458D01*
X158250771Y-120758458D02*
X158203152Y-120663220D01*
X158203152Y-120663220D02*
X158203152Y-120472744D01*
X158203152Y-120472744D02*
X158250771Y-120377506D01*
X158203152Y-119520363D02*
X158869819Y-119520363D01*
X158203152Y-119948934D02*
X158726961Y-119948934D01*
X158726961Y-119948934D02*
X158822200Y-119901315D01*
X158822200Y-119901315D02*
X158869819Y-119806077D01*
X158869819Y-119806077D02*
X158869819Y-119663220D01*
X158869819Y-119663220D02*
X158822200Y-119567982D01*
X158822200Y-119567982D02*
X158774580Y-119520363D01*
X158203152Y-119187029D02*
X158203152Y-118806077D01*
X157869819Y-119044172D02*
X158726961Y-119044172D01*
X158726961Y-119044172D02*
X158822200Y-118996553D01*
X158822200Y-118996553D02*
X158869819Y-118901315D01*
X158869819Y-118901315D02*
X158869819Y-118806077D01*
X138869819Y-121806077D02*
X139869819Y-121472744D01*
X139869819Y-121472744D02*
X138869819Y-121139411D01*
X139822200Y-120377506D02*
X139869819Y-120472744D01*
X139869819Y-120472744D02*
X139869819Y-120663220D01*
X139869819Y-120663220D02*
X139822200Y-120758458D01*
X139822200Y-120758458D02*
X139774580Y-120806077D01*
X139774580Y-120806077D02*
X139679342Y-120853696D01*
X139679342Y-120853696D02*
X139393628Y-120853696D01*
X139393628Y-120853696D02*
X139298390Y-120806077D01*
X139298390Y-120806077D02*
X139250771Y-120758458D01*
X139250771Y-120758458D02*
X139203152Y-120663220D01*
X139203152Y-120663220D02*
X139203152Y-120472744D01*
X139203152Y-120472744D02*
X139250771Y-120377506D01*
X139203152Y-119520363D02*
X139869819Y-119520363D01*
X139203152Y-119948934D02*
X139726961Y-119948934D01*
X139726961Y-119948934D02*
X139822200Y-119901315D01*
X139822200Y-119901315D02*
X139869819Y-119806077D01*
X139869819Y-119806077D02*
X139869819Y-119663220D01*
X139869819Y-119663220D02*
X139822200Y-119567982D01*
X139822200Y-119567982D02*
X139774580Y-119520363D01*
X139203152Y-119187029D02*
X139203152Y-118806077D01*
X138869819Y-119044172D02*
X139726961Y-119044172D01*
X139726961Y-119044172D02*
X139822200Y-118996553D01*
X139822200Y-118996553D02*
X139869819Y-118901315D01*
X139869819Y-118901315D02*
X139869819Y-118806077D01*
X110738095Y-64754819D02*
X110738095Y-63754819D01*
X110738095Y-64231009D02*
X111309523Y-64231009D01*
X111309523Y-64754819D02*
X111309523Y-63754819D01*
X112214285Y-64088152D02*
X112214285Y-64754819D01*
X111976190Y-63707200D02*
X111738095Y-64421485D01*
X111738095Y-64421485D02*
X112357142Y-64421485D01*
X168738095Y-109754819D02*
X168738095Y-108754819D01*
X168738095Y-109231009D02*
X169309523Y-109231009D01*
X169309523Y-109754819D02*
X169309523Y-108754819D01*
X169690476Y-108754819D02*
X170309523Y-108754819D01*
X170309523Y-108754819D02*
X169976190Y-109135771D01*
X169976190Y-109135771D02*
X170119047Y-109135771D01*
X170119047Y-109135771D02*
X170214285Y-109183390D01*
X170214285Y-109183390D02*
X170261904Y-109231009D01*
X170261904Y-109231009D02*
X170309523Y-109326247D01*
X170309523Y-109326247D02*
X170309523Y-109564342D01*
X170309523Y-109564342D02*
X170261904Y-109659580D01*
X170261904Y-109659580D02*
X170214285Y-109707200D01*
X170214285Y-109707200D02*
X170119047Y-109754819D01*
X170119047Y-109754819D02*
X169833333Y-109754819D01*
X169833333Y-109754819D02*
X169738095Y-109707200D01*
X169738095Y-109707200D02*
X169690476Y-109659580D01*
X170238095Y-64254819D02*
X170238095Y-63254819D01*
X170238095Y-63731009D02*
X170809523Y-63731009D01*
X170809523Y-64254819D02*
X170809523Y-63254819D01*
X171238095Y-63350057D02*
X171285714Y-63302438D01*
X171285714Y-63302438D02*
X171380952Y-63254819D01*
X171380952Y-63254819D02*
X171619047Y-63254819D01*
X171619047Y-63254819D02*
X171714285Y-63302438D01*
X171714285Y-63302438D02*
X171761904Y-63350057D01*
X171761904Y-63350057D02*
X171809523Y-63445295D01*
X171809523Y-63445295D02*
X171809523Y-63540533D01*
X171809523Y-63540533D02*
X171761904Y-63683390D01*
X171761904Y-63683390D02*
X171190476Y-64254819D01*
X171190476Y-64254819D02*
X171809523Y-64254819D01*
X111238095Y-110754819D02*
X111238095Y-109754819D01*
X111238095Y-110231009D02*
X111809523Y-110231009D01*
X111809523Y-110754819D02*
X111809523Y-109754819D01*
X112809523Y-110754819D02*
X112238095Y-110754819D01*
X112523809Y-110754819D02*
X112523809Y-109754819D01*
X112523809Y-109754819D02*
X112428571Y-109897676D01*
X112428571Y-109897676D02*
X112333333Y-109992914D01*
X112333333Y-109992914D02*
X112238095Y-110040533D01*
X109746069Y-83348808D02*
X108746069Y-83348808D01*
X108746069Y-83348808D02*
X109460354Y-83015475D01*
X109460354Y-83015475D02*
X108746069Y-82682142D01*
X108746069Y-82682142D02*
X109746069Y-82682142D01*
X109650830Y-82205951D02*
X109698450Y-82158332D01*
X109698450Y-82158332D02*
X109746069Y-82205951D01*
X109746069Y-82205951D02*
X109698450Y-82253570D01*
X109698450Y-82253570D02*
X109650830Y-82205951D01*
X109650830Y-82205951D02*
X109746069Y-82205951D01*
X109127021Y-82205951D02*
X109174640Y-82158332D01*
X109174640Y-82158332D02*
X109222259Y-82205951D01*
X109222259Y-82205951D02*
X109174640Y-82253570D01*
X109174640Y-82253570D02*
X109127021Y-82205951D01*
X109127021Y-82205951D02*
X109222259Y-82205951D01*
X109650830Y-81158333D02*
X109698450Y-81205952D01*
X109698450Y-81205952D02*
X109746069Y-81348809D01*
X109746069Y-81348809D02*
X109746069Y-81444047D01*
X109746069Y-81444047D02*
X109698450Y-81586904D01*
X109698450Y-81586904D02*
X109603211Y-81682142D01*
X109603211Y-81682142D02*
X109507973Y-81729761D01*
X109507973Y-81729761D02*
X109317497Y-81777380D01*
X109317497Y-81777380D02*
X109174640Y-81777380D01*
X109174640Y-81777380D02*
X108984164Y-81729761D01*
X108984164Y-81729761D02*
X108888926Y-81682142D01*
X108888926Y-81682142D02*
X108793688Y-81586904D01*
X108793688Y-81586904D02*
X108746069Y-81444047D01*
X108746069Y-81444047D02*
X108746069Y-81348809D01*
X108746069Y-81348809D02*
X108793688Y-81205952D01*
X108793688Y-81205952D02*
X108841307Y-81158333D01*
X109746069Y-80205952D02*
X109746069Y-80777380D01*
X109746069Y-80491666D02*
X108746069Y-80491666D01*
X108746069Y-80491666D02*
X108888926Y-80586904D01*
X108888926Y-80586904D02*
X108984164Y-80682142D01*
X108984164Y-80682142D02*
X109031783Y-80777380D01*
X108746069Y-79586904D02*
X108746069Y-79491666D01*
X108746069Y-79491666D02*
X108793688Y-79396428D01*
X108793688Y-79396428D02*
X108841307Y-79348809D01*
X108841307Y-79348809D02*
X108936545Y-79301190D01*
X108936545Y-79301190D02*
X109127021Y-79253571D01*
X109127021Y-79253571D02*
X109365116Y-79253571D01*
X109365116Y-79253571D02*
X109555592Y-79301190D01*
X109555592Y-79301190D02*
X109650830Y-79348809D01*
X109650830Y-79348809D02*
X109698450Y-79396428D01*
X109698450Y-79396428D02*
X109746069Y-79491666D01*
X109746069Y-79491666D02*
X109746069Y-79586904D01*
X109746069Y-79586904D02*
X109698450Y-79682142D01*
X109698450Y-79682142D02*
X109650830Y-79729761D01*
X109650830Y-79729761D02*
X109555592Y-79777380D01*
X109555592Y-79777380D02*
X109365116Y-79824999D01*
X109365116Y-79824999D02*
X109127021Y-79824999D01*
X109127021Y-79824999D02*
X108936545Y-79777380D01*
X108936545Y-79777380D02*
X108841307Y-79729761D01*
X108841307Y-79729761D02*
X108793688Y-79682142D01*
X108793688Y-79682142D02*
X108746069Y-79586904D01*
D12*
X108382380Y-91516318D02*
X108382380Y-92544413D01*
X108382380Y-92544413D02*
X108442857Y-92665365D01*
X108442857Y-92665365D02*
X108503333Y-92725842D01*
X108503333Y-92725842D02*
X108624285Y-92786318D01*
X108624285Y-92786318D02*
X108866190Y-92786318D01*
X108866190Y-92786318D02*
X108987142Y-92725842D01*
X108987142Y-92725842D02*
X109047619Y-92665365D01*
X109047619Y-92665365D02*
X109108095Y-92544413D01*
X109108095Y-92544413D02*
X109108095Y-91516318D01*
X109652380Y-91637270D02*
X109712856Y-91576794D01*
X109712856Y-91576794D02*
X109833809Y-91516318D01*
X109833809Y-91516318D02*
X110136190Y-91516318D01*
X110136190Y-91516318D02*
X110257142Y-91576794D01*
X110257142Y-91576794D02*
X110317618Y-91637270D01*
X110317618Y-91637270D02*
X110378095Y-91758222D01*
X110378095Y-91758222D02*
X110378095Y-91879175D01*
X110378095Y-91879175D02*
X110317618Y-92060603D01*
X110317618Y-92060603D02*
X109591904Y-92786318D01*
X109591904Y-92786318D02*
X110378095Y-92786318D01*
D11*
X104657916Y-84309819D02*
X104657916Y-85024104D01*
X104657916Y-85024104D02*
X104610297Y-85166961D01*
X104610297Y-85166961D02*
X104515059Y-85262200D01*
X104515059Y-85262200D02*
X104372202Y-85309819D01*
X104372202Y-85309819D02*
X104276964Y-85309819D01*
X105038869Y-84309819D02*
X105705535Y-84309819D01*
X105705535Y-84309819D02*
X105276964Y-85309819D01*
D12*
X158532380Y-69204318D02*
X158532380Y-70232413D01*
X158532380Y-70232413D02*
X158592857Y-70353365D01*
X158592857Y-70353365D02*
X158653333Y-70413842D01*
X158653333Y-70413842D02*
X158774285Y-70474318D01*
X158774285Y-70474318D02*
X159016190Y-70474318D01*
X159016190Y-70474318D02*
X159137142Y-70413842D01*
X159137142Y-70413842D02*
X159197619Y-70353365D01*
X159197619Y-70353365D02*
X159258095Y-70232413D01*
X159258095Y-70232413D02*
X159258095Y-69204318D01*
X159741904Y-69204318D02*
X160528095Y-69204318D01*
X160528095Y-69204318D02*
X160104761Y-69688127D01*
X160104761Y-69688127D02*
X160286190Y-69688127D01*
X160286190Y-69688127D02*
X160407142Y-69748603D01*
X160407142Y-69748603D02*
X160467618Y-69809080D01*
X160467618Y-69809080D02*
X160528095Y-69930032D01*
X160528095Y-69930032D02*
X160528095Y-70232413D01*
X160528095Y-70232413D02*
X160467618Y-70353365D01*
X160467618Y-70353365D02*
X160407142Y-70413842D01*
X160407142Y-70413842D02*
X160286190Y-70474318D01*
X160286190Y-70474318D02*
X159923333Y-70474318D01*
X159923333Y-70474318D02*
X159802380Y-70413842D01*
X159802380Y-70413842D02*
X159741904Y-70353365D01*
D13*
X160695833Y-123650926D02*
X160662500Y-123684260D01*
X160662500Y-123684260D02*
X160562500Y-123717593D01*
X160562500Y-123717593D02*
X160495833Y-123717593D01*
X160495833Y-123717593D02*
X160395833Y-123684260D01*
X160395833Y-123684260D02*
X160329167Y-123617593D01*
X160329167Y-123617593D02*
X160295833Y-123550926D01*
X160295833Y-123550926D02*
X160262500Y-123417593D01*
X160262500Y-123417593D02*
X160262500Y-123317593D01*
X160262500Y-123317593D02*
X160295833Y-123184260D01*
X160295833Y-123184260D02*
X160329167Y-123117593D01*
X160329167Y-123117593D02*
X160395833Y-123050926D01*
X160395833Y-123050926D02*
X160495833Y-123017593D01*
X160495833Y-123017593D02*
X160562500Y-123017593D01*
X160562500Y-123017593D02*
X160662500Y-123050926D01*
X160662500Y-123050926D02*
X160695833Y-123084260D01*
X160962500Y-123517593D02*
X161295833Y-123517593D01*
X160895833Y-123717593D02*
X161129167Y-123017593D01*
X161129167Y-123017593D02*
X161362500Y-123717593D01*
X161595833Y-123717593D02*
X161595833Y-123017593D01*
X161595833Y-123017593D02*
X161995833Y-123717593D01*
X161995833Y-123717593D02*
X161995833Y-123017593D01*
X162695833Y-123050926D02*
X162629166Y-123017593D01*
X162629166Y-123017593D02*
X162529166Y-123017593D01*
X162529166Y-123017593D02*
X162429166Y-123050926D01*
X162429166Y-123050926D02*
X162362500Y-123117593D01*
X162362500Y-123117593D02*
X162329166Y-123184260D01*
X162329166Y-123184260D02*
X162295833Y-123317593D01*
X162295833Y-123317593D02*
X162295833Y-123417593D01*
X162295833Y-123417593D02*
X162329166Y-123550926D01*
X162329166Y-123550926D02*
X162362500Y-123617593D01*
X162362500Y-123617593D02*
X162429166Y-123684260D01*
X162429166Y-123684260D02*
X162529166Y-123717593D01*
X162529166Y-123717593D02*
X162595833Y-123717593D01*
X162595833Y-123717593D02*
X162695833Y-123684260D01*
X162695833Y-123684260D02*
X162729166Y-123650926D01*
X162729166Y-123650926D02*
X162729166Y-123417593D01*
X162729166Y-123417593D02*
X162595833Y-123417593D01*
X162862500Y-123784260D02*
X163395833Y-123784260D01*
X163762499Y-123017593D02*
X163762499Y-123517593D01*
X163762499Y-123517593D02*
X163729166Y-123617593D01*
X163729166Y-123617593D02*
X163662499Y-123684260D01*
X163662499Y-123684260D02*
X163562499Y-123717593D01*
X163562499Y-123717593D02*
X163495833Y-123717593D01*
X164029166Y-123017593D02*
X164462499Y-123017593D01*
X164462499Y-123017593D02*
X164229166Y-123284260D01*
X164229166Y-123284260D02*
X164329166Y-123284260D01*
X164329166Y-123284260D02*
X164395832Y-123317593D01*
X164395832Y-123317593D02*
X164429166Y-123350926D01*
X164429166Y-123350926D02*
X164462499Y-123417593D01*
X164462499Y-123417593D02*
X164462499Y-123584260D01*
X164462499Y-123584260D02*
X164429166Y-123650926D01*
X164429166Y-123650926D02*
X164395832Y-123684260D01*
X164395832Y-123684260D02*
X164329166Y-123717593D01*
X164329166Y-123717593D02*
X164129166Y-123717593D01*
X164129166Y-123717593D02*
X164062499Y-123684260D01*
X164062499Y-123684260D02*
X164029166Y-123650926D01*
D11*
X109717381Y-109442200D02*
X109860238Y-109489819D01*
X109860238Y-109489819D02*
X110098333Y-109489819D01*
X110098333Y-109489819D02*
X110193571Y-109442200D01*
X110193571Y-109442200D02*
X110241190Y-109394580D01*
X110241190Y-109394580D02*
X110288809Y-109299342D01*
X110288809Y-109299342D02*
X110288809Y-109204104D01*
X110288809Y-109204104D02*
X110241190Y-109108866D01*
X110241190Y-109108866D02*
X110193571Y-109061247D01*
X110193571Y-109061247D02*
X110098333Y-109013628D01*
X110098333Y-109013628D02*
X109907857Y-108966009D01*
X109907857Y-108966009D02*
X109812619Y-108918390D01*
X109812619Y-108918390D02*
X109765000Y-108870771D01*
X109765000Y-108870771D02*
X109717381Y-108775533D01*
X109717381Y-108775533D02*
X109717381Y-108680295D01*
X109717381Y-108680295D02*
X109765000Y-108585057D01*
X109765000Y-108585057D02*
X109812619Y-108537438D01*
X109812619Y-108537438D02*
X109907857Y-108489819D01*
X109907857Y-108489819D02*
X110145952Y-108489819D01*
X110145952Y-108489819D02*
X110288809Y-108537438D01*
X110717381Y-108489819D02*
X110717381Y-109299342D01*
X110717381Y-109299342D02*
X110765000Y-109394580D01*
X110765000Y-109394580D02*
X110812619Y-109442200D01*
X110812619Y-109442200D02*
X110907857Y-109489819D01*
X110907857Y-109489819D02*
X111098333Y-109489819D01*
X111098333Y-109489819D02*
X111193571Y-109442200D01*
X111193571Y-109442200D02*
X111241190Y-109394580D01*
X111241190Y-109394580D02*
X111288809Y-109299342D01*
X111288809Y-109299342D02*
X111288809Y-108489819D01*
X112098333Y-108966009D02*
X112241190Y-109013628D01*
X112241190Y-109013628D02*
X112288809Y-109061247D01*
X112288809Y-109061247D02*
X112336428Y-109156485D01*
X112336428Y-109156485D02*
X112336428Y-109299342D01*
X112336428Y-109299342D02*
X112288809Y-109394580D01*
X112288809Y-109394580D02*
X112241190Y-109442200D01*
X112241190Y-109442200D02*
X112145952Y-109489819D01*
X112145952Y-109489819D02*
X111765000Y-109489819D01*
X111765000Y-109489819D02*
X111765000Y-108489819D01*
X111765000Y-108489819D02*
X112098333Y-108489819D01*
X112098333Y-108489819D02*
X112193571Y-108537438D01*
X112193571Y-108537438D02*
X112241190Y-108585057D01*
X112241190Y-108585057D02*
X112288809Y-108680295D01*
X112288809Y-108680295D02*
X112288809Y-108775533D01*
X112288809Y-108775533D02*
X112241190Y-108870771D01*
X112241190Y-108870771D02*
X112193571Y-108918390D01*
X112193571Y-108918390D02*
X112098333Y-108966009D01*
X112098333Y-108966009D02*
X111765000Y-108966009D01*
X112765000Y-109394580D02*
X112812619Y-109442200D01*
X112812619Y-109442200D02*
X112765000Y-109489819D01*
X112765000Y-109489819D02*
X112717381Y-109442200D01*
X112717381Y-109442200D02*
X112765000Y-109394580D01*
X112765000Y-109394580D02*
X112765000Y-109489819D01*
X112765000Y-108870771D02*
X112812619Y-108918390D01*
X112812619Y-108918390D02*
X112765000Y-108966009D01*
X112765000Y-108966009D02*
X112717381Y-108918390D01*
X112717381Y-108918390D02*
X112765000Y-108870771D01*
X112765000Y-108870771D02*
X112765000Y-108966009D01*
X113241190Y-108489819D02*
X113241190Y-109299342D01*
X113241190Y-109299342D02*
X113288809Y-109394580D01*
X113288809Y-109394580D02*
X113336428Y-109442200D01*
X113336428Y-109442200D02*
X113431666Y-109489819D01*
X113431666Y-109489819D02*
X113622142Y-109489819D01*
X113622142Y-109489819D02*
X113717380Y-109442200D01*
X113717380Y-109442200D02*
X113764999Y-109394580D01*
X113764999Y-109394580D02*
X113812618Y-109299342D01*
X113812618Y-109299342D02*
X113812618Y-108489819D01*
X114812618Y-109489819D02*
X114241190Y-109489819D01*
X114526904Y-109489819D02*
X114526904Y-108489819D01*
X114526904Y-108489819D02*
X114431666Y-108632676D01*
X114431666Y-108632676D02*
X114336428Y-108727914D01*
X114336428Y-108727914D02*
X114241190Y-108775533D01*
D13*
X123433333Y-123650926D02*
X123400000Y-123684260D01*
X123400000Y-123684260D02*
X123300000Y-123717593D01*
X123300000Y-123717593D02*
X123233333Y-123717593D01*
X123233333Y-123717593D02*
X123133333Y-123684260D01*
X123133333Y-123684260D02*
X123066667Y-123617593D01*
X123066667Y-123617593D02*
X123033333Y-123550926D01*
X123033333Y-123550926D02*
X123000000Y-123417593D01*
X123000000Y-123417593D02*
X123000000Y-123317593D01*
X123000000Y-123317593D02*
X123033333Y-123184260D01*
X123033333Y-123184260D02*
X123066667Y-123117593D01*
X123066667Y-123117593D02*
X123133333Y-123050926D01*
X123133333Y-123050926D02*
X123233333Y-123017593D01*
X123233333Y-123017593D02*
X123300000Y-123017593D01*
X123300000Y-123017593D02*
X123400000Y-123050926D01*
X123400000Y-123050926D02*
X123433333Y-123084260D01*
X123700000Y-123517593D02*
X124033333Y-123517593D01*
X123633333Y-123717593D02*
X123866667Y-123017593D01*
X123866667Y-123017593D02*
X124100000Y-123717593D01*
X124333333Y-123717593D02*
X124333333Y-123017593D01*
X124333333Y-123017593D02*
X124733333Y-123717593D01*
X124733333Y-123717593D02*
X124733333Y-123017593D01*
X125433333Y-123050926D02*
X125366666Y-123017593D01*
X125366666Y-123017593D02*
X125266666Y-123017593D01*
X125266666Y-123017593D02*
X125166666Y-123050926D01*
X125166666Y-123050926D02*
X125100000Y-123117593D01*
X125100000Y-123117593D02*
X125066666Y-123184260D01*
X125066666Y-123184260D02*
X125033333Y-123317593D01*
X125033333Y-123317593D02*
X125033333Y-123417593D01*
X125033333Y-123417593D02*
X125066666Y-123550926D01*
X125066666Y-123550926D02*
X125100000Y-123617593D01*
X125100000Y-123617593D02*
X125166666Y-123684260D01*
X125166666Y-123684260D02*
X125266666Y-123717593D01*
X125266666Y-123717593D02*
X125333333Y-123717593D01*
X125333333Y-123717593D02*
X125433333Y-123684260D01*
X125433333Y-123684260D02*
X125466666Y-123650926D01*
X125466666Y-123650926D02*
X125466666Y-123417593D01*
X125466666Y-123417593D02*
X125333333Y-123417593D01*
X125600000Y-123784260D02*
X126133333Y-123784260D01*
X126499999Y-123017593D02*
X126499999Y-123517593D01*
X126499999Y-123517593D02*
X126466666Y-123617593D01*
X126466666Y-123617593D02*
X126399999Y-123684260D01*
X126399999Y-123684260D02*
X126299999Y-123717593D01*
X126299999Y-123717593D02*
X126233333Y-123717593D01*
X127199999Y-123717593D02*
X126799999Y-123717593D01*
X126999999Y-123717593D02*
X126999999Y-123017593D01*
X126999999Y-123017593D02*
X126933332Y-123117593D01*
X126933332Y-123117593D02*
X126866666Y-123184260D01*
X126866666Y-123184260D02*
X126799999Y-123217593D01*
X129423333Y-120017593D02*
X129823333Y-120017593D01*
X129623333Y-120717593D02*
X129623333Y-120017593D01*
X130323333Y-120684260D02*
X130256666Y-120717593D01*
X130256666Y-120717593D02*
X130123333Y-120717593D01*
X130123333Y-120717593D02*
X130056666Y-120684260D01*
X130056666Y-120684260D02*
X130023333Y-120617593D01*
X130023333Y-120617593D02*
X130023333Y-120350926D01*
X130023333Y-120350926D02*
X130056666Y-120284260D01*
X130056666Y-120284260D02*
X130123333Y-120250926D01*
X130123333Y-120250926D02*
X130256666Y-120250926D01*
X130256666Y-120250926D02*
X130323333Y-120284260D01*
X130323333Y-120284260D02*
X130356666Y-120350926D01*
X130356666Y-120350926D02*
X130356666Y-120417593D01*
X130356666Y-120417593D02*
X130023333Y-120484260D01*
X130656666Y-120717593D02*
X130656666Y-120250926D01*
X130656666Y-120384260D02*
X130690000Y-120317593D01*
X130690000Y-120317593D02*
X130723333Y-120284260D01*
X130723333Y-120284260D02*
X130790000Y-120250926D01*
X130790000Y-120250926D02*
X130856666Y-120250926D01*
X130923333Y-120784260D02*
X131456666Y-120784260D01*
X132023332Y-120717593D02*
X131789999Y-120384260D01*
X131623332Y-120717593D02*
X131623332Y-120017593D01*
X131623332Y-120017593D02*
X131889999Y-120017593D01*
X131889999Y-120017593D02*
X131956666Y-120050926D01*
X131956666Y-120050926D02*
X131989999Y-120084260D01*
X131989999Y-120084260D02*
X132023332Y-120150926D01*
X132023332Y-120150926D02*
X132023332Y-120250926D01*
X132023332Y-120250926D02*
X131989999Y-120317593D01*
X131989999Y-120317593D02*
X131956666Y-120350926D01*
X131956666Y-120350926D02*
X131889999Y-120384260D01*
X131889999Y-120384260D02*
X131623332Y-120384260D01*
X132689999Y-120717593D02*
X132289999Y-120717593D01*
X132489999Y-120717593D02*
X132489999Y-120017593D01*
X132489999Y-120017593D02*
X132423332Y-120117593D01*
X132423332Y-120117593D02*
X132356666Y-120184260D01*
X132356666Y-120184260D02*
X132289999Y-120217593D01*
X166895833Y-125967593D02*
X167295833Y-125967593D01*
X167095833Y-126667593D02*
X167095833Y-125967593D01*
X167795833Y-126634260D02*
X167729166Y-126667593D01*
X167729166Y-126667593D02*
X167595833Y-126667593D01*
X167595833Y-126667593D02*
X167529166Y-126634260D01*
X167529166Y-126634260D02*
X167495833Y-126567593D01*
X167495833Y-126567593D02*
X167495833Y-126300926D01*
X167495833Y-126300926D02*
X167529166Y-126234260D01*
X167529166Y-126234260D02*
X167595833Y-126200926D01*
X167595833Y-126200926D02*
X167729166Y-126200926D01*
X167729166Y-126200926D02*
X167795833Y-126234260D01*
X167795833Y-126234260D02*
X167829166Y-126300926D01*
X167829166Y-126300926D02*
X167829166Y-126367593D01*
X167829166Y-126367593D02*
X167495833Y-126434260D01*
X168129166Y-126667593D02*
X168129166Y-126200926D01*
X168129166Y-126334260D02*
X168162500Y-126267593D01*
X168162500Y-126267593D02*
X168195833Y-126234260D01*
X168195833Y-126234260D02*
X168262500Y-126200926D01*
X168262500Y-126200926D02*
X168329166Y-126200926D01*
X168395833Y-126734260D02*
X168929166Y-126734260D01*
X169495832Y-126667593D02*
X169262499Y-126334260D01*
X169095832Y-126667593D02*
X169095832Y-125967593D01*
X169095832Y-125967593D02*
X169362499Y-125967593D01*
X169362499Y-125967593D02*
X169429166Y-126000926D01*
X169429166Y-126000926D02*
X169462499Y-126034260D01*
X169462499Y-126034260D02*
X169495832Y-126100926D01*
X169495832Y-126100926D02*
X169495832Y-126200926D01*
X169495832Y-126200926D02*
X169462499Y-126267593D01*
X169462499Y-126267593D02*
X169429166Y-126300926D01*
X169429166Y-126300926D02*
X169362499Y-126334260D01*
X169362499Y-126334260D02*
X169095832Y-126334260D01*
X170095832Y-125967593D02*
X169962499Y-125967593D01*
X169962499Y-125967593D02*
X169895832Y-126000926D01*
X169895832Y-126000926D02*
X169862499Y-126034260D01*
X169862499Y-126034260D02*
X169795832Y-126134260D01*
X169795832Y-126134260D02*
X169762499Y-126267593D01*
X169762499Y-126267593D02*
X169762499Y-126534260D01*
X169762499Y-126534260D02*
X169795832Y-126600926D01*
X169795832Y-126600926D02*
X169829166Y-126634260D01*
X169829166Y-126634260D02*
X169895832Y-126667593D01*
X169895832Y-126667593D02*
X170029166Y-126667593D01*
X170029166Y-126667593D02*
X170095832Y-126634260D01*
X170095832Y-126634260D02*
X170129166Y-126600926D01*
X170129166Y-126600926D02*
X170162499Y-126534260D01*
X170162499Y-126534260D02*
X170162499Y-126367593D01*
X170162499Y-126367593D02*
X170129166Y-126300926D01*
X170129166Y-126300926D02*
X170095832Y-126267593D01*
X170095832Y-126267593D02*
X170029166Y-126234260D01*
X170029166Y-126234260D02*
X169895832Y-126234260D01*
X169895832Y-126234260D02*
X169829166Y-126267593D01*
X169829166Y-126267593D02*
X169795832Y-126300926D01*
X169795832Y-126300926D02*
X169762499Y-126367593D01*
D11*
X102907200Y-98704761D02*
X102954819Y-98561904D01*
X102954819Y-98561904D02*
X102954819Y-98323809D01*
X102954819Y-98323809D02*
X102907200Y-98228571D01*
X102907200Y-98228571D02*
X102859580Y-98180952D01*
X102859580Y-98180952D02*
X102764342Y-98133333D01*
X102764342Y-98133333D02*
X102669104Y-98133333D01*
X102669104Y-98133333D02*
X102573866Y-98180952D01*
X102573866Y-98180952D02*
X102526247Y-98228571D01*
X102526247Y-98228571D02*
X102478628Y-98323809D01*
X102478628Y-98323809D02*
X102431009Y-98514285D01*
X102431009Y-98514285D02*
X102383390Y-98609523D01*
X102383390Y-98609523D02*
X102335771Y-98657142D01*
X102335771Y-98657142D02*
X102240533Y-98704761D01*
X102240533Y-98704761D02*
X102145295Y-98704761D01*
X102145295Y-98704761D02*
X102050057Y-98657142D01*
X102050057Y-98657142D02*
X102002438Y-98609523D01*
X102002438Y-98609523D02*
X101954819Y-98514285D01*
X101954819Y-98514285D02*
X101954819Y-98276190D01*
X101954819Y-98276190D02*
X102002438Y-98133333D01*
X101954819Y-97704761D02*
X102764342Y-97704761D01*
X102764342Y-97704761D02*
X102859580Y-97657142D01*
X102859580Y-97657142D02*
X102907200Y-97609523D01*
X102907200Y-97609523D02*
X102954819Y-97514285D01*
X102954819Y-97514285D02*
X102954819Y-97323809D01*
X102954819Y-97323809D02*
X102907200Y-97228571D01*
X102907200Y-97228571D02*
X102859580Y-97180952D01*
X102859580Y-97180952D02*
X102764342Y-97133333D01*
X102764342Y-97133333D02*
X101954819Y-97133333D01*
X102431009Y-96323809D02*
X102478628Y-96180952D01*
X102478628Y-96180952D02*
X102526247Y-96133333D01*
X102526247Y-96133333D02*
X102621485Y-96085714D01*
X102621485Y-96085714D02*
X102764342Y-96085714D01*
X102764342Y-96085714D02*
X102859580Y-96133333D01*
X102859580Y-96133333D02*
X102907200Y-96180952D01*
X102907200Y-96180952D02*
X102954819Y-96276190D01*
X102954819Y-96276190D02*
X102954819Y-96657142D01*
X102954819Y-96657142D02*
X101954819Y-96657142D01*
X101954819Y-96657142D02*
X101954819Y-96323809D01*
X101954819Y-96323809D02*
X102002438Y-96228571D01*
X102002438Y-96228571D02*
X102050057Y-96180952D01*
X102050057Y-96180952D02*
X102145295Y-96133333D01*
X102145295Y-96133333D02*
X102240533Y-96133333D01*
X102240533Y-96133333D02*
X102335771Y-96180952D01*
X102335771Y-96180952D02*
X102383390Y-96228571D01*
X102383390Y-96228571D02*
X102431009Y-96323809D01*
X102431009Y-96323809D02*
X102431009Y-96657142D01*
X102859580Y-95657142D02*
X102907200Y-95609523D01*
X102907200Y-95609523D02*
X102954819Y-95657142D01*
X102954819Y-95657142D02*
X102907200Y-95704761D01*
X102907200Y-95704761D02*
X102859580Y-95657142D01*
X102859580Y-95657142D02*
X102954819Y-95657142D01*
X102335771Y-95657142D02*
X102383390Y-95609523D01*
X102383390Y-95609523D02*
X102431009Y-95657142D01*
X102431009Y-95657142D02*
X102383390Y-95704761D01*
X102383390Y-95704761D02*
X102335771Y-95657142D01*
X102335771Y-95657142D02*
X102431009Y-95657142D01*
X101954819Y-94895238D02*
X102669104Y-94895238D01*
X102669104Y-94895238D02*
X102811961Y-94942857D01*
X102811961Y-94942857D02*
X102907200Y-95038095D01*
X102907200Y-95038095D02*
X102954819Y-95180952D01*
X102954819Y-95180952D02*
X102954819Y-95276190D01*
X101954819Y-94514285D02*
X101954819Y-93895238D01*
X101954819Y-93895238D02*
X102335771Y-94228571D01*
X102335771Y-94228571D02*
X102335771Y-94085714D01*
X102335771Y-94085714D02*
X102383390Y-93990476D01*
X102383390Y-93990476D02*
X102431009Y-93942857D01*
X102431009Y-93942857D02*
X102526247Y-93895238D01*
X102526247Y-93895238D02*
X102764342Y-93895238D01*
X102764342Y-93895238D02*
X102859580Y-93942857D01*
X102859580Y-93942857D02*
X102907200Y-93990476D01*
X102907200Y-93990476D02*
X102954819Y-94085714D01*
X102954819Y-94085714D02*
X102954819Y-94371428D01*
X102954819Y-94371428D02*
X102907200Y-94466666D01*
X102907200Y-94466666D02*
X102859580Y-94514285D01*
X170395238Y-106877200D02*
X170538095Y-106924819D01*
X170538095Y-106924819D02*
X170776190Y-106924819D01*
X170776190Y-106924819D02*
X170871428Y-106877200D01*
X170871428Y-106877200D02*
X170919047Y-106829580D01*
X170919047Y-106829580D02*
X170966666Y-106734342D01*
X170966666Y-106734342D02*
X170966666Y-106639104D01*
X170966666Y-106639104D02*
X170919047Y-106543866D01*
X170919047Y-106543866D02*
X170871428Y-106496247D01*
X170871428Y-106496247D02*
X170776190Y-106448628D01*
X170776190Y-106448628D02*
X170585714Y-106401009D01*
X170585714Y-106401009D02*
X170490476Y-106353390D01*
X170490476Y-106353390D02*
X170442857Y-106305771D01*
X170442857Y-106305771D02*
X170395238Y-106210533D01*
X170395238Y-106210533D02*
X170395238Y-106115295D01*
X170395238Y-106115295D02*
X170442857Y-106020057D01*
X170442857Y-106020057D02*
X170490476Y-105972438D01*
X170490476Y-105972438D02*
X170585714Y-105924819D01*
X170585714Y-105924819D02*
X170823809Y-105924819D01*
X170823809Y-105924819D02*
X170966666Y-105972438D01*
X171395238Y-105924819D02*
X171395238Y-106734342D01*
X171395238Y-106734342D02*
X171442857Y-106829580D01*
X171442857Y-106829580D02*
X171490476Y-106877200D01*
X171490476Y-106877200D02*
X171585714Y-106924819D01*
X171585714Y-106924819D02*
X171776190Y-106924819D01*
X171776190Y-106924819D02*
X171871428Y-106877200D01*
X171871428Y-106877200D02*
X171919047Y-106829580D01*
X171919047Y-106829580D02*
X171966666Y-106734342D01*
X171966666Y-106734342D02*
X171966666Y-105924819D01*
X172776190Y-106401009D02*
X172919047Y-106448628D01*
X172919047Y-106448628D02*
X172966666Y-106496247D01*
X172966666Y-106496247D02*
X173014285Y-106591485D01*
X173014285Y-106591485D02*
X173014285Y-106734342D01*
X173014285Y-106734342D02*
X172966666Y-106829580D01*
X172966666Y-106829580D02*
X172919047Y-106877200D01*
X172919047Y-106877200D02*
X172823809Y-106924819D01*
X172823809Y-106924819D02*
X172442857Y-106924819D01*
X172442857Y-106924819D02*
X172442857Y-105924819D01*
X172442857Y-105924819D02*
X172776190Y-105924819D01*
X172776190Y-105924819D02*
X172871428Y-105972438D01*
X172871428Y-105972438D02*
X172919047Y-106020057D01*
X172919047Y-106020057D02*
X172966666Y-106115295D01*
X172966666Y-106115295D02*
X172966666Y-106210533D01*
X172966666Y-106210533D02*
X172919047Y-106305771D01*
X172919047Y-106305771D02*
X172871428Y-106353390D01*
X172871428Y-106353390D02*
X172776190Y-106401009D01*
X172776190Y-106401009D02*
X172442857Y-106401009D01*
X173442857Y-106829580D02*
X173490476Y-106877200D01*
X173490476Y-106877200D02*
X173442857Y-106924819D01*
X173442857Y-106924819D02*
X173395238Y-106877200D01*
X173395238Y-106877200D02*
X173442857Y-106829580D01*
X173442857Y-106829580D02*
X173442857Y-106924819D01*
X173442857Y-106305771D02*
X173490476Y-106353390D01*
X173490476Y-106353390D02*
X173442857Y-106401009D01*
X173442857Y-106401009D02*
X173395238Y-106353390D01*
X173395238Y-106353390D02*
X173442857Y-106305771D01*
X173442857Y-106305771D02*
X173442857Y-106401009D01*
X174204761Y-105924819D02*
X174204761Y-106639104D01*
X174204761Y-106639104D02*
X174157142Y-106781961D01*
X174157142Y-106781961D02*
X174061904Y-106877200D01*
X174061904Y-106877200D02*
X173919047Y-106924819D01*
X173919047Y-106924819D02*
X173823809Y-106924819D01*
X174633333Y-106020057D02*
X174680952Y-105972438D01*
X174680952Y-105972438D02*
X174776190Y-105924819D01*
X174776190Y-105924819D02*
X175014285Y-105924819D01*
X175014285Y-105924819D02*
X175109523Y-105972438D01*
X175109523Y-105972438D02*
X175157142Y-106020057D01*
X175157142Y-106020057D02*
X175204761Y-106115295D01*
X175204761Y-106115295D02*
X175204761Y-106210533D01*
X175204761Y-106210533D02*
X175157142Y-106353390D01*
X175157142Y-106353390D02*
X174585714Y-106924819D01*
X174585714Y-106924819D02*
X175204761Y-106924819D01*
D13*
X148298333Y-120017593D02*
X148698333Y-120017593D01*
X148498333Y-120717593D02*
X148498333Y-120017593D01*
X149198333Y-120684260D02*
X149131666Y-120717593D01*
X149131666Y-120717593D02*
X148998333Y-120717593D01*
X148998333Y-120717593D02*
X148931666Y-120684260D01*
X148931666Y-120684260D02*
X148898333Y-120617593D01*
X148898333Y-120617593D02*
X148898333Y-120350926D01*
X148898333Y-120350926D02*
X148931666Y-120284260D01*
X148931666Y-120284260D02*
X148998333Y-120250926D01*
X148998333Y-120250926D02*
X149131666Y-120250926D01*
X149131666Y-120250926D02*
X149198333Y-120284260D01*
X149198333Y-120284260D02*
X149231666Y-120350926D01*
X149231666Y-120350926D02*
X149231666Y-120417593D01*
X149231666Y-120417593D02*
X148898333Y-120484260D01*
X149531666Y-120717593D02*
X149531666Y-120250926D01*
X149531666Y-120384260D02*
X149565000Y-120317593D01*
X149565000Y-120317593D02*
X149598333Y-120284260D01*
X149598333Y-120284260D02*
X149665000Y-120250926D01*
X149665000Y-120250926D02*
X149731666Y-120250926D01*
X149798333Y-120784260D02*
X150331666Y-120784260D01*
X150898332Y-120717593D02*
X150664999Y-120384260D01*
X150498332Y-120717593D02*
X150498332Y-120017593D01*
X150498332Y-120017593D02*
X150764999Y-120017593D01*
X150764999Y-120017593D02*
X150831666Y-120050926D01*
X150831666Y-120050926D02*
X150864999Y-120084260D01*
X150864999Y-120084260D02*
X150898332Y-120150926D01*
X150898332Y-120150926D02*
X150898332Y-120250926D01*
X150898332Y-120250926D02*
X150864999Y-120317593D01*
X150864999Y-120317593D02*
X150831666Y-120350926D01*
X150831666Y-120350926D02*
X150764999Y-120384260D01*
X150764999Y-120384260D02*
X150498332Y-120384260D01*
X151131666Y-120017593D02*
X151564999Y-120017593D01*
X151564999Y-120017593D02*
X151331666Y-120284260D01*
X151331666Y-120284260D02*
X151431666Y-120284260D01*
X151431666Y-120284260D02*
X151498332Y-120317593D01*
X151498332Y-120317593D02*
X151531666Y-120350926D01*
X151531666Y-120350926D02*
X151564999Y-120417593D01*
X151564999Y-120417593D02*
X151564999Y-120584260D01*
X151564999Y-120584260D02*
X151531666Y-120650926D01*
X151531666Y-120650926D02*
X151498332Y-120684260D01*
X151498332Y-120684260D02*
X151431666Y-120717593D01*
X151431666Y-120717593D02*
X151231666Y-120717593D01*
X151231666Y-120717593D02*
X151164999Y-120684260D01*
X151164999Y-120684260D02*
X151131666Y-120650926D01*
D11*
X149566666Y-63154819D02*
X149566666Y-63869104D01*
X149566666Y-63869104D02*
X149519047Y-64011961D01*
X149519047Y-64011961D02*
X149423809Y-64107200D01*
X149423809Y-64107200D02*
X149280952Y-64154819D01*
X149280952Y-64154819D02*
X149185714Y-64154819D01*
X150185714Y-63583390D02*
X150090476Y-63535771D01*
X150090476Y-63535771D02*
X150042857Y-63488152D01*
X150042857Y-63488152D02*
X149995238Y-63392914D01*
X149995238Y-63392914D02*
X149995238Y-63345295D01*
X149995238Y-63345295D02*
X150042857Y-63250057D01*
X150042857Y-63250057D02*
X150090476Y-63202438D01*
X150090476Y-63202438D02*
X150185714Y-63154819D01*
X150185714Y-63154819D02*
X150376190Y-63154819D01*
X150376190Y-63154819D02*
X150471428Y-63202438D01*
X150471428Y-63202438D02*
X150519047Y-63250057D01*
X150519047Y-63250057D02*
X150566666Y-63345295D01*
X150566666Y-63345295D02*
X150566666Y-63392914D01*
X150566666Y-63392914D02*
X150519047Y-63488152D01*
X150519047Y-63488152D02*
X150471428Y-63535771D01*
X150471428Y-63535771D02*
X150376190Y-63583390D01*
X150376190Y-63583390D02*
X150185714Y-63583390D01*
X150185714Y-63583390D02*
X150090476Y-63631009D01*
X150090476Y-63631009D02*
X150042857Y-63678628D01*
X150042857Y-63678628D02*
X149995238Y-63773866D01*
X149995238Y-63773866D02*
X149995238Y-63964342D01*
X149995238Y-63964342D02*
X150042857Y-64059580D01*
X150042857Y-64059580D02*
X150090476Y-64107200D01*
X150090476Y-64107200D02*
X150185714Y-64154819D01*
X150185714Y-64154819D02*
X150376190Y-64154819D01*
X150376190Y-64154819D02*
X150471428Y-64107200D01*
X150471428Y-64107200D02*
X150519047Y-64059580D01*
X150519047Y-64059580D02*
X150566666Y-63964342D01*
X150566666Y-63964342D02*
X150566666Y-63773866D01*
X150566666Y-63773866D02*
X150519047Y-63678628D01*
X150519047Y-63678628D02*
X150471428Y-63631009D01*
X150471428Y-63631009D02*
X150376190Y-63583390D01*
X112098333Y-101114580D02*
X112050714Y-101162200D01*
X112050714Y-101162200D02*
X111907857Y-101209819D01*
X111907857Y-101209819D02*
X111812619Y-101209819D01*
X111812619Y-101209819D02*
X111669762Y-101162200D01*
X111669762Y-101162200D02*
X111574524Y-101066961D01*
X111574524Y-101066961D02*
X111526905Y-100971723D01*
X111526905Y-100971723D02*
X111479286Y-100781247D01*
X111479286Y-100781247D02*
X111479286Y-100638390D01*
X111479286Y-100638390D02*
X111526905Y-100447914D01*
X111526905Y-100447914D02*
X111574524Y-100352676D01*
X111574524Y-100352676D02*
X111669762Y-100257438D01*
X111669762Y-100257438D02*
X111812619Y-100209819D01*
X111812619Y-100209819D02*
X111907857Y-100209819D01*
X111907857Y-100209819D02*
X112050714Y-100257438D01*
X112050714Y-100257438D02*
X112098333Y-100305057D01*
X113050714Y-101209819D02*
X112479286Y-101209819D01*
X112765000Y-101209819D02*
X112765000Y-100209819D01*
X112765000Y-100209819D02*
X112669762Y-100352676D01*
X112669762Y-100352676D02*
X112574524Y-100447914D01*
X112574524Y-100447914D02*
X112479286Y-100495533D01*
D13*
X110398333Y-125967593D02*
X110798333Y-125967593D01*
X110598333Y-126667593D02*
X110598333Y-125967593D01*
X111298333Y-126634260D02*
X111231666Y-126667593D01*
X111231666Y-126667593D02*
X111098333Y-126667593D01*
X111098333Y-126667593D02*
X111031666Y-126634260D01*
X111031666Y-126634260D02*
X110998333Y-126567593D01*
X110998333Y-126567593D02*
X110998333Y-126300926D01*
X110998333Y-126300926D02*
X111031666Y-126234260D01*
X111031666Y-126234260D02*
X111098333Y-126200926D01*
X111098333Y-126200926D02*
X111231666Y-126200926D01*
X111231666Y-126200926D02*
X111298333Y-126234260D01*
X111298333Y-126234260D02*
X111331666Y-126300926D01*
X111331666Y-126300926D02*
X111331666Y-126367593D01*
X111331666Y-126367593D02*
X110998333Y-126434260D01*
X111631666Y-126667593D02*
X111631666Y-126200926D01*
X111631666Y-126334260D02*
X111665000Y-126267593D01*
X111665000Y-126267593D02*
X111698333Y-126234260D01*
X111698333Y-126234260D02*
X111765000Y-126200926D01*
X111765000Y-126200926D02*
X111831666Y-126200926D01*
X111898333Y-126734260D02*
X112431666Y-126734260D01*
X112998332Y-126667593D02*
X112764999Y-126334260D01*
X112598332Y-126667593D02*
X112598332Y-125967593D01*
X112598332Y-125967593D02*
X112864999Y-125967593D01*
X112864999Y-125967593D02*
X112931666Y-126000926D01*
X112931666Y-126000926D02*
X112964999Y-126034260D01*
X112964999Y-126034260D02*
X112998332Y-126100926D01*
X112998332Y-126100926D02*
X112998332Y-126200926D01*
X112998332Y-126200926D02*
X112964999Y-126267593D01*
X112964999Y-126267593D02*
X112931666Y-126300926D01*
X112931666Y-126300926D02*
X112864999Y-126334260D01*
X112864999Y-126334260D02*
X112598332Y-126334260D01*
X113398332Y-126267593D02*
X113331666Y-126234260D01*
X113331666Y-126234260D02*
X113298332Y-126200926D01*
X113298332Y-126200926D02*
X113264999Y-126134260D01*
X113264999Y-126134260D02*
X113264999Y-126100926D01*
X113264999Y-126100926D02*
X113298332Y-126034260D01*
X113298332Y-126034260D02*
X113331666Y-126000926D01*
X113331666Y-126000926D02*
X113398332Y-125967593D01*
X113398332Y-125967593D02*
X113531666Y-125967593D01*
X113531666Y-125967593D02*
X113598332Y-126000926D01*
X113598332Y-126000926D02*
X113631666Y-126034260D01*
X113631666Y-126034260D02*
X113664999Y-126100926D01*
X113664999Y-126100926D02*
X113664999Y-126134260D01*
X113664999Y-126134260D02*
X113631666Y-126200926D01*
X113631666Y-126200926D02*
X113598332Y-126234260D01*
X113598332Y-126234260D02*
X113531666Y-126267593D01*
X113531666Y-126267593D02*
X113398332Y-126267593D01*
X113398332Y-126267593D02*
X113331666Y-126300926D01*
X113331666Y-126300926D02*
X113298332Y-126334260D01*
X113298332Y-126334260D02*
X113264999Y-126400926D01*
X113264999Y-126400926D02*
X113264999Y-126534260D01*
X113264999Y-126534260D02*
X113298332Y-126600926D01*
X113298332Y-126600926D02*
X113331666Y-126634260D01*
X113331666Y-126634260D02*
X113398332Y-126667593D01*
X113398332Y-126667593D02*
X113531666Y-126667593D01*
X113531666Y-126667593D02*
X113598332Y-126634260D01*
X113598332Y-126634260D02*
X113631666Y-126600926D01*
X113631666Y-126600926D02*
X113664999Y-126534260D01*
X113664999Y-126534260D02*
X113664999Y-126400926D01*
X113664999Y-126400926D02*
X113631666Y-126334260D01*
X113631666Y-126334260D02*
X113598332Y-126300926D01*
X113598332Y-126300926D02*
X113531666Y-126267593D01*
D11*
X153838095Y-91854819D02*
X153838095Y-92664342D01*
X153838095Y-92664342D02*
X153885714Y-92759580D01*
X153885714Y-92759580D02*
X153933333Y-92807200D01*
X153933333Y-92807200D02*
X154028571Y-92854819D01*
X154028571Y-92854819D02*
X154219047Y-92854819D01*
X154219047Y-92854819D02*
X154314285Y-92807200D01*
X154314285Y-92807200D02*
X154361904Y-92759580D01*
X154361904Y-92759580D02*
X154409523Y-92664342D01*
X154409523Y-92664342D02*
X154409523Y-91854819D01*
X155409523Y-92854819D02*
X154838095Y-92854819D01*
X155123809Y-92854819D02*
X155123809Y-91854819D01*
X155123809Y-91854819D02*
X155028571Y-91997676D01*
X155028571Y-91997676D02*
X154933333Y-92092914D01*
X154933333Y-92092914D02*
X154838095Y-92140533D01*
D13*
X145591667Y-122250926D02*
X145558334Y-122284260D01*
X145558334Y-122284260D02*
X145458334Y-122317593D01*
X145458334Y-122317593D02*
X145391667Y-122317593D01*
X145391667Y-122317593D02*
X145291667Y-122284260D01*
X145291667Y-122284260D02*
X145225001Y-122217593D01*
X145225001Y-122217593D02*
X145191667Y-122150926D01*
X145191667Y-122150926D02*
X145158334Y-122017593D01*
X145158334Y-122017593D02*
X145158334Y-121917593D01*
X145158334Y-121917593D02*
X145191667Y-121784260D01*
X145191667Y-121784260D02*
X145225001Y-121717593D01*
X145225001Y-121717593D02*
X145291667Y-121650926D01*
X145291667Y-121650926D02*
X145391667Y-121617593D01*
X145391667Y-121617593D02*
X145458334Y-121617593D01*
X145458334Y-121617593D02*
X145558334Y-121650926D01*
X145558334Y-121650926D02*
X145591667Y-121684260D01*
X145858334Y-122117593D02*
X146191667Y-122117593D01*
X145791667Y-122317593D02*
X146025001Y-121617593D01*
X146025001Y-121617593D02*
X146258334Y-122317593D01*
X146491667Y-122317593D02*
X146491667Y-121617593D01*
X146491667Y-121617593D02*
X146891667Y-122317593D01*
X146891667Y-122317593D02*
X146891667Y-121617593D01*
X147225000Y-122317593D02*
X147225000Y-121617593D01*
X147225000Y-121950926D02*
X147625000Y-121950926D01*
X147625000Y-122317593D02*
X147625000Y-121617593D01*
X147791667Y-122384260D02*
X148325000Y-122384260D01*
X148691666Y-121617593D02*
X148691666Y-122117593D01*
X148691666Y-122117593D02*
X148658333Y-122217593D01*
X148658333Y-122217593D02*
X148591666Y-122284260D01*
X148591666Y-122284260D02*
X148491666Y-122317593D01*
X148491666Y-122317593D02*
X148425000Y-122317593D01*
X148991666Y-121684260D02*
X149024999Y-121650926D01*
X149024999Y-121650926D02*
X149091666Y-121617593D01*
X149091666Y-121617593D02*
X149258333Y-121617593D01*
X149258333Y-121617593D02*
X149324999Y-121650926D01*
X149324999Y-121650926D02*
X149358333Y-121684260D01*
X149358333Y-121684260D02*
X149391666Y-121750926D01*
X149391666Y-121750926D02*
X149391666Y-121817593D01*
X149391666Y-121817593D02*
X149358333Y-121917593D01*
X149358333Y-121917593D02*
X148958333Y-122317593D01*
X148958333Y-122317593D02*
X149391666Y-122317593D01*
D11*
X154076191Y-98827200D02*
X154219048Y-98874819D01*
X154219048Y-98874819D02*
X154457143Y-98874819D01*
X154457143Y-98874819D02*
X154552381Y-98827200D01*
X154552381Y-98827200D02*
X154600000Y-98779580D01*
X154600000Y-98779580D02*
X154647619Y-98684342D01*
X154647619Y-98684342D02*
X154647619Y-98589104D01*
X154647619Y-98589104D02*
X154600000Y-98493866D01*
X154600000Y-98493866D02*
X154552381Y-98446247D01*
X154552381Y-98446247D02*
X154457143Y-98398628D01*
X154457143Y-98398628D02*
X154266667Y-98351009D01*
X154266667Y-98351009D02*
X154171429Y-98303390D01*
X154171429Y-98303390D02*
X154123810Y-98255771D01*
X154123810Y-98255771D02*
X154076191Y-98160533D01*
X154076191Y-98160533D02*
X154076191Y-98065295D01*
X154076191Y-98065295D02*
X154123810Y-97970057D01*
X154123810Y-97970057D02*
X154171429Y-97922438D01*
X154171429Y-97922438D02*
X154266667Y-97874819D01*
X154266667Y-97874819D02*
X154504762Y-97874819D01*
X154504762Y-97874819D02*
X154647619Y-97922438D01*
X155076191Y-97874819D02*
X155076191Y-98684342D01*
X155076191Y-98684342D02*
X155123810Y-98779580D01*
X155123810Y-98779580D02*
X155171429Y-98827200D01*
X155171429Y-98827200D02*
X155266667Y-98874819D01*
X155266667Y-98874819D02*
X155457143Y-98874819D01*
X155457143Y-98874819D02*
X155552381Y-98827200D01*
X155552381Y-98827200D02*
X155600000Y-98779580D01*
X155600000Y-98779580D02*
X155647619Y-98684342D01*
X155647619Y-98684342D02*
X155647619Y-97874819D01*
X156457143Y-98351009D02*
X156600000Y-98398628D01*
X156600000Y-98398628D02*
X156647619Y-98446247D01*
X156647619Y-98446247D02*
X156695238Y-98541485D01*
X156695238Y-98541485D02*
X156695238Y-98684342D01*
X156695238Y-98684342D02*
X156647619Y-98779580D01*
X156647619Y-98779580D02*
X156600000Y-98827200D01*
X156600000Y-98827200D02*
X156504762Y-98874819D01*
X156504762Y-98874819D02*
X156123810Y-98874819D01*
X156123810Y-98874819D02*
X156123810Y-97874819D01*
X156123810Y-97874819D02*
X156457143Y-97874819D01*
X156457143Y-97874819D02*
X156552381Y-97922438D01*
X156552381Y-97922438D02*
X156600000Y-97970057D01*
X156600000Y-97970057D02*
X156647619Y-98065295D01*
X156647619Y-98065295D02*
X156647619Y-98160533D01*
X156647619Y-98160533D02*
X156600000Y-98255771D01*
X156600000Y-98255771D02*
X156552381Y-98303390D01*
X156552381Y-98303390D02*
X156457143Y-98351009D01*
X156457143Y-98351009D02*
X156123810Y-98351009D01*
X157123810Y-98779580D02*
X157171429Y-98827200D01*
X157171429Y-98827200D02*
X157123810Y-98874819D01*
X157123810Y-98874819D02*
X157076191Y-98827200D01*
X157076191Y-98827200D02*
X157123810Y-98779580D01*
X157123810Y-98779580D02*
X157123810Y-98874819D01*
X157123810Y-98255771D02*
X157171429Y-98303390D01*
X157171429Y-98303390D02*
X157123810Y-98351009D01*
X157123810Y-98351009D02*
X157076191Y-98303390D01*
X157076191Y-98303390D02*
X157123810Y-98255771D01*
X157123810Y-98255771D02*
X157123810Y-98351009D01*
X158171428Y-98874819D02*
X157838095Y-98398628D01*
X157600000Y-98874819D02*
X157600000Y-97874819D01*
X157600000Y-97874819D02*
X157980952Y-97874819D01*
X157980952Y-97874819D02*
X158076190Y-97922438D01*
X158076190Y-97922438D02*
X158123809Y-97970057D01*
X158123809Y-97970057D02*
X158171428Y-98065295D01*
X158171428Y-98065295D02*
X158171428Y-98208152D01*
X158171428Y-98208152D02*
X158123809Y-98303390D01*
X158123809Y-98303390D02*
X158076190Y-98351009D01*
X158076190Y-98351009D02*
X157980952Y-98398628D01*
X157980952Y-98398628D02*
X157600000Y-98398628D01*
X158552381Y-97970057D02*
X158600000Y-97922438D01*
X158600000Y-97922438D02*
X158695238Y-97874819D01*
X158695238Y-97874819D02*
X158933333Y-97874819D01*
X158933333Y-97874819D02*
X159028571Y-97922438D01*
X159028571Y-97922438D02*
X159076190Y-97970057D01*
X159076190Y-97970057D02*
X159123809Y-98065295D01*
X159123809Y-98065295D02*
X159123809Y-98160533D01*
X159123809Y-98160533D02*
X159076190Y-98303390D01*
X159076190Y-98303390D02*
X158504762Y-98874819D01*
X158504762Y-98874819D02*
X159123809Y-98874819D01*
X156852381Y-76954819D02*
X156852381Y-75954819D01*
X156852381Y-75954819D02*
X157185714Y-76669104D01*
X157185714Y-76669104D02*
X157519047Y-75954819D01*
X157519047Y-75954819D02*
X157519047Y-76954819D01*
X157995238Y-76859580D02*
X158042857Y-76907200D01*
X158042857Y-76907200D02*
X157995238Y-76954819D01*
X157995238Y-76954819D02*
X157947619Y-76907200D01*
X157947619Y-76907200D02*
X157995238Y-76859580D01*
X157995238Y-76859580D02*
X157995238Y-76954819D01*
X157995238Y-76335771D02*
X158042857Y-76383390D01*
X158042857Y-76383390D02*
X157995238Y-76431009D01*
X157995238Y-76431009D02*
X157947619Y-76383390D01*
X157947619Y-76383390D02*
X157995238Y-76335771D01*
X157995238Y-76335771D02*
X157995238Y-76431009D01*
X159042856Y-76859580D02*
X158995237Y-76907200D01*
X158995237Y-76907200D02*
X158852380Y-76954819D01*
X158852380Y-76954819D02*
X158757142Y-76954819D01*
X158757142Y-76954819D02*
X158614285Y-76907200D01*
X158614285Y-76907200D02*
X158519047Y-76811961D01*
X158519047Y-76811961D02*
X158471428Y-76716723D01*
X158471428Y-76716723D02*
X158423809Y-76526247D01*
X158423809Y-76526247D02*
X158423809Y-76383390D01*
X158423809Y-76383390D02*
X158471428Y-76192914D01*
X158471428Y-76192914D02*
X158519047Y-76097676D01*
X158519047Y-76097676D02*
X158614285Y-76002438D01*
X158614285Y-76002438D02*
X158757142Y-75954819D01*
X158757142Y-75954819D02*
X158852380Y-75954819D01*
X158852380Y-75954819D02*
X158995237Y-76002438D01*
X158995237Y-76002438D02*
X159042856Y-76050057D01*
X159376190Y-75954819D02*
X160042856Y-75954819D01*
X160042856Y-75954819D02*
X159614285Y-76954819D01*
D13*
X166885833Y-120017593D02*
X167285833Y-120017593D01*
X167085833Y-120717593D02*
X167085833Y-120017593D01*
X167785833Y-120684260D02*
X167719166Y-120717593D01*
X167719166Y-120717593D02*
X167585833Y-120717593D01*
X167585833Y-120717593D02*
X167519166Y-120684260D01*
X167519166Y-120684260D02*
X167485833Y-120617593D01*
X167485833Y-120617593D02*
X167485833Y-120350926D01*
X167485833Y-120350926D02*
X167519166Y-120284260D01*
X167519166Y-120284260D02*
X167585833Y-120250926D01*
X167585833Y-120250926D02*
X167719166Y-120250926D01*
X167719166Y-120250926D02*
X167785833Y-120284260D01*
X167785833Y-120284260D02*
X167819166Y-120350926D01*
X167819166Y-120350926D02*
X167819166Y-120417593D01*
X167819166Y-120417593D02*
X167485833Y-120484260D01*
X168119166Y-120717593D02*
X168119166Y-120250926D01*
X168119166Y-120384260D02*
X168152500Y-120317593D01*
X168152500Y-120317593D02*
X168185833Y-120284260D01*
X168185833Y-120284260D02*
X168252500Y-120250926D01*
X168252500Y-120250926D02*
X168319166Y-120250926D01*
X168385833Y-120784260D02*
X168919166Y-120784260D01*
X169485832Y-120717593D02*
X169252499Y-120384260D01*
X169085832Y-120717593D02*
X169085832Y-120017593D01*
X169085832Y-120017593D02*
X169352499Y-120017593D01*
X169352499Y-120017593D02*
X169419166Y-120050926D01*
X169419166Y-120050926D02*
X169452499Y-120084260D01*
X169452499Y-120084260D02*
X169485832Y-120150926D01*
X169485832Y-120150926D02*
X169485832Y-120250926D01*
X169485832Y-120250926D02*
X169452499Y-120317593D01*
X169452499Y-120317593D02*
X169419166Y-120350926D01*
X169419166Y-120350926D02*
X169352499Y-120384260D01*
X169352499Y-120384260D02*
X169085832Y-120384260D01*
X170119166Y-120017593D02*
X169785832Y-120017593D01*
X169785832Y-120017593D02*
X169752499Y-120350926D01*
X169752499Y-120350926D02*
X169785832Y-120317593D01*
X169785832Y-120317593D02*
X169852499Y-120284260D01*
X169852499Y-120284260D02*
X170019166Y-120284260D01*
X170019166Y-120284260D02*
X170085832Y-120317593D01*
X170085832Y-120317593D02*
X170119166Y-120350926D01*
X170119166Y-120350926D02*
X170152499Y-120417593D01*
X170152499Y-120417593D02*
X170152499Y-120584260D01*
X170152499Y-120584260D02*
X170119166Y-120650926D01*
X170119166Y-120650926D02*
X170085832Y-120684260D01*
X170085832Y-120684260D02*
X170019166Y-120717593D01*
X170019166Y-120717593D02*
X169852499Y-120717593D01*
X169852499Y-120717593D02*
X169785832Y-120684260D01*
X169785832Y-120684260D02*
X169752499Y-120650926D01*
D11*
X126966666Y-63124819D02*
X126966666Y-63839104D01*
X126966666Y-63839104D02*
X126919047Y-63981961D01*
X126919047Y-63981961D02*
X126823809Y-64077200D01*
X126823809Y-64077200D02*
X126680952Y-64124819D01*
X126680952Y-64124819D02*
X126585714Y-64124819D01*
X127490476Y-64124819D02*
X127680952Y-64124819D01*
X127680952Y-64124819D02*
X127776190Y-64077200D01*
X127776190Y-64077200D02*
X127823809Y-64029580D01*
X127823809Y-64029580D02*
X127919047Y-63886723D01*
X127919047Y-63886723D02*
X127966666Y-63696247D01*
X127966666Y-63696247D02*
X127966666Y-63315295D01*
X127966666Y-63315295D02*
X127919047Y-63220057D01*
X127919047Y-63220057D02*
X127871428Y-63172438D01*
X127871428Y-63172438D02*
X127776190Y-63124819D01*
X127776190Y-63124819D02*
X127585714Y-63124819D01*
X127585714Y-63124819D02*
X127490476Y-63172438D01*
X127490476Y-63172438D02*
X127442857Y-63220057D01*
X127442857Y-63220057D02*
X127395238Y-63315295D01*
X127395238Y-63315295D02*
X127395238Y-63553390D01*
X127395238Y-63553390D02*
X127442857Y-63648628D01*
X127442857Y-63648628D02*
X127490476Y-63696247D01*
X127490476Y-63696247D02*
X127585714Y-63743866D01*
X127585714Y-63743866D02*
X127776190Y-63743866D01*
X127776190Y-63743866D02*
X127871428Y-63696247D01*
X127871428Y-63696247D02*
X127919047Y-63648628D01*
X127919047Y-63648628D02*
X127966666Y-63553390D01*
D13*
X110398333Y-120017593D02*
X110798333Y-120017593D01*
X110598333Y-120717593D02*
X110598333Y-120017593D01*
X111298333Y-120684260D02*
X111231666Y-120717593D01*
X111231666Y-120717593D02*
X111098333Y-120717593D01*
X111098333Y-120717593D02*
X111031666Y-120684260D01*
X111031666Y-120684260D02*
X110998333Y-120617593D01*
X110998333Y-120617593D02*
X110998333Y-120350926D01*
X110998333Y-120350926D02*
X111031666Y-120284260D01*
X111031666Y-120284260D02*
X111098333Y-120250926D01*
X111098333Y-120250926D02*
X111231666Y-120250926D01*
X111231666Y-120250926D02*
X111298333Y-120284260D01*
X111298333Y-120284260D02*
X111331666Y-120350926D01*
X111331666Y-120350926D02*
X111331666Y-120417593D01*
X111331666Y-120417593D02*
X110998333Y-120484260D01*
X111631666Y-120717593D02*
X111631666Y-120250926D01*
X111631666Y-120384260D02*
X111665000Y-120317593D01*
X111665000Y-120317593D02*
X111698333Y-120284260D01*
X111698333Y-120284260D02*
X111765000Y-120250926D01*
X111765000Y-120250926D02*
X111831666Y-120250926D01*
X111898333Y-120784260D02*
X112431666Y-120784260D01*
X112998332Y-120717593D02*
X112764999Y-120384260D01*
X112598332Y-120717593D02*
X112598332Y-120017593D01*
X112598332Y-120017593D02*
X112864999Y-120017593D01*
X112864999Y-120017593D02*
X112931666Y-120050926D01*
X112931666Y-120050926D02*
X112964999Y-120084260D01*
X112964999Y-120084260D02*
X112998332Y-120150926D01*
X112998332Y-120150926D02*
X112998332Y-120250926D01*
X112998332Y-120250926D02*
X112964999Y-120317593D01*
X112964999Y-120317593D02*
X112931666Y-120350926D01*
X112931666Y-120350926D02*
X112864999Y-120384260D01*
X112864999Y-120384260D02*
X112598332Y-120384260D01*
X113231666Y-120017593D02*
X113698332Y-120017593D01*
X113698332Y-120017593D02*
X113398332Y-120717593D01*
D11*
X153107200Y-75604761D02*
X153154819Y-75461904D01*
X153154819Y-75461904D02*
X153154819Y-75223809D01*
X153154819Y-75223809D02*
X153107200Y-75128571D01*
X153107200Y-75128571D02*
X153059580Y-75080952D01*
X153059580Y-75080952D02*
X152964342Y-75033333D01*
X152964342Y-75033333D02*
X152869104Y-75033333D01*
X152869104Y-75033333D02*
X152773866Y-75080952D01*
X152773866Y-75080952D02*
X152726247Y-75128571D01*
X152726247Y-75128571D02*
X152678628Y-75223809D01*
X152678628Y-75223809D02*
X152631009Y-75414285D01*
X152631009Y-75414285D02*
X152583390Y-75509523D01*
X152583390Y-75509523D02*
X152535771Y-75557142D01*
X152535771Y-75557142D02*
X152440533Y-75604761D01*
X152440533Y-75604761D02*
X152345295Y-75604761D01*
X152345295Y-75604761D02*
X152250057Y-75557142D01*
X152250057Y-75557142D02*
X152202438Y-75509523D01*
X152202438Y-75509523D02*
X152154819Y-75414285D01*
X152154819Y-75414285D02*
X152154819Y-75176190D01*
X152154819Y-75176190D02*
X152202438Y-75033333D01*
X152154819Y-74604761D02*
X152964342Y-74604761D01*
X152964342Y-74604761D02*
X153059580Y-74557142D01*
X153059580Y-74557142D02*
X153107200Y-74509523D01*
X153107200Y-74509523D02*
X153154819Y-74414285D01*
X153154819Y-74414285D02*
X153154819Y-74223809D01*
X153154819Y-74223809D02*
X153107200Y-74128571D01*
X153107200Y-74128571D02*
X153059580Y-74080952D01*
X153059580Y-74080952D02*
X152964342Y-74033333D01*
X152964342Y-74033333D02*
X152154819Y-74033333D01*
X152631009Y-73223809D02*
X152678628Y-73080952D01*
X152678628Y-73080952D02*
X152726247Y-73033333D01*
X152726247Y-73033333D02*
X152821485Y-72985714D01*
X152821485Y-72985714D02*
X152964342Y-72985714D01*
X152964342Y-72985714D02*
X153059580Y-73033333D01*
X153059580Y-73033333D02*
X153107200Y-73080952D01*
X153107200Y-73080952D02*
X153154819Y-73176190D01*
X153154819Y-73176190D02*
X153154819Y-73557142D01*
X153154819Y-73557142D02*
X152154819Y-73557142D01*
X152154819Y-73557142D02*
X152154819Y-73223809D01*
X152154819Y-73223809D02*
X152202438Y-73128571D01*
X152202438Y-73128571D02*
X152250057Y-73080952D01*
X152250057Y-73080952D02*
X152345295Y-73033333D01*
X152345295Y-73033333D02*
X152440533Y-73033333D01*
X152440533Y-73033333D02*
X152535771Y-73080952D01*
X152535771Y-73080952D02*
X152583390Y-73128571D01*
X152583390Y-73128571D02*
X152631009Y-73223809D01*
X152631009Y-73223809D02*
X152631009Y-73557142D01*
X153059580Y-72557142D02*
X153107200Y-72509523D01*
X153107200Y-72509523D02*
X153154819Y-72557142D01*
X153154819Y-72557142D02*
X153107200Y-72604761D01*
X153107200Y-72604761D02*
X153059580Y-72557142D01*
X153059580Y-72557142D02*
X153154819Y-72557142D01*
X152535771Y-72557142D02*
X152583390Y-72509523D01*
X152583390Y-72509523D02*
X152631009Y-72557142D01*
X152631009Y-72557142D02*
X152583390Y-72604761D01*
X152583390Y-72604761D02*
X152535771Y-72557142D01*
X152535771Y-72557142D02*
X152631009Y-72557142D01*
X152154819Y-71795238D02*
X152869104Y-71795238D01*
X152869104Y-71795238D02*
X153011961Y-71842857D01*
X153011961Y-71842857D02*
X153107200Y-71938095D01*
X153107200Y-71938095D02*
X153154819Y-72080952D01*
X153154819Y-72080952D02*
X153154819Y-72176190D01*
X152154819Y-70842857D02*
X152154819Y-71319047D01*
X152154819Y-71319047D02*
X152631009Y-71366666D01*
X152631009Y-71366666D02*
X152583390Y-71319047D01*
X152583390Y-71319047D02*
X152535771Y-71223809D01*
X152535771Y-71223809D02*
X152535771Y-70985714D01*
X152535771Y-70985714D02*
X152583390Y-70890476D01*
X152583390Y-70890476D02*
X152631009Y-70842857D01*
X152631009Y-70842857D02*
X152726247Y-70795238D01*
X152726247Y-70795238D02*
X152964342Y-70795238D01*
X152964342Y-70795238D02*
X153059580Y-70842857D01*
X153059580Y-70842857D02*
X153107200Y-70890476D01*
X153107200Y-70890476D02*
X153154819Y-70985714D01*
X153154819Y-70985714D02*
X153154819Y-71223809D01*
X153154819Y-71223809D02*
X153107200Y-71319047D01*
X153107200Y-71319047D02*
X153059580Y-71366666D01*
X170166666Y-92154819D02*
X170166666Y-92869104D01*
X170166666Y-92869104D02*
X170119047Y-93011961D01*
X170119047Y-93011961D02*
X170023809Y-93107200D01*
X170023809Y-93107200D02*
X169880952Y-93154819D01*
X169880952Y-93154819D02*
X169785714Y-93154819D01*
X170595238Y-92250057D02*
X170642857Y-92202438D01*
X170642857Y-92202438D02*
X170738095Y-92154819D01*
X170738095Y-92154819D02*
X170976190Y-92154819D01*
X170976190Y-92154819D02*
X171071428Y-92202438D01*
X171071428Y-92202438D02*
X171119047Y-92250057D01*
X171119047Y-92250057D02*
X171166666Y-92345295D01*
X171166666Y-92345295D02*
X171166666Y-92440533D01*
X171166666Y-92440533D02*
X171119047Y-92583390D01*
X171119047Y-92583390D02*
X170547619Y-93154819D01*
X170547619Y-93154819D02*
X171166666Y-93154819D01*
X160314881Y-64324819D02*
X160314881Y-63324819D01*
X160314881Y-63324819D02*
X160648214Y-64039104D01*
X160648214Y-64039104D02*
X160981547Y-63324819D01*
X160981547Y-63324819D02*
X160981547Y-64324819D01*
X161457738Y-64229580D02*
X161505357Y-64277200D01*
X161505357Y-64277200D02*
X161457738Y-64324819D01*
X161457738Y-64324819D02*
X161410119Y-64277200D01*
X161410119Y-64277200D02*
X161457738Y-64229580D01*
X161457738Y-64229580D02*
X161457738Y-64324819D01*
X161457738Y-63705771D02*
X161505357Y-63753390D01*
X161505357Y-63753390D02*
X161457738Y-63801009D01*
X161457738Y-63801009D02*
X161410119Y-63753390D01*
X161410119Y-63753390D02*
X161457738Y-63705771D01*
X161457738Y-63705771D02*
X161457738Y-63801009D01*
X162505356Y-64229580D02*
X162457737Y-64277200D01*
X162457737Y-64277200D02*
X162314880Y-64324819D01*
X162314880Y-64324819D02*
X162219642Y-64324819D01*
X162219642Y-64324819D02*
X162076785Y-64277200D01*
X162076785Y-64277200D02*
X161981547Y-64181961D01*
X161981547Y-64181961D02*
X161933928Y-64086723D01*
X161933928Y-64086723D02*
X161886309Y-63896247D01*
X161886309Y-63896247D02*
X161886309Y-63753390D01*
X161886309Y-63753390D02*
X161933928Y-63562914D01*
X161933928Y-63562914D02*
X161981547Y-63467676D01*
X161981547Y-63467676D02*
X162076785Y-63372438D01*
X162076785Y-63372438D02*
X162219642Y-63324819D01*
X162219642Y-63324819D02*
X162314880Y-63324819D01*
X162314880Y-63324819D02*
X162457737Y-63372438D01*
X162457737Y-63372438D02*
X162505356Y-63420057D01*
X163362499Y-63324819D02*
X163172023Y-63324819D01*
X163172023Y-63324819D02*
X163076785Y-63372438D01*
X163076785Y-63372438D02*
X163029166Y-63420057D01*
X163029166Y-63420057D02*
X162933928Y-63562914D01*
X162933928Y-63562914D02*
X162886309Y-63753390D01*
X162886309Y-63753390D02*
X162886309Y-64134342D01*
X162886309Y-64134342D02*
X162933928Y-64229580D01*
X162933928Y-64229580D02*
X162981547Y-64277200D01*
X162981547Y-64277200D02*
X163076785Y-64324819D01*
X163076785Y-64324819D02*
X163267261Y-64324819D01*
X163267261Y-64324819D02*
X163362499Y-64277200D01*
X163362499Y-64277200D02*
X163410118Y-64229580D01*
X163410118Y-64229580D02*
X163457737Y-64134342D01*
X163457737Y-64134342D02*
X163457737Y-63896247D01*
X163457737Y-63896247D02*
X163410118Y-63801009D01*
X163410118Y-63801009D02*
X163362499Y-63753390D01*
X163362499Y-63753390D02*
X163267261Y-63705771D01*
X163267261Y-63705771D02*
X163076785Y-63705771D01*
X163076785Y-63705771D02*
X162981547Y-63753390D01*
X162981547Y-63753390D02*
X162933928Y-63801009D01*
X162933928Y-63801009D02*
X162886309Y-63896247D01*
D13*
X128083333Y-123750926D02*
X128050000Y-123784260D01*
X128050000Y-123784260D02*
X127950000Y-123817593D01*
X127950000Y-123817593D02*
X127883333Y-123817593D01*
X127883333Y-123817593D02*
X127783333Y-123784260D01*
X127783333Y-123784260D02*
X127716667Y-123717593D01*
X127716667Y-123717593D02*
X127683333Y-123650926D01*
X127683333Y-123650926D02*
X127650000Y-123517593D01*
X127650000Y-123517593D02*
X127650000Y-123417593D01*
X127650000Y-123417593D02*
X127683333Y-123284260D01*
X127683333Y-123284260D02*
X127716667Y-123217593D01*
X127716667Y-123217593D02*
X127783333Y-123150926D01*
X127783333Y-123150926D02*
X127883333Y-123117593D01*
X127883333Y-123117593D02*
X127950000Y-123117593D01*
X127950000Y-123117593D02*
X128050000Y-123150926D01*
X128050000Y-123150926D02*
X128083333Y-123184260D01*
X128316667Y-123117593D02*
X128750000Y-123117593D01*
X128750000Y-123117593D02*
X128516667Y-123384260D01*
X128516667Y-123384260D02*
X128616667Y-123384260D01*
X128616667Y-123384260D02*
X128683333Y-123417593D01*
X128683333Y-123417593D02*
X128716667Y-123450926D01*
X128716667Y-123450926D02*
X128750000Y-123517593D01*
X128750000Y-123517593D02*
X128750000Y-123684260D01*
X128750000Y-123684260D02*
X128716667Y-123750926D01*
X128716667Y-123750926D02*
X128683333Y-123784260D01*
X128683333Y-123784260D02*
X128616667Y-123817593D01*
X128616667Y-123817593D02*
X128416667Y-123817593D01*
X128416667Y-123817593D02*
X128350000Y-123784260D01*
X128350000Y-123784260D02*
X128316667Y-123750926D01*
D11*
X159027200Y-86913808D02*
X159074819Y-86770951D01*
X159074819Y-86770951D02*
X159074819Y-86532856D01*
X159074819Y-86532856D02*
X159027200Y-86437618D01*
X159027200Y-86437618D02*
X158979580Y-86389999D01*
X158979580Y-86389999D02*
X158884342Y-86342380D01*
X158884342Y-86342380D02*
X158789104Y-86342380D01*
X158789104Y-86342380D02*
X158693866Y-86389999D01*
X158693866Y-86389999D02*
X158646247Y-86437618D01*
X158646247Y-86437618D02*
X158598628Y-86532856D01*
X158598628Y-86532856D02*
X158551009Y-86723332D01*
X158551009Y-86723332D02*
X158503390Y-86818570D01*
X158503390Y-86818570D02*
X158455771Y-86866189D01*
X158455771Y-86866189D02*
X158360533Y-86913808D01*
X158360533Y-86913808D02*
X158265295Y-86913808D01*
X158265295Y-86913808D02*
X158170057Y-86866189D01*
X158170057Y-86866189D02*
X158122438Y-86818570D01*
X158122438Y-86818570D02*
X158074819Y-86723332D01*
X158074819Y-86723332D02*
X158074819Y-86485237D01*
X158074819Y-86485237D02*
X158122438Y-86342380D01*
X158074819Y-85913808D02*
X158884342Y-85913808D01*
X158884342Y-85913808D02*
X158979580Y-85866189D01*
X158979580Y-85866189D02*
X159027200Y-85818570D01*
X159027200Y-85818570D02*
X159074819Y-85723332D01*
X159074819Y-85723332D02*
X159074819Y-85532856D01*
X159074819Y-85532856D02*
X159027200Y-85437618D01*
X159027200Y-85437618D02*
X158979580Y-85389999D01*
X158979580Y-85389999D02*
X158884342Y-85342380D01*
X158884342Y-85342380D02*
X158074819Y-85342380D01*
X158551009Y-84532856D02*
X158598628Y-84389999D01*
X158598628Y-84389999D02*
X158646247Y-84342380D01*
X158646247Y-84342380D02*
X158741485Y-84294761D01*
X158741485Y-84294761D02*
X158884342Y-84294761D01*
X158884342Y-84294761D02*
X158979580Y-84342380D01*
X158979580Y-84342380D02*
X159027200Y-84389999D01*
X159027200Y-84389999D02*
X159074819Y-84485237D01*
X159074819Y-84485237D02*
X159074819Y-84866189D01*
X159074819Y-84866189D02*
X158074819Y-84866189D01*
X158074819Y-84866189D02*
X158074819Y-84532856D01*
X158074819Y-84532856D02*
X158122438Y-84437618D01*
X158122438Y-84437618D02*
X158170057Y-84389999D01*
X158170057Y-84389999D02*
X158265295Y-84342380D01*
X158265295Y-84342380D02*
X158360533Y-84342380D01*
X158360533Y-84342380D02*
X158455771Y-84389999D01*
X158455771Y-84389999D02*
X158503390Y-84437618D01*
X158503390Y-84437618D02*
X158551009Y-84532856D01*
X158551009Y-84532856D02*
X158551009Y-84866189D01*
X158979580Y-83866189D02*
X159027200Y-83818570D01*
X159027200Y-83818570D02*
X159074819Y-83866189D01*
X159074819Y-83866189D02*
X159027200Y-83913808D01*
X159027200Y-83913808D02*
X158979580Y-83866189D01*
X158979580Y-83866189D02*
X159074819Y-83866189D01*
X158455771Y-83866189D02*
X158503390Y-83818570D01*
X158503390Y-83818570D02*
X158551009Y-83866189D01*
X158551009Y-83866189D02*
X158503390Y-83913808D01*
X158503390Y-83913808D02*
X158455771Y-83866189D01*
X158455771Y-83866189D02*
X158551009Y-83866189D01*
X159074819Y-82818571D02*
X158598628Y-83151904D01*
X159074819Y-83389999D02*
X158074819Y-83389999D01*
X158074819Y-83389999D02*
X158074819Y-83009047D01*
X158074819Y-83009047D02*
X158122438Y-82913809D01*
X158122438Y-82913809D02*
X158170057Y-82866190D01*
X158170057Y-82866190D02*
X158265295Y-82818571D01*
X158265295Y-82818571D02*
X158408152Y-82818571D01*
X158408152Y-82818571D02*
X158503390Y-82866190D01*
X158503390Y-82866190D02*
X158551009Y-82913809D01*
X158551009Y-82913809D02*
X158598628Y-83009047D01*
X158598628Y-83009047D02*
X158598628Y-83389999D01*
X158074819Y-82485237D02*
X158074819Y-81866190D01*
X158074819Y-81866190D02*
X158455771Y-82199523D01*
X158455771Y-82199523D02*
X158455771Y-82056666D01*
X158455771Y-82056666D02*
X158503390Y-81961428D01*
X158503390Y-81961428D02*
X158551009Y-81913809D01*
X158551009Y-81913809D02*
X158646247Y-81866190D01*
X158646247Y-81866190D02*
X158884342Y-81866190D01*
X158884342Y-81866190D02*
X158979580Y-81913809D01*
X158979580Y-81913809D02*
X159027200Y-81961428D01*
X159027200Y-81961428D02*
X159074819Y-82056666D01*
X159074819Y-82056666D02*
X159074819Y-82342380D01*
X159074819Y-82342380D02*
X159027200Y-82437618D01*
X159027200Y-82437618D02*
X158979580Y-82485237D01*
D13*
X126800000Y-124950926D02*
X126766667Y-124984260D01*
X126766667Y-124984260D02*
X126666667Y-125017593D01*
X126666667Y-125017593D02*
X126600000Y-125017593D01*
X126600000Y-125017593D02*
X126500000Y-124984260D01*
X126500000Y-124984260D02*
X126433334Y-124917593D01*
X126433334Y-124917593D02*
X126400000Y-124850926D01*
X126400000Y-124850926D02*
X126366667Y-124717593D01*
X126366667Y-124717593D02*
X126366667Y-124617593D01*
X126366667Y-124617593D02*
X126400000Y-124484260D01*
X126400000Y-124484260D02*
X126433334Y-124417593D01*
X126433334Y-124417593D02*
X126500000Y-124350926D01*
X126500000Y-124350926D02*
X126600000Y-124317593D01*
X126600000Y-124317593D02*
X126666667Y-124317593D01*
X126666667Y-124317593D02*
X126766667Y-124350926D01*
X126766667Y-124350926D02*
X126800000Y-124384260D01*
X127066667Y-124817593D02*
X127400000Y-124817593D01*
X127000000Y-125017593D02*
X127233334Y-124317593D01*
X127233334Y-124317593D02*
X127466667Y-125017593D01*
X127700000Y-125017593D02*
X127700000Y-124317593D01*
X127700000Y-124317593D02*
X128100000Y-125017593D01*
X128100000Y-125017593D02*
X128100000Y-124317593D01*
X128766667Y-125017593D02*
X128433333Y-125017593D01*
X128433333Y-125017593D02*
X128433333Y-124317593D01*
X128833334Y-125084260D02*
X129366667Y-125084260D01*
X129733333Y-124317593D02*
X129733333Y-124817593D01*
X129733333Y-124817593D02*
X129700000Y-124917593D01*
X129700000Y-124917593D02*
X129633333Y-124984260D01*
X129633333Y-124984260D02*
X129533333Y-125017593D01*
X129533333Y-125017593D02*
X129466667Y-125017593D01*
X130433333Y-125017593D02*
X130033333Y-125017593D01*
X130233333Y-125017593D02*
X130233333Y-124317593D01*
X130233333Y-124317593D02*
X130166666Y-124417593D01*
X130166666Y-124417593D02*
X130100000Y-124484260D01*
X130100000Y-124484260D02*
X130033333Y-124517593D01*
D11*
X110252381Y-99454819D02*
X110252381Y-98454819D01*
X110252381Y-98454819D02*
X110585714Y-99169104D01*
X110585714Y-99169104D02*
X110919047Y-98454819D01*
X110919047Y-98454819D02*
X110919047Y-99454819D01*
X111395238Y-99359580D02*
X111442857Y-99407200D01*
X111442857Y-99407200D02*
X111395238Y-99454819D01*
X111395238Y-99454819D02*
X111347619Y-99407200D01*
X111347619Y-99407200D02*
X111395238Y-99359580D01*
X111395238Y-99359580D02*
X111395238Y-99454819D01*
X111395238Y-98835771D02*
X111442857Y-98883390D01*
X111442857Y-98883390D02*
X111395238Y-98931009D01*
X111395238Y-98931009D02*
X111347619Y-98883390D01*
X111347619Y-98883390D02*
X111395238Y-98835771D01*
X111395238Y-98835771D02*
X111395238Y-98931009D01*
X112442856Y-99359580D02*
X112395237Y-99407200D01*
X112395237Y-99407200D02*
X112252380Y-99454819D01*
X112252380Y-99454819D02*
X112157142Y-99454819D01*
X112157142Y-99454819D02*
X112014285Y-99407200D01*
X112014285Y-99407200D02*
X111919047Y-99311961D01*
X111919047Y-99311961D02*
X111871428Y-99216723D01*
X111871428Y-99216723D02*
X111823809Y-99026247D01*
X111823809Y-99026247D02*
X111823809Y-98883390D01*
X111823809Y-98883390D02*
X111871428Y-98692914D01*
X111871428Y-98692914D02*
X111919047Y-98597676D01*
X111919047Y-98597676D02*
X112014285Y-98502438D01*
X112014285Y-98502438D02*
X112157142Y-98454819D01*
X112157142Y-98454819D02*
X112252380Y-98454819D01*
X112252380Y-98454819D02*
X112395237Y-98502438D01*
X112395237Y-98502438D02*
X112442856Y-98550057D01*
X113395237Y-99454819D02*
X112823809Y-99454819D01*
X113109523Y-99454819D02*
X113109523Y-98454819D01*
X113109523Y-98454819D02*
X113014285Y-98597676D01*
X113014285Y-98597676D02*
X112919047Y-98692914D01*
X112919047Y-98692914D02*
X112823809Y-98740533D01*
X163686191Y-98827200D02*
X163829048Y-98874819D01*
X163829048Y-98874819D02*
X164067143Y-98874819D01*
X164067143Y-98874819D02*
X164162381Y-98827200D01*
X164162381Y-98827200D02*
X164210000Y-98779580D01*
X164210000Y-98779580D02*
X164257619Y-98684342D01*
X164257619Y-98684342D02*
X164257619Y-98589104D01*
X164257619Y-98589104D02*
X164210000Y-98493866D01*
X164210000Y-98493866D02*
X164162381Y-98446247D01*
X164162381Y-98446247D02*
X164067143Y-98398628D01*
X164067143Y-98398628D02*
X163876667Y-98351009D01*
X163876667Y-98351009D02*
X163781429Y-98303390D01*
X163781429Y-98303390D02*
X163733810Y-98255771D01*
X163733810Y-98255771D02*
X163686191Y-98160533D01*
X163686191Y-98160533D02*
X163686191Y-98065295D01*
X163686191Y-98065295D02*
X163733810Y-97970057D01*
X163733810Y-97970057D02*
X163781429Y-97922438D01*
X163781429Y-97922438D02*
X163876667Y-97874819D01*
X163876667Y-97874819D02*
X164114762Y-97874819D01*
X164114762Y-97874819D02*
X164257619Y-97922438D01*
X164686191Y-97874819D02*
X164686191Y-98684342D01*
X164686191Y-98684342D02*
X164733810Y-98779580D01*
X164733810Y-98779580D02*
X164781429Y-98827200D01*
X164781429Y-98827200D02*
X164876667Y-98874819D01*
X164876667Y-98874819D02*
X165067143Y-98874819D01*
X165067143Y-98874819D02*
X165162381Y-98827200D01*
X165162381Y-98827200D02*
X165210000Y-98779580D01*
X165210000Y-98779580D02*
X165257619Y-98684342D01*
X165257619Y-98684342D02*
X165257619Y-97874819D01*
X166067143Y-98351009D02*
X166210000Y-98398628D01*
X166210000Y-98398628D02*
X166257619Y-98446247D01*
X166257619Y-98446247D02*
X166305238Y-98541485D01*
X166305238Y-98541485D02*
X166305238Y-98684342D01*
X166305238Y-98684342D02*
X166257619Y-98779580D01*
X166257619Y-98779580D02*
X166210000Y-98827200D01*
X166210000Y-98827200D02*
X166114762Y-98874819D01*
X166114762Y-98874819D02*
X165733810Y-98874819D01*
X165733810Y-98874819D02*
X165733810Y-97874819D01*
X165733810Y-97874819D02*
X166067143Y-97874819D01*
X166067143Y-97874819D02*
X166162381Y-97922438D01*
X166162381Y-97922438D02*
X166210000Y-97970057D01*
X166210000Y-97970057D02*
X166257619Y-98065295D01*
X166257619Y-98065295D02*
X166257619Y-98160533D01*
X166257619Y-98160533D02*
X166210000Y-98255771D01*
X166210000Y-98255771D02*
X166162381Y-98303390D01*
X166162381Y-98303390D02*
X166067143Y-98351009D01*
X166067143Y-98351009D02*
X165733810Y-98351009D01*
X166733810Y-98779580D02*
X166781429Y-98827200D01*
X166781429Y-98827200D02*
X166733810Y-98874819D01*
X166733810Y-98874819D02*
X166686191Y-98827200D01*
X166686191Y-98827200D02*
X166733810Y-98779580D01*
X166733810Y-98779580D02*
X166733810Y-98874819D01*
X166733810Y-98255771D02*
X166781429Y-98303390D01*
X166781429Y-98303390D02*
X166733810Y-98351009D01*
X166733810Y-98351009D02*
X166686191Y-98303390D01*
X166686191Y-98303390D02*
X166733810Y-98255771D01*
X166733810Y-98255771D02*
X166733810Y-98351009D01*
X167781428Y-98874819D02*
X167448095Y-98398628D01*
X167210000Y-98874819D02*
X167210000Y-97874819D01*
X167210000Y-97874819D02*
X167590952Y-97874819D01*
X167590952Y-97874819D02*
X167686190Y-97922438D01*
X167686190Y-97922438D02*
X167733809Y-97970057D01*
X167733809Y-97970057D02*
X167781428Y-98065295D01*
X167781428Y-98065295D02*
X167781428Y-98208152D01*
X167781428Y-98208152D02*
X167733809Y-98303390D01*
X167733809Y-98303390D02*
X167686190Y-98351009D01*
X167686190Y-98351009D02*
X167590952Y-98398628D01*
X167590952Y-98398628D02*
X167210000Y-98398628D01*
X168733809Y-98874819D02*
X168162381Y-98874819D01*
X168448095Y-98874819D02*
X168448095Y-97874819D01*
X168448095Y-97874819D02*
X168352857Y-98017676D01*
X168352857Y-98017676D02*
X168257619Y-98112914D01*
X168257619Y-98112914D02*
X168162381Y-98160533D01*
X160314881Y-76884819D02*
X160314881Y-75884819D01*
X160314881Y-75884819D02*
X160648214Y-76599104D01*
X160648214Y-76599104D02*
X160981547Y-75884819D01*
X160981547Y-75884819D02*
X160981547Y-76884819D01*
X161457738Y-76789580D02*
X161505357Y-76837200D01*
X161505357Y-76837200D02*
X161457738Y-76884819D01*
X161457738Y-76884819D02*
X161410119Y-76837200D01*
X161410119Y-76837200D02*
X161457738Y-76789580D01*
X161457738Y-76789580D02*
X161457738Y-76884819D01*
X161457738Y-76265771D02*
X161505357Y-76313390D01*
X161505357Y-76313390D02*
X161457738Y-76361009D01*
X161457738Y-76361009D02*
X161410119Y-76313390D01*
X161410119Y-76313390D02*
X161457738Y-76265771D01*
X161457738Y-76265771D02*
X161457738Y-76361009D01*
X162505356Y-76789580D02*
X162457737Y-76837200D01*
X162457737Y-76837200D02*
X162314880Y-76884819D01*
X162314880Y-76884819D02*
X162219642Y-76884819D01*
X162219642Y-76884819D02*
X162076785Y-76837200D01*
X162076785Y-76837200D02*
X161981547Y-76741961D01*
X161981547Y-76741961D02*
X161933928Y-76646723D01*
X161933928Y-76646723D02*
X161886309Y-76456247D01*
X161886309Y-76456247D02*
X161886309Y-76313390D01*
X161886309Y-76313390D02*
X161933928Y-76122914D01*
X161933928Y-76122914D02*
X161981547Y-76027676D01*
X161981547Y-76027676D02*
X162076785Y-75932438D01*
X162076785Y-75932438D02*
X162219642Y-75884819D01*
X162219642Y-75884819D02*
X162314880Y-75884819D01*
X162314880Y-75884819D02*
X162457737Y-75932438D01*
X162457737Y-75932438D02*
X162505356Y-75980057D01*
X163076785Y-76313390D02*
X162981547Y-76265771D01*
X162981547Y-76265771D02*
X162933928Y-76218152D01*
X162933928Y-76218152D02*
X162886309Y-76122914D01*
X162886309Y-76122914D02*
X162886309Y-76075295D01*
X162886309Y-76075295D02*
X162933928Y-75980057D01*
X162933928Y-75980057D02*
X162981547Y-75932438D01*
X162981547Y-75932438D02*
X163076785Y-75884819D01*
X163076785Y-75884819D02*
X163267261Y-75884819D01*
X163267261Y-75884819D02*
X163362499Y-75932438D01*
X163362499Y-75932438D02*
X163410118Y-75980057D01*
X163410118Y-75980057D02*
X163457737Y-76075295D01*
X163457737Y-76075295D02*
X163457737Y-76122914D01*
X163457737Y-76122914D02*
X163410118Y-76218152D01*
X163410118Y-76218152D02*
X163362499Y-76265771D01*
X163362499Y-76265771D02*
X163267261Y-76313390D01*
X163267261Y-76313390D02*
X163076785Y-76313390D01*
X163076785Y-76313390D02*
X162981547Y-76361009D01*
X162981547Y-76361009D02*
X162933928Y-76408628D01*
X162933928Y-76408628D02*
X162886309Y-76503866D01*
X162886309Y-76503866D02*
X162886309Y-76694342D01*
X162886309Y-76694342D02*
X162933928Y-76789580D01*
X162933928Y-76789580D02*
X162981547Y-76837200D01*
X162981547Y-76837200D02*
X163076785Y-76884819D01*
X163076785Y-76884819D02*
X163267261Y-76884819D01*
X163267261Y-76884819D02*
X163362499Y-76837200D01*
X163362499Y-76837200D02*
X163410118Y-76789580D01*
X163410118Y-76789580D02*
X163457737Y-76694342D01*
X163457737Y-76694342D02*
X163457737Y-76503866D01*
X163457737Y-76503866D02*
X163410118Y-76408628D01*
X163410118Y-76408628D02*
X163362499Y-76361009D01*
X163362499Y-76361009D02*
X163267261Y-76313390D01*
X111898450Y-78172618D02*
X111946069Y-78029761D01*
X111946069Y-78029761D02*
X111946069Y-77791666D01*
X111946069Y-77791666D02*
X111898450Y-77696428D01*
X111898450Y-77696428D02*
X111850830Y-77648809D01*
X111850830Y-77648809D02*
X111755592Y-77601190D01*
X111755592Y-77601190D02*
X111660354Y-77601190D01*
X111660354Y-77601190D02*
X111565116Y-77648809D01*
X111565116Y-77648809D02*
X111517497Y-77696428D01*
X111517497Y-77696428D02*
X111469878Y-77791666D01*
X111469878Y-77791666D02*
X111422259Y-77982142D01*
X111422259Y-77982142D02*
X111374640Y-78077380D01*
X111374640Y-78077380D02*
X111327021Y-78124999D01*
X111327021Y-78124999D02*
X111231783Y-78172618D01*
X111231783Y-78172618D02*
X111136545Y-78172618D01*
X111136545Y-78172618D02*
X111041307Y-78124999D01*
X111041307Y-78124999D02*
X110993688Y-78077380D01*
X110993688Y-78077380D02*
X110946069Y-77982142D01*
X110946069Y-77982142D02*
X110946069Y-77744047D01*
X110946069Y-77744047D02*
X110993688Y-77601190D01*
X110946069Y-77172618D02*
X111755592Y-77172618D01*
X111755592Y-77172618D02*
X111850830Y-77124999D01*
X111850830Y-77124999D02*
X111898450Y-77077380D01*
X111898450Y-77077380D02*
X111946069Y-76982142D01*
X111946069Y-76982142D02*
X111946069Y-76791666D01*
X111946069Y-76791666D02*
X111898450Y-76696428D01*
X111898450Y-76696428D02*
X111850830Y-76648809D01*
X111850830Y-76648809D02*
X111755592Y-76601190D01*
X111755592Y-76601190D02*
X110946069Y-76601190D01*
X111422259Y-75791666D02*
X111469878Y-75648809D01*
X111469878Y-75648809D02*
X111517497Y-75601190D01*
X111517497Y-75601190D02*
X111612735Y-75553571D01*
X111612735Y-75553571D02*
X111755592Y-75553571D01*
X111755592Y-75553571D02*
X111850830Y-75601190D01*
X111850830Y-75601190D02*
X111898450Y-75648809D01*
X111898450Y-75648809D02*
X111946069Y-75744047D01*
X111946069Y-75744047D02*
X111946069Y-76124999D01*
X111946069Y-76124999D02*
X110946069Y-76124999D01*
X110946069Y-76124999D02*
X110946069Y-75791666D01*
X110946069Y-75791666D02*
X110993688Y-75696428D01*
X110993688Y-75696428D02*
X111041307Y-75648809D01*
X111041307Y-75648809D02*
X111136545Y-75601190D01*
X111136545Y-75601190D02*
X111231783Y-75601190D01*
X111231783Y-75601190D02*
X111327021Y-75648809D01*
X111327021Y-75648809D02*
X111374640Y-75696428D01*
X111374640Y-75696428D02*
X111422259Y-75791666D01*
X111422259Y-75791666D02*
X111422259Y-76124999D01*
X111850830Y-75124999D02*
X111898450Y-75077380D01*
X111898450Y-75077380D02*
X111946069Y-75124999D01*
X111946069Y-75124999D02*
X111898450Y-75172618D01*
X111898450Y-75172618D02*
X111850830Y-75124999D01*
X111850830Y-75124999D02*
X111946069Y-75124999D01*
X111327021Y-75124999D02*
X111374640Y-75077380D01*
X111374640Y-75077380D02*
X111422259Y-75124999D01*
X111422259Y-75124999D02*
X111374640Y-75172618D01*
X111374640Y-75172618D02*
X111327021Y-75124999D01*
X111327021Y-75124999D02*
X111422259Y-75124999D01*
X110946069Y-74648809D02*
X111755592Y-74648809D01*
X111755592Y-74648809D02*
X111850830Y-74601190D01*
X111850830Y-74601190D02*
X111898450Y-74553571D01*
X111898450Y-74553571D02*
X111946069Y-74458333D01*
X111946069Y-74458333D02*
X111946069Y-74267857D01*
X111946069Y-74267857D02*
X111898450Y-74172619D01*
X111898450Y-74172619D02*
X111850830Y-74125000D01*
X111850830Y-74125000D02*
X111755592Y-74077381D01*
X111755592Y-74077381D02*
X110946069Y-74077381D01*
X111041307Y-73648809D02*
X110993688Y-73601190D01*
X110993688Y-73601190D02*
X110946069Y-73505952D01*
X110946069Y-73505952D02*
X110946069Y-73267857D01*
X110946069Y-73267857D02*
X110993688Y-73172619D01*
X110993688Y-73172619D02*
X111041307Y-73125000D01*
X111041307Y-73125000D02*
X111136545Y-73077381D01*
X111136545Y-73077381D02*
X111231783Y-73077381D01*
X111231783Y-73077381D02*
X111374640Y-73125000D01*
X111374640Y-73125000D02*
X111946069Y-73696428D01*
X111946069Y-73696428D02*
X111946069Y-73077381D01*
X156839881Y-64354819D02*
X156839881Y-63354819D01*
X156839881Y-63354819D02*
X157173214Y-64069104D01*
X157173214Y-64069104D02*
X157506547Y-63354819D01*
X157506547Y-63354819D02*
X157506547Y-64354819D01*
X157982738Y-64259580D02*
X158030357Y-64307200D01*
X158030357Y-64307200D02*
X157982738Y-64354819D01*
X157982738Y-64354819D02*
X157935119Y-64307200D01*
X157935119Y-64307200D02*
X157982738Y-64259580D01*
X157982738Y-64259580D02*
X157982738Y-64354819D01*
X157982738Y-63735771D02*
X158030357Y-63783390D01*
X158030357Y-63783390D02*
X157982738Y-63831009D01*
X157982738Y-63831009D02*
X157935119Y-63783390D01*
X157935119Y-63783390D02*
X157982738Y-63735771D01*
X157982738Y-63735771D02*
X157982738Y-63831009D01*
X159030356Y-64259580D02*
X158982737Y-64307200D01*
X158982737Y-64307200D02*
X158839880Y-64354819D01*
X158839880Y-64354819D02*
X158744642Y-64354819D01*
X158744642Y-64354819D02*
X158601785Y-64307200D01*
X158601785Y-64307200D02*
X158506547Y-64211961D01*
X158506547Y-64211961D02*
X158458928Y-64116723D01*
X158458928Y-64116723D02*
X158411309Y-63926247D01*
X158411309Y-63926247D02*
X158411309Y-63783390D01*
X158411309Y-63783390D02*
X158458928Y-63592914D01*
X158458928Y-63592914D02*
X158506547Y-63497676D01*
X158506547Y-63497676D02*
X158601785Y-63402438D01*
X158601785Y-63402438D02*
X158744642Y-63354819D01*
X158744642Y-63354819D02*
X158839880Y-63354819D01*
X158839880Y-63354819D02*
X158982737Y-63402438D01*
X158982737Y-63402438D02*
X159030356Y-63450057D01*
X159935118Y-63354819D02*
X159458928Y-63354819D01*
X159458928Y-63354819D02*
X159411309Y-63831009D01*
X159411309Y-63831009D02*
X159458928Y-63783390D01*
X159458928Y-63783390D02*
X159554166Y-63735771D01*
X159554166Y-63735771D02*
X159792261Y-63735771D01*
X159792261Y-63735771D02*
X159887499Y-63783390D01*
X159887499Y-63783390D02*
X159935118Y-63831009D01*
X159935118Y-63831009D02*
X159982737Y-63926247D01*
X159982737Y-63926247D02*
X159982737Y-64164342D01*
X159982737Y-64164342D02*
X159935118Y-64259580D01*
X159935118Y-64259580D02*
X159887499Y-64307200D01*
X159887499Y-64307200D02*
X159792261Y-64354819D01*
X159792261Y-64354819D02*
X159554166Y-64354819D01*
X159554166Y-64354819D02*
X159458928Y-64307200D01*
X159458928Y-64307200D02*
X159411309Y-64259580D01*
D13*
X126816667Y-122250926D02*
X126783334Y-122284260D01*
X126783334Y-122284260D02*
X126683334Y-122317593D01*
X126683334Y-122317593D02*
X126616667Y-122317593D01*
X126616667Y-122317593D02*
X126516667Y-122284260D01*
X126516667Y-122284260D02*
X126450001Y-122217593D01*
X126450001Y-122217593D02*
X126416667Y-122150926D01*
X126416667Y-122150926D02*
X126383334Y-122017593D01*
X126383334Y-122017593D02*
X126383334Y-121917593D01*
X126383334Y-121917593D02*
X126416667Y-121784260D01*
X126416667Y-121784260D02*
X126450001Y-121717593D01*
X126450001Y-121717593D02*
X126516667Y-121650926D01*
X126516667Y-121650926D02*
X126616667Y-121617593D01*
X126616667Y-121617593D02*
X126683334Y-121617593D01*
X126683334Y-121617593D02*
X126783334Y-121650926D01*
X126783334Y-121650926D02*
X126816667Y-121684260D01*
X127083334Y-122117593D02*
X127416667Y-122117593D01*
X127016667Y-122317593D02*
X127250001Y-121617593D01*
X127250001Y-121617593D02*
X127483334Y-122317593D01*
X127716667Y-122317593D02*
X127716667Y-121617593D01*
X127716667Y-121617593D02*
X128116667Y-122317593D01*
X128116667Y-122317593D02*
X128116667Y-121617593D01*
X128450000Y-122317593D02*
X128450000Y-121617593D01*
X128450000Y-121950926D02*
X128850000Y-121950926D01*
X128850000Y-122317593D02*
X128850000Y-121617593D01*
X129016667Y-122384260D02*
X129550000Y-122384260D01*
X129916666Y-121617593D02*
X129916666Y-122117593D01*
X129916666Y-122117593D02*
X129883333Y-122217593D01*
X129883333Y-122217593D02*
X129816666Y-122284260D01*
X129816666Y-122284260D02*
X129716666Y-122317593D01*
X129716666Y-122317593D02*
X129650000Y-122317593D01*
X130616666Y-122317593D02*
X130216666Y-122317593D01*
X130416666Y-122317593D02*
X130416666Y-121617593D01*
X130416666Y-121617593D02*
X130349999Y-121717593D01*
X130349999Y-121717593D02*
X130283333Y-121784260D01*
X130283333Y-121784260D02*
X130216666Y-121817593D01*
X142008333Y-123650926D02*
X141975000Y-123684260D01*
X141975000Y-123684260D02*
X141875000Y-123717593D01*
X141875000Y-123717593D02*
X141808333Y-123717593D01*
X141808333Y-123717593D02*
X141708333Y-123684260D01*
X141708333Y-123684260D02*
X141641667Y-123617593D01*
X141641667Y-123617593D02*
X141608333Y-123550926D01*
X141608333Y-123550926D02*
X141575000Y-123417593D01*
X141575000Y-123417593D02*
X141575000Y-123317593D01*
X141575000Y-123317593D02*
X141608333Y-123184260D01*
X141608333Y-123184260D02*
X141641667Y-123117593D01*
X141641667Y-123117593D02*
X141708333Y-123050926D01*
X141708333Y-123050926D02*
X141808333Y-123017593D01*
X141808333Y-123017593D02*
X141875000Y-123017593D01*
X141875000Y-123017593D02*
X141975000Y-123050926D01*
X141975000Y-123050926D02*
X142008333Y-123084260D01*
X142275000Y-123517593D02*
X142608333Y-123517593D01*
X142208333Y-123717593D02*
X142441667Y-123017593D01*
X142441667Y-123017593D02*
X142675000Y-123717593D01*
X142908333Y-123717593D02*
X142908333Y-123017593D01*
X142908333Y-123017593D02*
X143308333Y-123717593D01*
X143308333Y-123717593D02*
X143308333Y-123017593D01*
X144008333Y-123050926D02*
X143941666Y-123017593D01*
X143941666Y-123017593D02*
X143841666Y-123017593D01*
X143841666Y-123017593D02*
X143741666Y-123050926D01*
X143741666Y-123050926D02*
X143675000Y-123117593D01*
X143675000Y-123117593D02*
X143641666Y-123184260D01*
X143641666Y-123184260D02*
X143608333Y-123317593D01*
X143608333Y-123317593D02*
X143608333Y-123417593D01*
X143608333Y-123417593D02*
X143641666Y-123550926D01*
X143641666Y-123550926D02*
X143675000Y-123617593D01*
X143675000Y-123617593D02*
X143741666Y-123684260D01*
X143741666Y-123684260D02*
X143841666Y-123717593D01*
X143841666Y-123717593D02*
X143908333Y-123717593D01*
X143908333Y-123717593D02*
X144008333Y-123684260D01*
X144008333Y-123684260D02*
X144041666Y-123650926D01*
X144041666Y-123650926D02*
X144041666Y-123417593D01*
X144041666Y-123417593D02*
X143908333Y-123417593D01*
X144175000Y-123784260D02*
X144708333Y-123784260D01*
X145074999Y-123017593D02*
X145074999Y-123517593D01*
X145074999Y-123517593D02*
X145041666Y-123617593D01*
X145041666Y-123617593D02*
X144974999Y-123684260D01*
X144974999Y-123684260D02*
X144874999Y-123717593D01*
X144874999Y-123717593D02*
X144808333Y-123717593D01*
X145374999Y-123084260D02*
X145408332Y-123050926D01*
X145408332Y-123050926D02*
X145474999Y-123017593D01*
X145474999Y-123017593D02*
X145641666Y-123017593D01*
X145641666Y-123017593D02*
X145708332Y-123050926D01*
X145708332Y-123050926D02*
X145741666Y-123084260D01*
X145741666Y-123084260D02*
X145774999Y-123150926D01*
X145774999Y-123150926D02*
X145774999Y-123217593D01*
X145774999Y-123217593D02*
X145741666Y-123317593D01*
X145741666Y-123317593D02*
X145341666Y-123717593D01*
X145341666Y-123717593D02*
X145774999Y-123717593D01*
X148298333Y-125917593D02*
X148698333Y-125917593D01*
X148498333Y-126617593D02*
X148498333Y-125917593D01*
X149198333Y-126584260D02*
X149131666Y-126617593D01*
X149131666Y-126617593D02*
X148998333Y-126617593D01*
X148998333Y-126617593D02*
X148931666Y-126584260D01*
X148931666Y-126584260D02*
X148898333Y-126517593D01*
X148898333Y-126517593D02*
X148898333Y-126250926D01*
X148898333Y-126250926D02*
X148931666Y-126184260D01*
X148931666Y-126184260D02*
X148998333Y-126150926D01*
X148998333Y-126150926D02*
X149131666Y-126150926D01*
X149131666Y-126150926D02*
X149198333Y-126184260D01*
X149198333Y-126184260D02*
X149231666Y-126250926D01*
X149231666Y-126250926D02*
X149231666Y-126317593D01*
X149231666Y-126317593D02*
X148898333Y-126384260D01*
X149531666Y-126617593D02*
X149531666Y-126150926D01*
X149531666Y-126284260D02*
X149565000Y-126217593D01*
X149565000Y-126217593D02*
X149598333Y-126184260D01*
X149598333Y-126184260D02*
X149665000Y-126150926D01*
X149665000Y-126150926D02*
X149731666Y-126150926D01*
X149798333Y-126684260D02*
X150331666Y-126684260D01*
X150898332Y-126617593D02*
X150664999Y-126284260D01*
X150498332Y-126617593D02*
X150498332Y-125917593D01*
X150498332Y-125917593D02*
X150764999Y-125917593D01*
X150764999Y-125917593D02*
X150831666Y-125950926D01*
X150831666Y-125950926D02*
X150864999Y-125984260D01*
X150864999Y-125984260D02*
X150898332Y-126050926D01*
X150898332Y-126050926D02*
X150898332Y-126150926D01*
X150898332Y-126150926D02*
X150864999Y-126217593D01*
X150864999Y-126217593D02*
X150831666Y-126250926D01*
X150831666Y-126250926D02*
X150764999Y-126284260D01*
X150764999Y-126284260D02*
X150498332Y-126284260D01*
X151498332Y-126150926D02*
X151498332Y-126617593D01*
X151331666Y-125884260D02*
X151164999Y-126384260D01*
X151164999Y-126384260D02*
X151598332Y-126384260D01*
D11*
X119024580Y-105801666D02*
X119072200Y-105849285D01*
X119072200Y-105849285D02*
X119119819Y-105992142D01*
X119119819Y-105992142D02*
X119119819Y-106087380D01*
X119119819Y-106087380D02*
X119072200Y-106230237D01*
X119072200Y-106230237D02*
X118976961Y-106325475D01*
X118976961Y-106325475D02*
X118881723Y-106373094D01*
X118881723Y-106373094D02*
X118691247Y-106420713D01*
X118691247Y-106420713D02*
X118548390Y-106420713D01*
X118548390Y-106420713D02*
X118357914Y-106373094D01*
X118357914Y-106373094D02*
X118262676Y-106325475D01*
X118262676Y-106325475D02*
X118167438Y-106230237D01*
X118167438Y-106230237D02*
X118119819Y-106087380D01*
X118119819Y-106087380D02*
X118119819Y-105992142D01*
X118119819Y-105992142D02*
X118167438Y-105849285D01*
X118167438Y-105849285D02*
X118215057Y-105801666D01*
X118215057Y-105420713D02*
X118167438Y-105373094D01*
X118167438Y-105373094D02*
X118119819Y-105277856D01*
X118119819Y-105277856D02*
X118119819Y-105039761D01*
X118119819Y-105039761D02*
X118167438Y-104944523D01*
X118167438Y-104944523D02*
X118215057Y-104896904D01*
X118215057Y-104896904D02*
X118310295Y-104849285D01*
X118310295Y-104849285D02*
X118405533Y-104849285D01*
X118405533Y-104849285D02*
X118548390Y-104896904D01*
X118548390Y-104896904D02*
X119119819Y-105468332D01*
X119119819Y-105468332D02*
X119119819Y-104849285D01*
D13*
X129423333Y-125917593D02*
X129823333Y-125917593D01*
X129623333Y-126617593D02*
X129623333Y-125917593D01*
X130323333Y-126584260D02*
X130256666Y-126617593D01*
X130256666Y-126617593D02*
X130123333Y-126617593D01*
X130123333Y-126617593D02*
X130056666Y-126584260D01*
X130056666Y-126584260D02*
X130023333Y-126517593D01*
X130023333Y-126517593D02*
X130023333Y-126250926D01*
X130023333Y-126250926D02*
X130056666Y-126184260D01*
X130056666Y-126184260D02*
X130123333Y-126150926D01*
X130123333Y-126150926D02*
X130256666Y-126150926D01*
X130256666Y-126150926D02*
X130323333Y-126184260D01*
X130323333Y-126184260D02*
X130356666Y-126250926D01*
X130356666Y-126250926D02*
X130356666Y-126317593D01*
X130356666Y-126317593D02*
X130023333Y-126384260D01*
X130656666Y-126617593D02*
X130656666Y-126150926D01*
X130656666Y-126284260D02*
X130690000Y-126217593D01*
X130690000Y-126217593D02*
X130723333Y-126184260D01*
X130723333Y-126184260D02*
X130790000Y-126150926D01*
X130790000Y-126150926D02*
X130856666Y-126150926D01*
X130923333Y-126684260D02*
X131456666Y-126684260D01*
X132023332Y-126617593D02*
X131789999Y-126284260D01*
X131623332Y-126617593D02*
X131623332Y-125917593D01*
X131623332Y-125917593D02*
X131889999Y-125917593D01*
X131889999Y-125917593D02*
X131956666Y-125950926D01*
X131956666Y-125950926D02*
X131989999Y-125984260D01*
X131989999Y-125984260D02*
X132023332Y-126050926D01*
X132023332Y-126050926D02*
X132023332Y-126150926D01*
X132023332Y-126150926D02*
X131989999Y-126217593D01*
X131989999Y-126217593D02*
X131956666Y-126250926D01*
X131956666Y-126250926D02*
X131889999Y-126284260D01*
X131889999Y-126284260D02*
X131623332Y-126284260D01*
X132289999Y-125984260D02*
X132323332Y-125950926D01*
X132323332Y-125950926D02*
X132389999Y-125917593D01*
X132389999Y-125917593D02*
X132556666Y-125917593D01*
X132556666Y-125917593D02*
X132623332Y-125950926D01*
X132623332Y-125950926D02*
X132656666Y-125984260D01*
X132656666Y-125984260D02*
X132689999Y-126050926D01*
X132689999Y-126050926D02*
X132689999Y-126117593D01*
X132689999Y-126117593D02*
X132656666Y-126217593D01*
X132656666Y-126217593D02*
X132256666Y-126617593D01*
X132256666Y-126617593D02*
X132689999Y-126617593D01*
X164262500Y-125050926D02*
X164229167Y-125084260D01*
X164229167Y-125084260D02*
X164129167Y-125117593D01*
X164129167Y-125117593D02*
X164062500Y-125117593D01*
X164062500Y-125117593D02*
X163962500Y-125084260D01*
X163962500Y-125084260D02*
X163895834Y-125017593D01*
X163895834Y-125017593D02*
X163862500Y-124950926D01*
X163862500Y-124950926D02*
X163829167Y-124817593D01*
X163829167Y-124817593D02*
X163829167Y-124717593D01*
X163829167Y-124717593D02*
X163862500Y-124584260D01*
X163862500Y-124584260D02*
X163895834Y-124517593D01*
X163895834Y-124517593D02*
X163962500Y-124450926D01*
X163962500Y-124450926D02*
X164062500Y-124417593D01*
X164062500Y-124417593D02*
X164129167Y-124417593D01*
X164129167Y-124417593D02*
X164229167Y-124450926D01*
X164229167Y-124450926D02*
X164262500Y-124484260D01*
X164529167Y-124917593D02*
X164862500Y-124917593D01*
X164462500Y-125117593D02*
X164695834Y-124417593D01*
X164695834Y-124417593D02*
X164929167Y-125117593D01*
X165162500Y-125117593D02*
X165162500Y-124417593D01*
X165162500Y-124417593D02*
X165562500Y-125117593D01*
X165562500Y-125117593D02*
X165562500Y-124417593D01*
X166229167Y-125117593D02*
X165895833Y-125117593D01*
X165895833Y-125117593D02*
X165895833Y-124417593D01*
X166295834Y-125184260D02*
X166829167Y-125184260D01*
X167195833Y-124417593D02*
X167195833Y-124917593D01*
X167195833Y-124917593D02*
X167162500Y-125017593D01*
X167162500Y-125017593D02*
X167095833Y-125084260D01*
X167095833Y-125084260D02*
X166995833Y-125117593D01*
X166995833Y-125117593D02*
X166929167Y-125117593D01*
X167462500Y-124417593D02*
X167895833Y-124417593D01*
X167895833Y-124417593D02*
X167662500Y-124684260D01*
X167662500Y-124684260D02*
X167762500Y-124684260D01*
X167762500Y-124684260D02*
X167829166Y-124717593D01*
X167829166Y-124717593D02*
X167862500Y-124750926D01*
X167862500Y-124750926D02*
X167895833Y-124817593D01*
X167895833Y-124817593D02*
X167895833Y-124984260D01*
X167895833Y-124984260D02*
X167862500Y-125050926D01*
X167862500Y-125050926D02*
X167829166Y-125084260D01*
X167829166Y-125084260D02*
X167762500Y-125117593D01*
X167762500Y-125117593D02*
X167562500Y-125117593D01*
X167562500Y-125117593D02*
X167495833Y-125084260D01*
X167495833Y-125084260D02*
X167462500Y-125050926D01*
D11*
X162866666Y-88254819D02*
X162866666Y-88969104D01*
X162866666Y-88969104D02*
X162819047Y-89111961D01*
X162819047Y-89111961D02*
X162723809Y-89207200D01*
X162723809Y-89207200D02*
X162580952Y-89254819D01*
X162580952Y-89254819D02*
X162485714Y-89254819D01*
X163866666Y-89254819D02*
X163295238Y-89254819D01*
X163580952Y-89254819D02*
X163580952Y-88254819D01*
X163580952Y-88254819D02*
X163485714Y-88397676D01*
X163485714Y-88397676D02*
X163390476Y-88492914D01*
X163390476Y-88492914D02*
X163295238Y-88540533D01*
D13*
X164179167Y-122150926D02*
X164145834Y-122184260D01*
X164145834Y-122184260D02*
X164045834Y-122217593D01*
X164045834Y-122217593D02*
X163979167Y-122217593D01*
X163979167Y-122217593D02*
X163879167Y-122184260D01*
X163879167Y-122184260D02*
X163812501Y-122117593D01*
X163812501Y-122117593D02*
X163779167Y-122050926D01*
X163779167Y-122050926D02*
X163745834Y-121917593D01*
X163745834Y-121917593D02*
X163745834Y-121817593D01*
X163745834Y-121817593D02*
X163779167Y-121684260D01*
X163779167Y-121684260D02*
X163812501Y-121617593D01*
X163812501Y-121617593D02*
X163879167Y-121550926D01*
X163879167Y-121550926D02*
X163979167Y-121517593D01*
X163979167Y-121517593D02*
X164045834Y-121517593D01*
X164045834Y-121517593D02*
X164145834Y-121550926D01*
X164145834Y-121550926D02*
X164179167Y-121584260D01*
X164445834Y-122017593D02*
X164779167Y-122017593D01*
X164379167Y-122217593D02*
X164612501Y-121517593D01*
X164612501Y-121517593D02*
X164845834Y-122217593D01*
X165079167Y-122217593D02*
X165079167Y-121517593D01*
X165079167Y-121517593D02*
X165479167Y-122217593D01*
X165479167Y-122217593D02*
X165479167Y-121517593D01*
X165812500Y-122217593D02*
X165812500Y-121517593D01*
X165812500Y-121850926D02*
X166212500Y-121850926D01*
X166212500Y-122217593D02*
X166212500Y-121517593D01*
X166379167Y-122284260D02*
X166912500Y-122284260D01*
X167279166Y-121517593D02*
X167279166Y-122017593D01*
X167279166Y-122017593D02*
X167245833Y-122117593D01*
X167245833Y-122117593D02*
X167179166Y-122184260D01*
X167179166Y-122184260D02*
X167079166Y-122217593D01*
X167079166Y-122217593D02*
X167012500Y-122217593D01*
X167545833Y-121517593D02*
X167979166Y-121517593D01*
X167979166Y-121517593D02*
X167745833Y-121784260D01*
X167745833Y-121784260D02*
X167845833Y-121784260D01*
X167845833Y-121784260D02*
X167912499Y-121817593D01*
X167912499Y-121817593D02*
X167945833Y-121850926D01*
X167945833Y-121850926D02*
X167979166Y-121917593D01*
X167979166Y-121917593D02*
X167979166Y-122084260D01*
X167979166Y-122084260D02*
X167945833Y-122150926D01*
X167945833Y-122150926D02*
X167912499Y-122184260D01*
X167912499Y-122184260D02*
X167845833Y-122217593D01*
X167845833Y-122217593D02*
X167645833Y-122217593D01*
X167645833Y-122217593D02*
X167579166Y-122184260D01*
X167579166Y-122184260D02*
X167545833Y-122150926D01*
X109058333Y-123750926D02*
X109025000Y-123784260D01*
X109025000Y-123784260D02*
X108925000Y-123817593D01*
X108925000Y-123817593D02*
X108858333Y-123817593D01*
X108858333Y-123817593D02*
X108758333Y-123784260D01*
X108758333Y-123784260D02*
X108691667Y-123717593D01*
X108691667Y-123717593D02*
X108658333Y-123650926D01*
X108658333Y-123650926D02*
X108625000Y-123517593D01*
X108625000Y-123517593D02*
X108625000Y-123417593D01*
X108625000Y-123417593D02*
X108658333Y-123284260D01*
X108658333Y-123284260D02*
X108691667Y-123217593D01*
X108691667Y-123217593D02*
X108758333Y-123150926D01*
X108758333Y-123150926D02*
X108858333Y-123117593D01*
X108858333Y-123117593D02*
X108925000Y-123117593D01*
X108925000Y-123117593D02*
X109025000Y-123150926D01*
X109025000Y-123150926D02*
X109058333Y-123184260D01*
X109658333Y-123117593D02*
X109525000Y-123117593D01*
X109525000Y-123117593D02*
X109458333Y-123150926D01*
X109458333Y-123150926D02*
X109425000Y-123184260D01*
X109425000Y-123184260D02*
X109358333Y-123284260D01*
X109358333Y-123284260D02*
X109325000Y-123417593D01*
X109325000Y-123417593D02*
X109325000Y-123684260D01*
X109325000Y-123684260D02*
X109358333Y-123750926D01*
X109358333Y-123750926D02*
X109391667Y-123784260D01*
X109391667Y-123784260D02*
X109458333Y-123817593D01*
X109458333Y-123817593D02*
X109591667Y-123817593D01*
X109591667Y-123817593D02*
X109658333Y-123784260D01*
X109658333Y-123784260D02*
X109691667Y-123750926D01*
X109691667Y-123750926D02*
X109725000Y-123684260D01*
X109725000Y-123684260D02*
X109725000Y-123517593D01*
X109725000Y-123517593D02*
X109691667Y-123450926D01*
X109691667Y-123450926D02*
X109658333Y-123417593D01*
X109658333Y-123417593D02*
X109591667Y-123384260D01*
X109591667Y-123384260D02*
X109458333Y-123384260D01*
X109458333Y-123384260D02*
X109391667Y-123417593D01*
X109391667Y-123417593D02*
X109358333Y-123450926D01*
X109358333Y-123450926D02*
X109325000Y-123517593D01*
D11*
X110214881Y-86624819D02*
X110214881Y-85624819D01*
X110214881Y-85624819D02*
X110548214Y-86339104D01*
X110548214Y-86339104D02*
X110881547Y-85624819D01*
X110881547Y-85624819D02*
X110881547Y-86624819D01*
X111357738Y-86529580D02*
X111405357Y-86577200D01*
X111405357Y-86577200D02*
X111357738Y-86624819D01*
X111357738Y-86624819D02*
X111310119Y-86577200D01*
X111310119Y-86577200D02*
X111357738Y-86529580D01*
X111357738Y-86529580D02*
X111357738Y-86624819D01*
X111357738Y-86005771D02*
X111405357Y-86053390D01*
X111405357Y-86053390D02*
X111357738Y-86101009D01*
X111357738Y-86101009D02*
X111310119Y-86053390D01*
X111310119Y-86053390D02*
X111357738Y-86005771D01*
X111357738Y-86005771D02*
X111357738Y-86101009D01*
X112405356Y-86529580D02*
X112357737Y-86577200D01*
X112357737Y-86577200D02*
X112214880Y-86624819D01*
X112214880Y-86624819D02*
X112119642Y-86624819D01*
X112119642Y-86624819D02*
X111976785Y-86577200D01*
X111976785Y-86577200D02*
X111881547Y-86481961D01*
X111881547Y-86481961D02*
X111833928Y-86386723D01*
X111833928Y-86386723D02*
X111786309Y-86196247D01*
X111786309Y-86196247D02*
X111786309Y-86053390D01*
X111786309Y-86053390D02*
X111833928Y-85862914D01*
X111833928Y-85862914D02*
X111881547Y-85767676D01*
X111881547Y-85767676D02*
X111976785Y-85672438D01*
X111976785Y-85672438D02*
X112119642Y-85624819D01*
X112119642Y-85624819D02*
X112214880Y-85624819D01*
X112214880Y-85624819D02*
X112357737Y-85672438D01*
X112357737Y-85672438D02*
X112405356Y-85720057D01*
X113262499Y-85958152D02*
X113262499Y-86624819D01*
X113024404Y-85577200D02*
X112786309Y-86291485D01*
X112786309Y-86291485D02*
X113405356Y-86291485D01*
D13*
X146958333Y-123650926D02*
X146925000Y-123684260D01*
X146925000Y-123684260D02*
X146825000Y-123717593D01*
X146825000Y-123717593D02*
X146758333Y-123717593D01*
X146758333Y-123717593D02*
X146658333Y-123684260D01*
X146658333Y-123684260D02*
X146591667Y-123617593D01*
X146591667Y-123617593D02*
X146558333Y-123550926D01*
X146558333Y-123550926D02*
X146525000Y-123417593D01*
X146525000Y-123417593D02*
X146525000Y-123317593D01*
X146525000Y-123317593D02*
X146558333Y-123184260D01*
X146558333Y-123184260D02*
X146591667Y-123117593D01*
X146591667Y-123117593D02*
X146658333Y-123050926D01*
X146658333Y-123050926D02*
X146758333Y-123017593D01*
X146758333Y-123017593D02*
X146825000Y-123017593D01*
X146825000Y-123017593D02*
X146925000Y-123050926D01*
X146925000Y-123050926D02*
X146958333Y-123084260D01*
X147558333Y-123250926D02*
X147558333Y-123717593D01*
X147391667Y-122984260D02*
X147225000Y-123484260D01*
X147225000Y-123484260D02*
X147658333Y-123484260D01*
D11*
X114146069Y-82472618D02*
X113146069Y-82472618D01*
X113146069Y-82472618D02*
X113860354Y-82139285D01*
X113860354Y-82139285D02*
X113146069Y-81805952D01*
X113146069Y-81805952D02*
X114146069Y-81805952D01*
X114050830Y-81329761D02*
X114098450Y-81282142D01*
X114098450Y-81282142D02*
X114146069Y-81329761D01*
X114146069Y-81329761D02*
X114098450Y-81377380D01*
X114098450Y-81377380D02*
X114050830Y-81329761D01*
X114050830Y-81329761D02*
X114146069Y-81329761D01*
X113527021Y-81329761D02*
X113574640Y-81282142D01*
X113574640Y-81282142D02*
X113622259Y-81329761D01*
X113622259Y-81329761D02*
X113574640Y-81377380D01*
X113574640Y-81377380D02*
X113527021Y-81329761D01*
X113527021Y-81329761D02*
X113622259Y-81329761D01*
X114050830Y-80282143D02*
X114098450Y-80329762D01*
X114098450Y-80329762D02*
X114146069Y-80472619D01*
X114146069Y-80472619D02*
X114146069Y-80567857D01*
X114146069Y-80567857D02*
X114098450Y-80710714D01*
X114098450Y-80710714D02*
X114003211Y-80805952D01*
X114003211Y-80805952D02*
X113907973Y-80853571D01*
X113907973Y-80853571D02*
X113717497Y-80901190D01*
X113717497Y-80901190D02*
X113574640Y-80901190D01*
X113574640Y-80901190D02*
X113384164Y-80853571D01*
X113384164Y-80853571D02*
X113288926Y-80805952D01*
X113288926Y-80805952D02*
X113193688Y-80710714D01*
X113193688Y-80710714D02*
X113146069Y-80567857D01*
X113146069Y-80567857D02*
X113146069Y-80472619D01*
X113146069Y-80472619D02*
X113193688Y-80329762D01*
X113193688Y-80329762D02*
X113241307Y-80282143D01*
X114146069Y-79805952D02*
X114146069Y-79615476D01*
X114146069Y-79615476D02*
X114098450Y-79520238D01*
X114098450Y-79520238D02*
X114050830Y-79472619D01*
X114050830Y-79472619D02*
X113907973Y-79377381D01*
X113907973Y-79377381D02*
X113717497Y-79329762D01*
X113717497Y-79329762D02*
X113336545Y-79329762D01*
X113336545Y-79329762D02*
X113241307Y-79377381D01*
X113241307Y-79377381D02*
X113193688Y-79425000D01*
X113193688Y-79425000D02*
X113146069Y-79520238D01*
X113146069Y-79520238D02*
X113146069Y-79710714D01*
X113146069Y-79710714D02*
X113193688Y-79805952D01*
X113193688Y-79805952D02*
X113241307Y-79853571D01*
X113241307Y-79853571D02*
X113336545Y-79901190D01*
X113336545Y-79901190D02*
X113574640Y-79901190D01*
X113574640Y-79901190D02*
X113669878Y-79853571D01*
X113669878Y-79853571D02*
X113717497Y-79805952D01*
X113717497Y-79805952D02*
X113765116Y-79710714D01*
X113765116Y-79710714D02*
X113765116Y-79520238D01*
X113765116Y-79520238D02*
X113717497Y-79425000D01*
X113717497Y-79425000D02*
X113669878Y-79377381D01*
X113669878Y-79377381D02*
X113574640Y-79329762D01*
X130666666Y-63124819D02*
X130666666Y-63839104D01*
X130666666Y-63839104D02*
X130619047Y-63981961D01*
X130619047Y-63981961D02*
X130523809Y-64077200D01*
X130523809Y-64077200D02*
X130380952Y-64124819D01*
X130380952Y-64124819D02*
X130285714Y-64124819D01*
X131047619Y-63124819D02*
X131666666Y-63124819D01*
X131666666Y-63124819D02*
X131333333Y-63505771D01*
X131333333Y-63505771D02*
X131476190Y-63505771D01*
X131476190Y-63505771D02*
X131571428Y-63553390D01*
X131571428Y-63553390D02*
X131619047Y-63601009D01*
X131619047Y-63601009D02*
X131666666Y-63696247D01*
X131666666Y-63696247D02*
X131666666Y-63934342D01*
X131666666Y-63934342D02*
X131619047Y-64029580D01*
X131619047Y-64029580D02*
X131571428Y-64077200D01*
X131571428Y-64077200D02*
X131476190Y-64124819D01*
X131476190Y-64124819D02*
X131190476Y-64124819D01*
X131190476Y-64124819D02*
X131095238Y-64077200D01*
X131095238Y-64077200D02*
X131047619Y-64029580D01*
D13*
X165545833Y-123650926D02*
X165512500Y-123684260D01*
X165512500Y-123684260D02*
X165412500Y-123717593D01*
X165412500Y-123717593D02*
X165345833Y-123717593D01*
X165345833Y-123717593D02*
X165245833Y-123684260D01*
X165245833Y-123684260D02*
X165179167Y-123617593D01*
X165179167Y-123617593D02*
X165145833Y-123550926D01*
X165145833Y-123550926D02*
X165112500Y-123417593D01*
X165112500Y-123417593D02*
X165112500Y-123317593D01*
X165112500Y-123317593D02*
X165145833Y-123184260D01*
X165145833Y-123184260D02*
X165179167Y-123117593D01*
X165179167Y-123117593D02*
X165245833Y-123050926D01*
X165245833Y-123050926D02*
X165345833Y-123017593D01*
X165345833Y-123017593D02*
X165412500Y-123017593D01*
X165412500Y-123017593D02*
X165512500Y-123050926D01*
X165512500Y-123050926D02*
X165545833Y-123084260D01*
X166179167Y-123017593D02*
X165845833Y-123017593D01*
X165845833Y-123017593D02*
X165812500Y-123350926D01*
X165812500Y-123350926D02*
X165845833Y-123317593D01*
X165845833Y-123317593D02*
X165912500Y-123284260D01*
X165912500Y-123284260D02*
X166079167Y-123284260D01*
X166079167Y-123284260D02*
X166145833Y-123317593D01*
X166145833Y-123317593D02*
X166179167Y-123350926D01*
X166179167Y-123350926D02*
X166212500Y-123417593D01*
X166212500Y-123417593D02*
X166212500Y-123584260D01*
X166212500Y-123584260D02*
X166179167Y-123650926D01*
X166179167Y-123650926D02*
X166145833Y-123684260D01*
X166145833Y-123684260D02*
X166079167Y-123717593D01*
X166079167Y-123717593D02*
X165912500Y-123717593D01*
X165912500Y-123717593D02*
X165845833Y-123684260D01*
X165845833Y-123684260D02*
X165812500Y-123650926D01*
D11*
X106889881Y-99554819D02*
X106889881Y-98554819D01*
X106889881Y-98554819D02*
X107223214Y-99269104D01*
X107223214Y-99269104D02*
X107556547Y-98554819D01*
X107556547Y-98554819D02*
X107556547Y-99554819D01*
X108032738Y-99459580D02*
X108080357Y-99507200D01*
X108080357Y-99507200D02*
X108032738Y-99554819D01*
X108032738Y-99554819D02*
X107985119Y-99507200D01*
X107985119Y-99507200D02*
X108032738Y-99459580D01*
X108032738Y-99459580D02*
X108032738Y-99554819D01*
X108032738Y-98935771D02*
X108080357Y-98983390D01*
X108080357Y-98983390D02*
X108032738Y-99031009D01*
X108032738Y-99031009D02*
X107985119Y-98983390D01*
X107985119Y-98983390D02*
X108032738Y-98935771D01*
X108032738Y-98935771D02*
X108032738Y-99031009D01*
X109080356Y-99459580D02*
X109032737Y-99507200D01*
X109032737Y-99507200D02*
X108889880Y-99554819D01*
X108889880Y-99554819D02*
X108794642Y-99554819D01*
X108794642Y-99554819D02*
X108651785Y-99507200D01*
X108651785Y-99507200D02*
X108556547Y-99411961D01*
X108556547Y-99411961D02*
X108508928Y-99316723D01*
X108508928Y-99316723D02*
X108461309Y-99126247D01*
X108461309Y-99126247D02*
X108461309Y-98983390D01*
X108461309Y-98983390D02*
X108508928Y-98792914D01*
X108508928Y-98792914D02*
X108556547Y-98697676D01*
X108556547Y-98697676D02*
X108651785Y-98602438D01*
X108651785Y-98602438D02*
X108794642Y-98554819D01*
X108794642Y-98554819D02*
X108889880Y-98554819D01*
X108889880Y-98554819D02*
X109032737Y-98602438D01*
X109032737Y-98602438D02*
X109080356Y-98650057D01*
X109461309Y-98650057D02*
X109508928Y-98602438D01*
X109508928Y-98602438D02*
X109604166Y-98554819D01*
X109604166Y-98554819D02*
X109842261Y-98554819D01*
X109842261Y-98554819D02*
X109937499Y-98602438D01*
X109937499Y-98602438D02*
X109985118Y-98650057D01*
X109985118Y-98650057D02*
X110032737Y-98745295D01*
X110032737Y-98745295D02*
X110032737Y-98840533D01*
X110032737Y-98840533D02*
X109985118Y-98983390D01*
X109985118Y-98983390D02*
X109413690Y-99554819D01*
X109413690Y-99554819D02*
X110032737Y-99554819D01*
X117457916Y-84309819D02*
X117457916Y-85024104D01*
X117457916Y-85024104D02*
X117410297Y-85166961D01*
X117410297Y-85166961D02*
X117315059Y-85262200D01*
X117315059Y-85262200D02*
X117172202Y-85309819D01*
X117172202Y-85309819D02*
X117076964Y-85309819D01*
X118410297Y-84309819D02*
X117934107Y-84309819D01*
X117934107Y-84309819D02*
X117886488Y-84786009D01*
X117886488Y-84786009D02*
X117934107Y-84738390D01*
X117934107Y-84738390D02*
X118029345Y-84690771D01*
X118029345Y-84690771D02*
X118267440Y-84690771D01*
X118267440Y-84690771D02*
X118362678Y-84738390D01*
X118362678Y-84738390D02*
X118410297Y-84786009D01*
X118410297Y-84786009D02*
X118457916Y-84881247D01*
X118457916Y-84881247D02*
X118457916Y-85119342D01*
X118457916Y-85119342D02*
X118410297Y-85214580D01*
X118410297Y-85214580D02*
X118362678Y-85262200D01*
X118362678Y-85262200D02*
X118267440Y-85309819D01*
X118267440Y-85309819D02*
X118029345Y-85309819D01*
X118029345Y-85309819D02*
X117934107Y-85262200D01*
X117934107Y-85262200D02*
X117886488Y-85214580D01*
X170295238Y-79307200D02*
X170438095Y-79354819D01*
X170438095Y-79354819D02*
X170676190Y-79354819D01*
X170676190Y-79354819D02*
X170771428Y-79307200D01*
X170771428Y-79307200D02*
X170819047Y-79259580D01*
X170819047Y-79259580D02*
X170866666Y-79164342D01*
X170866666Y-79164342D02*
X170866666Y-79069104D01*
X170866666Y-79069104D02*
X170819047Y-78973866D01*
X170819047Y-78973866D02*
X170771428Y-78926247D01*
X170771428Y-78926247D02*
X170676190Y-78878628D01*
X170676190Y-78878628D02*
X170485714Y-78831009D01*
X170485714Y-78831009D02*
X170390476Y-78783390D01*
X170390476Y-78783390D02*
X170342857Y-78735771D01*
X170342857Y-78735771D02*
X170295238Y-78640533D01*
X170295238Y-78640533D02*
X170295238Y-78545295D01*
X170295238Y-78545295D02*
X170342857Y-78450057D01*
X170342857Y-78450057D02*
X170390476Y-78402438D01*
X170390476Y-78402438D02*
X170485714Y-78354819D01*
X170485714Y-78354819D02*
X170723809Y-78354819D01*
X170723809Y-78354819D02*
X170866666Y-78402438D01*
X171295238Y-78354819D02*
X171295238Y-79164342D01*
X171295238Y-79164342D02*
X171342857Y-79259580D01*
X171342857Y-79259580D02*
X171390476Y-79307200D01*
X171390476Y-79307200D02*
X171485714Y-79354819D01*
X171485714Y-79354819D02*
X171676190Y-79354819D01*
X171676190Y-79354819D02*
X171771428Y-79307200D01*
X171771428Y-79307200D02*
X171819047Y-79259580D01*
X171819047Y-79259580D02*
X171866666Y-79164342D01*
X171866666Y-79164342D02*
X171866666Y-78354819D01*
X172676190Y-78831009D02*
X172819047Y-78878628D01*
X172819047Y-78878628D02*
X172866666Y-78926247D01*
X172866666Y-78926247D02*
X172914285Y-79021485D01*
X172914285Y-79021485D02*
X172914285Y-79164342D01*
X172914285Y-79164342D02*
X172866666Y-79259580D01*
X172866666Y-79259580D02*
X172819047Y-79307200D01*
X172819047Y-79307200D02*
X172723809Y-79354819D01*
X172723809Y-79354819D02*
X172342857Y-79354819D01*
X172342857Y-79354819D02*
X172342857Y-78354819D01*
X172342857Y-78354819D02*
X172676190Y-78354819D01*
X172676190Y-78354819D02*
X172771428Y-78402438D01*
X172771428Y-78402438D02*
X172819047Y-78450057D01*
X172819047Y-78450057D02*
X172866666Y-78545295D01*
X172866666Y-78545295D02*
X172866666Y-78640533D01*
X172866666Y-78640533D02*
X172819047Y-78735771D01*
X172819047Y-78735771D02*
X172771428Y-78783390D01*
X172771428Y-78783390D02*
X172676190Y-78831009D01*
X172676190Y-78831009D02*
X172342857Y-78831009D01*
X173342857Y-79259580D02*
X173390476Y-79307200D01*
X173390476Y-79307200D02*
X173342857Y-79354819D01*
X173342857Y-79354819D02*
X173295238Y-79307200D01*
X173295238Y-79307200D02*
X173342857Y-79259580D01*
X173342857Y-79259580D02*
X173342857Y-79354819D01*
X173342857Y-78735771D02*
X173390476Y-78783390D01*
X173390476Y-78783390D02*
X173342857Y-78831009D01*
X173342857Y-78831009D02*
X173295238Y-78783390D01*
X173295238Y-78783390D02*
X173342857Y-78735771D01*
X173342857Y-78735771D02*
X173342857Y-78831009D01*
X174104761Y-78354819D02*
X174104761Y-79069104D01*
X174104761Y-79069104D02*
X174057142Y-79211961D01*
X174057142Y-79211961D02*
X173961904Y-79307200D01*
X173961904Y-79307200D02*
X173819047Y-79354819D01*
X173819047Y-79354819D02*
X173723809Y-79354819D01*
X175104761Y-79354819D02*
X174533333Y-79354819D01*
X174819047Y-79354819D02*
X174819047Y-78354819D01*
X174819047Y-78354819D02*
X174723809Y-78497676D01*
X174723809Y-78497676D02*
X174628571Y-78592914D01*
X174628571Y-78592914D02*
X174533333Y-78640533D01*
X106789881Y-86654819D02*
X106789881Y-85654819D01*
X106789881Y-85654819D02*
X107123214Y-86369104D01*
X107123214Y-86369104D02*
X107456547Y-85654819D01*
X107456547Y-85654819D02*
X107456547Y-86654819D01*
X107932738Y-86559580D02*
X107980357Y-86607200D01*
X107980357Y-86607200D02*
X107932738Y-86654819D01*
X107932738Y-86654819D02*
X107885119Y-86607200D01*
X107885119Y-86607200D02*
X107932738Y-86559580D01*
X107932738Y-86559580D02*
X107932738Y-86654819D01*
X107932738Y-86035771D02*
X107980357Y-86083390D01*
X107980357Y-86083390D02*
X107932738Y-86131009D01*
X107932738Y-86131009D02*
X107885119Y-86083390D01*
X107885119Y-86083390D02*
X107932738Y-86035771D01*
X107932738Y-86035771D02*
X107932738Y-86131009D01*
X108980356Y-86559580D02*
X108932737Y-86607200D01*
X108932737Y-86607200D02*
X108789880Y-86654819D01*
X108789880Y-86654819D02*
X108694642Y-86654819D01*
X108694642Y-86654819D02*
X108551785Y-86607200D01*
X108551785Y-86607200D02*
X108456547Y-86511961D01*
X108456547Y-86511961D02*
X108408928Y-86416723D01*
X108408928Y-86416723D02*
X108361309Y-86226247D01*
X108361309Y-86226247D02*
X108361309Y-86083390D01*
X108361309Y-86083390D02*
X108408928Y-85892914D01*
X108408928Y-85892914D02*
X108456547Y-85797676D01*
X108456547Y-85797676D02*
X108551785Y-85702438D01*
X108551785Y-85702438D02*
X108694642Y-85654819D01*
X108694642Y-85654819D02*
X108789880Y-85654819D01*
X108789880Y-85654819D02*
X108932737Y-85702438D01*
X108932737Y-85702438D02*
X108980356Y-85750057D01*
X109313690Y-85654819D02*
X109932737Y-85654819D01*
X109932737Y-85654819D02*
X109599404Y-86035771D01*
X109599404Y-86035771D02*
X109742261Y-86035771D01*
X109742261Y-86035771D02*
X109837499Y-86083390D01*
X109837499Y-86083390D02*
X109885118Y-86131009D01*
X109885118Y-86131009D02*
X109932737Y-86226247D01*
X109932737Y-86226247D02*
X109932737Y-86464342D01*
X109932737Y-86464342D02*
X109885118Y-86559580D01*
X109885118Y-86559580D02*
X109837499Y-86607200D01*
X109837499Y-86607200D02*
X109742261Y-86654819D01*
X109742261Y-86654819D02*
X109456547Y-86654819D01*
X109456547Y-86654819D02*
X109361309Y-86607200D01*
X109361309Y-86607200D02*
X109313690Y-86559580D01*
X104360238Y-112172200D02*
X104503095Y-112219819D01*
X104503095Y-112219819D02*
X104741190Y-112219819D01*
X104741190Y-112219819D02*
X104836428Y-112172200D01*
X104836428Y-112172200D02*
X104884047Y-112124580D01*
X104884047Y-112124580D02*
X104931666Y-112029342D01*
X104931666Y-112029342D02*
X104931666Y-111934104D01*
X104931666Y-111934104D02*
X104884047Y-111838866D01*
X104884047Y-111838866D02*
X104836428Y-111791247D01*
X104836428Y-111791247D02*
X104741190Y-111743628D01*
X104741190Y-111743628D02*
X104550714Y-111696009D01*
X104550714Y-111696009D02*
X104455476Y-111648390D01*
X104455476Y-111648390D02*
X104407857Y-111600771D01*
X104407857Y-111600771D02*
X104360238Y-111505533D01*
X104360238Y-111505533D02*
X104360238Y-111410295D01*
X104360238Y-111410295D02*
X104407857Y-111315057D01*
X104407857Y-111315057D02*
X104455476Y-111267438D01*
X104455476Y-111267438D02*
X104550714Y-111219819D01*
X104550714Y-111219819D02*
X104788809Y-111219819D01*
X104788809Y-111219819D02*
X104931666Y-111267438D01*
X105360238Y-111219819D02*
X105360238Y-112029342D01*
X105360238Y-112029342D02*
X105407857Y-112124580D01*
X105407857Y-112124580D02*
X105455476Y-112172200D01*
X105455476Y-112172200D02*
X105550714Y-112219819D01*
X105550714Y-112219819D02*
X105741190Y-112219819D01*
X105741190Y-112219819D02*
X105836428Y-112172200D01*
X105836428Y-112172200D02*
X105884047Y-112124580D01*
X105884047Y-112124580D02*
X105931666Y-112029342D01*
X105931666Y-112029342D02*
X105931666Y-111219819D01*
X106741190Y-111696009D02*
X106884047Y-111743628D01*
X106884047Y-111743628D02*
X106931666Y-111791247D01*
X106931666Y-111791247D02*
X106979285Y-111886485D01*
X106979285Y-111886485D02*
X106979285Y-112029342D01*
X106979285Y-112029342D02*
X106931666Y-112124580D01*
X106931666Y-112124580D02*
X106884047Y-112172200D01*
X106884047Y-112172200D02*
X106788809Y-112219819D01*
X106788809Y-112219819D02*
X106407857Y-112219819D01*
X106407857Y-112219819D02*
X106407857Y-111219819D01*
X106407857Y-111219819D02*
X106741190Y-111219819D01*
X106741190Y-111219819D02*
X106836428Y-111267438D01*
X106836428Y-111267438D02*
X106884047Y-111315057D01*
X106884047Y-111315057D02*
X106931666Y-111410295D01*
X106931666Y-111410295D02*
X106931666Y-111505533D01*
X106931666Y-111505533D02*
X106884047Y-111600771D01*
X106884047Y-111600771D02*
X106836428Y-111648390D01*
X106836428Y-111648390D02*
X106741190Y-111696009D01*
X106741190Y-111696009D02*
X106407857Y-111696009D01*
X107407857Y-112124580D02*
X107455476Y-112172200D01*
X107455476Y-112172200D02*
X107407857Y-112219819D01*
X107407857Y-112219819D02*
X107360238Y-112172200D01*
X107360238Y-112172200D02*
X107407857Y-112124580D01*
X107407857Y-112124580D02*
X107407857Y-112219819D01*
X107407857Y-111600771D02*
X107455476Y-111648390D01*
X107455476Y-111648390D02*
X107407857Y-111696009D01*
X107407857Y-111696009D02*
X107360238Y-111648390D01*
X107360238Y-111648390D02*
X107407857Y-111600771D01*
X107407857Y-111600771D02*
X107407857Y-111696009D01*
X108169761Y-111219819D02*
X108169761Y-111934104D01*
X108169761Y-111934104D02*
X108122142Y-112076961D01*
X108122142Y-112076961D02*
X108026904Y-112172200D01*
X108026904Y-112172200D02*
X107884047Y-112219819D01*
X107884047Y-112219819D02*
X107788809Y-112219819D01*
X108550714Y-111219819D02*
X109217380Y-111219819D01*
X109217380Y-111219819D02*
X108788809Y-112219819D01*
X113307200Y-95104761D02*
X113354819Y-94961904D01*
X113354819Y-94961904D02*
X113354819Y-94723809D01*
X113354819Y-94723809D02*
X113307200Y-94628571D01*
X113307200Y-94628571D02*
X113259580Y-94580952D01*
X113259580Y-94580952D02*
X113164342Y-94533333D01*
X113164342Y-94533333D02*
X113069104Y-94533333D01*
X113069104Y-94533333D02*
X112973866Y-94580952D01*
X112973866Y-94580952D02*
X112926247Y-94628571D01*
X112926247Y-94628571D02*
X112878628Y-94723809D01*
X112878628Y-94723809D02*
X112831009Y-94914285D01*
X112831009Y-94914285D02*
X112783390Y-95009523D01*
X112783390Y-95009523D02*
X112735771Y-95057142D01*
X112735771Y-95057142D02*
X112640533Y-95104761D01*
X112640533Y-95104761D02*
X112545295Y-95104761D01*
X112545295Y-95104761D02*
X112450057Y-95057142D01*
X112450057Y-95057142D02*
X112402438Y-95009523D01*
X112402438Y-95009523D02*
X112354819Y-94914285D01*
X112354819Y-94914285D02*
X112354819Y-94676190D01*
X112354819Y-94676190D02*
X112402438Y-94533333D01*
X112354819Y-94104761D02*
X113164342Y-94104761D01*
X113164342Y-94104761D02*
X113259580Y-94057142D01*
X113259580Y-94057142D02*
X113307200Y-94009523D01*
X113307200Y-94009523D02*
X113354819Y-93914285D01*
X113354819Y-93914285D02*
X113354819Y-93723809D01*
X113354819Y-93723809D02*
X113307200Y-93628571D01*
X113307200Y-93628571D02*
X113259580Y-93580952D01*
X113259580Y-93580952D02*
X113164342Y-93533333D01*
X113164342Y-93533333D02*
X112354819Y-93533333D01*
X112831009Y-92723809D02*
X112878628Y-92580952D01*
X112878628Y-92580952D02*
X112926247Y-92533333D01*
X112926247Y-92533333D02*
X113021485Y-92485714D01*
X113021485Y-92485714D02*
X113164342Y-92485714D01*
X113164342Y-92485714D02*
X113259580Y-92533333D01*
X113259580Y-92533333D02*
X113307200Y-92580952D01*
X113307200Y-92580952D02*
X113354819Y-92676190D01*
X113354819Y-92676190D02*
X113354819Y-93057142D01*
X113354819Y-93057142D02*
X112354819Y-93057142D01*
X112354819Y-93057142D02*
X112354819Y-92723809D01*
X112354819Y-92723809D02*
X112402438Y-92628571D01*
X112402438Y-92628571D02*
X112450057Y-92580952D01*
X112450057Y-92580952D02*
X112545295Y-92533333D01*
X112545295Y-92533333D02*
X112640533Y-92533333D01*
X112640533Y-92533333D02*
X112735771Y-92580952D01*
X112735771Y-92580952D02*
X112783390Y-92628571D01*
X112783390Y-92628571D02*
X112831009Y-92723809D01*
X112831009Y-92723809D02*
X112831009Y-93057142D01*
X113259580Y-92057142D02*
X113307200Y-92009523D01*
X113307200Y-92009523D02*
X113354819Y-92057142D01*
X113354819Y-92057142D02*
X113307200Y-92104761D01*
X113307200Y-92104761D02*
X113259580Y-92057142D01*
X113259580Y-92057142D02*
X113354819Y-92057142D01*
X112735771Y-92057142D02*
X112783390Y-92009523D01*
X112783390Y-92009523D02*
X112831009Y-92057142D01*
X112831009Y-92057142D02*
X112783390Y-92104761D01*
X112783390Y-92104761D02*
X112735771Y-92057142D01*
X112735771Y-92057142D02*
X112831009Y-92057142D01*
X112354819Y-91295238D02*
X113069104Y-91295238D01*
X113069104Y-91295238D02*
X113211961Y-91342857D01*
X113211961Y-91342857D02*
X113307200Y-91438095D01*
X113307200Y-91438095D02*
X113354819Y-91580952D01*
X113354819Y-91580952D02*
X113354819Y-91676190D01*
X112688152Y-90390476D02*
X113354819Y-90390476D01*
X112307200Y-90628571D02*
X113021485Y-90866666D01*
X113021485Y-90866666D02*
X113021485Y-90247619D01*
D13*
X107375000Y-125150926D02*
X107341667Y-125184260D01*
X107341667Y-125184260D02*
X107241667Y-125217593D01*
X107241667Y-125217593D02*
X107175000Y-125217593D01*
X107175000Y-125217593D02*
X107075000Y-125184260D01*
X107075000Y-125184260D02*
X107008334Y-125117593D01*
X107008334Y-125117593D02*
X106975000Y-125050926D01*
X106975000Y-125050926D02*
X106941667Y-124917593D01*
X106941667Y-124917593D02*
X106941667Y-124817593D01*
X106941667Y-124817593D02*
X106975000Y-124684260D01*
X106975000Y-124684260D02*
X107008334Y-124617593D01*
X107008334Y-124617593D02*
X107075000Y-124550926D01*
X107075000Y-124550926D02*
X107175000Y-124517593D01*
X107175000Y-124517593D02*
X107241667Y-124517593D01*
X107241667Y-124517593D02*
X107341667Y-124550926D01*
X107341667Y-124550926D02*
X107375000Y-124584260D01*
X107641667Y-125017593D02*
X107975000Y-125017593D01*
X107575000Y-125217593D02*
X107808334Y-124517593D01*
X107808334Y-124517593D02*
X108041667Y-125217593D01*
X108275000Y-125217593D02*
X108275000Y-124517593D01*
X108275000Y-124517593D02*
X108675000Y-125217593D01*
X108675000Y-125217593D02*
X108675000Y-124517593D01*
X109341667Y-125217593D02*
X109008333Y-125217593D01*
X109008333Y-125217593D02*
X109008333Y-124517593D01*
X109408334Y-125284260D02*
X109941667Y-125284260D01*
X110308333Y-124517593D02*
X110308333Y-125017593D01*
X110308333Y-125017593D02*
X110275000Y-125117593D01*
X110275000Y-125117593D02*
X110208333Y-125184260D01*
X110208333Y-125184260D02*
X110108333Y-125217593D01*
X110108333Y-125217593D02*
X110041667Y-125217593D01*
X110941666Y-124750926D02*
X110941666Y-125217593D01*
X110775000Y-124484260D02*
X110608333Y-124984260D01*
X110608333Y-124984260D02*
X111041666Y-124984260D01*
D11*
X145866666Y-63124819D02*
X145866666Y-63839104D01*
X145866666Y-63839104D02*
X145819047Y-63981961D01*
X145819047Y-63981961D02*
X145723809Y-64077200D01*
X145723809Y-64077200D02*
X145580952Y-64124819D01*
X145580952Y-64124819D02*
X145485714Y-64124819D01*
X146771428Y-63458152D02*
X146771428Y-64124819D01*
X146533333Y-63077200D02*
X146295238Y-63791485D01*
X146295238Y-63791485D02*
X146914285Y-63791485D01*
D13*
X104208333Y-123650926D02*
X104175000Y-123684260D01*
X104175000Y-123684260D02*
X104075000Y-123717593D01*
X104075000Y-123717593D02*
X104008333Y-123717593D01*
X104008333Y-123717593D02*
X103908333Y-123684260D01*
X103908333Y-123684260D02*
X103841667Y-123617593D01*
X103841667Y-123617593D02*
X103808333Y-123550926D01*
X103808333Y-123550926D02*
X103775000Y-123417593D01*
X103775000Y-123417593D02*
X103775000Y-123317593D01*
X103775000Y-123317593D02*
X103808333Y-123184260D01*
X103808333Y-123184260D02*
X103841667Y-123117593D01*
X103841667Y-123117593D02*
X103908333Y-123050926D01*
X103908333Y-123050926D02*
X104008333Y-123017593D01*
X104008333Y-123017593D02*
X104075000Y-123017593D01*
X104075000Y-123017593D02*
X104175000Y-123050926D01*
X104175000Y-123050926D02*
X104208333Y-123084260D01*
X104475000Y-123517593D02*
X104808333Y-123517593D01*
X104408333Y-123717593D02*
X104641667Y-123017593D01*
X104641667Y-123017593D02*
X104875000Y-123717593D01*
X105108333Y-123717593D02*
X105108333Y-123017593D01*
X105108333Y-123017593D02*
X105508333Y-123717593D01*
X105508333Y-123717593D02*
X105508333Y-123017593D01*
X106208333Y-123050926D02*
X106141666Y-123017593D01*
X106141666Y-123017593D02*
X106041666Y-123017593D01*
X106041666Y-123017593D02*
X105941666Y-123050926D01*
X105941666Y-123050926D02*
X105875000Y-123117593D01*
X105875000Y-123117593D02*
X105841666Y-123184260D01*
X105841666Y-123184260D02*
X105808333Y-123317593D01*
X105808333Y-123317593D02*
X105808333Y-123417593D01*
X105808333Y-123417593D02*
X105841666Y-123550926D01*
X105841666Y-123550926D02*
X105875000Y-123617593D01*
X105875000Y-123617593D02*
X105941666Y-123684260D01*
X105941666Y-123684260D02*
X106041666Y-123717593D01*
X106041666Y-123717593D02*
X106108333Y-123717593D01*
X106108333Y-123717593D02*
X106208333Y-123684260D01*
X106208333Y-123684260D02*
X106241666Y-123650926D01*
X106241666Y-123650926D02*
X106241666Y-123417593D01*
X106241666Y-123417593D02*
X106108333Y-123417593D01*
X106375000Y-123784260D02*
X106908333Y-123784260D01*
X107274999Y-123017593D02*
X107274999Y-123517593D01*
X107274999Y-123517593D02*
X107241666Y-123617593D01*
X107241666Y-123617593D02*
X107174999Y-123684260D01*
X107174999Y-123684260D02*
X107074999Y-123717593D01*
X107074999Y-123717593D02*
X107008333Y-123717593D01*
X107908332Y-123250926D02*
X107908332Y-123717593D01*
X107741666Y-122984260D02*
X107574999Y-123484260D01*
X107574999Y-123484260D02*
X108008332Y-123484260D01*
X107491667Y-122250926D02*
X107458334Y-122284260D01*
X107458334Y-122284260D02*
X107358334Y-122317593D01*
X107358334Y-122317593D02*
X107291667Y-122317593D01*
X107291667Y-122317593D02*
X107191667Y-122284260D01*
X107191667Y-122284260D02*
X107125001Y-122217593D01*
X107125001Y-122217593D02*
X107091667Y-122150926D01*
X107091667Y-122150926D02*
X107058334Y-122017593D01*
X107058334Y-122017593D02*
X107058334Y-121917593D01*
X107058334Y-121917593D02*
X107091667Y-121784260D01*
X107091667Y-121784260D02*
X107125001Y-121717593D01*
X107125001Y-121717593D02*
X107191667Y-121650926D01*
X107191667Y-121650926D02*
X107291667Y-121617593D01*
X107291667Y-121617593D02*
X107358334Y-121617593D01*
X107358334Y-121617593D02*
X107458334Y-121650926D01*
X107458334Y-121650926D02*
X107491667Y-121684260D01*
X107758334Y-122117593D02*
X108091667Y-122117593D01*
X107691667Y-122317593D02*
X107925001Y-121617593D01*
X107925001Y-121617593D02*
X108158334Y-122317593D01*
X108391667Y-122317593D02*
X108391667Y-121617593D01*
X108391667Y-121617593D02*
X108791667Y-122317593D01*
X108791667Y-122317593D02*
X108791667Y-121617593D01*
X109125000Y-122317593D02*
X109125000Y-121617593D01*
X109125000Y-121950926D02*
X109525000Y-121950926D01*
X109525000Y-122317593D02*
X109525000Y-121617593D01*
X109691667Y-122384260D02*
X110225000Y-122384260D01*
X110591666Y-121617593D02*
X110591666Y-122117593D01*
X110591666Y-122117593D02*
X110558333Y-122217593D01*
X110558333Y-122217593D02*
X110491666Y-122284260D01*
X110491666Y-122284260D02*
X110391666Y-122317593D01*
X110391666Y-122317593D02*
X110325000Y-122317593D01*
X111224999Y-121850926D02*
X111224999Y-122317593D01*
X111058333Y-121584260D02*
X110891666Y-122084260D01*
X110891666Y-122084260D02*
X111324999Y-122084260D01*
X145575000Y-125050926D02*
X145541667Y-125084260D01*
X145541667Y-125084260D02*
X145441667Y-125117593D01*
X145441667Y-125117593D02*
X145375000Y-125117593D01*
X145375000Y-125117593D02*
X145275000Y-125084260D01*
X145275000Y-125084260D02*
X145208334Y-125017593D01*
X145208334Y-125017593D02*
X145175000Y-124950926D01*
X145175000Y-124950926D02*
X145141667Y-124817593D01*
X145141667Y-124817593D02*
X145141667Y-124717593D01*
X145141667Y-124717593D02*
X145175000Y-124584260D01*
X145175000Y-124584260D02*
X145208334Y-124517593D01*
X145208334Y-124517593D02*
X145275000Y-124450926D01*
X145275000Y-124450926D02*
X145375000Y-124417593D01*
X145375000Y-124417593D02*
X145441667Y-124417593D01*
X145441667Y-124417593D02*
X145541667Y-124450926D01*
X145541667Y-124450926D02*
X145575000Y-124484260D01*
X145841667Y-124917593D02*
X146175000Y-124917593D01*
X145775000Y-125117593D02*
X146008334Y-124417593D01*
X146008334Y-124417593D02*
X146241667Y-125117593D01*
X146475000Y-125117593D02*
X146475000Y-124417593D01*
X146475000Y-124417593D02*
X146875000Y-125117593D01*
X146875000Y-125117593D02*
X146875000Y-124417593D01*
X147541667Y-125117593D02*
X147208333Y-125117593D01*
X147208333Y-125117593D02*
X147208333Y-124417593D01*
X147608334Y-125184260D02*
X148141667Y-125184260D01*
X148508333Y-124417593D02*
X148508333Y-124917593D01*
X148508333Y-124917593D02*
X148475000Y-125017593D01*
X148475000Y-125017593D02*
X148408333Y-125084260D01*
X148408333Y-125084260D02*
X148308333Y-125117593D01*
X148308333Y-125117593D02*
X148241667Y-125117593D01*
X148808333Y-124484260D02*
X148841666Y-124450926D01*
X148841666Y-124450926D02*
X148908333Y-124417593D01*
X148908333Y-124417593D02*
X149075000Y-124417593D01*
X149075000Y-124417593D02*
X149141666Y-124450926D01*
X149141666Y-124450926D02*
X149175000Y-124484260D01*
X149175000Y-124484260D02*
X149208333Y-124550926D01*
X149208333Y-124550926D02*
X149208333Y-124617593D01*
X149208333Y-124617593D02*
X149175000Y-124717593D01*
X149175000Y-124717593D02*
X148775000Y-125117593D01*
X148775000Y-125117593D02*
X149208333Y-125117593D01*
D11*
X168007200Y-75704761D02*
X168054819Y-75561904D01*
X168054819Y-75561904D02*
X168054819Y-75323809D01*
X168054819Y-75323809D02*
X168007200Y-75228571D01*
X168007200Y-75228571D02*
X167959580Y-75180952D01*
X167959580Y-75180952D02*
X167864342Y-75133333D01*
X167864342Y-75133333D02*
X167769104Y-75133333D01*
X167769104Y-75133333D02*
X167673866Y-75180952D01*
X167673866Y-75180952D02*
X167626247Y-75228571D01*
X167626247Y-75228571D02*
X167578628Y-75323809D01*
X167578628Y-75323809D02*
X167531009Y-75514285D01*
X167531009Y-75514285D02*
X167483390Y-75609523D01*
X167483390Y-75609523D02*
X167435771Y-75657142D01*
X167435771Y-75657142D02*
X167340533Y-75704761D01*
X167340533Y-75704761D02*
X167245295Y-75704761D01*
X167245295Y-75704761D02*
X167150057Y-75657142D01*
X167150057Y-75657142D02*
X167102438Y-75609523D01*
X167102438Y-75609523D02*
X167054819Y-75514285D01*
X167054819Y-75514285D02*
X167054819Y-75276190D01*
X167054819Y-75276190D02*
X167102438Y-75133333D01*
X167054819Y-74704761D02*
X167864342Y-74704761D01*
X167864342Y-74704761D02*
X167959580Y-74657142D01*
X167959580Y-74657142D02*
X168007200Y-74609523D01*
X168007200Y-74609523D02*
X168054819Y-74514285D01*
X168054819Y-74514285D02*
X168054819Y-74323809D01*
X168054819Y-74323809D02*
X168007200Y-74228571D01*
X168007200Y-74228571D02*
X167959580Y-74180952D01*
X167959580Y-74180952D02*
X167864342Y-74133333D01*
X167864342Y-74133333D02*
X167054819Y-74133333D01*
X167531009Y-73323809D02*
X167578628Y-73180952D01*
X167578628Y-73180952D02*
X167626247Y-73133333D01*
X167626247Y-73133333D02*
X167721485Y-73085714D01*
X167721485Y-73085714D02*
X167864342Y-73085714D01*
X167864342Y-73085714D02*
X167959580Y-73133333D01*
X167959580Y-73133333D02*
X168007200Y-73180952D01*
X168007200Y-73180952D02*
X168054819Y-73276190D01*
X168054819Y-73276190D02*
X168054819Y-73657142D01*
X168054819Y-73657142D02*
X167054819Y-73657142D01*
X167054819Y-73657142D02*
X167054819Y-73323809D01*
X167054819Y-73323809D02*
X167102438Y-73228571D01*
X167102438Y-73228571D02*
X167150057Y-73180952D01*
X167150057Y-73180952D02*
X167245295Y-73133333D01*
X167245295Y-73133333D02*
X167340533Y-73133333D01*
X167340533Y-73133333D02*
X167435771Y-73180952D01*
X167435771Y-73180952D02*
X167483390Y-73228571D01*
X167483390Y-73228571D02*
X167531009Y-73323809D01*
X167531009Y-73323809D02*
X167531009Y-73657142D01*
X167959580Y-72657142D02*
X168007200Y-72609523D01*
X168007200Y-72609523D02*
X168054819Y-72657142D01*
X168054819Y-72657142D02*
X168007200Y-72704761D01*
X168007200Y-72704761D02*
X167959580Y-72657142D01*
X167959580Y-72657142D02*
X168054819Y-72657142D01*
X167435771Y-72657142D02*
X167483390Y-72609523D01*
X167483390Y-72609523D02*
X167531009Y-72657142D01*
X167531009Y-72657142D02*
X167483390Y-72704761D01*
X167483390Y-72704761D02*
X167435771Y-72657142D01*
X167435771Y-72657142D02*
X167531009Y-72657142D01*
X167054819Y-71895238D02*
X167769104Y-71895238D01*
X167769104Y-71895238D02*
X167911961Y-71942857D01*
X167911961Y-71942857D02*
X168007200Y-72038095D01*
X168007200Y-72038095D02*
X168054819Y-72180952D01*
X168054819Y-72180952D02*
X168054819Y-72276190D01*
X167054819Y-70990476D02*
X167054819Y-71180952D01*
X167054819Y-71180952D02*
X167102438Y-71276190D01*
X167102438Y-71276190D02*
X167150057Y-71323809D01*
X167150057Y-71323809D02*
X167292914Y-71419047D01*
X167292914Y-71419047D02*
X167483390Y-71466666D01*
X167483390Y-71466666D02*
X167864342Y-71466666D01*
X167864342Y-71466666D02*
X167959580Y-71419047D01*
X167959580Y-71419047D02*
X168007200Y-71371428D01*
X168007200Y-71371428D02*
X168054819Y-71276190D01*
X168054819Y-71276190D02*
X168054819Y-71085714D01*
X168054819Y-71085714D02*
X168007200Y-70990476D01*
X168007200Y-70990476D02*
X167959580Y-70942857D01*
X167959580Y-70942857D02*
X167864342Y-70895238D01*
X167864342Y-70895238D02*
X167626247Y-70895238D01*
X167626247Y-70895238D02*
X167531009Y-70942857D01*
X167531009Y-70942857D02*
X167483390Y-70990476D01*
X167483390Y-70990476D02*
X167435771Y-71085714D01*
X167435771Y-71085714D02*
X167435771Y-71276190D01*
X167435771Y-71276190D02*
X167483390Y-71371428D01*
X167483390Y-71371428D02*
X167531009Y-71419047D01*
X167531009Y-71419047D02*
X167626247Y-71466666D01*
D13*
%TO.C,M:C10*%
X110181250Y-80678733D02*
X110181250Y-80971267D01*
X111201250Y-80678733D02*
X111201250Y-80971267D01*
%TO.C,M:C12*%
X152190000Y-92108767D02*
X152190000Y-91816233D01*
X153210000Y-92108767D02*
X153210000Y-91816233D01*
D14*
%TO.C,U2*%
X107100000Y-95237000D02*
X107100000Y-93812000D01*
X107330000Y-91162000D02*
X111370000Y-91162000D01*
X107330000Y-93462000D02*
X107330000Y-91162000D01*
X111370000Y-91162000D02*
X111370000Y-93462000D01*
X111370000Y-93462000D02*
X107330000Y-93462000D01*
D13*
%TO.C,J7*%
X103661250Y-81255000D02*
X103661250Y-63415000D01*
X106321250Y-63415000D02*
X103661250Y-63415000D01*
X106321250Y-81255000D02*
X103661250Y-81255000D01*
X106321250Y-81255000D02*
X106321250Y-63415000D01*
X106321250Y-82525000D02*
X106321250Y-83855000D01*
X106321250Y-83855000D02*
X104991250Y-83855000D01*
D14*
%TO.C,U3*%
X157250000Y-72925000D02*
X157250000Y-71500000D01*
X157480000Y-68850000D02*
X161520000Y-68850000D01*
X157480000Y-71150000D02*
X157480000Y-68850000D01*
X161520000Y-68850000D02*
X161520000Y-71150000D01*
X161520000Y-71150000D02*
X157480000Y-71150000D01*
D13*
%TO.C,CANG_J3*%
X170232500Y-124610000D02*
X170232500Y-124730000D01*
X170232500Y-124730000D02*
X172892500Y-124730000D01*
X171562500Y-122070000D02*
X172892500Y-122070000D01*
X172892500Y-122070000D02*
X172892500Y-123400000D01*
X172892500Y-124610000D02*
X172892500Y-124730000D01*
%TO.C,SUB:U1*%
X112265000Y-103075000D02*
X110315000Y-103075000D01*
X112265000Y-103075000D02*
X114215000Y-103075000D01*
X112265000Y-108195000D02*
X110315000Y-108195000D01*
X112265000Y-108195000D02*
X114215000Y-108195000D01*
X115205000Y-108430000D02*
X114725000Y-108430000D01*
X114965000Y-108100000D01*
X115205000Y-108430000D01*
G36*
X115205000Y-108430000D02*
G01*
X114725000Y-108430000D01*
X114965000Y-108100000D01*
X115205000Y-108430000D01*
G37*
%TO.C,CANG_J1*%
X132770000Y-124610000D02*
X132770000Y-124730000D01*
X132770000Y-124730000D02*
X135430000Y-124730000D01*
X134100000Y-122070000D02*
X135430000Y-122070000D01*
X135430000Y-122070000D02*
X135430000Y-123400000D01*
X135430000Y-124610000D02*
X135430000Y-124730000D01*
%TO.C,Ter_R1*%
X128220000Y-120400000D02*
X129170000Y-120400000D01*
X129170000Y-119480000D02*
X129170000Y-121320000D01*
X129170000Y-121320000D02*
X133010000Y-121320000D01*
X133010000Y-119480000D02*
X129170000Y-119480000D01*
X133010000Y-121320000D02*
X133010000Y-119480000D01*
X133960000Y-120400000D02*
X133010000Y-120400000D01*
%TO.C,Ter_R6*%
X165692500Y-126350000D02*
X166642500Y-126350000D01*
X166642500Y-125430000D02*
X166642500Y-127270000D01*
X166642500Y-127270000D02*
X170482500Y-127270000D01*
X170482500Y-125430000D02*
X166642500Y-125430000D01*
X170482500Y-127270000D02*
X170482500Y-125430000D01*
X171432500Y-126350000D02*
X170482500Y-126350000D01*
%TO.C,SUB:J3*%
X103570000Y-95030000D02*
X103570000Y-87350000D01*
X106230000Y-87350000D02*
X103570000Y-87350000D01*
X106230000Y-95030000D02*
X103570000Y-95030000D01*
X106230000Y-95030000D02*
X106230000Y-87350000D01*
X106230000Y-96300000D02*
X106230000Y-97630000D01*
X106230000Y-97630000D02*
X104900000Y-97630000D01*
%TO.C,SUB:J2*%
X171470000Y-102870000D02*
X171470000Y-95190000D01*
X174130000Y-95190000D02*
X171470000Y-95190000D01*
X174130000Y-102870000D02*
X171470000Y-102870000D01*
X174130000Y-102870000D02*
X174130000Y-95190000D01*
X174130000Y-104140000D02*
X174130000Y-105470000D01*
X174130000Y-105470000D02*
X172800000Y-105470000D01*
%TO.C,Ter_R3*%
X147095000Y-120400000D02*
X148045000Y-120400000D01*
X148045000Y-119480000D02*
X148045000Y-121320000D01*
X148045000Y-121320000D02*
X151885000Y-121320000D01*
X151885000Y-119480000D02*
X148045000Y-119480000D01*
X151885000Y-121320000D02*
X151885000Y-119480000D01*
X152835000Y-120400000D02*
X151885000Y-120400000D01*
%TO.C,J8*%
X148570000Y-112990000D02*
X148570000Y-64670000D01*
X151230000Y-64670000D02*
X148570000Y-64670000D01*
X151230000Y-112990000D02*
X148570000Y-112990000D01*
X151230000Y-112990000D02*
X151230000Y-64670000D01*
X151230000Y-114260000D02*
X151230000Y-115590000D01*
X151230000Y-115590000D02*
X149900000Y-115590000D01*
%TO.C,C1*%
X112411267Y-101625000D02*
X112118733Y-101625000D01*
X112411267Y-102645000D02*
X112118733Y-102645000D01*
%TO.C,Ter_R8*%
X109195000Y-126350000D02*
X110145000Y-126350000D01*
X110145000Y-125430000D02*
X110145000Y-127270000D01*
X110145000Y-127270000D02*
X113985000Y-127270000D01*
X113985000Y-125430000D02*
X110145000Y-125430000D01*
X113985000Y-127270000D02*
X113985000Y-125430000D01*
X114935000Y-126350000D02*
X113985000Y-126350000D01*
%TO.C,U1*%
X155800000Y-90780000D02*
X156300000Y-90780000D01*
X155800000Y-91150000D02*
X155800000Y-90780000D01*
X155800000Y-94020000D02*
X155800000Y-93650000D01*
X155800000Y-94020000D02*
X156300000Y-94020000D01*
X159040000Y-90780000D02*
X157750000Y-90780000D01*
X159040000Y-91150000D02*
X159040000Y-90780000D01*
X159040000Y-94020000D02*
X157750000Y-94020000D01*
X159040000Y-93830000D02*
X159040000Y-93550000D01*
X159320000Y-93550000D01*
X159040000Y-93830000D01*
G36*
X159040000Y-93830000D02*
G01*
X159040000Y-93550000D01*
X159320000Y-93550000D01*
X159040000Y-93830000D01*
G37*
%TO.C,CANH_J2*%
X141945000Y-122410000D02*
X141945000Y-122530000D01*
X141945000Y-122530000D02*
X144605000Y-122530000D01*
X143275000Y-119870000D02*
X144605000Y-119870000D01*
X144605000Y-119870000D02*
X144605000Y-121200000D01*
X144605000Y-122410000D02*
X144605000Y-122530000D01*
%TO.C,SUB:R2*%
X153730000Y-96500000D02*
X154680000Y-96500000D01*
X154680000Y-95580000D02*
X154680000Y-97420000D01*
X154680000Y-97420000D02*
X158520000Y-97420000D01*
X158520000Y-95580000D02*
X154680000Y-95580000D01*
X158520000Y-97420000D02*
X158520000Y-95580000D01*
X159470000Y-96500000D02*
X158520000Y-96500000D01*
%TO.C,M:C7*%
X158353733Y-74490000D02*
X158646267Y-74490000D01*
X158353733Y-75510000D02*
X158646267Y-75510000D01*
%TO.C,Ter_R5*%
X165682500Y-120400000D02*
X166632500Y-120400000D01*
X166632500Y-119480000D02*
X166632500Y-121320000D01*
X166632500Y-121320000D02*
X170472500Y-121320000D01*
X170472500Y-119480000D02*
X166632500Y-119480000D01*
X170472500Y-121320000D02*
X170472500Y-119480000D01*
X171422500Y-120400000D02*
X170472500Y-120400000D01*
%TO.C,J9*%
X125970000Y-64670000D02*
X127300000Y-64670000D01*
X125970000Y-66000000D02*
X125970000Y-64670000D01*
X125970000Y-67270000D02*
X125970000Y-115590000D01*
X125970000Y-67270000D02*
X128630000Y-67270000D01*
X125970000Y-115590000D02*
X128630000Y-115590000D01*
X128630000Y-67270000D02*
X128630000Y-115590000D01*
%TO.C,Ter_R7*%
X109195000Y-120400000D02*
X110145000Y-120400000D01*
X110145000Y-119480000D02*
X110145000Y-121320000D01*
X110145000Y-121320000D02*
X113985000Y-121320000D01*
X113985000Y-119480000D02*
X110145000Y-119480000D01*
X113985000Y-121320000D02*
X113985000Y-119480000D01*
X114935000Y-120400000D02*
X113985000Y-120400000D01*
%TO.C,SUB:J5*%
X153570000Y-72730000D02*
X153570000Y-65050000D01*
X156230000Y-65050000D02*
X153570000Y-65050000D01*
X156230000Y-72730000D02*
X153570000Y-72730000D01*
X156230000Y-72730000D02*
X156230000Y-65050000D01*
X156230000Y-74000000D02*
X156230000Y-75330000D01*
X156230000Y-75330000D02*
X154900000Y-75330000D01*
%TO.C,J2*%
X171470000Y-91370000D02*
X172800000Y-91370000D01*
X171470000Y-92700000D02*
X171470000Y-91370000D01*
X171470000Y-93970000D02*
X171470000Y-94030000D01*
X171470000Y-93970000D02*
X174130000Y-93970000D01*
X171470000Y-94030000D02*
X174130000Y-94030000D01*
X174130000Y-93970000D02*
X174130000Y-94030000D01*
%TO.C,M:C6*%
X161716233Y-64790000D02*
X162008767Y-64790000D01*
X161716233Y-65810000D02*
X162008767Y-65810000D01*
%TO.C,C3*%
X130453733Y-122990000D02*
X130746267Y-122990000D01*
X130453733Y-124010000D02*
X130746267Y-124010000D01*
%TO.C,SUB:R3*%
X155780000Y-82470000D02*
X155780000Y-86310000D01*
X155780000Y-86310000D02*
X157620000Y-86310000D01*
X156700000Y-81520000D02*
X156700000Y-82470000D01*
X156700000Y-87260000D02*
X156700000Y-86310000D01*
X157620000Y-82470000D02*
X155780000Y-82470000D01*
X157620000Y-86310000D02*
X157620000Y-82470000D01*
%TO.C,CANL_J1*%
X123170000Y-126810000D02*
X123170000Y-126930000D01*
X123170000Y-126930000D02*
X125830000Y-126930000D01*
X124500000Y-124270000D02*
X125830000Y-124270000D01*
X125830000Y-124270000D02*
X125830000Y-125600000D01*
X125830000Y-126810000D02*
X125830000Y-126930000D01*
%TO.C,M:C1*%
X111653733Y-96990000D02*
X111946267Y-96990000D01*
X111653733Y-98010000D02*
X111946267Y-98010000D01*
%TO.C,SUB:R1*%
X163340000Y-96500000D02*
X164290000Y-96500000D01*
X164290000Y-95580000D02*
X164290000Y-97420000D01*
X164290000Y-97420000D02*
X168130000Y-97420000D01*
X168130000Y-95580000D02*
X164290000Y-95580000D01*
X168130000Y-97420000D02*
X168130000Y-95580000D01*
X169080000Y-96500000D02*
X168130000Y-96500000D01*
%TO.C,M:C8*%
X162008767Y-74490000D02*
X161716233Y-74490000D01*
X162008767Y-75510000D02*
X161716233Y-75510000D01*
%TO.C,SUB:U2*%
X111491250Y-72140000D02*
X109291250Y-72140000D01*
X111491250Y-72140000D02*
X113691250Y-72140000D01*
X111491250Y-78910000D02*
X109291250Y-78910000D01*
X111491250Y-78910000D02*
X113691250Y-78910000D01*
X115681250Y-78690000D02*
X115351250Y-78450000D01*
X115681250Y-78210000D01*
X115681250Y-78690000D01*
G36*
X115681250Y-78690000D02*
G01*
X115351250Y-78450000D01*
X115681250Y-78210000D01*
X115681250Y-78690000D01*
G37*
%TO.C,M:C5*%
X158533767Y-64790000D02*
X158241233Y-64790000D01*
X158533767Y-65810000D02*
X158241233Y-65810000D01*
%TO.C,CANH_J1*%
X123170000Y-122410000D02*
X123170000Y-122530000D01*
X123170000Y-122530000D02*
X125830000Y-122530000D01*
X124500000Y-119870000D02*
X125830000Y-119870000D01*
X125830000Y-119870000D02*
X125830000Y-121200000D01*
X125830000Y-122410000D02*
X125830000Y-122530000D01*
%TO.C,CANG_J2*%
X151645000Y-124610000D02*
X151645000Y-124730000D01*
X151645000Y-124730000D02*
X154305000Y-124730000D01*
X152975000Y-122070000D02*
X154305000Y-122070000D01*
X154305000Y-122070000D02*
X154305000Y-123400000D01*
X154305000Y-124610000D02*
X154305000Y-124730000D01*
%TO.C,Ter_R4*%
X147095000Y-126300000D02*
X148045000Y-126300000D01*
X148045000Y-125380000D02*
X148045000Y-127220000D01*
X148045000Y-127220000D02*
X151885000Y-127220000D01*
X151885000Y-125380000D02*
X148045000Y-125380000D01*
X151885000Y-127220000D02*
X151885000Y-125380000D01*
X152835000Y-126300000D02*
X151885000Y-126300000D01*
%TO.C,C2*%
X116755000Y-105781267D02*
X116755000Y-105488733D01*
X117775000Y-105781267D02*
X117775000Y-105488733D01*
%TO.C,Ter_R2*%
X128220000Y-126300000D02*
X129170000Y-126300000D01*
X129170000Y-125380000D02*
X129170000Y-127220000D01*
X129170000Y-127220000D02*
X133010000Y-127220000D01*
X133010000Y-125380000D02*
X129170000Y-125380000D01*
X133010000Y-127220000D02*
X133010000Y-125380000D01*
X133960000Y-126300000D02*
X133010000Y-126300000D01*
%TO.C,CANL_J3*%
X160632500Y-126810000D02*
X160632500Y-126930000D01*
X160632500Y-126930000D02*
X163292500Y-126930000D01*
X161962500Y-124270000D02*
X163292500Y-124270000D01*
X163292500Y-124270000D02*
X163292500Y-125600000D01*
X163292500Y-126810000D02*
X163292500Y-126930000D01*
%TO.C,J1*%
X161870000Y-92370000D02*
X161870000Y-89770000D01*
X161870000Y-94970000D02*
X161870000Y-93640000D01*
X163200000Y-94970000D02*
X161870000Y-94970000D01*
X164530000Y-89770000D02*
X161870000Y-89770000D01*
X164530000Y-92370000D02*
X161870000Y-92370000D01*
X164530000Y-92370000D02*
X164530000Y-89770000D01*
%TO.C,CANH_J3*%
X160632500Y-122410000D02*
X160632500Y-122530000D01*
X160632500Y-122530000D02*
X163292500Y-122530000D01*
X161962500Y-119870000D02*
X163292500Y-119870000D01*
X163292500Y-119870000D02*
X163292500Y-121200000D01*
X163292500Y-122410000D02*
X163292500Y-122530000D01*
%TO.C,C6*%
X111391233Y-122990000D02*
X111683767Y-122990000D01*
X111391233Y-124010000D02*
X111683767Y-124010000D01*
%TO.C,M:C4*%
X111616233Y-87090000D02*
X111908767Y-87090000D01*
X111616233Y-88110000D02*
X111908767Y-88110000D01*
%TO.C,C4*%
X149266233Y-122890000D02*
X149558767Y-122890000D01*
X149266233Y-123910000D02*
X149558767Y-123910000D01*
%TO.C,M:C9*%
X111791250Y-80678733D02*
X111791250Y-80971267D01*
X112811250Y-80678733D02*
X112811250Y-80971267D01*
%TO.C,J3*%
X129670000Y-64670000D02*
X131000000Y-64670000D01*
X129670000Y-66000000D02*
X129670000Y-64670000D01*
X129670000Y-67270000D02*
X129670000Y-115590000D01*
X129670000Y-67270000D02*
X132330000Y-67270000D01*
X129670000Y-115590000D02*
X132330000Y-115590000D01*
X132330000Y-67270000D02*
X132330000Y-115590000D01*
%TO.C,C5*%
X167853733Y-122890000D02*
X168146267Y-122890000D01*
X167853733Y-123910000D02*
X168146267Y-123910000D01*
%TO.C,M:C2*%
X108291233Y-96990000D02*
X108583767Y-96990000D01*
X108291233Y-98010000D02*
X108583767Y-98010000D01*
%TO.C,J5*%
X116461250Y-81255000D02*
X116461250Y-63415000D01*
X119121250Y-63415000D02*
X116461250Y-63415000D01*
X119121250Y-81255000D02*
X116461250Y-81255000D01*
X119121250Y-81255000D02*
X119121250Y-63415000D01*
X119121250Y-82525000D02*
X119121250Y-83855000D01*
X119121250Y-83855000D02*
X117791250Y-83855000D01*
%TO.C,SUB:J1*%
X171470000Y-87730000D02*
X171470000Y-80050000D01*
X174130000Y-80050000D02*
X171470000Y-80050000D01*
X174130000Y-87730000D02*
X171470000Y-87730000D01*
X174130000Y-87730000D02*
X174130000Y-80050000D01*
X174130000Y-89000000D02*
X174130000Y-90330000D01*
X174130000Y-90330000D02*
X172800000Y-90330000D01*
%TO.C,M:C3*%
X108546267Y-87090000D02*
X108253733Y-87090000D01*
X108546267Y-88110000D02*
X108253733Y-88110000D01*
%TO.C,SUB:J7*%
X105435000Y-108165000D02*
X105435000Y-100485000D01*
X108095000Y-100485000D02*
X105435000Y-100485000D01*
X108095000Y-108165000D02*
X105435000Y-108165000D01*
X108095000Y-108165000D02*
X108095000Y-100485000D01*
X108095000Y-109435000D02*
X108095000Y-110765000D01*
X108095000Y-110765000D02*
X106765000Y-110765000D01*
%TO.C,SUB:J4*%
X113970000Y-94970000D02*
X113970000Y-87290000D01*
X116630000Y-87290000D02*
X113970000Y-87290000D01*
X116630000Y-94970000D02*
X113970000Y-94970000D01*
X116630000Y-94970000D02*
X116630000Y-87290000D01*
X116630000Y-96240000D02*
X116630000Y-97570000D01*
X116630000Y-97570000D02*
X115300000Y-97570000D01*
%TO.C,CANL_J4*%
X104145000Y-124270000D02*
X104145000Y-126930000D01*
X104265000Y-124270000D02*
X104145000Y-124270000D01*
X104265000Y-126930000D02*
X104145000Y-126930000D01*
X106805000Y-125600000D02*
X106805000Y-126930000D01*
X106805000Y-126930000D02*
X105475000Y-126930000D01*
%TO.C,J4*%
X144870000Y-64670000D02*
X146200000Y-64670000D01*
X144870000Y-66000000D02*
X144870000Y-64670000D01*
X144870000Y-67270000D02*
X144870000Y-115590000D01*
X144870000Y-67270000D02*
X147530000Y-67270000D01*
X144870000Y-115590000D02*
X147530000Y-115590000D01*
X147530000Y-67270000D02*
X147530000Y-115590000D01*
%TO.C,CANG_J4*%
X113745000Y-124610000D02*
X113745000Y-124730000D01*
X113745000Y-124730000D02*
X116405000Y-124730000D01*
X115075000Y-122070000D02*
X116405000Y-122070000D01*
X116405000Y-122070000D02*
X116405000Y-123400000D01*
X116405000Y-124610000D02*
X116405000Y-124730000D01*
%TO.C,CANH_J4*%
X104145000Y-119870000D02*
X104145000Y-122530000D01*
X104265000Y-119870000D02*
X104145000Y-119870000D01*
X104265000Y-122530000D02*
X104145000Y-122530000D01*
X106805000Y-121200000D02*
X106805000Y-122530000D01*
X106805000Y-122530000D02*
X105475000Y-122530000D01*
%TO.C,CANL_J2*%
X141945000Y-126810000D02*
X141945000Y-126930000D01*
X141945000Y-126930000D02*
X144605000Y-126930000D01*
X143275000Y-124270000D02*
X144605000Y-124270000D01*
X144605000Y-124270000D02*
X144605000Y-125600000D01*
X144605000Y-126810000D02*
X144605000Y-126930000D01*
%TO.C,SUB:J6*%
X164070000Y-72730000D02*
X164070000Y-65050000D01*
X166730000Y-65050000D02*
X164070000Y-65050000D01*
X166730000Y-72730000D02*
X164070000Y-72730000D01*
X166730000Y-72730000D02*
X166730000Y-65050000D01*
X166730000Y-74000000D02*
X166730000Y-75330000D01*
X166730000Y-75330000D02*
X165400000Y-75330000D01*
%TD*%
M02*
