M48
; DRILL file {KiCad 8.0.6} date 2024-12-18T15:27:12+0100
; FORMAT={-:-/ absolute / metric / decimal}
; #@! TF.CreationDate,2024-12-18T15:27:12+01:00
; #@! TF.GenerationSoftware,Kicad,Pcbnew,8.0.6
; #@! TF.FileFunction,Plated,1,2,PTH
FMAT,2
METRIC
; #@! TA.AperFunction,Plated,PTH,ViaDrill
T1C0.300
; #@! TA.AperFunction,Plated,PTH,ComponentDrill
T2C0.700
; #@! TA.AperFunction,Plated,PTH,ComponentDrill
T3C1.000
; #@! TA.AperFunction,Plated,PTH,ComponentDrill
T4C2.200
%
G90
G05
T1
X106.061Y-86.5
X109.262Y-86.5
X109.3Y-83.4
X109.761Y-96.4
X110.091Y-72.725
X110.691Y-82.825
X110.9Y-85.0
X110.9Y-86.5
X111.6Y-100.6
X111.6Y-104.9
X111.962Y-96.1
X112.291Y-82.825
X112.4Y-108.1
X112.5Y-86.3
X112.781Y-106.219
X113.261Y-83.8
X113.3Y-105.0
X114.6Y-102.2
X114.791Y-71.725
X118.6Y-106.0
X118.8Y-102.4
X120.5Y-107.9
X138.4Y-116.6
X153.8Y-91.1
X155.0Y-91.0
X156.993Y-92.839
X157.3Y-92.1
X157.5Y-64.3
X159.4Y-76.2
X161.0Y-76.2
X162.25Y-72.212
X162.7Y-64.2
X168.6Y-105.4
X168.75Y-100.35
T2
X108.255Y-120.4
X108.255Y-126.35
X115.875Y-120.4
X115.875Y-126.35
X127.28Y-120.4
X127.28Y-126.3
X134.9Y-120.4
X134.9Y-126.3
X146.155Y-120.4
X146.155Y-126.3
X152.79Y-96.5
X153.775Y-120.4
X153.775Y-126.3
X156.7Y-80.58
X156.7Y-88.2
X160.41Y-96.5
X162.4Y-96.5
X164.742Y-120.4
X164.752Y-126.35
X170.02Y-96.5
X172.362Y-120.4
X172.373Y-126.35
T3
X104.9Y-88.68
X104.9Y-91.22
X104.9Y-93.76
X104.9Y-96.3
X104.991Y-64.745
X104.991Y-67.285
X104.991Y-69.825
X104.991Y-72.365
X104.991Y-74.905
X104.991Y-77.445
X104.991Y-79.985
X104.991Y-82.525
X105.475Y-121.2
X105.475Y-125.6
X106.765Y-101.815
X106.765Y-104.355
X106.765Y-106.895
X106.765Y-109.435
X115.075Y-123.4
X115.3Y-88.62
X115.3Y-91.16
X115.3Y-93.7
X115.3Y-96.24
X117.791Y-64.745
X117.791Y-67.285
X117.791Y-69.825
X117.791Y-72.365
X117.791Y-74.905
X117.791Y-77.445
X117.791Y-79.985
X117.791Y-82.525
X124.5Y-121.2
X124.5Y-125.6
X127.3Y-66.0
X127.3Y-68.54
X127.3Y-71.08
X127.3Y-73.62
X127.3Y-76.16
X127.3Y-78.7
X127.3Y-81.24
X127.3Y-83.78
X127.3Y-86.32
X127.3Y-88.86
X127.3Y-91.4
X127.3Y-93.94
X127.3Y-96.48
X127.3Y-99.02
X127.3Y-101.56
X127.3Y-104.1
X127.3Y-106.64
X127.3Y-109.18
X127.3Y-111.72
X127.3Y-114.26
X131.0Y-66.0
X131.0Y-68.54
X131.0Y-71.08
X131.0Y-73.62
X131.0Y-76.16
X131.0Y-78.7
X131.0Y-81.24
X131.0Y-83.78
X131.0Y-86.32
X131.0Y-88.86
X131.0Y-91.4
X131.0Y-93.94
X131.0Y-96.48
X131.0Y-99.02
X131.0Y-101.56
X131.0Y-104.1
X131.0Y-106.64
X131.0Y-109.18
X131.0Y-111.72
X131.0Y-114.26
X134.1Y-123.4
X143.275Y-121.2
X143.275Y-125.6
X146.2Y-66.0
X146.2Y-68.54
X146.2Y-71.08
X146.2Y-73.62
X146.2Y-76.16
X146.2Y-78.7
X146.2Y-81.24
X146.2Y-83.78
X146.2Y-86.32
X146.2Y-88.86
X146.2Y-91.4
X146.2Y-93.94
X146.2Y-96.48
X146.2Y-99.02
X146.2Y-101.56
X146.2Y-104.1
X146.2Y-106.64
X146.2Y-109.18
X146.2Y-111.72
X146.2Y-114.26
X149.9Y-66.0
X149.9Y-68.54
X149.9Y-71.08
X149.9Y-73.62
X149.9Y-76.16
X149.9Y-78.7
X149.9Y-81.24
X149.9Y-83.78
X149.9Y-86.32
X149.9Y-88.86
X149.9Y-91.4
X149.9Y-93.94
X149.9Y-96.48
X149.9Y-99.02
X149.9Y-101.56
X149.9Y-104.1
X149.9Y-106.64
X149.9Y-109.18
X149.9Y-111.72
X149.9Y-114.26
X152.975Y-123.4
X154.9Y-66.38
X154.9Y-68.92
X154.9Y-71.46
X154.9Y-74.0
X161.963Y-121.2
X161.963Y-125.6
X163.2Y-91.1
X163.2Y-93.64
X165.4Y-66.38
X165.4Y-68.92
X165.4Y-71.46
X165.4Y-74.0
X171.562Y-123.4
X172.8Y-81.38
X172.8Y-83.92
X172.8Y-86.46
X172.8Y-89.0
X172.8Y-92.7
X172.8Y-96.52
X172.8Y-99.06
X172.8Y-101.6
X172.8Y-104.14
T4
X111.5Y-67.5
X112.0Y-113.5
X169.5Y-112.5
X171.0Y-67.0
M30
