%TF.GenerationSoftware,KiCad,Pcbnew,8.0.6*%
%TF.CreationDate,2024-12-18T15:27:08+01:00*%
%TF.ProjectId,RTR_submodule,5254525f-7375-4626-9d6f-64756c652e6b,rev?*%
%TF.SameCoordinates,Original*%
%TF.FileFunction,Paste,Top*%
%TF.FilePolarity,Positive*%
%FSLAX46Y46*%
G04 Gerber Fmt 4.6, Leading zero omitted, Abs format (unit mm)*
G04 Created by KiCad (PCBNEW 8.0.6) date 2024-12-18 15:27:08*
%MOMM*%
%LPD*%
G01*
G04 APERTURE LIST*
G04 Aperture macros list*
%AMRoundRect*
0 Rectangle with rounded corners*
0 $1 Rounding radius*
0 $2 $3 $4 $5 $6 $7 $8 $9 X,Y pos of 4 corners*
0 Add a 4 corners polygon primitive as box body*
4,1,4,$2,$3,$4,$5,$6,$7,$8,$9,$2,$3,0*
0 Add four circle primitives for the rounded corners*
1,1,$1+$1,$2,$3*
1,1,$1+$1,$4,$5*
1,1,$1+$1,$6,$7*
1,1,$1+$1,$8,$9*
0 Add four rect primitives between the rounded corners*
20,1,$1+$1,$2,$3,$4,$5,0*
20,1,$1+$1,$4,$5,$6,$7,0*
20,1,$1+$1,$6,$7,$8,$9,0*
20,1,$1+$1,$8,$9,$2,$3,0*%
%AMRotRect*
0 Rectangle, with rotation*
0 The origin of the aperture is its center*
0 $1 length*
0 $2 width*
0 $3 Rotation angle, in degrees counterclockwise*
0 Add horizontal line*
21,1,$1,$2,0,0,$3*%
G04 Aperture macros list end*
%ADD10RoundRect,0.237500X-0.237500X0.300000X-0.237500X-0.300000X0.237500X-0.300000X0.237500X0.300000X0*%
%ADD11RoundRect,0.237500X0.237500X-0.300000X0.237500X0.300000X-0.237500X0.300000X-0.237500X-0.300000X0*%
%ADD12R,0.300000X1.425000*%
%ADD13RoundRect,0.150000X0.825000X0.150000X-0.825000X0.150000X-0.825000X-0.150000X0.825000X-0.150000X0*%
%ADD14RoundRect,0.237500X0.300000X0.237500X-0.300000X0.237500X-0.300000X-0.237500X0.300000X-0.237500X0*%
%ADD15R,1.070000X0.800000*%
%ADD16RotRect,0.282800X0.282800X225.000000*%
%ADD17R,0.200000X0.600000*%
%ADD18R,0.300000X0.850000*%
%ADD19R,0.850000X0.300000*%
%ADD20RoundRect,0.237500X-0.300000X-0.237500X0.300000X-0.237500X0.300000X0.237500X-0.300000X0.237500X0*%
%ADD21RoundRect,0.100000X0.637500X0.100000X-0.637500X0.100000X-0.637500X-0.100000X0.637500X-0.100000X0*%
G04 APERTURE END LIST*
D10*
%TO.C,M:C10*%
X110691250Y-79962500D03*
X110691250Y-81687500D03*
%TD*%
D11*
%TO.C,M:C12*%
X152700000Y-92825000D03*
X152700000Y-91100000D03*
%TD*%
D12*
%TO.C,U2*%
X107600000Y-94524000D03*
X108100000Y-94524000D03*
X108600000Y-94524000D03*
X109100000Y-94524000D03*
X109600000Y-94524000D03*
X110100000Y-94524000D03*
X110600000Y-94524000D03*
X111100000Y-94524000D03*
X111100000Y-90100000D03*
X110600000Y-90100000D03*
X110100000Y-90100000D03*
X109600000Y-90100000D03*
X109100000Y-90100000D03*
X108600000Y-90100000D03*
X108100000Y-90100000D03*
X107600000Y-90100000D03*
%TD*%
%TO.C,U3*%
X157750000Y-72212000D03*
X158250000Y-72212000D03*
X158750000Y-72212000D03*
X159250000Y-72212000D03*
X159750000Y-72212000D03*
X160250000Y-72212000D03*
X160750000Y-72212000D03*
X161250000Y-72212000D03*
X161250000Y-67788000D03*
X160750000Y-67788000D03*
X160250000Y-67788000D03*
X159750000Y-67788000D03*
X159250000Y-67788000D03*
X158750000Y-67788000D03*
X158250000Y-67788000D03*
X157750000Y-67788000D03*
%TD*%
D13*
%TO.C,SUB:U1*%
X114740000Y-107540000D03*
X114740000Y-106270000D03*
X114740000Y-105000000D03*
X114740000Y-103730000D03*
X109790000Y-103730000D03*
X109790000Y-105000000D03*
X109790000Y-106270000D03*
X109790000Y-107540000D03*
%TD*%
D14*
%TO.C,C1*%
X113127500Y-102135000D03*
X111402500Y-102135000D03*
%TD*%
D15*
%TO.C,U1*%
X158820000Y-92900000D03*
D16*
X158285000Y-93100000D03*
D17*
X158185000Y-92800000D03*
D15*
X158820000Y-91900000D03*
D16*
X158285000Y-91700000D03*
D17*
X158185000Y-92000000D03*
D18*
X157270000Y-90950000D03*
X156770000Y-90950000D03*
D19*
X156070000Y-91650000D03*
X156070000Y-92150000D03*
X156070000Y-92650000D03*
X156070000Y-93150000D03*
D18*
X156770000Y-93850000D03*
X157270000Y-93850000D03*
%TD*%
D20*
%TO.C,M:C7*%
X157637500Y-75000000D03*
X159362500Y-75000000D03*
%TD*%
%TO.C,M:C6*%
X161000000Y-65300000D03*
X162725000Y-65300000D03*
%TD*%
%TO.C,C3*%
X129737500Y-123500000D03*
X131462500Y-123500000D03*
%TD*%
%TO.C,M:C1*%
X110937500Y-97500000D03*
X112662500Y-97500000D03*
%TD*%
D14*
%TO.C,M:C8*%
X162725000Y-75000000D03*
X161000000Y-75000000D03*
%TD*%
D21*
%TO.C,SUB:U2*%
X114353750Y-78450000D03*
X114353750Y-77800000D03*
X114353750Y-77150000D03*
X114353750Y-76500000D03*
X114353750Y-75850000D03*
X114353750Y-75200000D03*
X114353750Y-74550000D03*
X114353750Y-73900000D03*
X114353750Y-73250000D03*
X114353750Y-72600000D03*
X108628750Y-72600000D03*
X108628750Y-73250000D03*
X108628750Y-73900000D03*
X108628750Y-74550000D03*
X108628750Y-75200000D03*
X108628750Y-75850000D03*
X108628750Y-76500000D03*
X108628750Y-77150000D03*
X108628750Y-77800000D03*
X108628750Y-78450000D03*
%TD*%
D14*
%TO.C,M:C5*%
X159250000Y-65300000D03*
X157525000Y-65300000D03*
%TD*%
D11*
%TO.C,C2*%
X117265000Y-106497500D03*
X117265000Y-104772500D03*
%TD*%
D20*
%TO.C,C6*%
X110675000Y-123500000D03*
X112400000Y-123500000D03*
%TD*%
%TO.C,M:C4*%
X110900000Y-87600000D03*
X112625000Y-87600000D03*
%TD*%
%TO.C,C4*%
X148550000Y-123400000D03*
X150275000Y-123400000D03*
%TD*%
D10*
%TO.C,M:C9*%
X112301250Y-79962500D03*
X112301250Y-81687500D03*
%TD*%
D20*
%TO.C,C5*%
X167137500Y-123400000D03*
X168862500Y-123400000D03*
%TD*%
%TO.C,M:C2*%
X107575000Y-97500000D03*
X109300000Y-97500000D03*
%TD*%
D14*
%TO.C,M:C3*%
X109262500Y-87600000D03*
X107537500Y-87600000D03*
%TD*%
M02*
