%TF.GenerationSoftware,KiCad,Pcbnew,8.0.6*%
%TF.CreationDate,2024-12-18T15:27:08+01:00*%
%TF.ProjectId,RTR_submodule,5254525f-7375-4626-9d6f-64756c652e6b,rev?*%
%TF.SameCoordinates,Original*%
%TF.FileFunction,Copper,L2,Bot*%
%TF.FilePolarity,Positive*%
%FSLAX46Y46*%
G04 Gerber Fmt 4.6, Leading zero omitted, Abs format (unit mm)*
G04 Created by KiCad (PCBNEW 8.0.6) date 2024-12-18 15:27:08*
%MOMM*%
%LPD*%
G01*
G04 APERTURE LIST*
G04 Aperture macros list*
%AMRoundRect*
0 Rectangle with rounded corners*
0 $1 Rounding radius*
0 $2 $3 $4 $5 $6 $7 $8 $9 X,Y pos of 4 corners*
0 Add a 4 corners polygon primitive as box body*
4,1,4,$2,$3,$4,$5,$6,$7,$8,$9,$2,$3,0*
0 Add four circle primitives for the rounded corners*
1,1,$1+$1,$2,$3*
1,1,$1+$1,$4,$5*
1,1,$1+$1,$6,$7*
1,1,$1+$1,$8,$9*
0 Add four rect primitives between the rounded corners*
20,1,$1+$1,$2,$3,$4,$5,0*
20,1,$1+$1,$4,$5,$6,$7,0*
20,1,$1+$1,$6,$7,$8,$9,0*
20,1,$1+$1,$8,$9,$2,$3,0*%
G04 Aperture macros list end*
%TA.AperFunction,ComponentPad*%
%ADD10C,4.400000*%
%TD*%
%TA.AperFunction,ComponentPad*%
%ADD11R,1.700000X1.700000*%
%TD*%
%TA.AperFunction,ComponentPad*%
%ADD12O,1.700000X1.700000*%
%TD*%
%TA.AperFunction,ComponentPad*%
%ADD13C,1.400000*%
%TD*%
%TA.AperFunction,ComponentPad*%
%ADD14O,1.400000X1.400000*%
%TD*%
%TA.AperFunction,SMDPad,CuDef*%
%ADD15RoundRect,0.237500X-0.300000X-0.237500X0.300000X-0.237500X0.300000X0.237500X-0.300000X0.237500X0*%
%TD*%
%TA.AperFunction,ViaPad*%
%ADD16C,0.600000*%
%TD*%
%TA.AperFunction,Conductor*%
%ADD17C,0.400000*%
%TD*%
%TA.AperFunction,Conductor*%
%ADD18C,0.200000*%
%TD*%
G04 APERTURE END LIST*
D10*
%TO.P,H4,1,1*%
%TO.N,GND*%
X111500000Y-67500000D03*
%TD*%
%TO.P,H3,1,1*%
%TO.N,GND*%
X169500000Y-112500000D03*
%TD*%
%TO.P,H2,1,1*%
%TO.N,GND*%
X171000000Y-67000000D03*
%TD*%
%TO.P,H1,1,1*%
%TO.N,GND*%
X112000000Y-113500000D03*
%TD*%
D11*
%TO.P,J7,1,Pin_1*%
%TO.N,Net-(J7-Pin_1)*%
X104991250Y-82525000D03*
D12*
%TO.P,J7,2,Pin_2*%
%TO.N,Net-(J7-Pin_2)*%
X104991250Y-79985000D03*
%TO.P,J7,3,Pin_3*%
%TO.N,Net-(J7-Pin_3)*%
X104991250Y-77445000D03*
%TO.P,J7,4,Pin_4*%
%TO.N,Net-(J7-Pin_4)*%
X104991250Y-74905000D03*
%TO.P,J7,5,Pin_5*%
%TO.N,Net-(J7-Pin_5)*%
X104991250Y-72365000D03*
%TO.P,J7,6,Pin_6*%
%TO.N,Net-(J7-Pin_6)*%
X104991250Y-69825000D03*
%TO.P,J7,7,Pin_7*%
%TO.N,Net-(J7-Pin_7)*%
X104991250Y-67285000D03*
%TO.P,J7,8,Pin_8*%
%TO.N,Net-(J7-Pin_8)*%
X104991250Y-64745000D03*
%TD*%
D11*
%TO.P,CANG_J3,1,Pin_1*%
%TO.N,TER_GND3*%
X171562500Y-123400000D03*
%TD*%
%TO.P,CANG_J1,1,Pin_1*%
%TO.N,TER_GND1*%
X134100000Y-123400000D03*
%TD*%
D13*
%TO.P,Ter_R1,1*%
%TO.N,W1*%
X127280000Y-120400000D03*
D14*
%TO.P,Ter_R1,2*%
%TO.N,Net-(C3-Pad1)*%
X134900000Y-120400000D03*
%TD*%
D13*
%TO.P,Ter_R6,1*%
%TO.N,X2*%
X164752500Y-126350000D03*
D14*
%TO.P,Ter_R6,2*%
%TO.N,Net-(C5-Pad1)*%
X172372500Y-126350000D03*
%TD*%
D11*
%TO.P,SUB:J3,1,Pin_1*%
%TO.N,OUTA1*%
X104900000Y-96300000D03*
D12*
%TO.P,SUB:J3,2,Pin_2*%
%TO.N,OUTB1*%
X104900000Y-93760000D03*
%TO.P,SUB:J3,3,Pin_3*%
%TO.N,OUTC1*%
X104900000Y-91220000D03*
%TO.P,SUB:J3,4,Pin_4*%
%TO.N,OUTD1*%
X104900000Y-88680000D03*
%TD*%
D11*
%TO.P,SUB:J2,1,Pin_1*%
%TO.N,A0*%
X172800000Y-104140000D03*
D12*
%TO.P,SUB:J2,2,Pin_2*%
%TO.N,A1*%
X172800000Y-101600000D03*
%TO.P,SUB:J2,3,Pin_3*%
%TO.N,GND*%
X172800000Y-99060000D03*
%TO.P,SUB:J2,4,Pin_4*%
%TO.N,5V*%
X172800000Y-96520000D03*
%TD*%
D13*
%TO.P,Ter_R3,1*%
%TO.N,Y1*%
X146155000Y-120400000D03*
D14*
%TO.P,Ter_R3,2*%
%TO.N,Net-(C4-Pad1)*%
X153775000Y-120400000D03*
%TD*%
D11*
%TO.P,J8,1,Pin_1*%
%TO.N,VB*%
X149900000Y-114260000D03*
D12*
%TO.P,J8,2,Pin_2*%
%TO.N,C13*%
X149900000Y-111720000D03*
%TO.P,J8,3,Pin_3*%
%TO.N,C14*%
X149900000Y-109180000D03*
%TO.P,J8,4,Pin_4*%
%TO.N,C15*%
X149900000Y-106640000D03*
%TO.P,J8,5,Pin_5*%
%TO.N,A0*%
X149900000Y-104100000D03*
%TO.P,J8,6,Pin_6*%
%TO.N,A1*%
X149900000Y-101560000D03*
%TO.P,J8,7,Pin_7*%
%TO.N,A2*%
X149900000Y-99020000D03*
%TO.P,J8,8,Pin_8*%
%TO.N,A3*%
X149900000Y-96480000D03*
%TO.P,J8,9,Pin_9*%
%TO.N,A4*%
X149900000Y-93940000D03*
%TO.P,J8,10,Pin_10*%
%TO.N,A5*%
X149900000Y-91400000D03*
%TO.P,J8,11,Pin_11*%
%TO.N,A6*%
X149900000Y-88860000D03*
%TO.P,J8,12,Pin_12*%
%TO.N,A7*%
X149900000Y-86320000D03*
%TO.P,J8,13,Pin_13*%
%TO.N,B0*%
X149900000Y-83780000D03*
%TO.P,J8,14,Pin_14*%
%TO.N,B1*%
X149900000Y-81240000D03*
%TO.P,J8,15,Pin_15*%
%TO.N,B10*%
X149900000Y-78700000D03*
%TO.P,J8,16,Pin_16*%
%TO.N,B11*%
X149900000Y-76160000D03*
%TO.P,J8,17,Pin_17*%
%TO.N,R*%
X149900000Y-73620000D03*
%TO.P,J8,18,Pin_18*%
%TO.N,3V3*%
X149900000Y-71080000D03*
%TO.P,J8,19,Pin_19*%
%TO.N,GND*%
X149900000Y-68540000D03*
%TO.P,J8,20,Pin_20*%
X149900000Y-66000000D03*
%TD*%
D13*
%TO.P,Ter_R8,1*%
%TO.N,Z2*%
X108255000Y-126350000D03*
D14*
%TO.P,Ter_R8,2*%
%TO.N,Net-(C6-Pad1)*%
X115875000Y-126350000D03*
%TD*%
D11*
%TO.P,CANH_J2,1,Pin_1*%
%TO.N,Y1*%
X143275000Y-121200000D03*
%TD*%
D13*
%TO.P,SUB:R2,1*%
%TO.N,GND*%
X160410000Y-96500000D03*
D14*
%TO.P,SUB:R2,2*%
%TO.N,A3*%
X152790000Y-96500000D03*
%TD*%
D13*
%TO.P,Ter_R5,1*%
%TO.N,W2*%
X164742500Y-120400000D03*
D14*
%TO.P,Ter_R5,2*%
%TO.N,Net-(C5-Pad1)*%
X172362500Y-120400000D03*
%TD*%
D11*
%TO.P,J9,1,Pin_1*%
%TO.N,B12*%
X127300000Y-66000000D03*
D12*
%TO.P,J9,2,Pin_2*%
%TO.N,B13*%
X127300000Y-68540000D03*
%TO.P,J9,3,Pin_3*%
%TO.N,B14*%
X127300000Y-71080000D03*
%TO.P,J9,4,Pin_4*%
%TO.N,B15*%
X127300000Y-73620000D03*
%TO.P,J9,5,Pin_5*%
%TO.N,A8*%
X127300000Y-76160000D03*
%TO.P,J9,6,Pin_6*%
%TO.N,A9*%
X127300000Y-78700000D03*
%TO.P,J9,7,Pin_7*%
%TO.N,A10*%
X127300000Y-81240000D03*
%TO.P,J9,8,Pin_8*%
%TO.N,A11*%
X127300000Y-83780000D03*
%TO.P,J9,9,Pin_9*%
%TO.N,A12*%
X127300000Y-86320000D03*
%TO.P,J9,10,Pin_10*%
%TO.N,A15*%
X127300000Y-88860000D03*
%TO.P,J9,11,Pin_11*%
%TO.N,B3*%
X127300000Y-91400000D03*
%TO.P,J9,12,Pin_12*%
%TO.N,B4*%
X127300000Y-93940000D03*
%TO.P,J9,13,Pin_13*%
%TO.N,B5*%
X127300000Y-96480000D03*
%TO.P,J9,14,Pin_14*%
%TO.N,B6*%
X127300000Y-99020000D03*
%TO.P,J9,15,Pin_15*%
%TO.N,B7*%
X127300000Y-101560000D03*
%TO.P,J9,16,Pin_16*%
%TO.N,B8*%
X127300000Y-104100000D03*
%TO.P,J9,17,Pin_17*%
%TO.N,B9*%
X127300000Y-106640000D03*
%TO.P,J9,18,Pin_18*%
%TO.N,5V*%
X127300000Y-109180000D03*
%TO.P,J9,19,Pin_19*%
%TO.N,GND*%
X127300000Y-111720000D03*
%TO.P,J9,20,Pin_20*%
%TO.N,3V3*%
X127300000Y-114260000D03*
%TD*%
D13*
%TO.P,Ter_R7,1*%
%TO.N,Y2*%
X108255000Y-120400000D03*
D14*
%TO.P,Ter_R7,2*%
%TO.N,Net-(C6-Pad1)*%
X115875000Y-120400000D03*
%TD*%
D11*
%TO.P,SUB:J5,1,Pin_1*%
%TO.N,OUTA2*%
X154900000Y-74000000D03*
D12*
%TO.P,SUB:J5,2,Pin_2*%
%TO.N,OUTB2*%
X154900000Y-71460000D03*
%TO.P,SUB:J5,3,Pin_3*%
%TO.N,OUTC2*%
X154900000Y-68920000D03*
%TO.P,SUB:J5,4,Pin_4*%
%TO.N,OUTD2*%
X154900000Y-66380000D03*
%TD*%
D11*
%TO.P,J2,1,Pin_1*%
%TO.N,Net-(J2-Pin_1)*%
X172800000Y-92700000D03*
%TD*%
D13*
%TO.P,SUB:R3,1*%
%TO.N,3V3*%
X156700000Y-80580000D03*
D14*
%TO.P,SUB:R3,2*%
%TO.N,Net-(U1-~{FAULT})*%
X156700000Y-88200000D03*
%TD*%
D11*
%TO.P,CANL_J1,1,Pin_1*%
%TO.N,X1*%
X124500000Y-125600000D03*
%TD*%
D13*
%TO.P,SUB:R1,1*%
%TO.N,Net-(J2-Pin_1)*%
X170020000Y-96500000D03*
D14*
%TO.P,SUB:R1,2*%
%TO.N,A3*%
X162400000Y-96500000D03*
%TD*%
D11*
%TO.P,CANH_J1,1,Pin_1*%
%TO.N,W1*%
X124500000Y-121200000D03*
%TD*%
%TO.P,CANG_J2,1,Pin_1*%
%TO.N,TER_GND2*%
X152975000Y-123400000D03*
%TD*%
D13*
%TO.P,Ter_R4,1*%
%TO.N,Z1*%
X146155000Y-126300000D03*
D14*
%TO.P,Ter_R4,2*%
%TO.N,Net-(C4-Pad1)*%
X153775000Y-126300000D03*
%TD*%
D13*
%TO.P,Ter_R2,1*%
%TO.N,X1*%
X127280000Y-126300000D03*
D14*
%TO.P,Ter_R2,2*%
%TO.N,Net-(C3-Pad1)*%
X134900000Y-126300000D03*
%TD*%
D11*
%TO.P,CANL_J3,1,Pin_1*%
%TO.N,X2*%
X161962500Y-125600000D03*
%TD*%
%TO.P,J1,1,Pin_1*%
%TO.N,Net-(J1-Pin_1)*%
X163200000Y-93640000D03*
D12*
%TO.P,J1,2,Pin_2*%
%TO.N,Net-(J1-Pin_2)*%
X163200000Y-91100000D03*
%TD*%
D11*
%TO.P,CANH_J3,1,Pin_1*%
%TO.N,W2*%
X161962500Y-121200000D03*
%TD*%
%TO.P,J3,1,Pin_1*%
%TO.N,B12*%
X131000000Y-66000000D03*
D12*
%TO.P,J3,2,Pin_2*%
%TO.N,B13*%
X131000000Y-68540000D03*
%TO.P,J3,3,Pin_3*%
%TO.N,B14*%
X131000000Y-71080000D03*
%TO.P,J3,4,Pin_4*%
%TO.N,B15*%
X131000000Y-73620000D03*
%TO.P,J3,5,Pin_5*%
%TO.N,A8*%
X131000000Y-76160000D03*
%TO.P,J3,6,Pin_6*%
%TO.N,A9*%
X131000000Y-78700000D03*
%TO.P,J3,7,Pin_7*%
%TO.N,A10*%
X131000000Y-81240000D03*
%TO.P,J3,8,Pin_8*%
%TO.N,A11*%
X131000000Y-83780000D03*
%TO.P,J3,9,Pin_9*%
%TO.N,A12*%
X131000000Y-86320000D03*
%TO.P,J3,10,Pin_10*%
%TO.N,A15*%
X131000000Y-88860000D03*
%TO.P,J3,11,Pin_11*%
%TO.N,B3*%
X131000000Y-91400000D03*
%TO.P,J3,12,Pin_12*%
%TO.N,B4*%
X131000000Y-93940000D03*
%TO.P,J3,13,Pin_13*%
%TO.N,B5*%
X131000000Y-96480000D03*
%TO.P,J3,14,Pin_14*%
%TO.N,B6*%
X131000000Y-99020000D03*
%TO.P,J3,15,Pin_15*%
%TO.N,B7*%
X131000000Y-101560000D03*
%TO.P,J3,16,Pin_16*%
%TO.N,B8*%
X131000000Y-104100000D03*
%TO.P,J3,17,Pin_17*%
%TO.N,B9*%
X131000000Y-106640000D03*
%TO.P,J3,18,Pin_18*%
%TO.N,5V*%
X131000000Y-109180000D03*
%TO.P,J3,19,Pin_19*%
%TO.N,GND*%
X131000000Y-111720000D03*
%TO.P,J3,20,Pin_20*%
%TO.N,3V3*%
X131000000Y-114260000D03*
%TD*%
D11*
%TO.P,J5,1,Pin_1*%
%TO.N,Net-(J5-Pin_1)*%
X117791250Y-82525000D03*
D12*
%TO.P,J5,2,Pin_2*%
%TO.N,Net-(J5-Pin_2)*%
X117791250Y-79985000D03*
%TO.P,J5,3,Pin_3*%
%TO.N,Net-(J5-Pin_3)*%
X117791250Y-77445000D03*
%TO.P,J5,4,Pin_4*%
%TO.N,Net-(J5-Pin_4)*%
X117791250Y-74905000D03*
%TO.P,J5,5,Pin_5*%
%TO.N,Net-(J5-Pin_5)*%
X117791250Y-72365000D03*
%TO.P,J5,6,Pin_6*%
%TO.N,Net-(J5-Pin_6)*%
X117791250Y-69825000D03*
%TO.P,J5,7,Pin_7*%
%TO.N,Net-(J5-Pin_7)*%
X117791250Y-67285000D03*
%TO.P,J5,8,Pin_8*%
%TO.N,Net-(J5-Pin_8)*%
X117791250Y-64745000D03*
%TD*%
D11*
%TO.P,SUB:J1,1,Pin_1*%
%TO.N,A6*%
X172800000Y-89000000D03*
D12*
%TO.P,SUB:J1,2,Pin_2*%
%TO.N,A7*%
X172800000Y-86460000D03*
%TO.P,SUB:J1,3,Pin_3*%
%TO.N,GND*%
X172800000Y-83920000D03*
%TO.P,SUB:J1,4,Pin_4*%
%TO.N,5V*%
X172800000Y-81380000D03*
%TD*%
D11*
%TO.P,SUB:J7,1,Pin_1*%
%TO.N,GND*%
X106765000Y-109435000D03*
D12*
%TO.P,SUB:J7,2,Pin_2*%
%TO.N,CANH*%
X106765000Y-106895000D03*
%TO.P,SUB:J7,3,Pin_3*%
%TO.N,CANL*%
X106765000Y-104355000D03*
%TO.P,SUB:J7,4,Pin_4*%
%TO.N,5V*%
X106765000Y-101815000D03*
%TD*%
D11*
%TO.P,SUB:J4,1,Pin_1*%
%TO.N,INA1*%
X115300000Y-96240000D03*
D12*
%TO.P,SUB:J4,2,Pin_2*%
%TO.N,INB1*%
X115300000Y-93700000D03*
%TO.P,SUB:J4,3,Pin_3*%
%TO.N,INC1*%
X115300000Y-91160000D03*
%TO.P,SUB:J4,4,Pin_4*%
%TO.N,IND1*%
X115300000Y-88620000D03*
%TD*%
D11*
%TO.P,CANL_J4,1,Pin_1*%
%TO.N,Z2*%
X105475000Y-125600000D03*
%TD*%
%TO.P,J4,1,Pin_1*%
%TO.N,GND*%
X146200000Y-66000000D03*
D12*
%TO.P,J4,2,Pin_2*%
X146200000Y-68540000D03*
%TO.P,J4,3,Pin_3*%
%TO.N,3V3*%
X146200000Y-71080000D03*
%TO.P,J4,4,Pin_4*%
%TO.N,R*%
X146200000Y-73620000D03*
%TO.P,J4,5,Pin_5*%
%TO.N,B11*%
X146200000Y-76160000D03*
%TO.P,J4,6,Pin_6*%
%TO.N,B10*%
X146200000Y-78700000D03*
%TO.P,J4,7,Pin_7*%
%TO.N,B1*%
X146200000Y-81240000D03*
%TO.P,J4,8,Pin_8*%
%TO.N,B0*%
X146200000Y-83780000D03*
%TO.P,J4,9,Pin_9*%
%TO.N,A7*%
X146200000Y-86320000D03*
%TO.P,J4,10,Pin_10*%
%TO.N,A6*%
X146200000Y-88860000D03*
%TO.P,J4,11,Pin_11*%
%TO.N,A5*%
X146200000Y-91400000D03*
%TO.P,J4,12,Pin_12*%
%TO.N,A4*%
X146200000Y-93940000D03*
%TO.P,J4,13,Pin_13*%
%TO.N,A3*%
X146200000Y-96480000D03*
%TO.P,J4,14,Pin_14*%
%TO.N,A2*%
X146200000Y-99020000D03*
%TO.P,J4,15,Pin_15*%
%TO.N,A1*%
X146200000Y-101560000D03*
%TO.P,J4,16,Pin_16*%
%TO.N,A0*%
X146200000Y-104100000D03*
%TO.P,J4,17,Pin_17*%
%TO.N,C15*%
X146200000Y-106640000D03*
%TO.P,J4,18,Pin_18*%
%TO.N,C14*%
X146200000Y-109180000D03*
%TO.P,J4,19,Pin_19*%
%TO.N,C13*%
X146200000Y-111720000D03*
%TO.P,J4,20,Pin_20*%
%TO.N,VB*%
X146200000Y-114260000D03*
%TD*%
D11*
%TO.P,CANG_J4,1,Pin_1*%
%TO.N,TER_GND4*%
X115075000Y-123400000D03*
%TD*%
%TO.P,CANH_J4,1,Pin_1*%
%TO.N,Y2*%
X105475000Y-121200000D03*
%TD*%
%TO.P,CANL_J2,1,Pin_1*%
%TO.N,Z1*%
X143275000Y-125600000D03*
%TD*%
%TO.P,SUB:J6,1,Pin_1*%
%TO.N,INA2*%
X165400000Y-74000000D03*
D12*
%TO.P,SUB:J6,2,Pin_2*%
%TO.N,INB2*%
X165400000Y-71460000D03*
%TO.P,SUB:J6,3,Pin_3*%
%TO.N,INC2*%
X165400000Y-68920000D03*
%TO.P,SUB:J6,4,Pin_4*%
%TO.N,IND2*%
X165400000Y-66380000D03*
%TD*%
D15*
%TO.P,M:C11,1*%
%TO.N,3V3*%
X155737500Y-96500000D03*
%TO.P,M:C11,2*%
%TO.N,GND*%
X157462500Y-96500000D03*
%TD*%
D16*
%TO.N,GND*%
X111961500Y-96100000D03*
X112500000Y-86300000D03*
X112781250Y-106218750D03*
X106061500Y-86500000D03*
X109761500Y-96400000D03*
X110091250Y-72725000D03*
X153800000Y-91100000D03*
X112291250Y-82825000D03*
X110691250Y-82825000D03*
X162700000Y-64200000D03*
X161000000Y-76200000D03*
X162250000Y-72212000D03*
X157500000Y-64300000D03*
X159400000Y-76200000D03*
X157300000Y-92100000D03*
X114600000Y-102200000D03*
%TO.N,3V3*%
X111600000Y-100600000D03*
X156993482Y-92838949D03*
X112400000Y-108100000D03*
X155000000Y-91000000D03*
X111600000Y-104900000D03*
X113261500Y-83800000D03*
%TO.N,5V*%
X109300000Y-83400000D03*
X118600000Y-106000000D03*
X168600000Y-105400000D03*
X113300000Y-105000000D03*
X110900000Y-85000000D03*
X138400000Y-116600000D03*
X120500000Y-107900000D03*
X168750000Y-100350000D03*
X118800000Y-102400000D03*
X110900000Y-86500000D03*
X109262500Y-86500000D03*
%TO.N,B14*%
X114791250Y-71725000D03*
%TD*%
D17*
%TO.N,GND*%
X131000000Y-111720000D02*
X127300000Y-111720000D01*
D18*
X157800000Y-92600000D02*
X157800000Y-93890000D01*
D17*
X146200000Y-68540000D02*
X149900000Y-68540000D01*
D18*
X157300000Y-92100000D02*
X157800000Y-92600000D01*
D17*
X149900000Y-66000000D02*
X146200000Y-66000000D01*
X157462500Y-96500000D02*
X160410000Y-96500000D01*
D18*
X157800000Y-93890000D02*
X160410000Y-96500000D01*
D17*
%TO.N,3V3*%
X113261500Y-83800000D02*
X113200000Y-83861500D01*
X111600000Y-107300000D02*
X111600000Y-104900000D01*
X155737500Y-96500000D02*
X155737500Y-94094931D01*
X113200000Y-83861500D02*
X113200000Y-99000000D01*
X149900000Y-71080000D02*
X146200000Y-71080000D01*
X155737500Y-94094931D02*
X156993482Y-92838949D01*
X112400000Y-108100000D02*
X111600000Y-107300000D01*
D18*
X156838949Y-92838949D02*
X156993482Y-92838949D01*
D17*
X113200000Y-99000000D02*
X111600000Y-100600000D01*
D18*
X155000000Y-91000000D02*
X156838949Y-92838949D01*
D17*
X127300000Y-114260000D02*
X131000000Y-114260000D01*
%TO.N,5V*%
X127300000Y-109180000D02*
X131000000Y-109180000D01*
X168600000Y-100500000D02*
X168600000Y-105400000D01*
D18*
X110115000Y-101815000D02*
X106765000Y-101815000D01*
D17*
X138320000Y-116500000D02*
X131000000Y-109180000D01*
X138320000Y-116520000D02*
X138400000Y-116600000D01*
X168750000Y-100350000D02*
X168600000Y-100500000D01*
X138320000Y-116500000D02*
X138320000Y-116520000D01*
X118600000Y-106000000D02*
X120500000Y-107900000D01*
X172680000Y-96520000D02*
X172800000Y-96520000D01*
D18*
X113300000Y-105000000D02*
X110115000Y-101815000D01*
D17*
X118800000Y-102400000D02*
X118800000Y-105800000D01*
X118800000Y-105800000D02*
X118600000Y-106000000D01*
%TO.N,Net-(J2-Pin_1)*%
X170020000Y-96130000D02*
X170020000Y-96500000D01*
X172800000Y-93350000D02*
X170020000Y-96130000D01*
X172800000Y-92700000D02*
X172800000Y-93350000D01*
%TO.N,A9*%
X127300000Y-78700000D02*
X131000000Y-78700000D01*
%TO.N,A8*%
X131000000Y-76160000D02*
X127300000Y-76160000D01*
%TO.N,B15*%
X127300000Y-73620000D02*
X131000000Y-73620000D01*
%TO.N,A15*%
X131000000Y-88860000D02*
X127300000Y-88860000D01*
%TO.N,B3*%
X127300000Y-91400000D02*
X131000000Y-91400000D01*
%TO.N,B5*%
X127300000Y-96480000D02*
X131000000Y-96480000D01*
%TO.N,B4*%
X131000000Y-93940000D02*
X127300000Y-93940000D01*
%TO.N,B8*%
X127300000Y-104100000D02*
X131000000Y-104100000D01*
%TO.N,A10*%
X131000000Y-81240000D02*
X127300000Y-81240000D01*
%TO.N,B7*%
X131000000Y-101560000D02*
X127300000Y-101560000D01*
%TO.N,B12*%
X131000000Y-66000000D02*
X127300000Y-66000000D01*
%TO.N,B6*%
X131000000Y-99020000D02*
X127300000Y-99020000D01*
%TO.N,A11*%
X127300000Y-83780000D02*
X131000000Y-83780000D01*
%TO.N,A12*%
X127300000Y-86320000D02*
X131000000Y-86320000D01*
D18*
%TO.N,B14*%
X114791250Y-71725000D02*
X115416250Y-71100000D01*
D17*
X131000000Y-71080000D02*
X127300000Y-71080000D01*
D18*
X127280000Y-71100000D02*
X127300000Y-71080000D01*
X115416250Y-71100000D02*
X127280000Y-71100000D01*
D17*
%TO.N,B13*%
X127300000Y-68540000D02*
X131000000Y-68540000D01*
%TO.N,B9*%
X131000000Y-106640000D02*
X127300000Y-106640000D01*
%TO.N,B11*%
X149900000Y-76160000D02*
X146200000Y-76160000D01*
%TO.N,R*%
X146200000Y-73620000D02*
X149900000Y-73620000D01*
%TO.N,A3*%
X152770000Y-96480000D02*
X152790000Y-96500000D01*
X149900000Y-96480000D02*
X152770000Y-96480000D01*
X149900000Y-96480000D02*
X146200000Y-96480000D01*
%TO.N,A1*%
X146200000Y-101560000D02*
X149900000Y-101560000D01*
%TO.N,A0*%
X149900000Y-104100000D02*
X146200000Y-104100000D01*
%TO.N,B10*%
X146200000Y-78700000D02*
X149900000Y-78700000D01*
%TO.N,A7*%
X172800000Y-86460000D02*
X150040000Y-86460000D01*
X146200000Y-86320000D02*
X149900000Y-86320000D01*
X150040000Y-86460000D02*
X149900000Y-86320000D01*
%TO.N,A6*%
X146200000Y-88860000D02*
X149900000Y-88860000D01*
X149900000Y-88860000D02*
X150640000Y-89600000D01*
X160600000Y-89600000D02*
X161200000Y-89000000D01*
X161200000Y-89000000D02*
X172800000Y-89000000D01*
X150640000Y-89600000D02*
X160600000Y-89600000D01*
%TO.N,C13*%
X146200000Y-111720000D02*
X149900000Y-111720000D01*
%TO.N,VB*%
X149900000Y-114260000D02*
X146200000Y-114260000D01*
%TO.N,B0*%
X146200000Y-83780000D02*
X149900000Y-83780000D01*
%TO.N,C14*%
X149900000Y-109180000D02*
X146200000Y-109180000D01*
%TO.N,A5*%
X146200000Y-91400000D02*
X149900000Y-91400000D01*
%TO.N,B1*%
X146200000Y-81240000D02*
X149900000Y-81240000D01*
%TO.N,A2*%
X149900000Y-99020000D02*
X146200000Y-99020000D01*
%TO.N,A4*%
X146200000Y-93940000D02*
X149900000Y-93940000D01*
%TO.N,C15*%
X146200000Y-106640000D02*
X149900000Y-106640000D01*
%TD*%
%TA.AperFunction,Conductor*%
%TO.N,GND*%
G36*
X146450000Y-68106988D02*
G01*
X146392993Y-68074075D01*
X146265826Y-68040000D01*
X146134174Y-68040000D01*
X146007007Y-68074075D01*
X145950000Y-68106988D01*
X145950000Y-66433012D01*
X146007007Y-66465925D01*
X146134174Y-66500000D01*
X146265826Y-66500000D01*
X146392993Y-66465925D01*
X146450000Y-66433012D01*
X146450000Y-68106988D01*
G37*
%TD.AperFunction*%
%TA.AperFunction,Conductor*%
G36*
X150150000Y-68106988D02*
G01*
X150092993Y-68074075D01*
X149965826Y-68040000D01*
X149834174Y-68040000D01*
X149707007Y-68074075D01*
X149650000Y-68106988D01*
X149650000Y-66433012D01*
X149707007Y-66465925D01*
X149834174Y-66500000D01*
X149965826Y-66500000D01*
X150092993Y-66465925D01*
X150150000Y-66433012D01*
X150150000Y-68106988D01*
G37*
%TD.AperFunction*%
%TA.AperFunction,Conductor*%
G36*
X174516944Y-63019685D02*
G01*
X174526378Y-63026389D01*
X174651573Y-63124473D01*
X174662781Y-63134403D01*
X174865596Y-63337218D01*
X174875525Y-63348425D01*
X174973610Y-63473622D01*
X174999460Y-63538532D01*
X175000000Y-63550094D01*
X175000000Y-116876000D01*
X174980315Y-116943039D01*
X174927511Y-116988794D01*
X174876000Y-117000000D01*
X139282888Y-117000000D01*
X139215849Y-116980315D01*
X139170094Y-116927511D01*
X139160150Y-116858353D01*
X139165847Y-116835045D01*
X139185366Y-116779262D01*
X139185369Y-116779249D01*
X139205565Y-116600003D01*
X139205565Y-116599996D01*
X139185369Y-116420750D01*
X139185368Y-116420745D01*
X139125788Y-116250476D01*
X139029815Y-116097737D01*
X138902262Y-115970184D01*
X138749521Y-115874210D01*
X138700572Y-115857082D01*
X138676779Y-115848757D01*
X138630054Y-115819397D01*
X132362651Y-109551994D01*
X132329166Y-109490671D01*
X132330558Y-109432217D01*
X132335063Y-109415408D01*
X132355659Y-109180000D01*
X132335063Y-108944592D01*
X132273903Y-108716337D01*
X132174035Y-108502171D01*
X132156850Y-108477627D01*
X132038494Y-108308597D01*
X131871402Y-108141506D01*
X131871396Y-108141501D01*
X131685842Y-108011575D01*
X131642217Y-107956998D01*
X131635023Y-107887500D01*
X131666546Y-107825145D01*
X131685842Y-107808425D01*
X131745867Y-107766395D01*
X131871401Y-107678495D01*
X132038495Y-107511401D01*
X132174035Y-107317830D01*
X132273903Y-107103663D01*
X132335063Y-106875408D01*
X132355659Y-106640000D01*
X132335063Y-106404592D01*
X132273903Y-106176337D01*
X132174035Y-105962171D01*
X132162826Y-105946162D01*
X132038494Y-105768597D01*
X131871402Y-105601506D01*
X131871396Y-105601501D01*
X131685842Y-105471575D01*
X131642217Y-105416998D01*
X131635023Y-105347500D01*
X131666546Y-105285145D01*
X131685842Y-105268425D01*
X131745867Y-105226395D01*
X131871401Y-105138495D01*
X132038495Y-104971401D01*
X132174035Y-104777830D01*
X132273903Y-104563663D01*
X132335063Y-104335408D01*
X132355659Y-104100000D01*
X132335063Y-103864592D01*
X132273903Y-103636337D01*
X132174035Y-103422171D01*
X132151683Y-103390248D01*
X132038494Y-103228597D01*
X131871402Y-103061506D01*
X131871396Y-103061501D01*
X131685842Y-102931575D01*
X131642217Y-102876998D01*
X131635023Y-102807500D01*
X131666546Y-102745145D01*
X131685842Y-102728425D01*
X131745867Y-102686395D01*
X131871401Y-102598495D01*
X132038495Y-102431401D01*
X132174035Y-102237830D01*
X132273903Y-102023663D01*
X132335063Y-101795408D01*
X132355659Y-101560000D01*
X132335063Y-101324592D01*
X132273903Y-101096337D01*
X132174035Y-100882171D01*
X132151683Y-100850248D01*
X132038494Y-100688597D01*
X131871402Y-100521506D01*
X131871396Y-100521501D01*
X131685842Y-100391575D01*
X131642217Y-100336998D01*
X131635023Y-100267500D01*
X131666546Y-100205145D01*
X131685842Y-100188425D01*
X131815356Y-100097738D01*
X131871401Y-100058495D01*
X132038495Y-99891401D01*
X132174035Y-99697830D01*
X132273903Y-99483663D01*
X132335063Y-99255408D01*
X132355659Y-99020000D01*
X132353399Y-98994174D01*
X132347873Y-98931006D01*
X132335063Y-98784592D01*
X132284015Y-98594075D01*
X132273905Y-98556344D01*
X132273904Y-98556343D01*
X132273903Y-98556337D01*
X132174035Y-98342171D01*
X132151683Y-98310248D01*
X132038494Y-98148597D01*
X131871402Y-97981506D01*
X131871396Y-97981501D01*
X131685842Y-97851575D01*
X131642217Y-97796998D01*
X131635023Y-97727500D01*
X131666546Y-97665145D01*
X131685842Y-97648425D01*
X131708026Y-97632891D01*
X131871401Y-97518495D01*
X132038495Y-97351401D01*
X132174035Y-97157830D01*
X132273903Y-96943663D01*
X132335063Y-96715408D01*
X132355659Y-96480000D01*
X132335063Y-96244592D01*
X132273903Y-96016337D01*
X132174035Y-95802171D01*
X132173671Y-95801650D01*
X132038494Y-95608597D01*
X131871402Y-95441506D01*
X131871396Y-95441501D01*
X131685842Y-95311575D01*
X131642217Y-95256998D01*
X131635023Y-95187500D01*
X131666546Y-95125145D01*
X131685842Y-95108425D01*
X131794338Y-95032455D01*
X131871401Y-94978495D01*
X132038495Y-94811401D01*
X132174035Y-94617830D01*
X132273903Y-94403663D01*
X132335063Y-94175408D01*
X132355659Y-93940000D01*
X132335063Y-93704592D01*
X132273903Y-93476337D01*
X132174035Y-93262171D01*
X132151683Y-93230248D01*
X132038494Y-93068597D01*
X131871402Y-92901506D01*
X131871396Y-92901501D01*
X131685842Y-92771575D01*
X131642217Y-92716998D01*
X131635023Y-92647500D01*
X131666546Y-92585145D01*
X131685842Y-92568425D01*
X131715482Y-92547671D01*
X131871401Y-92438495D01*
X132038495Y-92271401D01*
X132174035Y-92077830D01*
X132273903Y-91863663D01*
X132335063Y-91635408D01*
X132355659Y-91400000D01*
X132335063Y-91164592D01*
X132273903Y-90936337D01*
X132174035Y-90722171D01*
X132151683Y-90690248D01*
X132038494Y-90528597D01*
X131871402Y-90361506D01*
X131871396Y-90361501D01*
X131685842Y-90231575D01*
X131642217Y-90176998D01*
X131635023Y-90107500D01*
X131666546Y-90045145D01*
X131685842Y-90028425D01*
X131746481Y-89985965D01*
X131871401Y-89898495D01*
X132038495Y-89731401D01*
X132174035Y-89537830D01*
X132273903Y-89323663D01*
X132335063Y-89095408D01*
X132355659Y-88860000D01*
X132335063Y-88624592D01*
X132273903Y-88396337D01*
X132174035Y-88182171D01*
X132151683Y-88150248D01*
X132038494Y-87988597D01*
X131871402Y-87821506D01*
X131871396Y-87821501D01*
X131685842Y-87691575D01*
X131642217Y-87636998D01*
X131635023Y-87567500D01*
X131666546Y-87505145D01*
X131685842Y-87488425D01*
X131803418Y-87406097D01*
X131871401Y-87358495D01*
X132038495Y-87191401D01*
X132174035Y-86997830D01*
X132273903Y-86783663D01*
X132335063Y-86555408D01*
X132355659Y-86320000D01*
X132335063Y-86084592D01*
X132273903Y-85856337D01*
X132174035Y-85642171D01*
X132165384Y-85629815D01*
X132038494Y-85448597D01*
X131871402Y-85281506D01*
X131871396Y-85281501D01*
X131685842Y-85151575D01*
X131642217Y-85096998D01*
X131635023Y-85027500D01*
X131666546Y-84965145D01*
X131685842Y-84948425D01*
X131708026Y-84932891D01*
X131871401Y-84818495D01*
X132038495Y-84651401D01*
X132174035Y-84457830D01*
X132273903Y-84243663D01*
X132335063Y-84015408D01*
X132355659Y-83780000D01*
X132335063Y-83544592D01*
X132273903Y-83316337D01*
X132174035Y-83102171D01*
X132154458Y-83074211D01*
X132038494Y-82908597D01*
X131871402Y-82741506D01*
X131871396Y-82741501D01*
X131685842Y-82611575D01*
X131642217Y-82556998D01*
X131635023Y-82487500D01*
X131666546Y-82425145D01*
X131685842Y-82408425D01*
X131708026Y-82392891D01*
X131871401Y-82278495D01*
X132038495Y-82111401D01*
X132174035Y-81917830D01*
X132273903Y-81703663D01*
X132335063Y-81475408D01*
X132355659Y-81240000D01*
X132354889Y-81231204D01*
X132346938Y-81140318D01*
X132335063Y-81004592D01*
X132273903Y-80776337D01*
X132174035Y-80562171D01*
X132151683Y-80530248D01*
X132038494Y-80368597D01*
X131871402Y-80201506D01*
X131871396Y-80201501D01*
X131685842Y-80071575D01*
X131642217Y-80016998D01*
X131635023Y-79947500D01*
X131666546Y-79885145D01*
X131685842Y-79868425D01*
X131708026Y-79852891D01*
X131871401Y-79738495D01*
X132038495Y-79571401D01*
X132174035Y-79377830D01*
X132273903Y-79163663D01*
X132335063Y-78935408D01*
X132355659Y-78700000D01*
X132352859Y-78668002D01*
X132336717Y-78483495D01*
X132335063Y-78464592D01*
X132273903Y-78236337D01*
X132174035Y-78022171D01*
X132151683Y-77990248D01*
X132038494Y-77828597D01*
X131871402Y-77661506D01*
X131871396Y-77661501D01*
X131685842Y-77531575D01*
X131642217Y-77476998D01*
X131635023Y-77407500D01*
X131666546Y-77345145D01*
X131685842Y-77328425D01*
X131708026Y-77312891D01*
X131871401Y-77198495D01*
X132038495Y-77031401D01*
X132174035Y-76837830D01*
X132273903Y-76623663D01*
X132335063Y-76395408D01*
X132355659Y-76160000D01*
X132352859Y-76128002D01*
X132336717Y-75943495D01*
X132335063Y-75924592D01*
X132273903Y-75696337D01*
X132174035Y-75482171D01*
X132151683Y-75450248D01*
X132038494Y-75288597D01*
X131871402Y-75121506D01*
X131871396Y-75121501D01*
X131685842Y-74991575D01*
X131642217Y-74936998D01*
X131635023Y-74867500D01*
X131666546Y-74805145D01*
X131685842Y-74788425D01*
X131708026Y-74772891D01*
X131871401Y-74658495D01*
X132038495Y-74491401D01*
X132174035Y-74297830D01*
X132273903Y-74083663D01*
X132335063Y-73855408D01*
X132355659Y-73620000D01*
X132352859Y-73588002D01*
X132336717Y-73403495D01*
X132335063Y-73384592D01*
X132273903Y-73156337D01*
X132174035Y-72942171D01*
X132151683Y-72910248D01*
X132038494Y-72748597D01*
X131871402Y-72581506D01*
X131871396Y-72581501D01*
X131685842Y-72451575D01*
X131642217Y-72396998D01*
X131635023Y-72327500D01*
X131666546Y-72265145D01*
X131685842Y-72248425D01*
X131716066Y-72227262D01*
X131871401Y-72118495D01*
X132038495Y-71951401D01*
X132174035Y-71757830D01*
X132273903Y-71543663D01*
X132335063Y-71315408D01*
X132355659Y-71080000D01*
X144844341Y-71080000D01*
X144864937Y-71315408D01*
X144864937Y-71315411D01*
X144864938Y-71315413D01*
X144926094Y-71543655D01*
X144926096Y-71543659D01*
X144926097Y-71543663D01*
X145016164Y-71736812D01*
X145025965Y-71757830D01*
X145025967Y-71757834D01*
X145161501Y-71951395D01*
X145161506Y-71951402D01*
X145328597Y-72118493D01*
X145328603Y-72118498D01*
X145514158Y-72248425D01*
X145557783Y-72303002D01*
X145564977Y-72372500D01*
X145533454Y-72434855D01*
X145514158Y-72451575D01*
X145328597Y-72581505D01*
X145161505Y-72748597D01*
X145025965Y-72942169D01*
X145025964Y-72942171D01*
X144926098Y-73156335D01*
X144926094Y-73156344D01*
X144864938Y-73384586D01*
X144864936Y-73384596D01*
X144844341Y-73619999D01*
X144844341Y-73620000D01*
X144864936Y-73855403D01*
X144864938Y-73855413D01*
X144926094Y-74083655D01*
X144926096Y-74083659D01*
X144926097Y-74083663D01*
X144993015Y-74227169D01*
X145025965Y-74297830D01*
X145025967Y-74297834D01*
X145161501Y-74491395D01*
X145161506Y-74491402D01*
X145328597Y-74658493D01*
X145328603Y-74658498D01*
X145514158Y-74788425D01*
X145557783Y-74843002D01*
X145564977Y-74912500D01*
X145533454Y-74974855D01*
X145514158Y-74991575D01*
X145328597Y-75121505D01*
X145161505Y-75288597D01*
X145025965Y-75482169D01*
X145025964Y-75482171D01*
X144926098Y-75696335D01*
X144926094Y-75696344D01*
X144864938Y-75924586D01*
X144864936Y-75924596D01*
X144844341Y-76159999D01*
X144844341Y-76160000D01*
X144864936Y-76395403D01*
X144864938Y-76395413D01*
X144926094Y-76623655D01*
X144926096Y-76623659D01*
X144926097Y-76623663D01*
X144993015Y-76767169D01*
X145025965Y-76837830D01*
X145025967Y-76837834D01*
X145161501Y-77031395D01*
X145161506Y-77031402D01*
X145328597Y-77198493D01*
X145328603Y-77198498D01*
X145514158Y-77328425D01*
X145557783Y-77383002D01*
X145564977Y-77452500D01*
X145533454Y-77514855D01*
X145514158Y-77531575D01*
X145328597Y-77661505D01*
X145161505Y-77828597D01*
X145025965Y-78022169D01*
X145025964Y-78022171D01*
X144926098Y-78236335D01*
X144926094Y-78236344D01*
X144864938Y-78464586D01*
X144864936Y-78464596D01*
X144844341Y-78699999D01*
X144844341Y-78700000D01*
X144864936Y-78935403D01*
X144864938Y-78935413D01*
X144926094Y-79163655D01*
X144926096Y-79163659D01*
X144926097Y-79163663D01*
X144993015Y-79307169D01*
X145025965Y-79377830D01*
X145025967Y-79377834D01*
X145161501Y-79571395D01*
X145161506Y-79571402D01*
X145328597Y-79738493D01*
X145328603Y-79738498D01*
X145514158Y-79868425D01*
X145557783Y-79923002D01*
X145564977Y-79992500D01*
X145533454Y-80054855D01*
X145514158Y-80071575D01*
X145328597Y-80201505D01*
X145161505Y-80368597D01*
X145025965Y-80562169D01*
X145025964Y-80562171D01*
X144926098Y-80776335D01*
X144926094Y-80776344D01*
X144864938Y-81004586D01*
X144864936Y-81004596D01*
X144844341Y-81239999D01*
X144844341Y-81240000D01*
X144864936Y-81475403D01*
X144864938Y-81475413D01*
X144926094Y-81703655D01*
X144926096Y-81703659D01*
X144926097Y-81703663D01*
X144961927Y-81780500D01*
X145025965Y-81917830D01*
X145025967Y-81917834D01*
X145161501Y-82111395D01*
X145161506Y-82111402D01*
X145328597Y-82278493D01*
X145328603Y-82278498D01*
X145514158Y-82408425D01*
X145557783Y-82463002D01*
X145564977Y-82532500D01*
X145533454Y-82594855D01*
X145514158Y-82611575D01*
X145328597Y-82741505D01*
X145161505Y-82908597D01*
X145025965Y-83102169D01*
X145025964Y-83102171D01*
X144926098Y-83316335D01*
X144926094Y-83316344D01*
X144864938Y-83544586D01*
X144864936Y-83544596D01*
X144844341Y-83779999D01*
X144844341Y-83780000D01*
X144864936Y-84015403D01*
X144864938Y-84015413D01*
X144926094Y-84243655D01*
X144926096Y-84243659D01*
X144926097Y-84243663D01*
X144961740Y-84320099D01*
X145025965Y-84457830D01*
X145025967Y-84457834D01*
X145123818Y-84597578D01*
X145160857Y-84650476D01*
X145161501Y-84651395D01*
X145161506Y-84651402D01*
X145328597Y-84818493D01*
X145328603Y-84818498D01*
X145514158Y-84948425D01*
X145557783Y-85003002D01*
X145564977Y-85072500D01*
X145533454Y-85134855D01*
X145514158Y-85151575D01*
X145328597Y-85281505D01*
X145161505Y-85448597D01*
X145025965Y-85642169D01*
X145025964Y-85642171D01*
X144926098Y-85856335D01*
X144926094Y-85856344D01*
X144864938Y-86084586D01*
X144864936Y-86084596D01*
X144844341Y-86319999D01*
X144844341Y-86320000D01*
X144864936Y-86555403D01*
X144864938Y-86555413D01*
X144926094Y-86783655D01*
X144926096Y-86783659D01*
X144926097Y-86783663D01*
X144991377Y-86923655D01*
X145025965Y-86997830D01*
X145025967Y-86997834D01*
X145118382Y-87129815D01*
X145153651Y-87180185D01*
X145161501Y-87191395D01*
X145161506Y-87191402D01*
X145328597Y-87358493D01*
X145328603Y-87358498D01*
X145514158Y-87488425D01*
X145557783Y-87543002D01*
X145564977Y-87612500D01*
X145533454Y-87674855D01*
X145514158Y-87691575D01*
X145328597Y-87821505D01*
X145161505Y-87988597D01*
X145025965Y-88182169D01*
X145025964Y-88182171D01*
X144926098Y-88396335D01*
X144926094Y-88396344D01*
X144864938Y-88624586D01*
X144864936Y-88624596D01*
X144844341Y-88859999D01*
X144844341Y-88860000D01*
X144864936Y-89095403D01*
X144864938Y-89095413D01*
X144926094Y-89323655D01*
X144926096Y-89323659D01*
X144926097Y-89323663D01*
X145004315Y-89491401D01*
X145025965Y-89537830D01*
X145025967Y-89537834D01*
X145110458Y-89658498D01*
X145153651Y-89720185D01*
X145161501Y-89731395D01*
X145161506Y-89731402D01*
X145328597Y-89898493D01*
X145328603Y-89898498D01*
X145514158Y-90028425D01*
X145557783Y-90083002D01*
X145564977Y-90152500D01*
X145533454Y-90214855D01*
X145514158Y-90231575D01*
X145328597Y-90361505D01*
X145161505Y-90528597D01*
X145025965Y-90722169D01*
X145025964Y-90722171D01*
X144926098Y-90936335D01*
X144926094Y-90936344D01*
X144864938Y-91164586D01*
X144864936Y-91164596D01*
X144844341Y-91399999D01*
X144844341Y-91400000D01*
X144864936Y-91635403D01*
X144864938Y-91635413D01*
X144926094Y-91863655D01*
X144926096Y-91863659D01*
X144926097Y-91863663D01*
X145025965Y-92077830D01*
X145025967Y-92077834D01*
X145161501Y-92271395D01*
X145161506Y-92271402D01*
X145328597Y-92438493D01*
X145328603Y-92438498D01*
X145514158Y-92568425D01*
X145557783Y-92623002D01*
X145564977Y-92692500D01*
X145533454Y-92754855D01*
X145514158Y-92771575D01*
X145328597Y-92901505D01*
X145161505Y-93068597D01*
X145025965Y-93262169D01*
X145025964Y-93262171D01*
X144926098Y-93476335D01*
X144926094Y-93476344D01*
X144864938Y-93704586D01*
X144864936Y-93704596D01*
X144844341Y-93939999D01*
X144844341Y-93940000D01*
X144864936Y-94175403D01*
X144864938Y-94175413D01*
X144926094Y-94403655D01*
X144926096Y-94403659D01*
X144926097Y-94403663D01*
X145004315Y-94571401D01*
X145025965Y-94617830D01*
X145025967Y-94617834D01*
X145161501Y-94811395D01*
X145161506Y-94811402D01*
X145328597Y-94978493D01*
X145328603Y-94978498D01*
X145514158Y-95108425D01*
X145557783Y-95163002D01*
X145564977Y-95232500D01*
X145533454Y-95294855D01*
X145514158Y-95311575D01*
X145328597Y-95441505D01*
X145161505Y-95608597D01*
X145025965Y-95802169D01*
X145025964Y-95802171D01*
X144926098Y-96016335D01*
X144926094Y-96016344D01*
X144864938Y-96244586D01*
X144864936Y-96244596D01*
X144844341Y-96479999D01*
X144844341Y-96480000D01*
X144864936Y-96715403D01*
X144864938Y-96715413D01*
X144926094Y-96943655D01*
X144926096Y-96943659D01*
X144926097Y-96943663D01*
X144976390Y-97051516D01*
X145025965Y-97157830D01*
X145025967Y-97157834D01*
X145161501Y-97351395D01*
X145161506Y-97351402D01*
X145328597Y-97518493D01*
X145328603Y-97518498D01*
X145514158Y-97648425D01*
X145557783Y-97703002D01*
X145564977Y-97772500D01*
X145533454Y-97834855D01*
X145514158Y-97851575D01*
X145328597Y-97981505D01*
X145161505Y-98148597D01*
X145025965Y-98342169D01*
X145025964Y-98342171D01*
X144926098Y-98556335D01*
X144926094Y-98556344D01*
X144864938Y-98784586D01*
X144864936Y-98784596D01*
X144844341Y-99019999D01*
X144844341Y-99020000D01*
X144864936Y-99255403D01*
X144864938Y-99255413D01*
X144926094Y-99483655D01*
X144926096Y-99483659D01*
X144926097Y-99483663D01*
X144954436Y-99544435D01*
X145025965Y-99697830D01*
X145025967Y-99697834D01*
X145103549Y-99808632D01*
X145149468Y-99874211D01*
X145161501Y-99891395D01*
X145161506Y-99891402D01*
X145328597Y-100058493D01*
X145328603Y-100058498D01*
X145514158Y-100188425D01*
X145557783Y-100243002D01*
X145564977Y-100312500D01*
X145533454Y-100374855D01*
X145514158Y-100391575D01*
X145328597Y-100521505D01*
X145161505Y-100688597D01*
X145025965Y-100882169D01*
X145025964Y-100882171D01*
X144926098Y-101096335D01*
X144926094Y-101096344D01*
X144864938Y-101324586D01*
X144864936Y-101324596D01*
X144844341Y-101559999D01*
X144844341Y-101560000D01*
X144864936Y-101795403D01*
X144864938Y-101795413D01*
X144926094Y-102023655D01*
X144926096Y-102023659D01*
X144926097Y-102023663D01*
X144944750Y-102063664D01*
X145025965Y-102237830D01*
X145025967Y-102237834D01*
X145161501Y-102431395D01*
X145161506Y-102431402D01*
X145328597Y-102598493D01*
X145328603Y-102598498D01*
X145514158Y-102728425D01*
X145557783Y-102783002D01*
X145564977Y-102852500D01*
X145533454Y-102914855D01*
X145514158Y-102931575D01*
X145328597Y-103061505D01*
X145161505Y-103228597D01*
X145025965Y-103422169D01*
X145025964Y-103422171D01*
X144926098Y-103636335D01*
X144926094Y-103636344D01*
X144864938Y-103864586D01*
X144864936Y-103864596D01*
X144844341Y-104099999D01*
X144844341Y-104100000D01*
X144864936Y-104335403D01*
X144864938Y-104335413D01*
X144926094Y-104563655D01*
X144926096Y-104563659D01*
X144926097Y-104563663D01*
X144938571Y-104590413D01*
X145025965Y-104777830D01*
X145025967Y-104777834D01*
X145161501Y-104971395D01*
X145161506Y-104971402D01*
X145328597Y-105138493D01*
X145328603Y-105138498D01*
X145514158Y-105268425D01*
X145557783Y-105323002D01*
X145564977Y-105392500D01*
X145533454Y-105454855D01*
X145514158Y-105471575D01*
X145328597Y-105601505D01*
X145161505Y-105768597D01*
X145025965Y-105962169D01*
X145025964Y-105962171D01*
X144926098Y-106176335D01*
X144926094Y-106176344D01*
X144864938Y-106404586D01*
X144864936Y-106404596D01*
X144844341Y-106639999D01*
X144844341Y-106640000D01*
X144864936Y-106875403D01*
X144864938Y-106875413D01*
X144926094Y-107103655D01*
X144926096Y-107103659D01*
X144926097Y-107103663D01*
X144985478Y-107231006D01*
X145025965Y-107317830D01*
X145025967Y-107317834D01*
X145081917Y-107397738D01*
X145156552Y-107504328D01*
X145161501Y-107511395D01*
X145161506Y-107511402D01*
X145328597Y-107678493D01*
X145328603Y-107678498D01*
X145514158Y-107808425D01*
X145557783Y-107863002D01*
X145564977Y-107932500D01*
X145533454Y-107994855D01*
X145514158Y-108011575D01*
X145328597Y-108141505D01*
X145161505Y-108308597D01*
X145025965Y-108502169D01*
X145025964Y-108502171D01*
X144926098Y-108716335D01*
X144926094Y-108716344D01*
X144864938Y-108944586D01*
X144864936Y-108944596D01*
X144844341Y-109179999D01*
X144844341Y-109180000D01*
X144864936Y-109415403D01*
X144864938Y-109415413D01*
X144926094Y-109643655D01*
X144926096Y-109643659D01*
X144926097Y-109643663D01*
X144945373Y-109685000D01*
X145025965Y-109857830D01*
X145025967Y-109857834D01*
X145161501Y-110051395D01*
X145161506Y-110051402D01*
X145328597Y-110218493D01*
X145328603Y-110218498D01*
X145514158Y-110348425D01*
X145557783Y-110403002D01*
X145564977Y-110472500D01*
X145533454Y-110534855D01*
X145514158Y-110551575D01*
X145328597Y-110681505D01*
X145161505Y-110848597D01*
X145025965Y-111042169D01*
X145025964Y-111042171D01*
X144926098Y-111256335D01*
X144926094Y-111256344D01*
X144864938Y-111484586D01*
X144864936Y-111484596D01*
X144844341Y-111719999D01*
X144844341Y-111720000D01*
X144864936Y-111955403D01*
X144864938Y-111955413D01*
X144926094Y-112183655D01*
X144926096Y-112183659D01*
X144926097Y-112183663D01*
X144953494Y-112242416D01*
X145025965Y-112397830D01*
X145025967Y-112397834D01*
X145097505Y-112500000D01*
X145161501Y-112591396D01*
X145161506Y-112591402D01*
X145328597Y-112758493D01*
X145328603Y-112758498D01*
X145514158Y-112888425D01*
X145557783Y-112943002D01*
X145564977Y-113012500D01*
X145533454Y-113074855D01*
X145514158Y-113091575D01*
X145328597Y-113221505D01*
X145161505Y-113388597D01*
X145025965Y-113582169D01*
X145025964Y-113582171D01*
X144926098Y-113796335D01*
X144926094Y-113796344D01*
X144864938Y-114024586D01*
X144864936Y-114024596D01*
X144844341Y-114259999D01*
X144844341Y-114260000D01*
X144864936Y-114495403D01*
X144864938Y-114495413D01*
X144926094Y-114723655D01*
X144926096Y-114723659D01*
X144926097Y-114723663D01*
X145006040Y-114895101D01*
X145025965Y-114937830D01*
X145025967Y-114937834D01*
X145134281Y-115092521D01*
X145161505Y-115131401D01*
X145328599Y-115298495D01*
X145425384Y-115366265D01*
X145522165Y-115434032D01*
X145522167Y-115434033D01*
X145522170Y-115434035D01*
X145736337Y-115533903D01*
X145964592Y-115595063D01*
X146141034Y-115610500D01*
X146199999Y-115615659D01*
X146200000Y-115615659D01*
X146200001Y-115615659D01*
X146258966Y-115610500D01*
X146435408Y-115595063D01*
X146663663Y-115533903D01*
X146877830Y-115434035D01*
X147071401Y-115298495D01*
X147238495Y-115131401D01*
X147321136Y-115013376D01*
X147375713Y-114969752D01*
X147422711Y-114960500D01*
X148425501Y-114960500D01*
X148492540Y-114980185D01*
X148538295Y-115032989D01*
X148549501Y-115084500D01*
X148549501Y-115157876D01*
X148555908Y-115217483D01*
X148606202Y-115352328D01*
X148606206Y-115352335D01*
X148692452Y-115467544D01*
X148692455Y-115467547D01*
X148807664Y-115553793D01*
X148807671Y-115553797D01*
X148942517Y-115604091D01*
X148942516Y-115604091D01*
X148949444Y-115604835D01*
X149002127Y-115610500D01*
X150797872Y-115610499D01*
X150857483Y-115604091D01*
X150992331Y-115553796D01*
X151107546Y-115467546D01*
X151193796Y-115352331D01*
X151244091Y-115217483D01*
X151250500Y-115157873D01*
X151250499Y-113362128D01*
X151244091Y-113302517D01*
X151193796Y-113167669D01*
X151193795Y-113167668D01*
X151193793Y-113167664D01*
X151107547Y-113052455D01*
X151107544Y-113052452D01*
X150992335Y-112966206D01*
X150992328Y-112966202D01*
X150860917Y-112917189D01*
X150804983Y-112875318D01*
X150780566Y-112809853D01*
X150795418Y-112741580D01*
X150816563Y-112713332D01*
X150938495Y-112591401D01*
X151002495Y-112500000D01*
X166795065Y-112500000D01*
X166814786Y-112826038D01*
X166873667Y-113147341D01*
X166970835Y-113459164D01*
X166970839Y-113459175D01*
X167104897Y-113757041D01*
X167104898Y-113757043D01*
X167273881Y-114036576D01*
X167421476Y-114224968D01*
X168563708Y-113082736D01*
X168660967Y-113216602D01*
X168783398Y-113339033D01*
X168917262Y-113436290D01*
X167775030Y-114578522D01*
X167775030Y-114578523D01*
X167963423Y-114726118D01*
X168242956Y-114895101D01*
X168242958Y-114895102D01*
X168540824Y-115029160D01*
X168540835Y-115029164D01*
X168852658Y-115126332D01*
X169173961Y-115185213D01*
X169500000Y-115204934D01*
X169826038Y-115185213D01*
X170147341Y-115126332D01*
X170459164Y-115029164D01*
X170459175Y-115029160D01*
X170757041Y-114895102D01*
X170757043Y-114895101D01*
X171036586Y-114726112D01*
X171224968Y-114578523D01*
X171224968Y-114578522D01*
X170082737Y-113436290D01*
X170216602Y-113339033D01*
X170339033Y-113216602D01*
X170436290Y-113082737D01*
X171578522Y-114224968D01*
X171578523Y-114224968D01*
X171726112Y-114036586D01*
X171895101Y-113757043D01*
X171895102Y-113757041D01*
X172029160Y-113459175D01*
X172029164Y-113459164D01*
X172126332Y-113147341D01*
X172185213Y-112826038D01*
X172204934Y-112500000D01*
X172185213Y-112173961D01*
X172126332Y-111852658D01*
X172029164Y-111540835D01*
X172029160Y-111540824D01*
X171895102Y-111242958D01*
X171895101Y-111242956D01*
X171726118Y-110963423D01*
X171578522Y-110775030D01*
X170436290Y-111917262D01*
X170339033Y-111783398D01*
X170216602Y-111660967D01*
X170082736Y-111563709D01*
X171224968Y-110421476D01*
X171036576Y-110273881D01*
X170757043Y-110104898D01*
X170757041Y-110104897D01*
X170459175Y-109970839D01*
X170459164Y-109970835D01*
X170147341Y-109873667D01*
X169826038Y-109814786D01*
X169500000Y-109795065D01*
X169173961Y-109814786D01*
X168852658Y-109873667D01*
X168540835Y-109970835D01*
X168540824Y-109970839D01*
X168242958Y-110104897D01*
X168242956Y-110104898D01*
X167963422Y-110273881D01*
X167963416Y-110273886D01*
X167775030Y-110421474D01*
X167775029Y-110421476D01*
X168917262Y-111563709D01*
X168783398Y-111660967D01*
X168660967Y-111783398D01*
X168563709Y-111917262D01*
X167421476Y-110775029D01*
X167421474Y-110775030D01*
X167273886Y-110963416D01*
X167273881Y-110963422D01*
X167104898Y-111242956D01*
X167104897Y-111242958D01*
X166970839Y-111540824D01*
X166970835Y-111540835D01*
X166873667Y-111852658D01*
X166814786Y-112173961D01*
X166795065Y-112500000D01*
X151002495Y-112500000D01*
X151074035Y-112397830D01*
X151173903Y-112183663D01*
X151235063Y-111955408D01*
X151255659Y-111720000D01*
X151235063Y-111484592D01*
X151173903Y-111256337D01*
X151074035Y-111042171D01*
X151051683Y-111010248D01*
X150938494Y-110848597D01*
X150771402Y-110681506D01*
X150771396Y-110681501D01*
X150585842Y-110551575D01*
X150542217Y-110496998D01*
X150535023Y-110427500D01*
X150566546Y-110365145D01*
X150585842Y-110348425D01*
X150608118Y-110332827D01*
X150771401Y-110218495D01*
X150938495Y-110051401D01*
X151074035Y-109857830D01*
X151173903Y-109643663D01*
X151235063Y-109415408D01*
X151255659Y-109180000D01*
X151235063Y-108944592D01*
X151173903Y-108716337D01*
X151074035Y-108502171D01*
X151056850Y-108477627D01*
X150938494Y-108308597D01*
X150771402Y-108141506D01*
X150771396Y-108141501D01*
X150585842Y-108011575D01*
X150542217Y-107956998D01*
X150535023Y-107887500D01*
X150566546Y-107825145D01*
X150585842Y-107808425D01*
X150645867Y-107766395D01*
X150771401Y-107678495D01*
X150938495Y-107511401D01*
X151074035Y-107317830D01*
X151173903Y-107103663D01*
X151235063Y-106875408D01*
X151255659Y-106640000D01*
X151235063Y-106404592D01*
X151173903Y-106176337D01*
X151074035Y-105962171D01*
X151062826Y-105946162D01*
X150938494Y-105768597D01*
X150771402Y-105601506D01*
X150771396Y-105601501D01*
X150585842Y-105471575D01*
X150542217Y-105416998D01*
X150540457Y-105399996D01*
X167794435Y-105399996D01*
X167794435Y-105400003D01*
X167814630Y-105579249D01*
X167814631Y-105579254D01*
X167874211Y-105749523D01*
X167949280Y-105868994D01*
X167970184Y-105902262D01*
X168097738Y-106029816D01*
X168250478Y-106125789D01*
X168394930Y-106176335D01*
X168420745Y-106185368D01*
X168420750Y-106185369D01*
X168599996Y-106205565D01*
X168600000Y-106205565D01*
X168600004Y-106205565D01*
X168779249Y-106185369D01*
X168779252Y-106185368D01*
X168779255Y-106185368D01*
X168949522Y-106125789D01*
X169102262Y-106029816D01*
X169229816Y-105902262D01*
X169325789Y-105749522D01*
X169385368Y-105579255D01*
X169385369Y-105579249D01*
X169405565Y-105400003D01*
X169405565Y-105399996D01*
X169385369Y-105220750D01*
X169385366Y-105220737D01*
X169325790Y-105050479D01*
X169319506Y-105040478D01*
X169300500Y-104974507D01*
X169300500Y-100982940D01*
X169320185Y-100915901D01*
X169336819Y-100895259D01*
X169349909Y-100882169D01*
X169379816Y-100852262D01*
X169475789Y-100699522D01*
X169535368Y-100529255D01*
X169536241Y-100521506D01*
X169555565Y-100350003D01*
X169555565Y-100349996D01*
X169535369Y-100170750D01*
X169535368Y-100170745D01*
X169475788Y-100000476D01*
X169407251Y-99891401D01*
X169379816Y-99847738D01*
X169252262Y-99720184D01*
X169216686Y-99697830D01*
X169099523Y-99624211D01*
X168929254Y-99564631D01*
X168929249Y-99564630D01*
X168750004Y-99544435D01*
X168749996Y-99544435D01*
X168570750Y-99564630D01*
X168570745Y-99564631D01*
X168400476Y-99624211D01*
X168247737Y-99720184D01*
X168120184Y-99847737D01*
X168024210Y-100000478D01*
X167964632Y-100170744D01*
X167964632Y-100170745D01*
X167962714Y-100187760D01*
X167961534Y-100198235D01*
X167952876Y-100231797D01*
X167926421Y-100295667D01*
X167926419Y-100295675D01*
X167901891Y-100418989D01*
X167901890Y-100418994D01*
X167899500Y-100431006D01*
X167899500Y-104974507D01*
X167880494Y-105040478D01*
X167874209Y-105050479D01*
X167814633Y-105220737D01*
X167814630Y-105220750D01*
X167794435Y-105399996D01*
X150540457Y-105399996D01*
X150535023Y-105347500D01*
X150566546Y-105285145D01*
X150585842Y-105268425D01*
X150645867Y-105226395D01*
X150771401Y-105138495D01*
X150938495Y-104971401D01*
X151074035Y-104777830D01*
X151173903Y-104563663D01*
X151235063Y-104335408D01*
X151255659Y-104100000D01*
X151235063Y-103864592D01*
X151173903Y-103636337D01*
X151074035Y-103422171D01*
X151051683Y-103390248D01*
X150938494Y-103228597D01*
X150771402Y-103061506D01*
X150771396Y-103061501D01*
X150585842Y-102931575D01*
X150542217Y-102876998D01*
X150535023Y-102807500D01*
X150566546Y-102745145D01*
X150585842Y-102728425D01*
X150645867Y-102686395D01*
X150771401Y-102598495D01*
X150938495Y-102431401D01*
X151074035Y-102237830D01*
X151173903Y-102023663D01*
X151235063Y-101795408D01*
X151255659Y-101560000D01*
X151235063Y-101324592D01*
X151173903Y-101096337D01*
X151074035Y-100882171D01*
X151051683Y-100850248D01*
X150938494Y-100688597D01*
X150771402Y-100521506D01*
X150771396Y-100521501D01*
X150585842Y-100391575D01*
X150542217Y-100336998D01*
X150535023Y-100267500D01*
X150566546Y-100205145D01*
X150585842Y-100188425D01*
X150715356Y-100097738D01*
X150771401Y-100058495D01*
X150938495Y-99891401D01*
X151074035Y-99697830D01*
X151173903Y-99483663D01*
X151235063Y-99255408D01*
X151255659Y-99020000D01*
X151253399Y-98994174D01*
X151247873Y-98931006D01*
X151235063Y-98784592D01*
X151184015Y-98594075D01*
X151173905Y-98556344D01*
X151173904Y-98556343D01*
X151173903Y-98556337D01*
X151074035Y-98342171D01*
X151051683Y-98310248D01*
X150938494Y-98148597D01*
X150771402Y-97981506D01*
X150771396Y-97981501D01*
X150585842Y-97851575D01*
X150542217Y-97796998D01*
X150535023Y-97727500D01*
X150566546Y-97665145D01*
X150585842Y-97648425D01*
X150608026Y-97632891D01*
X150771401Y-97518495D01*
X150938495Y-97351401D01*
X151021136Y-97233376D01*
X151075713Y-97189752D01*
X151122711Y-97180500D01*
X151737793Y-97180500D01*
X151804832Y-97200185D01*
X151836746Y-97229773D01*
X151899019Y-97312236D01*
X151899021Y-97312238D01*
X151899025Y-97312242D01*
X152063437Y-97462123D01*
X152063439Y-97462125D01*
X152252595Y-97579245D01*
X152252596Y-97579245D01*
X152252599Y-97579247D01*
X152460060Y-97659618D01*
X152678757Y-97700500D01*
X152678759Y-97700500D01*
X152901241Y-97700500D01*
X152901243Y-97700500D01*
X153119940Y-97659618D01*
X153327401Y-97579247D01*
X153444280Y-97506879D01*
X159756672Y-97506879D01*
X159756672Y-97506880D01*
X159872821Y-97578797D01*
X159872822Y-97578798D01*
X160080195Y-97659134D01*
X160298807Y-97700000D01*
X160521193Y-97700000D01*
X160739809Y-97659133D01*
X160947168Y-97578801D01*
X160947181Y-97578795D01*
X161063326Y-97506879D01*
X160410001Y-96853553D01*
X160410000Y-96853553D01*
X159756672Y-97506879D01*
X153444280Y-97506879D01*
X153516562Y-97462124D01*
X153656282Y-97334751D01*
X153680979Y-97312238D01*
X153707202Y-97277514D01*
X153815058Y-97134689D01*
X153914229Y-96935528D01*
X153975115Y-96721536D01*
X153995643Y-96500000D01*
X153983218Y-96365916D01*
X153975115Y-96278464D01*
X153975114Y-96278462D01*
X153965478Y-96244596D01*
X153914229Y-96064472D01*
X153910182Y-96056344D01*
X153815061Y-95865316D01*
X153815056Y-95865308D01*
X153680979Y-95687761D01*
X153516562Y-95537876D01*
X153516560Y-95537874D01*
X153327404Y-95420754D01*
X153327398Y-95420752D01*
X153119940Y-95340382D01*
X152901243Y-95299500D01*
X152678757Y-95299500D01*
X152460060Y-95340382D01*
X152328864Y-95391207D01*
X152252601Y-95420752D01*
X152252595Y-95420754D01*
X152063439Y-95537874D01*
X152063437Y-95537876D01*
X151899020Y-95687762D01*
X151866952Y-95730227D01*
X151810842Y-95771863D01*
X151767998Y-95779500D01*
X151122711Y-95779500D01*
X151055672Y-95759815D01*
X151021136Y-95726623D01*
X151018234Y-95722479D01*
X150938495Y-95608599D01*
X150938494Y-95608597D01*
X150771402Y-95441506D01*
X150771396Y-95441501D01*
X150585842Y-95311575D01*
X150542217Y-95256998D01*
X150535023Y-95187500D01*
X150566546Y-95125145D01*
X150585842Y-95108425D01*
X150694338Y-95032455D01*
X150771401Y-94978495D01*
X150938495Y-94811401D01*
X151074035Y-94617830D01*
X151173903Y-94403663D01*
X151235063Y-94175408D01*
X151255659Y-93940000D01*
X151235063Y-93704592D01*
X151173903Y-93476337D01*
X151074035Y-93262171D01*
X151051683Y-93230248D01*
X150938494Y-93068597D01*
X150771402Y-92901506D01*
X150771396Y-92901501D01*
X150585842Y-92771575D01*
X150542217Y-92716998D01*
X150535023Y-92647500D01*
X150566546Y-92585145D01*
X150585842Y-92568425D01*
X150615482Y-92547671D01*
X150771401Y-92438495D01*
X150938495Y-92271401D01*
X151074035Y-92077830D01*
X151173903Y-91863663D01*
X151235063Y-91635408D01*
X151255659Y-91400000D01*
X151235063Y-91164592D01*
X151173903Y-90936337D01*
X151074035Y-90722171D01*
X151051683Y-90690248D01*
X150938494Y-90528597D01*
X150922078Y-90512181D01*
X150888593Y-90450858D01*
X150893577Y-90381166D01*
X150935449Y-90325233D01*
X151000913Y-90300816D01*
X151009759Y-90300500D01*
X154269988Y-90300500D01*
X154337027Y-90320185D01*
X154382782Y-90372989D01*
X154392726Y-90442147D01*
X154371805Y-90490532D01*
X154373889Y-90491842D01*
X154274211Y-90650476D01*
X154214631Y-90820745D01*
X154214630Y-90820750D01*
X154194435Y-90999996D01*
X154194435Y-91000003D01*
X154214630Y-91179249D01*
X154214631Y-91179254D01*
X154274211Y-91349523D01*
X154340747Y-91455413D01*
X154370184Y-91502262D01*
X154497738Y-91629816D01*
X154650478Y-91725789D01*
X154820745Y-91785368D01*
X154907669Y-91795161D01*
X154972080Y-91822226D01*
X154981465Y-91830700D01*
X155908588Y-92757823D01*
X155942073Y-92819146D01*
X155937089Y-92888838D01*
X155908588Y-92933185D01*
X155193388Y-93648384D01*
X155193387Y-93648385D01*
X155116722Y-93763123D01*
X155063921Y-93890598D01*
X155063918Y-93890610D01*
X155040371Y-94008990D01*
X155040370Y-94008995D01*
X155037000Y-94025933D01*
X155037000Y-95573228D01*
X155017315Y-95640267D01*
X154982069Y-95674867D01*
X154982316Y-95675179D01*
X154979415Y-95677472D01*
X154978100Y-95678764D01*
X154976654Y-95679655D01*
X154976653Y-95679656D01*
X154854659Y-95801651D01*
X154764093Y-95948481D01*
X154764091Y-95948486D01*
X154741608Y-96016335D01*
X154709826Y-96112247D01*
X154709826Y-96112248D01*
X154709825Y-96112248D01*
X154699500Y-96213315D01*
X154699500Y-96786669D01*
X154699501Y-96786687D01*
X154709825Y-96887752D01*
X154725657Y-96935528D01*
X154764092Y-97051516D01*
X154854660Y-97198350D01*
X154976650Y-97320340D01*
X155123484Y-97410908D01*
X155287247Y-97465174D01*
X155388323Y-97475500D01*
X156086676Y-97475499D01*
X156086684Y-97475498D01*
X156086687Y-97475498D01*
X156142030Y-97469844D01*
X156187753Y-97465174D01*
X156351516Y-97410908D01*
X156498350Y-97320340D01*
X156512671Y-97306018D01*
X156573989Y-97272533D01*
X156643681Y-97277514D01*
X156688034Y-97306017D01*
X156701961Y-97319944D01*
X156701965Y-97319947D01*
X156848688Y-97410448D01*
X156848699Y-97410453D01*
X157012347Y-97464680D01*
X157113351Y-97474999D01*
X157712500Y-97474999D01*
X157811640Y-97474999D01*
X157811654Y-97474998D01*
X157912652Y-97464680D01*
X158076300Y-97410453D01*
X158076311Y-97410448D01*
X158223034Y-97319947D01*
X158223038Y-97319944D01*
X158344944Y-97198038D01*
X158344947Y-97198034D01*
X158435448Y-97051311D01*
X158435453Y-97051300D01*
X158489680Y-96887652D01*
X158499999Y-96786654D01*
X158500000Y-96786641D01*
X158500000Y-96750000D01*
X157712500Y-96750000D01*
X157712500Y-97474999D01*
X157113351Y-97474999D01*
X157212500Y-97474998D01*
X157212500Y-96499999D01*
X159204859Y-96499999D01*
X159204859Y-96500000D01*
X159225378Y-96721439D01*
X159286240Y-96935350D01*
X159385369Y-97134428D01*
X159401137Y-97155308D01*
X159401138Y-97155308D01*
X160056447Y-96500000D01*
X160010369Y-96453922D01*
X160060000Y-96453922D01*
X160060000Y-96546078D01*
X160083852Y-96635095D01*
X160129930Y-96714905D01*
X160195095Y-96780070D01*
X160274905Y-96826148D01*
X160363922Y-96850000D01*
X160456078Y-96850000D01*
X160545095Y-96826148D01*
X160624905Y-96780070D01*
X160690070Y-96714905D01*
X160736148Y-96635095D01*
X160760000Y-96546078D01*
X160760000Y-96499999D01*
X160763553Y-96499999D01*
X160763553Y-96500000D01*
X161337528Y-97073975D01*
X161360845Y-97106381D01*
X161374941Y-97134688D01*
X161509020Y-97312238D01*
X161673437Y-97462123D01*
X161673439Y-97462125D01*
X161862595Y-97579245D01*
X161862596Y-97579245D01*
X161862599Y-97579247D01*
X162070060Y-97659618D01*
X162288757Y-97700500D01*
X162288759Y-97700500D01*
X162511241Y-97700500D01*
X162511243Y-97700500D01*
X162729940Y-97659618D01*
X162937401Y-97579247D01*
X163126562Y-97462124D01*
X163266282Y-97334751D01*
X163290979Y-97312238D01*
X163317202Y-97277514D01*
X163425058Y-97134689D01*
X163524229Y-96935528D01*
X163585115Y-96721536D01*
X163605643Y-96500000D01*
X163605643Y-96499999D01*
X168814357Y-96499999D01*
X168814357Y-96500000D01*
X168834884Y-96721535D01*
X168834885Y-96721537D01*
X168895769Y-96935523D01*
X168895775Y-96935538D01*
X168994938Y-97134683D01*
X168994943Y-97134691D01*
X169129020Y-97312238D01*
X169293437Y-97462123D01*
X169293439Y-97462125D01*
X169482595Y-97579245D01*
X169482596Y-97579245D01*
X169482599Y-97579247D01*
X169690060Y-97659618D01*
X169908757Y-97700500D01*
X169908759Y-97700500D01*
X170131241Y-97700500D01*
X170131243Y-97700500D01*
X170349940Y-97659618D01*
X170557401Y-97579247D01*
X170746562Y-97462124D01*
X170886282Y-97334751D01*
X170910979Y-97312238D01*
X170937202Y-97277514D01*
X171045058Y-97134689D01*
X171144229Y-96935528D01*
X171205115Y-96721536D01*
X171210214Y-96666498D01*
X171235999Y-96601563D01*
X171292799Y-96560875D01*
X171362580Y-96557354D01*
X171423187Y-96592118D01*
X171455378Y-96654130D01*
X171457213Y-96667131D01*
X171464936Y-96755403D01*
X171464938Y-96755413D01*
X171526094Y-96983655D01*
X171526096Y-96983659D01*
X171526097Y-96983663D01*
X171583322Y-97106381D01*
X171625965Y-97197830D01*
X171625967Y-97197834D01*
X171761501Y-97391395D01*
X171761506Y-97391402D01*
X171928597Y-97558493D01*
X171928603Y-97558498D01*
X171957599Y-97578801D01*
X172073017Y-97659618D01*
X172114594Y-97688730D01*
X172158219Y-97743307D01*
X172165413Y-97812805D01*
X172133890Y-97875160D01*
X172114595Y-97891880D01*
X171928922Y-98021890D01*
X171928920Y-98021891D01*
X171761891Y-98188920D01*
X171761886Y-98188926D01*
X171626400Y-98382420D01*
X171626399Y-98382422D01*
X171526570Y-98596507D01*
X171526567Y-98596513D01*
X171469364Y-98809999D01*
X171469364Y-98810000D01*
X172366988Y-98810000D01*
X172334075Y-98867007D01*
X172300000Y-98994174D01*
X172300000Y-99125826D01*
X172334075Y-99252993D01*
X172366988Y-99310000D01*
X171469364Y-99310000D01*
X171526567Y-99523486D01*
X171526570Y-99523492D01*
X171626399Y-99737578D01*
X171761894Y-99931082D01*
X171928917Y-100098105D01*
X172114595Y-100228119D01*
X172158219Y-100282696D01*
X172165412Y-100352195D01*
X172133890Y-100414549D01*
X172114595Y-100431269D01*
X171928594Y-100561508D01*
X171761505Y-100728597D01*
X171625965Y-100922169D01*
X171625964Y-100922171D01*
X171526098Y-101136335D01*
X171526094Y-101136344D01*
X171464938Y-101364586D01*
X171464936Y-101364596D01*
X171444341Y-101599999D01*
X171444341Y-101600000D01*
X171464936Y-101835403D01*
X171464938Y-101835413D01*
X171526094Y-102063655D01*
X171526096Y-102063659D01*
X171526097Y-102063663D01*
X171599346Y-102220745D01*
X171625965Y-102277830D01*
X171625967Y-102277834D01*
X171722363Y-102415500D01*
X171761501Y-102471396D01*
X171761506Y-102471402D01*
X171883430Y-102593326D01*
X171916915Y-102654649D01*
X171911931Y-102724341D01*
X171870059Y-102780274D01*
X171839083Y-102797189D01*
X171707669Y-102846203D01*
X171707664Y-102846206D01*
X171592455Y-102932452D01*
X171592452Y-102932455D01*
X171506206Y-103047664D01*
X171506202Y-103047671D01*
X171455908Y-103182517D01*
X171450954Y-103228599D01*
X171449501Y-103242123D01*
X171449500Y-103242135D01*
X171449500Y-105037870D01*
X171449501Y-105037876D01*
X171455908Y-105097483D01*
X171506202Y-105232328D01*
X171506206Y-105232335D01*
X171592452Y-105347544D01*
X171592455Y-105347547D01*
X171707664Y-105433793D01*
X171707671Y-105433797D01*
X171842517Y-105484091D01*
X171842516Y-105484091D01*
X171849444Y-105484835D01*
X171902127Y-105490500D01*
X173697872Y-105490499D01*
X173757483Y-105484091D01*
X173892331Y-105433796D01*
X174007546Y-105347546D01*
X174093796Y-105232331D01*
X174144091Y-105097483D01*
X174150500Y-105037873D01*
X174150499Y-103242128D01*
X174144091Y-103182517D01*
X174143512Y-103180965D01*
X174093797Y-103047671D01*
X174093793Y-103047664D01*
X174007547Y-102932455D01*
X174007544Y-102932452D01*
X173892335Y-102846206D01*
X173892328Y-102846202D01*
X173760917Y-102797189D01*
X173704983Y-102755318D01*
X173680566Y-102689853D01*
X173695418Y-102621580D01*
X173716563Y-102593332D01*
X173838495Y-102471401D01*
X173974035Y-102277830D01*
X174073903Y-102063663D01*
X174135063Y-101835408D01*
X174155659Y-101600000D01*
X174153873Y-101579592D01*
X174142829Y-101453355D01*
X174135063Y-101364592D01*
X174074128Y-101137175D01*
X174073905Y-101136344D01*
X174073904Y-101136343D01*
X174073903Y-101136337D01*
X173974035Y-100922171D01*
X173946026Y-100882169D01*
X173838494Y-100728597D01*
X173671402Y-100561506D01*
X173671401Y-100561505D01*
X173485405Y-100431269D01*
X173441781Y-100376692D01*
X173434588Y-100307193D01*
X173466110Y-100244839D01*
X173485405Y-100228119D01*
X173671082Y-100098105D01*
X173838105Y-99931082D01*
X173973600Y-99737578D01*
X174073429Y-99523492D01*
X174073432Y-99523486D01*
X174130636Y-99310000D01*
X173233012Y-99310000D01*
X173265925Y-99252993D01*
X173300000Y-99125826D01*
X173300000Y-98994174D01*
X173265925Y-98867007D01*
X173233012Y-98810000D01*
X174130636Y-98810000D01*
X174130635Y-98809999D01*
X174073432Y-98596513D01*
X174073429Y-98596507D01*
X173973600Y-98382422D01*
X173973599Y-98382420D01*
X173838113Y-98188926D01*
X173838108Y-98188920D01*
X173671078Y-98021890D01*
X173485405Y-97891879D01*
X173441780Y-97837302D01*
X173434588Y-97767804D01*
X173466110Y-97705449D01*
X173485406Y-97688730D01*
X173519089Y-97665145D01*
X173671401Y-97558495D01*
X173838495Y-97391401D01*
X173974035Y-97197830D01*
X174073903Y-96983663D01*
X174135063Y-96755408D01*
X174155659Y-96520000D01*
X174135063Y-96284592D01*
X174073903Y-96056337D01*
X173974035Y-95842171D01*
X173947769Y-95804658D01*
X173838494Y-95648597D01*
X173671402Y-95481506D01*
X173671395Y-95481501D01*
X173477834Y-95345967D01*
X173477830Y-95345965D01*
X173417430Y-95317800D01*
X173263663Y-95246097D01*
X173263659Y-95246096D01*
X173263655Y-95246094D01*
X173035413Y-95184938D01*
X173035403Y-95184936D01*
X172800001Y-95164341D01*
X172799999Y-95164341D01*
X172564596Y-95184936D01*
X172564586Y-95184938D01*
X172336344Y-95246094D01*
X172336335Y-95246098D01*
X172145909Y-95334895D01*
X172076831Y-95345387D01*
X172013047Y-95316867D01*
X171974808Y-95258391D01*
X171974253Y-95188523D01*
X172005821Y-95134834D01*
X173053838Y-94086818D01*
X173115161Y-94053333D01*
X173141519Y-94050499D01*
X173697871Y-94050499D01*
X173697872Y-94050499D01*
X173757483Y-94044091D01*
X173892331Y-93993796D01*
X174007546Y-93907546D01*
X174093796Y-93792331D01*
X174144091Y-93657483D01*
X174150500Y-93597873D01*
X174150499Y-91802128D01*
X174144091Y-91742517D01*
X174122140Y-91683664D01*
X174093797Y-91607671D01*
X174093793Y-91607664D01*
X174007547Y-91492455D01*
X174007544Y-91492452D01*
X173892335Y-91406206D01*
X173892328Y-91406202D01*
X173757482Y-91355908D01*
X173757483Y-91355908D01*
X173697883Y-91349501D01*
X173697881Y-91349500D01*
X173697873Y-91349500D01*
X173697864Y-91349500D01*
X171902129Y-91349500D01*
X171902123Y-91349501D01*
X171842516Y-91355908D01*
X171707671Y-91406202D01*
X171707664Y-91406206D01*
X171592455Y-91492452D01*
X171592452Y-91492455D01*
X171506206Y-91607664D01*
X171506202Y-91607671D01*
X171455908Y-91742517D01*
X171449501Y-91802116D01*
X171449501Y-91802123D01*
X171449500Y-91802135D01*
X171449500Y-93597870D01*
X171449501Y-93597876D01*
X171454028Y-93639988D01*
X171441621Y-93708748D01*
X171418419Y-93740922D01*
X169875748Y-95283593D01*
X169814425Y-95317078D01*
X169810853Y-95317800D01*
X169690070Y-95340379D01*
X169690060Y-95340382D01*
X169482601Y-95420751D01*
X169482595Y-95420754D01*
X169293439Y-95537874D01*
X169293437Y-95537876D01*
X169129020Y-95687761D01*
X168994943Y-95865308D01*
X168994938Y-95865316D01*
X168895775Y-96064461D01*
X168895769Y-96064476D01*
X168834885Y-96278462D01*
X168834884Y-96278464D01*
X168814357Y-96499999D01*
X163605643Y-96499999D01*
X163593218Y-96365916D01*
X163585115Y-96278464D01*
X163585114Y-96278462D01*
X163575478Y-96244596D01*
X163524229Y-96064472D01*
X163520182Y-96056344D01*
X163425061Y-95865316D01*
X163425056Y-95865308D01*
X163290979Y-95687761D01*
X163126562Y-95537876D01*
X163126560Y-95537874D01*
X162937404Y-95420754D01*
X162937398Y-95420752D01*
X162729940Y-95340382D01*
X162511243Y-95299500D01*
X162288757Y-95299500D01*
X162070060Y-95340382D01*
X161938864Y-95391207D01*
X161862601Y-95420752D01*
X161862595Y-95420754D01*
X161673439Y-95537874D01*
X161673437Y-95537876D01*
X161509020Y-95687761D01*
X161374940Y-95865313D01*
X161360846Y-95893616D01*
X161337529Y-95926022D01*
X160763553Y-96499999D01*
X160760000Y-96499999D01*
X160760000Y-96453922D01*
X160736148Y-96364905D01*
X160690070Y-96285095D01*
X160624905Y-96219930D01*
X160545095Y-96173852D01*
X160456078Y-96150000D01*
X160363922Y-96150000D01*
X160274905Y-96173852D01*
X160195095Y-96219930D01*
X160129930Y-96285095D01*
X160083852Y-96364905D01*
X160060000Y-96453922D01*
X160010369Y-96453922D01*
X159401138Y-95844691D01*
X159401137Y-95844691D01*
X159385368Y-95865574D01*
X159286240Y-96064649D01*
X159225378Y-96278560D01*
X159204859Y-96499999D01*
X157212500Y-96499999D01*
X157212500Y-96250000D01*
X157712500Y-96250000D01*
X158499999Y-96250000D01*
X158499999Y-96213360D01*
X158499998Y-96213345D01*
X158489680Y-96112347D01*
X158435453Y-95948699D01*
X158435448Y-95948688D01*
X158344947Y-95801965D01*
X158344944Y-95801961D01*
X158223038Y-95680055D01*
X158223034Y-95680052D01*
X158076311Y-95589551D01*
X158076300Y-95589546D01*
X157912652Y-95535319D01*
X157811654Y-95525000D01*
X157712500Y-95525000D01*
X157712500Y-96250000D01*
X157212500Y-96250000D01*
X157212500Y-95524999D01*
X157113360Y-95525000D01*
X157113344Y-95525001D01*
X157012347Y-95535319D01*
X156848699Y-95589546D01*
X156848688Y-95589551D01*
X156701965Y-95680052D01*
X156701963Y-95680053D01*
X156688030Y-95693986D01*
X156626705Y-95727468D01*
X156557013Y-95722479D01*
X156512672Y-95693981D01*
X156498351Y-95679660D01*
X156498345Y-95679655D01*
X156496900Y-95678764D01*
X156496117Y-95677893D01*
X156492684Y-95675179D01*
X156493147Y-95674592D01*
X156450177Y-95626815D01*
X156438000Y-95573228D01*
X156438000Y-95493119D01*
X159756671Y-95493119D01*
X160410000Y-96146447D01*
X160410001Y-96146447D01*
X161063327Y-95493119D01*
X160947178Y-95421202D01*
X160947177Y-95421201D01*
X160739804Y-95340865D01*
X160521193Y-95300000D01*
X160298807Y-95300000D01*
X160080195Y-95340865D01*
X159872824Y-95421200D01*
X159872823Y-95421201D01*
X159756671Y-95493119D01*
X156438000Y-95493119D01*
X156438000Y-94436449D01*
X156457685Y-94369410D01*
X156474315Y-94348772D01*
X157192772Y-93630314D01*
X157239495Y-93600956D01*
X157343004Y-93564738D01*
X157495744Y-93468765D01*
X157623298Y-93341211D01*
X157719271Y-93188471D01*
X157778850Y-93018204D01*
X157783033Y-92981079D01*
X157799047Y-92838952D01*
X157799047Y-92838945D01*
X157778851Y-92659699D01*
X157778850Y-92659694D01*
X157752764Y-92585145D01*
X157719271Y-92489427D01*
X157711461Y-92476998D01*
X157655807Y-92388425D01*
X157623298Y-92336687D01*
X157495744Y-92209133D01*
X157465060Y-92189853D01*
X157343005Y-92113160D01*
X157172736Y-92053580D01*
X157172731Y-92053579D01*
X156993486Y-92033384D01*
X156993479Y-92033384D01*
X156953184Y-92037924D01*
X156884362Y-92025869D01*
X156851620Y-92002385D01*
X155830700Y-90981465D01*
X155797215Y-90920142D01*
X155795163Y-90907686D01*
X155785368Y-90820745D01*
X155725789Y-90650478D01*
X155629816Y-90497738D01*
X155629815Y-90497737D01*
X155626111Y-90491842D01*
X155628409Y-90490397D01*
X155606659Y-90437151D01*
X155619401Y-90368453D01*
X155667261Y-90317550D01*
X155730012Y-90300500D01*
X160668996Y-90300500D01*
X160760040Y-90282389D01*
X160804328Y-90273580D01*
X160868069Y-90247177D01*
X160931807Y-90220777D01*
X160931808Y-90220776D01*
X160931811Y-90220775D01*
X161046543Y-90144114D01*
X161453838Y-89736819D01*
X161515161Y-89703334D01*
X161541519Y-89700500D01*
X162450890Y-89700500D01*
X162517929Y-89720185D01*
X162563684Y-89772989D01*
X162573628Y-89842147D01*
X162544603Y-89905703D01*
X162522013Y-89926075D01*
X162328597Y-90061505D01*
X162161505Y-90228597D01*
X162025965Y-90422169D01*
X162025964Y-90422171D01*
X161926098Y-90636335D01*
X161926094Y-90636344D01*
X161864938Y-90864586D01*
X161864936Y-90864596D01*
X161844341Y-91099999D01*
X161844341Y-91100000D01*
X161864936Y-91335403D01*
X161864938Y-91335413D01*
X161926094Y-91563655D01*
X161926096Y-91563659D01*
X161926097Y-91563663D01*
X161982054Y-91683663D01*
X162025965Y-91777830D01*
X162025967Y-91777834D01*
X162109990Y-91897830D01*
X162161501Y-91971396D01*
X162161506Y-91971402D01*
X162283430Y-92093326D01*
X162316915Y-92154649D01*
X162311931Y-92224341D01*
X162270059Y-92280274D01*
X162239083Y-92297189D01*
X162107669Y-92346203D01*
X162107664Y-92346206D01*
X161992455Y-92432452D01*
X161992452Y-92432455D01*
X161906206Y-92547664D01*
X161906202Y-92547671D01*
X161855908Y-92682517D01*
X161851717Y-92721505D01*
X161849501Y-92742123D01*
X161849500Y-92742135D01*
X161849500Y-94537870D01*
X161849501Y-94537876D01*
X161855908Y-94597483D01*
X161906202Y-94732328D01*
X161906206Y-94732335D01*
X161992452Y-94847544D01*
X161992455Y-94847547D01*
X162107664Y-94933793D01*
X162107671Y-94933797D01*
X162242517Y-94984091D01*
X162242516Y-94984091D01*
X162249444Y-94984835D01*
X162302127Y-94990500D01*
X164097872Y-94990499D01*
X164157483Y-94984091D01*
X164292331Y-94933796D01*
X164407546Y-94847546D01*
X164493796Y-94732331D01*
X164544091Y-94597483D01*
X164550500Y-94537873D01*
X164550499Y-92742128D01*
X164544091Y-92682517D01*
X164539422Y-92670000D01*
X164493797Y-92547671D01*
X164493793Y-92547664D01*
X164407547Y-92432455D01*
X164407544Y-92432452D01*
X164292335Y-92346206D01*
X164292328Y-92346202D01*
X164160917Y-92297189D01*
X164104983Y-92255318D01*
X164080566Y-92189853D01*
X164095418Y-92121580D01*
X164116563Y-92093332D01*
X164238495Y-91971401D01*
X164374035Y-91777830D01*
X164473903Y-91563663D01*
X164535063Y-91335408D01*
X164555659Y-91100000D01*
X164535063Y-90864592D01*
X164477692Y-90650478D01*
X164473905Y-90636344D01*
X164473904Y-90636343D01*
X164473903Y-90636337D01*
X164374035Y-90422171D01*
X164345324Y-90381166D01*
X164238494Y-90228597D01*
X164071402Y-90061506D01*
X164071396Y-90061501D01*
X163877987Y-89926075D01*
X163834362Y-89871498D01*
X163827168Y-89802000D01*
X163858691Y-89739645D01*
X163918921Y-89704231D01*
X163949110Y-89700500D01*
X171325501Y-89700500D01*
X171392540Y-89720185D01*
X171438295Y-89772989D01*
X171449501Y-89824500D01*
X171449501Y-89897876D01*
X171455908Y-89957483D01*
X171506202Y-90092328D01*
X171506206Y-90092335D01*
X171592452Y-90207544D01*
X171592455Y-90207547D01*
X171707664Y-90293793D01*
X171707671Y-90293797D01*
X171842517Y-90344091D01*
X171842516Y-90344091D01*
X171849444Y-90344835D01*
X171902127Y-90350500D01*
X173697872Y-90350499D01*
X173757483Y-90344091D01*
X173892331Y-90293796D01*
X174007546Y-90207546D01*
X174093796Y-90092331D01*
X174144091Y-89957483D01*
X174150500Y-89897873D01*
X174150499Y-88102128D01*
X174144091Y-88042517D01*
X174129042Y-88002169D01*
X174093797Y-87907671D01*
X174093793Y-87907664D01*
X174007547Y-87792455D01*
X174007544Y-87792452D01*
X173892335Y-87706206D01*
X173892328Y-87706202D01*
X173760917Y-87657189D01*
X173704983Y-87615318D01*
X173680566Y-87549853D01*
X173695418Y-87481580D01*
X173716563Y-87453332D01*
X173838495Y-87331401D01*
X173974035Y-87137830D01*
X174073903Y-86923663D01*
X174135063Y-86695408D01*
X174155659Y-86460000D01*
X174135063Y-86224592D01*
X174088626Y-86051285D01*
X174073905Y-85996344D01*
X174073904Y-85996343D01*
X174073903Y-85996337D01*
X173974035Y-85782171D01*
X173968462Y-85774211D01*
X173838494Y-85588597D01*
X173671402Y-85421506D01*
X173671401Y-85421505D01*
X173485405Y-85291269D01*
X173441781Y-85236692D01*
X173434588Y-85167193D01*
X173466110Y-85104839D01*
X173485405Y-85088119D01*
X173671082Y-84958105D01*
X173838105Y-84791082D01*
X173973600Y-84597578D01*
X174073429Y-84383492D01*
X174073432Y-84383486D01*
X174130636Y-84170000D01*
X173233012Y-84170000D01*
X173265925Y-84112993D01*
X173300000Y-83985826D01*
X173300000Y-83854174D01*
X173265925Y-83727007D01*
X173233012Y-83670000D01*
X174130636Y-83670000D01*
X174130635Y-83669999D01*
X174073432Y-83456513D01*
X174073429Y-83456507D01*
X173973600Y-83242422D01*
X173973599Y-83242420D01*
X173838113Y-83048926D01*
X173838108Y-83048920D01*
X173671078Y-82881890D01*
X173485405Y-82751879D01*
X173441780Y-82697302D01*
X173434588Y-82627804D01*
X173466110Y-82565449D01*
X173485406Y-82548730D01*
X173540718Y-82510000D01*
X173671401Y-82418495D01*
X173838495Y-82251401D01*
X173974035Y-82057830D01*
X174073903Y-81843663D01*
X174135063Y-81615408D01*
X174155659Y-81380000D01*
X174135063Y-81144592D01*
X174073903Y-80916337D01*
X173974035Y-80702171D01*
X173946489Y-80662830D01*
X173838494Y-80508597D01*
X173671402Y-80341506D01*
X173671395Y-80341501D01*
X173477834Y-80205967D01*
X173477830Y-80205965D01*
X173468268Y-80201506D01*
X173263663Y-80106097D01*
X173263659Y-80106096D01*
X173263655Y-80106094D01*
X173035413Y-80044938D01*
X173035403Y-80044936D01*
X172800001Y-80024341D01*
X172799999Y-80024341D01*
X172564596Y-80044936D01*
X172564586Y-80044938D01*
X172336344Y-80106094D01*
X172336335Y-80106098D01*
X172122171Y-80205964D01*
X172122169Y-80205965D01*
X171928597Y-80341505D01*
X171761505Y-80508597D01*
X171625965Y-80702169D01*
X171625964Y-80702171D01*
X171526098Y-80916335D01*
X171526094Y-80916344D01*
X171464938Y-81144586D01*
X171464936Y-81144596D01*
X171444341Y-81379999D01*
X171444341Y-81380000D01*
X171464936Y-81615403D01*
X171464938Y-81615413D01*
X171526094Y-81843655D01*
X171526096Y-81843659D01*
X171526097Y-81843663D01*
X171595910Y-81993377D01*
X171625965Y-82057830D01*
X171625967Y-82057834D01*
X171761501Y-82251395D01*
X171761506Y-82251402D01*
X171928597Y-82418493D01*
X171928603Y-82418498D01*
X172114594Y-82548730D01*
X172158219Y-82603307D01*
X172165413Y-82672805D01*
X172133890Y-82735160D01*
X172114595Y-82751880D01*
X171928922Y-82881890D01*
X171928920Y-82881891D01*
X171761891Y-83048920D01*
X171761886Y-83048926D01*
X171626400Y-83242420D01*
X171626399Y-83242422D01*
X171526570Y-83456507D01*
X171526567Y-83456513D01*
X171469364Y-83669999D01*
X171469364Y-83670000D01*
X172366988Y-83670000D01*
X172334075Y-83727007D01*
X172300000Y-83854174D01*
X172300000Y-83985826D01*
X172334075Y-84112993D01*
X172366988Y-84170000D01*
X171469364Y-84170000D01*
X171526567Y-84383486D01*
X171526570Y-84383492D01*
X171626399Y-84597578D01*
X171761894Y-84791082D01*
X171928917Y-84958105D01*
X172114595Y-85088119D01*
X172158219Y-85142696D01*
X172165412Y-85212195D01*
X172133890Y-85274549D01*
X172114595Y-85291269D01*
X171928594Y-85421508D01*
X171761506Y-85588596D01*
X171678864Y-85706623D01*
X171624287Y-85750248D01*
X171577289Y-85759500D01*
X151207743Y-85759500D01*
X151140704Y-85739815D01*
X151095361Y-85687904D01*
X151074037Y-85642175D01*
X151074034Y-85642169D01*
X150938494Y-85448597D01*
X150771402Y-85281506D01*
X150771396Y-85281501D01*
X150585842Y-85151575D01*
X150542217Y-85096998D01*
X150535023Y-85027500D01*
X150566546Y-84965145D01*
X150585842Y-84948425D01*
X150608026Y-84932891D01*
X150771401Y-84818495D01*
X150938495Y-84651401D01*
X151074035Y-84457830D01*
X151173903Y-84243663D01*
X151235063Y-84015408D01*
X151255659Y-83780000D01*
X151235063Y-83544592D01*
X151173903Y-83316337D01*
X151074035Y-83102171D01*
X151054458Y-83074211D01*
X150938494Y-82908597D01*
X150771402Y-82741506D01*
X150771396Y-82741501D01*
X150585842Y-82611575D01*
X150542217Y-82556998D01*
X150535023Y-82487500D01*
X150566546Y-82425145D01*
X150585842Y-82408425D01*
X150608026Y-82392891D01*
X150771401Y-82278495D01*
X150938495Y-82111401D01*
X151074035Y-81917830D01*
X151173903Y-81703663D01*
X151235063Y-81475408D01*
X151255659Y-81240000D01*
X151254889Y-81231204D01*
X151246938Y-81140318D01*
X151235063Y-81004592D01*
X151173903Y-80776337D01*
X151082348Y-80579999D01*
X155494357Y-80579999D01*
X155494357Y-80580000D01*
X155514884Y-80801535D01*
X155514885Y-80801537D01*
X155575769Y-81015523D01*
X155575775Y-81015538D01*
X155674938Y-81214683D01*
X155674943Y-81214691D01*
X155809020Y-81392238D01*
X155973437Y-81542123D01*
X155973439Y-81542125D01*
X156162595Y-81659245D01*
X156162596Y-81659245D01*
X156162599Y-81659247D01*
X156370060Y-81739618D01*
X156588757Y-81780500D01*
X156588759Y-81780500D01*
X156811241Y-81780500D01*
X156811243Y-81780500D01*
X157029940Y-81739618D01*
X157237401Y-81659247D01*
X157426562Y-81542124D01*
X157590981Y-81392236D01*
X157725058Y-81214689D01*
X157824229Y-81015528D01*
X157885115Y-80801536D01*
X157905643Y-80580000D01*
X157896990Y-80486623D01*
X157885115Y-80358464D01*
X157885114Y-80358462D01*
X157880289Y-80341505D01*
X157824229Y-80144472D01*
X157805121Y-80106098D01*
X157725061Y-79945316D01*
X157725056Y-79945308D01*
X157590979Y-79767761D01*
X157426562Y-79617876D01*
X157426560Y-79617874D01*
X157237404Y-79500754D01*
X157237398Y-79500752D01*
X157029940Y-79420382D01*
X156811243Y-79379500D01*
X156588757Y-79379500D01*
X156370060Y-79420382D01*
X156238864Y-79471207D01*
X156162601Y-79500752D01*
X156162595Y-79500754D01*
X155973439Y-79617874D01*
X155973437Y-79617876D01*
X155809020Y-79767761D01*
X155674943Y-79945308D01*
X155674938Y-79945316D01*
X155575775Y-80144461D01*
X155575769Y-80144476D01*
X155514885Y-80358462D01*
X155514884Y-80358464D01*
X155494357Y-80579999D01*
X151082348Y-80579999D01*
X151074035Y-80562171D01*
X151051683Y-80530248D01*
X150938494Y-80368597D01*
X150771402Y-80201506D01*
X150771396Y-80201501D01*
X150585842Y-80071575D01*
X150542217Y-80016998D01*
X150535023Y-79947500D01*
X150566546Y-79885145D01*
X150585842Y-79868425D01*
X150608026Y-79852891D01*
X150771401Y-79738495D01*
X150938495Y-79571401D01*
X151074035Y-79377830D01*
X151173903Y-79163663D01*
X151235063Y-78935408D01*
X151255659Y-78700000D01*
X151252859Y-78668002D01*
X151236717Y-78483495D01*
X151235063Y-78464592D01*
X151173903Y-78236337D01*
X151074035Y-78022171D01*
X151051683Y-77990248D01*
X150938494Y-77828597D01*
X150771402Y-77661506D01*
X150771396Y-77661501D01*
X150585842Y-77531575D01*
X150542217Y-77476998D01*
X150535023Y-77407500D01*
X150566546Y-77345145D01*
X150585842Y-77328425D01*
X150608026Y-77312891D01*
X150771401Y-77198495D01*
X150938495Y-77031401D01*
X151074035Y-76837830D01*
X151173903Y-76623663D01*
X151235063Y-76395408D01*
X151255659Y-76160000D01*
X151252859Y-76128002D01*
X151236717Y-75943495D01*
X151235063Y-75924592D01*
X151173903Y-75696337D01*
X151074035Y-75482171D01*
X151051683Y-75450248D01*
X150938494Y-75288597D01*
X150771402Y-75121506D01*
X150771396Y-75121501D01*
X150585842Y-74991575D01*
X150542217Y-74936998D01*
X150535023Y-74867500D01*
X150566546Y-74805145D01*
X150585842Y-74788425D01*
X150608026Y-74772891D01*
X150771401Y-74658495D01*
X150938495Y-74491401D01*
X151074035Y-74297830D01*
X151173903Y-74083663D01*
X151235063Y-73855408D01*
X151255659Y-73620000D01*
X151252859Y-73588002D01*
X151236717Y-73403495D01*
X151235063Y-73384592D01*
X151173903Y-73156337D01*
X151074035Y-72942171D01*
X151051683Y-72910248D01*
X150938494Y-72748597D01*
X150771402Y-72581506D01*
X150771396Y-72581501D01*
X150585842Y-72451575D01*
X150542217Y-72396998D01*
X150535023Y-72327500D01*
X150566546Y-72265145D01*
X150585842Y-72248425D01*
X150616066Y-72227262D01*
X150771401Y-72118495D01*
X150938495Y-71951401D01*
X151074035Y-71757830D01*
X151173903Y-71543663D01*
X151235063Y-71315408D01*
X151255659Y-71080000D01*
X151252859Y-71048002D01*
X151236717Y-70863495D01*
X151235063Y-70844592D01*
X151188626Y-70671285D01*
X151173905Y-70616344D01*
X151173904Y-70616343D01*
X151173903Y-70616337D01*
X151074035Y-70402171D01*
X151067035Y-70392173D01*
X150938494Y-70208597D01*
X150771402Y-70041506D01*
X150771401Y-70041505D01*
X150585405Y-69911269D01*
X150541781Y-69856692D01*
X150534588Y-69787193D01*
X150566110Y-69724839D01*
X150585405Y-69708119D01*
X150771082Y-69578105D01*
X150938105Y-69411082D01*
X151073600Y-69217578D01*
X151173429Y-69003492D01*
X151173432Y-69003486D01*
X151230636Y-68790000D01*
X150333012Y-68790000D01*
X150365925Y-68732993D01*
X150400000Y-68605826D01*
X150400000Y-68474174D01*
X150365925Y-68347007D01*
X150333012Y-68290000D01*
X151230636Y-68290000D01*
X151230635Y-68289999D01*
X151173432Y-68076513D01*
X151173429Y-68076507D01*
X151073600Y-67862422D01*
X151073599Y-67862420D01*
X150938113Y-67668926D01*
X150938108Y-67668920D01*
X150771082Y-67501894D01*
X150584968Y-67371575D01*
X150541344Y-67316998D01*
X150534151Y-67247499D01*
X150565673Y-67185145D01*
X150584968Y-67168425D01*
X150771082Y-67038105D01*
X150938105Y-66871082D01*
X151073600Y-66677578D01*
X151173429Y-66463492D01*
X151173432Y-66463486D01*
X151195803Y-66379999D01*
X153544341Y-66379999D01*
X153544341Y-66380000D01*
X153564936Y-66615403D01*
X153564938Y-66615413D01*
X153626094Y-66843655D01*
X153626096Y-66843659D01*
X153626097Y-66843663D01*
X153698998Y-66999999D01*
X153725965Y-67057830D01*
X153725967Y-67057834D01*
X153807281Y-67173961D01*
X153841620Y-67223003D01*
X153861501Y-67251395D01*
X153861506Y-67251402D01*
X154028597Y-67418493D01*
X154028603Y-67418498D01*
X154214158Y-67548425D01*
X154257783Y-67603002D01*
X154264977Y-67672500D01*
X154233454Y-67734855D01*
X154214158Y-67751575D01*
X154028597Y-67881505D01*
X153861505Y-68048597D01*
X153725965Y-68242169D01*
X153725964Y-68242171D01*
X153626098Y-68456335D01*
X153626094Y-68456344D01*
X153564938Y-68684586D01*
X153564936Y-68684596D01*
X153544341Y-68919999D01*
X153544341Y-68920000D01*
X153564936Y-69155403D01*
X153564938Y-69155413D01*
X153626094Y-69383655D01*
X153626096Y-69383659D01*
X153626097Y-69383663D01*
X153716767Y-69578105D01*
X153725965Y-69597830D01*
X153725967Y-69597834D01*
X153834281Y-69752521D01*
X153858773Y-69787500D01*
X153861501Y-69791395D01*
X153861506Y-69791402D01*
X154028597Y-69958493D01*
X154028603Y-69958498D01*
X154214158Y-70088425D01*
X154257783Y-70143002D01*
X154264977Y-70212500D01*
X154233454Y-70274855D01*
X154214158Y-70291575D01*
X154028597Y-70421505D01*
X153861505Y-70588597D01*
X153725965Y-70782169D01*
X153725964Y-70782171D01*
X153626098Y-70996335D01*
X153626094Y-70996344D01*
X153564938Y-71224586D01*
X153564936Y-71224596D01*
X153544341Y-71459999D01*
X153544341Y-71460000D01*
X153564936Y-71695403D01*
X153564938Y-71695413D01*
X153626094Y-71923655D01*
X153626096Y-71923659D01*
X153626097Y-71923663D01*
X153716948Y-72118493D01*
X153725965Y-72137830D01*
X153725967Y-72137834D01*
X153815112Y-72265145D01*
X153861501Y-72331396D01*
X153861506Y-72331402D01*
X153983430Y-72453326D01*
X154016915Y-72514649D01*
X154011931Y-72584341D01*
X153970059Y-72640274D01*
X153939083Y-72657189D01*
X153807669Y-72706203D01*
X153807664Y-72706206D01*
X153692455Y-72792452D01*
X153692452Y-72792455D01*
X153606206Y-72907664D01*
X153606202Y-72907671D01*
X153555908Y-73042517D01*
X153549501Y-73102116D01*
X153549501Y-73102123D01*
X153549500Y-73102135D01*
X153549500Y-74897870D01*
X153549501Y-74897876D01*
X153555908Y-74957483D01*
X153606202Y-75092328D01*
X153606206Y-75092335D01*
X153692452Y-75207544D01*
X153692455Y-75207547D01*
X153807664Y-75293793D01*
X153807671Y-75293797D01*
X153942517Y-75344091D01*
X153942516Y-75344091D01*
X153949444Y-75344835D01*
X154002127Y-75350500D01*
X155797872Y-75350499D01*
X155857483Y-75344091D01*
X155992331Y-75293796D01*
X156107546Y-75207546D01*
X156193796Y-75092331D01*
X156244091Y-74957483D01*
X156250500Y-74897873D01*
X156250499Y-73102128D01*
X156244091Y-73042517D01*
X156206664Y-72942171D01*
X156193797Y-72907671D01*
X156193793Y-72907664D01*
X156107547Y-72792455D01*
X156107544Y-72792452D01*
X155992335Y-72706206D01*
X155992328Y-72706202D01*
X155860917Y-72657189D01*
X155804983Y-72615318D01*
X155780566Y-72549853D01*
X155795418Y-72481580D01*
X155816563Y-72453332D01*
X155938495Y-72331401D01*
X156074035Y-72137830D01*
X156173903Y-71923663D01*
X156235063Y-71695408D01*
X156255659Y-71460000D01*
X156235063Y-71224592D01*
X156173903Y-70996337D01*
X156074035Y-70782171D01*
X156013980Y-70696402D01*
X155938494Y-70588597D01*
X155771402Y-70421506D01*
X155771396Y-70421501D01*
X155585842Y-70291575D01*
X155542217Y-70236998D01*
X155535023Y-70167500D01*
X155566546Y-70105145D01*
X155585842Y-70088425D01*
X155652849Y-70041506D01*
X155771401Y-69958495D01*
X155938495Y-69791401D01*
X156074035Y-69597830D01*
X156173903Y-69383663D01*
X156235063Y-69155408D01*
X156255659Y-68920000D01*
X156235063Y-68684592D01*
X156177603Y-68470145D01*
X156173905Y-68456344D01*
X156173904Y-68456343D01*
X156173903Y-68456337D01*
X156074035Y-68242171D01*
X156056132Y-68216602D01*
X155938494Y-68048597D01*
X155771402Y-67881506D01*
X155771396Y-67881501D01*
X155585842Y-67751575D01*
X155542217Y-67696998D01*
X155535023Y-67627500D01*
X155566546Y-67565145D01*
X155585842Y-67548425D01*
X155652301Y-67501890D01*
X155771401Y-67418495D01*
X155938495Y-67251401D01*
X156074035Y-67057830D01*
X156173903Y-66843663D01*
X156235063Y-66615408D01*
X156255659Y-66380000D01*
X156255659Y-66379999D01*
X164044341Y-66379999D01*
X164044341Y-66380000D01*
X164064936Y-66615403D01*
X164064938Y-66615413D01*
X164126094Y-66843655D01*
X164126096Y-66843659D01*
X164126097Y-66843663D01*
X164198998Y-66999999D01*
X164225965Y-67057830D01*
X164225967Y-67057834D01*
X164307281Y-67173961D01*
X164341620Y-67223003D01*
X164361501Y-67251395D01*
X164361506Y-67251402D01*
X164528597Y-67418493D01*
X164528603Y-67418498D01*
X164714158Y-67548425D01*
X164757783Y-67603002D01*
X164764977Y-67672500D01*
X164733454Y-67734855D01*
X164714158Y-67751575D01*
X164528597Y-67881505D01*
X164361505Y-68048597D01*
X164225965Y-68242169D01*
X164225964Y-68242171D01*
X164126098Y-68456335D01*
X164126094Y-68456344D01*
X164064938Y-68684586D01*
X164064936Y-68684596D01*
X164044341Y-68919999D01*
X164044341Y-68920000D01*
X164064936Y-69155403D01*
X164064938Y-69155413D01*
X164126094Y-69383655D01*
X164126096Y-69383659D01*
X164126097Y-69383663D01*
X164216767Y-69578105D01*
X164225965Y-69597830D01*
X164225967Y-69597834D01*
X164334281Y-69752521D01*
X164358773Y-69787500D01*
X164361501Y-69791395D01*
X164361506Y-69791402D01*
X164528597Y-69958493D01*
X164528603Y-69958498D01*
X164714158Y-70088425D01*
X164757783Y-70143002D01*
X164764977Y-70212500D01*
X164733454Y-70274855D01*
X164714158Y-70291575D01*
X164528597Y-70421505D01*
X164361505Y-70588597D01*
X164225965Y-70782169D01*
X164225964Y-70782171D01*
X164126098Y-70996335D01*
X164126094Y-70996344D01*
X164064938Y-71224586D01*
X164064936Y-71224596D01*
X164044341Y-71459999D01*
X164044341Y-71460000D01*
X164064936Y-71695403D01*
X164064938Y-71695413D01*
X164126094Y-71923655D01*
X164126096Y-71923659D01*
X164126097Y-71923663D01*
X164216948Y-72118493D01*
X164225965Y-72137830D01*
X164225967Y-72137834D01*
X164315112Y-72265145D01*
X164361501Y-72331396D01*
X164361506Y-72331402D01*
X164483430Y-72453326D01*
X164516915Y-72514649D01*
X164511931Y-72584341D01*
X164470059Y-72640274D01*
X164439083Y-72657189D01*
X164307669Y-72706203D01*
X164307664Y-72706206D01*
X164192455Y-72792452D01*
X164192452Y-72792455D01*
X164106206Y-72907664D01*
X164106202Y-72907671D01*
X164055908Y-73042517D01*
X164049501Y-73102116D01*
X164049501Y-73102123D01*
X164049500Y-73102135D01*
X164049500Y-74897870D01*
X164049501Y-74897876D01*
X164055908Y-74957483D01*
X164106202Y-75092328D01*
X164106206Y-75092335D01*
X164192452Y-75207544D01*
X164192455Y-75207547D01*
X164307664Y-75293793D01*
X164307671Y-75293797D01*
X164442517Y-75344091D01*
X164442516Y-75344091D01*
X164449444Y-75344835D01*
X164502127Y-75350500D01*
X166297872Y-75350499D01*
X166357483Y-75344091D01*
X166492331Y-75293796D01*
X166607546Y-75207546D01*
X166693796Y-75092331D01*
X166744091Y-74957483D01*
X166750500Y-74897873D01*
X166750499Y-73102128D01*
X166744091Y-73042517D01*
X166706664Y-72942171D01*
X166693797Y-72907671D01*
X166693793Y-72907664D01*
X166607547Y-72792455D01*
X166607544Y-72792452D01*
X166492335Y-72706206D01*
X166492328Y-72706202D01*
X166360917Y-72657189D01*
X166304983Y-72615318D01*
X166280566Y-72549853D01*
X166295418Y-72481580D01*
X166316563Y-72453332D01*
X166438495Y-72331401D01*
X166574035Y-72137830D01*
X166673903Y-71923663D01*
X166735063Y-71695408D01*
X166755659Y-71460000D01*
X166735063Y-71224592D01*
X166673903Y-70996337D01*
X166574035Y-70782171D01*
X166513980Y-70696402D01*
X166438494Y-70588597D01*
X166271402Y-70421506D01*
X166271396Y-70421501D01*
X166085842Y-70291575D01*
X166042217Y-70236998D01*
X166035023Y-70167500D01*
X166066546Y-70105145D01*
X166085842Y-70088425D01*
X166152849Y-70041506D01*
X166271401Y-69958495D01*
X166438495Y-69791401D01*
X166574035Y-69597830D01*
X166673903Y-69383663D01*
X166735063Y-69155408D01*
X166755659Y-68920000D01*
X166735063Y-68684592D01*
X166677603Y-68470145D01*
X166673905Y-68456344D01*
X166673904Y-68456343D01*
X166673903Y-68456337D01*
X166574035Y-68242171D01*
X166556132Y-68216602D01*
X166438494Y-68048597D01*
X166271402Y-67881506D01*
X166271396Y-67881501D01*
X166085842Y-67751575D01*
X166042217Y-67696998D01*
X166035023Y-67627500D01*
X166066546Y-67565145D01*
X166085842Y-67548425D01*
X166152301Y-67501890D01*
X166271401Y-67418495D01*
X166438495Y-67251401D01*
X166574035Y-67057830D01*
X166601002Y-67000000D01*
X168295065Y-67000000D01*
X168314786Y-67326038D01*
X168373667Y-67647341D01*
X168470835Y-67959164D01*
X168470839Y-67959175D01*
X168604897Y-68257041D01*
X168604898Y-68257043D01*
X168773881Y-68536576D01*
X168921476Y-68724968D01*
X170063708Y-67582736D01*
X170160967Y-67716602D01*
X170283398Y-67839033D01*
X170417262Y-67936290D01*
X169275030Y-69078522D01*
X169275030Y-69078523D01*
X169463423Y-69226118D01*
X169742956Y-69395101D01*
X169742958Y-69395102D01*
X170040824Y-69529160D01*
X170040835Y-69529164D01*
X170352658Y-69626332D01*
X170673961Y-69685213D01*
X171000000Y-69704934D01*
X171326038Y-69685213D01*
X171647341Y-69626332D01*
X171959164Y-69529164D01*
X171959175Y-69529160D01*
X172257041Y-69395102D01*
X172257043Y-69395101D01*
X172536586Y-69226112D01*
X172724968Y-69078523D01*
X172724968Y-69078522D01*
X171582737Y-67936290D01*
X171716602Y-67839033D01*
X171839033Y-67716602D01*
X171936290Y-67582737D01*
X173078522Y-68724968D01*
X173078523Y-68724968D01*
X173226112Y-68536586D01*
X173395101Y-68257043D01*
X173395102Y-68257041D01*
X173529160Y-67959175D01*
X173529164Y-67959164D01*
X173626332Y-67647341D01*
X173685213Y-67326038D01*
X173704934Y-67000000D01*
X173685213Y-66673961D01*
X173626332Y-66352658D01*
X173529164Y-66040835D01*
X173529160Y-66040824D01*
X173395102Y-65742958D01*
X173395101Y-65742956D01*
X173226118Y-65463423D01*
X173078522Y-65275030D01*
X171936290Y-66417262D01*
X171839033Y-66283398D01*
X171716602Y-66160967D01*
X171582736Y-66063709D01*
X172724968Y-64921476D01*
X172536576Y-64773881D01*
X172257043Y-64604898D01*
X172257041Y-64604897D01*
X171959175Y-64470839D01*
X171959164Y-64470835D01*
X171647341Y-64373667D01*
X171326038Y-64314786D01*
X171000000Y-64295065D01*
X170673961Y-64314786D01*
X170352658Y-64373667D01*
X170040835Y-64470835D01*
X170040824Y-64470839D01*
X169742958Y-64604897D01*
X169742956Y-64604898D01*
X169463422Y-64773881D01*
X169463416Y-64773886D01*
X169275030Y-64921474D01*
X169275029Y-64921476D01*
X170417262Y-66063709D01*
X170283398Y-66160967D01*
X170160967Y-66283398D01*
X170063709Y-66417262D01*
X168921476Y-65275029D01*
X168921474Y-65275030D01*
X168773886Y-65463416D01*
X168773881Y-65463422D01*
X168604898Y-65742956D01*
X168604897Y-65742958D01*
X168470839Y-66040824D01*
X168470835Y-66040835D01*
X168373667Y-66352658D01*
X168314786Y-66673961D01*
X168295065Y-67000000D01*
X166601002Y-67000000D01*
X166673903Y-66843663D01*
X166735063Y-66615408D01*
X166755659Y-66380000D01*
X166735063Y-66144592D01*
X166673903Y-65916337D01*
X166574035Y-65702171D01*
X166513980Y-65616402D01*
X166438494Y-65508597D01*
X166271402Y-65341506D01*
X166271395Y-65341501D01*
X166077834Y-65205967D01*
X166077830Y-65205965D01*
X166050425Y-65193186D01*
X165863663Y-65106097D01*
X165863659Y-65106096D01*
X165863655Y-65106094D01*
X165635413Y-65044938D01*
X165635403Y-65044936D01*
X165400001Y-65024341D01*
X165399999Y-65024341D01*
X165164596Y-65044936D01*
X165164586Y-65044938D01*
X164936344Y-65106094D01*
X164936335Y-65106098D01*
X164722171Y-65205964D01*
X164722169Y-65205965D01*
X164528597Y-65341505D01*
X164361505Y-65508597D01*
X164225965Y-65702169D01*
X164225964Y-65702171D01*
X164126098Y-65916335D01*
X164126094Y-65916344D01*
X164064938Y-66144586D01*
X164064936Y-66144596D01*
X164044341Y-66379999D01*
X156255659Y-66379999D01*
X156235063Y-66144592D01*
X156173903Y-65916337D01*
X156074035Y-65702171D01*
X156013980Y-65616402D01*
X155938494Y-65508597D01*
X155771402Y-65341506D01*
X155771395Y-65341501D01*
X155577834Y-65205967D01*
X155577830Y-65205965D01*
X155550425Y-65193186D01*
X155363663Y-65106097D01*
X155363659Y-65106096D01*
X155363655Y-65106094D01*
X155135413Y-65044938D01*
X155135403Y-65044936D01*
X154900001Y-65024341D01*
X154899999Y-65024341D01*
X154664596Y-65044936D01*
X154664586Y-65044938D01*
X154436344Y-65106094D01*
X154436335Y-65106098D01*
X154222171Y-65205964D01*
X154222169Y-65205965D01*
X154028597Y-65341505D01*
X153861505Y-65508597D01*
X153725965Y-65702169D01*
X153725964Y-65702171D01*
X153626098Y-65916335D01*
X153626094Y-65916344D01*
X153564938Y-66144586D01*
X153564936Y-66144596D01*
X153544341Y-66379999D01*
X151195803Y-66379999D01*
X151230636Y-66250000D01*
X150333012Y-66250000D01*
X150365925Y-66192993D01*
X150400000Y-66065826D01*
X150400000Y-65934174D01*
X150365925Y-65807007D01*
X150333012Y-65750000D01*
X151230636Y-65750000D01*
X151230635Y-65749999D01*
X151173432Y-65536513D01*
X151173429Y-65536507D01*
X151073600Y-65322422D01*
X151073599Y-65322420D01*
X150938113Y-65128926D01*
X150938108Y-65128920D01*
X150771082Y-64961894D01*
X150577578Y-64826399D01*
X150363492Y-64726570D01*
X150363486Y-64726567D01*
X150150000Y-64669364D01*
X150150000Y-65566988D01*
X150092993Y-65534075D01*
X149965826Y-65500000D01*
X149834174Y-65500000D01*
X149707007Y-65534075D01*
X149650000Y-65566988D01*
X149650000Y-64669364D01*
X149649999Y-64669364D01*
X149436513Y-64726567D01*
X149436507Y-64726570D01*
X149222422Y-64826399D01*
X149222420Y-64826400D01*
X149028926Y-64961886D01*
X149028920Y-64961891D01*
X148861891Y-65128920D01*
X148861886Y-65128926D01*
X148726400Y-65322420D01*
X148726399Y-65322422D01*
X148626570Y-65536507D01*
X148626567Y-65536513D01*
X148569364Y-65749999D01*
X148569364Y-65750000D01*
X149466988Y-65750000D01*
X149434075Y-65807007D01*
X149400000Y-65934174D01*
X149400000Y-66065826D01*
X149434075Y-66192993D01*
X149466988Y-66250000D01*
X148569364Y-66250000D01*
X148626567Y-66463486D01*
X148626570Y-66463492D01*
X148726399Y-66677578D01*
X148861894Y-66871082D01*
X149028917Y-67038105D01*
X149215031Y-67168425D01*
X149258656Y-67223003D01*
X149265848Y-67292501D01*
X149234326Y-67354856D01*
X149215031Y-67371575D01*
X149028922Y-67501890D01*
X149028920Y-67501891D01*
X148861891Y-67668920D01*
X148861886Y-67668926D01*
X148726400Y-67862420D01*
X148726399Y-67862422D01*
X148626570Y-68076507D01*
X148626567Y-68076513D01*
X148569364Y-68289999D01*
X148569364Y-68290000D01*
X149466988Y-68290000D01*
X149434075Y-68347007D01*
X149400000Y-68474174D01*
X149400000Y-68605826D01*
X149434075Y-68732993D01*
X149466988Y-68790000D01*
X148569364Y-68790000D01*
X148626567Y-69003486D01*
X148626570Y-69003492D01*
X148726399Y-69217578D01*
X148861894Y-69411082D01*
X149028917Y-69578105D01*
X149214595Y-69708119D01*
X149258219Y-69762696D01*
X149265412Y-69832195D01*
X149233890Y-69894549D01*
X149214595Y-69911269D01*
X149028594Y-70041508D01*
X148861506Y-70208596D01*
X148790376Y-70310181D01*
X148781334Y-70323096D01*
X148778864Y-70326623D01*
X148724287Y-70370248D01*
X148677289Y-70379500D01*
X147422711Y-70379500D01*
X147355672Y-70359815D01*
X147321136Y-70326623D01*
X147318666Y-70323096D01*
X147238495Y-70208599D01*
X147238494Y-70208597D01*
X147071402Y-70041506D01*
X147071401Y-70041505D01*
X146885405Y-69911269D01*
X146841781Y-69856692D01*
X146834588Y-69787193D01*
X146866110Y-69724839D01*
X146885405Y-69708119D01*
X147071082Y-69578105D01*
X147238105Y-69411082D01*
X147373600Y-69217578D01*
X147473429Y-69003492D01*
X147473432Y-69003486D01*
X147530636Y-68790000D01*
X146633012Y-68790000D01*
X146665925Y-68732993D01*
X146700000Y-68605826D01*
X146700000Y-68474174D01*
X146665925Y-68347007D01*
X146633012Y-68290000D01*
X147530636Y-68290000D01*
X147530635Y-68289999D01*
X147473432Y-68076513D01*
X147473429Y-68076507D01*
X147373600Y-67862422D01*
X147373599Y-67862420D01*
X147238113Y-67668926D01*
X147238108Y-67668920D01*
X147115665Y-67546477D01*
X147082180Y-67485154D01*
X147087164Y-67415462D01*
X147129036Y-67359529D01*
X147160013Y-67342614D01*
X147292086Y-67293354D01*
X147292093Y-67293350D01*
X147407187Y-67207190D01*
X147407190Y-67207187D01*
X147493350Y-67092093D01*
X147493354Y-67092086D01*
X147543596Y-66957379D01*
X147543598Y-66957372D01*
X147549999Y-66897844D01*
X147550000Y-66897827D01*
X147550000Y-66250000D01*
X146633012Y-66250000D01*
X146665925Y-66192993D01*
X146700000Y-66065826D01*
X146700000Y-65934174D01*
X146665925Y-65807007D01*
X146633012Y-65750000D01*
X147550000Y-65750000D01*
X147550000Y-65102172D01*
X147549999Y-65102155D01*
X147543598Y-65042627D01*
X147543596Y-65042620D01*
X147493354Y-64907913D01*
X147493350Y-64907906D01*
X147407190Y-64792812D01*
X147407187Y-64792809D01*
X147292093Y-64706649D01*
X147292086Y-64706645D01*
X147157379Y-64656403D01*
X147157372Y-64656401D01*
X147097844Y-64650000D01*
X146450000Y-64650000D01*
X146450000Y-65566988D01*
X146392993Y-65534075D01*
X146265826Y-65500000D01*
X146134174Y-65500000D01*
X146007007Y-65534075D01*
X145950000Y-65566988D01*
X145950000Y-64650000D01*
X145302155Y-64650000D01*
X145242627Y-64656401D01*
X145242620Y-64656403D01*
X145107913Y-64706645D01*
X145107906Y-64706649D01*
X144992812Y-64792809D01*
X144992809Y-64792812D01*
X144906649Y-64907906D01*
X144906645Y-64907913D01*
X144856403Y-65042620D01*
X144856401Y-65042627D01*
X144850000Y-65102155D01*
X144850000Y-65750000D01*
X145766988Y-65750000D01*
X145734075Y-65807007D01*
X145700000Y-65934174D01*
X145700000Y-66065826D01*
X145734075Y-66192993D01*
X145766988Y-66250000D01*
X144850000Y-66250000D01*
X144850000Y-66897844D01*
X144856401Y-66957372D01*
X144856403Y-66957379D01*
X144906645Y-67092086D01*
X144906649Y-67092093D01*
X144992809Y-67207187D01*
X144992812Y-67207190D01*
X145107906Y-67293350D01*
X145107913Y-67293354D01*
X145239986Y-67342614D01*
X145295920Y-67384485D01*
X145320337Y-67449949D01*
X145305486Y-67518222D01*
X145284335Y-67546477D01*
X145161886Y-67668926D01*
X145026400Y-67862420D01*
X145026399Y-67862422D01*
X144926570Y-68076507D01*
X144926567Y-68076513D01*
X144869364Y-68289999D01*
X144869364Y-68290000D01*
X145766988Y-68290000D01*
X145734075Y-68347007D01*
X145700000Y-68474174D01*
X145700000Y-68605826D01*
X145734075Y-68732993D01*
X145766988Y-68790000D01*
X144869364Y-68790000D01*
X144926567Y-69003486D01*
X144926570Y-69003492D01*
X145026399Y-69217578D01*
X145161894Y-69411082D01*
X145328917Y-69578105D01*
X145514595Y-69708119D01*
X145558219Y-69762696D01*
X145565412Y-69832195D01*
X145533890Y-69894549D01*
X145514595Y-69911269D01*
X145328594Y-70041508D01*
X145161505Y-70208597D01*
X145025965Y-70402169D01*
X145025964Y-70402171D01*
X144926098Y-70616335D01*
X144926094Y-70616344D01*
X144864938Y-70844586D01*
X144864936Y-70844596D01*
X144844997Y-71072500D01*
X144844341Y-71080000D01*
X132355659Y-71080000D01*
X132352859Y-71048002D01*
X132336717Y-70863495D01*
X132335063Y-70844592D01*
X132288626Y-70671285D01*
X132273905Y-70616344D01*
X132273904Y-70616343D01*
X132273903Y-70616337D01*
X132174035Y-70402171D01*
X132167035Y-70392173D01*
X132038494Y-70208597D01*
X131871402Y-70041506D01*
X131871396Y-70041501D01*
X131685842Y-69911575D01*
X131642217Y-69856998D01*
X131635023Y-69787500D01*
X131666546Y-69725145D01*
X131685842Y-69708425D01*
X131718992Y-69685213D01*
X131871401Y-69578495D01*
X132038495Y-69411401D01*
X132174035Y-69217830D01*
X132273903Y-69003663D01*
X132335063Y-68775408D01*
X132355659Y-68540000D01*
X132355359Y-68536576D01*
X132336717Y-68323495D01*
X132335063Y-68304592D01*
X132273903Y-68076337D01*
X132174035Y-67862171D01*
X132151682Y-67830248D01*
X132038496Y-67668600D01*
X131997396Y-67627500D01*
X131916567Y-67546671D01*
X131883084Y-67485351D01*
X131888068Y-67415659D01*
X131929939Y-67359725D01*
X131960915Y-67342810D01*
X132092331Y-67293796D01*
X132207546Y-67207546D01*
X132293796Y-67092331D01*
X132344091Y-66957483D01*
X132350500Y-66897873D01*
X132350499Y-65102128D01*
X132344091Y-65042517D01*
X132328233Y-65000000D01*
X132293797Y-64907671D01*
X132293793Y-64907664D01*
X132207547Y-64792455D01*
X132207544Y-64792452D01*
X132092335Y-64706206D01*
X132092328Y-64706202D01*
X131957482Y-64655908D01*
X131957483Y-64655908D01*
X131897883Y-64649501D01*
X131897881Y-64649500D01*
X131897873Y-64649500D01*
X131897864Y-64649500D01*
X130102129Y-64649500D01*
X130102123Y-64649501D01*
X130042516Y-64655908D01*
X129907671Y-64706202D01*
X129907664Y-64706206D01*
X129792455Y-64792452D01*
X129792452Y-64792455D01*
X129706206Y-64907664D01*
X129706202Y-64907671D01*
X129655908Y-65042517D01*
X129649501Y-65102116D01*
X129649501Y-65102123D01*
X129649500Y-65102135D01*
X129649500Y-65175500D01*
X129629815Y-65242539D01*
X129577011Y-65288294D01*
X129525500Y-65299500D01*
X128774499Y-65299500D01*
X128707460Y-65279815D01*
X128661705Y-65227011D01*
X128650499Y-65175500D01*
X128650499Y-65102129D01*
X128650498Y-65102123D01*
X128650497Y-65102116D01*
X128644091Y-65042517D01*
X128628233Y-65000000D01*
X128593797Y-64907671D01*
X128593793Y-64907664D01*
X128507547Y-64792455D01*
X128507544Y-64792452D01*
X128392335Y-64706206D01*
X128392328Y-64706202D01*
X128257482Y-64655908D01*
X128257483Y-64655908D01*
X128197883Y-64649501D01*
X128197881Y-64649500D01*
X128197873Y-64649500D01*
X128197864Y-64649500D01*
X126402129Y-64649500D01*
X126402123Y-64649501D01*
X126342516Y-64655908D01*
X126207671Y-64706202D01*
X126207664Y-64706206D01*
X126092455Y-64792452D01*
X126092452Y-64792455D01*
X126006206Y-64907664D01*
X126006202Y-64907671D01*
X125955908Y-65042517D01*
X125949501Y-65102116D01*
X125949501Y-65102123D01*
X125949500Y-65102135D01*
X125949500Y-66897870D01*
X125949501Y-66897876D01*
X125955908Y-66957483D01*
X126006202Y-67092328D01*
X126006206Y-67092335D01*
X126092452Y-67207544D01*
X126092455Y-67207547D01*
X126207664Y-67293793D01*
X126207671Y-67293797D01*
X126339081Y-67342810D01*
X126395015Y-67384681D01*
X126419432Y-67450145D01*
X126404580Y-67518418D01*
X126383430Y-67546673D01*
X126261503Y-67668600D01*
X126125965Y-67862169D01*
X126125964Y-67862171D01*
X126026098Y-68076335D01*
X126026094Y-68076344D01*
X125964938Y-68304586D01*
X125964936Y-68304596D01*
X125944341Y-68539999D01*
X125944341Y-68540000D01*
X125964936Y-68775403D01*
X125964938Y-68775413D01*
X126026094Y-69003655D01*
X126026096Y-69003659D01*
X126026097Y-69003663D01*
X126125847Y-69217578D01*
X126125965Y-69217830D01*
X126125967Y-69217834D01*
X126261501Y-69411395D01*
X126261506Y-69411402D01*
X126428597Y-69578493D01*
X126428603Y-69578498D01*
X126614158Y-69708425D01*
X126657783Y-69763002D01*
X126664977Y-69832500D01*
X126633454Y-69894855D01*
X126614158Y-69911575D01*
X126428597Y-70041505D01*
X126261505Y-70208597D01*
X126125965Y-70402169D01*
X126125962Y-70402175D01*
X126113965Y-70427904D01*
X126067793Y-70480344D01*
X126001583Y-70499500D01*
X119161479Y-70499500D01*
X119094440Y-70479815D01*
X119048685Y-70427011D01*
X119038741Y-70357853D01*
X119049097Y-70323096D01*
X119065150Y-70288669D01*
X119065153Y-70288663D01*
X119126313Y-70060408D01*
X119146909Y-69825000D01*
X119143969Y-69791402D01*
X119138102Y-69724341D01*
X119126313Y-69589592D01*
X119074200Y-69395101D01*
X119065155Y-69361344D01*
X119065154Y-69361343D01*
X119065153Y-69361337D01*
X118965285Y-69147171D01*
X118917218Y-69078523D01*
X118829744Y-68953597D01*
X118662652Y-68786506D01*
X118662646Y-68786501D01*
X118477092Y-68656575D01*
X118433467Y-68601998D01*
X118426273Y-68532500D01*
X118457796Y-68470145D01*
X118477092Y-68453425D01*
X118640460Y-68339033D01*
X118662651Y-68323495D01*
X118829745Y-68156401D01*
X118965285Y-67962830D01*
X119065153Y-67748663D01*
X119126313Y-67520408D01*
X119146909Y-67285000D01*
X119143969Y-67251402D01*
X119134787Y-67146446D01*
X119126313Y-67049592D01*
X119073545Y-66852658D01*
X119065155Y-66821344D01*
X119065154Y-66821343D01*
X119065153Y-66821337D01*
X118965285Y-66607171D01*
X118944683Y-66577747D01*
X118829744Y-66413597D01*
X118662652Y-66246506D01*
X118662646Y-66246501D01*
X118477092Y-66116575D01*
X118433467Y-66061998D01*
X118426273Y-65992500D01*
X118457796Y-65930145D01*
X118477092Y-65913425D01*
X118629072Y-65807007D01*
X118662651Y-65783495D01*
X118829745Y-65616401D01*
X118965285Y-65422830D01*
X119065153Y-65208663D01*
X119126313Y-64980408D01*
X119146909Y-64745000D01*
X119126313Y-64509592D01*
X119065153Y-64281337D01*
X118965285Y-64067171D01*
X118829745Y-63873599D01*
X118829744Y-63873597D01*
X118662652Y-63706506D01*
X118662645Y-63706501D01*
X118469084Y-63570967D01*
X118469080Y-63570965D01*
X118399527Y-63538532D01*
X118254913Y-63471097D01*
X118254909Y-63471096D01*
X118254905Y-63471094D01*
X118026663Y-63409938D01*
X118026653Y-63409936D01*
X117791251Y-63389341D01*
X117791249Y-63389341D01*
X117555846Y-63409936D01*
X117555836Y-63409938D01*
X117327594Y-63471094D01*
X117327587Y-63471096D01*
X117327587Y-63471097D01*
X117314066Y-63477401D01*
X117113421Y-63570964D01*
X117113419Y-63570965D01*
X116919847Y-63706505D01*
X116752755Y-63873597D01*
X116617215Y-64067169D01*
X116617214Y-64067171D01*
X116517348Y-64281335D01*
X116517344Y-64281344D01*
X116456188Y-64509586D01*
X116456186Y-64509596D01*
X116435591Y-64744999D01*
X116435591Y-64745000D01*
X116456186Y-64980403D01*
X116456188Y-64980413D01*
X116517344Y-65208655D01*
X116517346Y-65208659D01*
X116517347Y-65208663D01*
X116579293Y-65341506D01*
X116617215Y-65422830D01*
X116617217Y-65422834D01*
X116752751Y-65616395D01*
X116752756Y-65616402D01*
X116919847Y-65783493D01*
X116919853Y-65783498D01*
X117105408Y-65913425D01*
X117149033Y-65968002D01*
X117156227Y-66037500D01*
X117124704Y-66099855D01*
X117105408Y-66116575D01*
X116919847Y-66246505D01*
X116752755Y-66413597D01*
X116617215Y-66607169D01*
X116617214Y-66607171D01*
X116517348Y-66821335D01*
X116517344Y-66821344D01*
X116456188Y-67049586D01*
X116456186Y-67049596D01*
X116435591Y-67284999D01*
X116435591Y-67285000D01*
X116456186Y-67520403D01*
X116456188Y-67520413D01*
X116517344Y-67748655D01*
X116517346Y-67748659D01*
X116517347Y-67748663D01*
X116579293Y-67881506D01*
X116617215Y-67962830D01*
X116617217Y-67962834D01*
X116752751Y-68156395D01*
X116752756Y-68156402D01*
X116919847Y-68323493D01*
X116919853Y-68323498D01*
X117105408Y-68453425D01*
X117149033Y-68508002D01*
X117156227Y-68577500D01*
X117124704Y-68639855D01*
X117105408Y-68656575D01*
X116919847Y-68786505D01*
X116752755Y-68953597D01*
X116617215Y-69147169D01*
X116617214Y-69147171D01*
X116517348Y-69361335D01*
X116517344Y-69361344D01*
X116456188Y-69589586D01*
X116456186Y-69589596D01*
X116435591Y-69824999D01*
X116435591Y-69825000D01*
X116456186Y-70060403D01*
X116456188Y-70060413D01*
X116517344Y-70288655D01*
X116517349Y-70288669D01*
X116533403Y-70323096D01*
X116543895Y-70392173D01*
X116515375Y-70455957D01*
X116456898Y-70494196D01*
X116421021Y-70499500D01*
X115337189Y-70499500D01*
X115324764Y-70502829D01*
X115324765Y-70502830D01*
X115184464Y-70540423D01*
X115184459Y-70540426D01*
X115047540Y-70619475D01*
X115047532Y-70619481D01*
X114970619Y-70696395D01*
X114935730Y-70731284D01*
X114935728Y-70731286D01*
X114822428Y-70844586D01*
X114772715Y-70894299D01*
X114711392Y-70927783D01*
X114698918Y-70929837D01*
X114612000Y-70939630D01*
X114441728Y-70999210D01*
X114288987Y-71095184D01*
X114161434Y-71222737D01*
X114065461Y-71375476D01*
X114005881Y-71545745D01*
X114005880Y-71545750D01*
X113985685Y-71724996D01*
X113985685Y-71725003D01*
X114005880Y-71904249D01*
X114005881Y-71904254D01*
X114065461Y-72074523D01*
X114161434Y-72227262D01*
X114288988Y-72354816D01*
X114305196Y-72365000D01*
X114434050Y-72445965D01*
X114441728Y-72450789D01*
X114529724Y-72481580D01*
X114611995Y-72510368D01*
X114612000Y-72510369D01*
X114791246Y-72530565D01*
X114791250Y-72530565D01*
X114791254Y-72530565D01*
X114970499Y-72510369D01*
X114970502Y-72510368D01*
X114970505Y-72510368D01*
X115140772Y-72450789D01*
X115293512Y-72354816D01*
X115421066Y-72227262D01*
X115517039Y-72074522D01*
X115576618Y-71904255D01*
X115586411Y-71817330D01*
X115613476Y-71752920D01*
X115621956Y-71743528D01*
X115628673Y-71736812D01*
X115689999Y-71703332D01*
X115716348Y-71700500D01*
X116416358Y-71700500D01*
X116483397Y-71720185D01*
X116529152Y-71772989D01*
X116539096Y-71842147D01*
X116528740Y-71876905D01*
X116517348Y-71901335D01*
X116517344Y-71901344D01*
X116456188Y-72129586D01*
X116456186Y-72129596D01*
X116435591Y-72364999D01*
X116435591Y-72365000D01*
X116456186Y-72600403D01*
X116456188Y-72600413D01*
X116517344Y-72828655D01*
X116517346Y-72828659D01*
X116517347Y-72828663D01*
X116554189Y-72907671D01*
X116617215Y-73042830D01*
X116617217Y-73042834D01*
X116752751Y-73236395D01*
X116752756Y-73236402D01*
X116919847Y-73403493D01*
X116919853Y-73403498D01*
X117105408Y-73533425D01*
X117149033Y-73588002D01*
X117156227Y-73657500D01*
X117124704Y-73719855D01*
X117105408Y-73736575D01*
X116919847Y-73866505D01*
X116752755Y-74033597D01*
X116617215Y-74227169D01*
X116617214Y-74227171D01*
X116517348Y-74441335D01*
X116517344Y-74441344D01*
X116456188Y-74669586D01*
X116456186Y-74669596D01*
X116435591Y-74904999D01*
X116435591Y-74905000D01*
X116456186Y-75140403D01*
X116456188Y-75140413D01*
X116517344Y-75368655D01*
X116517346Y-75368659D01*
X116517347Y-75368663D01*
X116550526Y-75439815D01*
X116617215Y-75582830D01*
X116617217Y-75582834D01*
X116752751Y-75776395D01*
X116752756Y-75776402D01*
X116919847Y-75943493D01*
X116919853Y-75943498D01*
X117105408Y-76073425D01*
X117149033Y-76128002D01*
X117156227Y-76197500D01*
X117124704Y-76259855D01*
X117105408Y-76276575D01*
X116919847Y-76406505D01*
X116752755Y-76573597D01*
X116617215Y-76767169D01*
X116617214Y-76767171D01*
X116517348Y-76981335D01*
X116517344Y-76981344D01*
X116456188Y-77209586D01*
X116456186Y-77209596D01*
X116435591Y-77444999D01*
X116435591Y-77445000D01*
X116456186Y-77680403D01*
X116456188Y-77680413D01*
X116517344Y-77908655D01*
X116517346Y-77908659D01*
X116517347Y-77908663D01*
X116550526Y-77979815D01*
X116617215Y-78122830D01*
X116617217Y-78122834D01*
X116752751Y-78316395D01*
X116752756Y-78316402D01*
X116919847Y-78483493D01*
X116919853Y-78483498D01*
X117105408Y-78613425D01*
X117149033Y-78668002D01*
X117156227Y-78737500D01*
X117124704Y-78799855D01*
X117105408Y-78816575D01*
X116919847Y-78946505D01*
X116752755Y-79113597D01*
X116617215Y-79307169D01*
X116617214Y-79307171D01*
X116517348Y-79521335D01*
X116517344Y-79521344D01*
X116456188Y-79749586D01*
X116456186Y-79749596D01*
X116435591Y-79984999D01*
X116435591Y-79985000D01*
X116456186Y-80220403D01*
X116456188Y-80220413D01*
X116517344Y-80448655D01*
X116517346Y-80448659D01*
X116517347Y-80448663D01*
X116545295Y-80508597D01*
X116617215Y-80662830D01*
X116617217Y-80662834D01*
X116696698Y-80776344D01*
X116752751Y-80856396D01*
X116752756Y-80856402D01*
X116874680Y-80978326D01*
X116908165Y-81039649D01*
X116903181Y-81109341D01*
X116861309Y-81165274D01*
X116830333Y-81182189D01*
X116698919Y-81231203D01*
X116698914Y-81231206D01*
X116583705Y-81317452D01*
X116583702Y-81317455D01*
X116497456Y-81432664D01*
X116497452Y-81432671D01*
X116447158Y-81567517D01*
X116442010Y-81615408D01*
X116440751Y-81627123D01*
X116440750Y-81627135D01*
X116440750Y-83422870D01*
X116440751Y-83422876D01*
X116447158Y-83482483D01*
X116497452Y-83617328D01*
X116497456Y-83617335D01*
X116583702Y-83732544D01*
X116583705Y-83732547D01*
X116698914Y-83818793D01*
X116698921Y-83818797D01*
X116833767Y-83869091D01*
X116833766Y-83869091D01*
X116840694Y-83869835D01*
X116893377Y-83875500D01*
X118689122Y-83875499D01*
X118748733Y-83869091D01*
X118883581Y-83818796D01*
X118998796Y-83732546D01*
X119085046Y-83617331D01*
X119135341Y-83482483D01*
X119141750Y-83422873D01*
X119141749Y-81627128D01*
X119135341Y-81567517D01*
X119125870Y-81542125D01*
X119085047Y-81432671D01*
X119085043Y-81432664D01*
X118998797Y-81317455D01*
X118998794Y-81317452D01*
X118883585Y-81231206D01*
X118883578Y-81231202D01*
X118752167Y-81182189D01*
X118696233Y-81140318D01*
X118671816Y-81074853D01*
X118686668Y-81006580D01*
X118707813Y-80978332D01*
X118829745Y-80856401D01*
X118965285Y-80662830D01*
X119065153Y-80448663D01*
X119126313Y-80220408D01*
X119146909Y-79985000D01*
X119126313Y-79749592D01*
X119065153Y-79521337D01*
X118965285Y-79307171D01*
X118864795Y-79163655D01*
X118829744Y-79113597D01*
X118662652Y-78946506D01*
X118662646Y-78946501D01*
X118477092Y-78816575D01*
X118433467Y-78761998D01*
X118426273Y-78692500D01*
X118457796Y-78630145D01*
X118477092Y-78613425D01*
X118499276Y-78597891D01*
X118662651Y-78483495D01*
X118829745Y-78316401D01*
X118965285Y-78122830D01*
X119065153Y-77908663D01*
X119126313Y-77680408D01*
X119146909Y-77445000D01*
X119126313Y-77209592D01*
X119065153Y-76981337D01*
X118965285Y-76767171D01*
X118864795Y-76623655D01*
X118829744Y-76573597D01*
X118662652Y-76406506D01*
X118662646Y-76406501D01*
X118477092Y-76276575D01*
X118433467Y-76221998D01*
X118426273Y-76152500D01*
X118457796Y-76090145D01*
X118477092Y-76073425D01*
X118499276Y-76057891D01*
X118662651Y-75943495D01*
X118829745Y-75776401D01*
X118965285Y-75582830D01*
X119065153Y-75368663D01*
X119126313Y-75140408D01*
X119146909Y-74905000D01*
X119146285Y-74897873D01*
X119138173Y-74805145D01*
X119126313Y-74669592D01*
X119065153Y-74441337D01*
X118965285Y-74227171D01*
X118864795Y-74083655D01*
X118829744Y-74033597D01*
X118662652Y-73866506D01*
X118662646Y-73866501D01*
X118477092Y-73736575D01*
X118433467Y-73681998D01*
X118426273Y-73612500D01*
X118457796Y-73550145D01*
X118477092Y-73533425D01*
X118499276Y-73517891D01*
X118662651Y-73403495D01*
X118829745Y-73236401D01*
X118965285Y-73042830D01*
X119065153Y-72828663D01*
X119126313Y-72600408D01*
X119146909Y-72365000D01*
X119143969Y-72331402D01*
X119138173Y-72265145D01*
X119126313Y-72129592D01*
X119078566Y-71951395D01*
X119065155Y-71901344D01*
X119065154Y-71901343D01*
X119065153Y-71901337D01*
X119053759Y-71876904D01*
X119043268Y-71807827D01*
X119071788Y-71744043D01*
X119130264Y-71705804D01*
X119166142Y-71700500D01*
X126021274Y-71700500D01*
X126088313Y-71720185D01*
X126121156Y-71754588D01*
X126122860Y-71753396D01*
X126261501Y-71951395D01*
X126261506Y-71951402D01*
X126428597Y-72118493D01*
X126428603Y-72118498D01*
X126614158Y-72248425D01*
X126657783Y-72303002D01*
X126664977Y-72372500D01*
X126633454Y-72434855D01*
X126614158Y-72451575D01*
X126428597Y-72581505D01*
X126261505Y-72748597D01*
X126125965Y-72942169D01*
X126125964Y-72942171D01*
X126026098Y-73156335D01*
X126026094Y-73156344D01*
X125964938Y-73384586D01*
X125964936Y-73384596D01*
X125944341Y-73619999D01*
X125944341Y-73620000D01*
X125964936Y-73855403D01*
X125964938Y-73855413D01*
X126026094Y-74083655D01*
X126026096Y-74083659D01*
X126026097Y-74083663D01*
X126093015Y-74227169D01*
X126125965Y-74297830D01*
X126125967Y-74297834D01*
X126261501Y-74491395D01*
X126261506Y-74491402D01*
X126428597Y-74658493D01*
X126428603Y-74658498D01*
X126614158Y-74788425D01*
X126657783Y-74843002D01*
X126664977Y-74912500D01*
X126633454Y-74974855D01*
X126614158Y-74991575D01*
X126428597Y-75121505D01*
X126261505Y-75288597D01*
X126125965Y-75482169D01*
X126125964Y-75482171D01*
X126026098Y-75696335D01*
X126026094Y-75696344D01*
X125964938Y-75924586D01*
X125964936Y-75924596D01*
X125944341Y-76159999D01*
X125944341Y-76160000D01*
X125964936Y-76395403D01*
X125964938Y-76395413D01*
X126026094Y-76623655D01*
X126026096Y-76623659D01*
X126026097Y-76623663D01*
X126093015Y-76767169D01*
X126125965Y-76837830D01*
X126125967Y-76837834D01*
X126261501Y-77031395D01*
X126261506Y-77031402D01*
X126428597Y-77198493D01*
X126428603Y-77198498D01*
X126614158Y-77328425D01*
X126657783Y-77383002D01*
X126664977Y-77452500D01*
X126633454Y-77514855D01*
X126614158Y-77531575D01*
X126428597Y-77661505D01*
X126261505Y-77828597D01*
X126125965Y-78022169D01*
X126125964Y-78022171D01*
X126026098Y-78236335D01*
X126026094Y-78236344D01*
X125964938Y-78464586D01*
X125964936Y-78464596D01*
X125944341Y-78699999D01*
X125944341Y-78700000D01*
X125964936Y-78935403D01*
X125964938Y-78935413D01*
X126026094Y-79163655D01*
X126026096Y-79163659D01*
X126026097Y-79163663D01*
X126093015Y-79307169D01*
X126125965Y-79377830D01*
X126125967Y-79377834D01*
X126261501Y-79571395D01*
X126261506Y-79571402D01*
X126428597Y-79738493D01*
X126428603Y-79738498D01*
X126614158Y-79868425D01*
X126657783Y-79923002D01*
X126664977Y-79992500D01*
X126633454Y-80054855D01*
X126614158Y-80071575D01*
X126428597Y-80201505D01*
X126261505Y-80368597D01*
X126125965Y-80562169D01*
X126125964Y-80562171D01*
X126026098Y-80776335D01*
X126026094Y-80776344D01*
X125964938Y-81004586D01*
X125964936Y-81004596D01*
X125944341Y-81239999D01*
X125944341Y-81240000D01*
X125964936Y-81475403D01*
X125964938Y-81475413D01*
X126026094Y-81703655D01*
X126026096Y-81703659D01*
X126026097Y-81703663D01*
X126061927Y-81780500D01*
X126125965Y-81917830D01*
X126125967Y-81917834D01*
X126261501Y-82111395D01*
X126261506Y-82111402D01*
X126428597Y-82278493D01*
X126428603Y-82278498D01*
X126614158Y-82408425D01*
X126657783Y-82463002D01*
X126664977Y-82532500D01*
X126633454Y-82594855D01*
X126614158Y-82611575D01*
X126428597Y-82741505D01*
X126261505Y-82908597D01*
X126125965Y-83102169D01*
X126125964Y-83102171D01*
X126026098Y-83316335D01*
X126026094Y-83316344D01*
X125964938Y-83544586D01*
X125964936Y-83544596D01*
X125944341Y-83779999D01*
X125944341Y-83780000D01*
X125964936Y-84015403D01*
X125964938Y-84015413D01*
X126026094Y-84243655D01*
X126026096Y-84243659D01*
X126026097Y-84243663D01*
X126061740Y-84320099D01*
X126125965Y-84457830D01*
X126125967Y-84457834D01*
X126223818Y-84597578D01*
X126260857Y-84650476D01*
X126261501Y-84651395D01*
X126261506Y-84651402D01*
X126428597Y-84818493D01*
X126428603Y-84818498D01*
X126614158Y-84948425D01*
X126657783Y-85003002D01*
X126664977Y-85072500D01*
X126633454Y-85134855D01*
X126614158Y-85151575D01*
X126428597Y-85281505D01*
X126261505Y-85448597D01*
X126125965Y-85642169D01*
X126125964Y-85642171D01*
X126026098Y-85856335D01*
X126026094Y-85856344D01*
X125964938Y-86084586D01*
X125964936Y-86084596D01*
X125944341Y-86319999D01*
X125944341Y-86320000D01*
X125964936Y-86555403D01*
X125964938Y-86555413D01*
X126026094Y-86783655D01*
X126026096Y-86783659D01*
X126026097Y-86783663D01*
X126091377Y-86923655D01*
X126125965Y-86997830D01*
X126125967Y-86997834D01*
X126218382Y-87129815D01*
X126253651Y-87180185D01*
X126261501Y-87191395D01*
X126261506Y-87191402D01*
X126428597Y-87358493D01*
X126428603Y-87358498D01*
X126614158Y-87488425D01*
X126657783Y-87543002D01*
X126664977Y-87612500D01*
X126633454Y-87674855D01*
X126614158Y-87691575D01*
X126428597Y-87821505D01*
X126261505Y-87988597D01*
X126125965Y-88182169D01*
X126125964Y-88182171D01*
X126026098Y-88396335D01*
X126026094Y-88396344D01*
X125964938Y-88624586D01*
X125964936Y-88624596D01*
X125944341Y-88859999D01*
X125944341Y-88860000D01*
X125964936Y-89095403D01*
X125964938Y-89095413D01*
X126026094Y-89323655D01*
X126026096Y-89323659D01*
X126026097Y-89323663D01*
X126104315Y-89491401D01*
X126125965Y-89537830D01*
X126125967Y-89537834D01*
X126210458Y-89658498D01*
X126253651Y-89720185D01*
X126261501Y-89731395D01*
X126261506Y-89731402D01*
X126428597Y-89898493D01*
X126428603Y-89898498D01*
X126614158Y-90028425D01*
X126657783Y-90083002D01*
X126664977Y-90152500D01*
X126633454Y-90214855D01*
X126614158Y-90231575D01*
X126428597Y-90361505D01*
X126261505Y-90528597D01*
X126125965Y-90722169D01*
X126125964Y-90722171D01*
X126026098Y-90936335D01*
X126026094Y-90936344D01*
X125964938Y-91164586D01*
X125964936Y-91164596D01*
X125944341Y-91399999D01*
X125944341Y-91400000D01*
X125964936Y-91635403D01*
X125964938Y-91635413D01*
X126026094Y-91863655D01*
X126026096Y-91863659D01*
X126026097Y-91863663D01*
X126125965Y-92077830D01*
X126125967Y-92077834D01*
X126261501Y-92271395D01*
X126261506Y-92271402D01*
X126428597Y-92438493D01*
X126428603Y-92438498D01*
X126614158Y-92568425D01*
X126657783Y-92623002D01*
X126664977Y-92692500D01*
X126633454Y-92754855D01*
X126614158Y-92771575D01*
X126428597Y-92901505D01*
X126261505Y-93068597D01*
X126125965Y-93262169D01*
X126125964Y-93262171D01*
X126026098Y-93476335D01*
X126026094Y-93476344D01*
X125964938Y-93704586D01*
X125964936Y-93704596D01*
X125944341Y-93939999D01*
X125944341Y-93940000D01*
X125964936Y-94175403D01*
X125964938Y-94175413D01*
X126026094Y-94403655D01*
X126026096Y-94403659D01*
X126026097Y-94403663D01*
X126104315Y-94571401D01*
X126125965Y-94617830D01*
X126125967Y-94617834D01*
X126261501Y-94811395D01*
X126261506Y-94811402D01*
X126428597Y-94978493D01*
X126428603Y-94978498D01*
X126614158Y-95108425D01*
X126657783Y-95163002D01*
X126664977Y-95232500D01*
X126633454Y-95294855D01*
X126614158Y-95311575D01*
X126428597Y-95441505D01*
X126261505Y-95608597D01*
X126125965Y-95802169D01*
X126125964Y-95802171D01*
X126026098Y-96016335D01*
X126026094Y-96016344D01*
X125964938Y-96244586D01*
X125964936Y-96244596D01*
X125944341Y-96479999D01*
X125944341Y-96480000D01*
X125964936Y-96715403D01*
X125964938Y-96715413D01*
X126026094Y-96943655D01*
X126026096Y-96943659D01*
X126026097Y-96943663D01*
X126076390Y-97051516D01*
X126125965Y-97157830D01*
X126125967Y-97157834D01*
X126261501Y-97351395D01*
X126261506Y-97351402D01*
X126428597Y-97518493D01*
X126428603Y-97518498D01*
X126614158Y-97648425D01*
X126657783Y-97703002D01*
X126664977Y-97772500D01*
X126633454Y-97834855D01*
X126614158Y-97851575D01*
X126428597Y-97981505D01*
X126261505Y-98148597D01*
X126125965Y-98342169D01*
X126125964Y-98342171D01*
X126026098Y-98556335D01*
X126026094Y-98556344D01*
X125964938Y-98784586D01*
X125964936Y-98784596D01*
X125944341Y-99019999D01*
X125944341Y-99020000D01*
X125964936Y-99255403D01*
X125964938Y-99255413D01*
X126026094Y-99483655D01*
X126026096Y-99483659D01*
X126026097Y-99483663D01*
X126054436Y-99544435D01*
X126125965Y-99697830D01*
X126125967Y-99697834D01*
X126203549Y-99808632D01*
X126249468Y-99874211D01*
X126261501Y-99891395D01*
X126261506Y-99891402D01*
X126428597Y-100058493D01*
X126428603Y-100058498D01*
X126614158Y-100188425D01*
X126657783Y-100243002D01*
X126664977Y-100312500D01*
X126633454Y-100374855D01*
X126614158Y-100391575D01*
X126428597Y-100521505D01*
X126261505Y-100688597D01*
X126125965Y-100882169D01*
X126125964Y-100882171D01*
X126026098Y-101096335D01*
X126026094Y-101096344D01*
X125964938Y-101324586D01*
X125964936Y-101324596D01*
X125944341Y-101559999D01*
X125944341Y-101560000D01*
X125964936Y-101795403D01*
X125964938Y-101795413D01*
X126026094Y-102023655D01*
X126026096Y-102023659D01*
X126026097Y-102023663D01*
X126044750Y-102063664D01*
X126125965Y-102237830D01*
X126125967Y-102237834D01*
X126261501Y-102431395D01*
X126261506Y-102431402D01*
X126428597Y-102598493D01*
X126428603Y-102598498D01*
X126614158Y-102728425D01*
X126657783Y-102783002D01*
X126664977Y-102852500D01*
X126633454Y-102914855D01*
X126614158Y-102931575D01*
X126428597Y-103061505D01*
X126261505Y-103228597D01*
X126125965Y-103422169D01*
X126125964Y-103422171D01*
X126026098Y-103636335D01*
X126026094Y-103636344D01*
X125964938Y-103864586D01*
X125964936Y-103864596D01*
X125944341Y-104099999D01*
X125944341Y-104100000D01*
X125964936Y-104335403D01*
X125964938Y-104335413D01*
X126026094Y-104563655D01*
X126026096Y-104563659D01*
X126026097Y-104563663D01*
X126038571Y-104590413D01*
X126125965Y-104777830D01*
X126125967Y-104777834D01*
X126261501Y-104971395D01*
X126261506Y-104971402D01*
X126428597Y-105138493D01*
X126428603Y-105138498D01*
X126614158Y-105268425D01*
X126657783Y-105323002D01*
X126664977Y-105392500D01*
X126633454Y-105454855D01*
X126614158Y-105471575D01*
X126428597Y-105601505D01*
X126261505Y-105768597D01*
X126125965Y-105962169D01*
X126125964Y-105962171D01*
X126026098Y-106176335D01*
X126026094Y-106176344D01*
X125964938Y-106404586D01*
X125964936Y-106404596D01*
X125944341Y-106639999D01*
X125944341Y-106640000D01*
X125964936Y-106875403D01*
X125964938Y-106875413D01*
X126026094Y-107103655D01*
X126026096Y-107103659D01*
X126026097Y-107103663D01*
X126085478Y-107231006D01*
X126125965Y-107317830D01*
X126125967Y-107317834D01*
X126181917Y-107397738D01*
X126256552Y-107504328D01*
X126261501Y-107511395D01*
X126261506Y-107511402D01*
X126428597Y-107678493D01*
X126428603Y-107678498D01*
X126614158Y-107808425D01*
X126657783Y-107863002D01*
X126664977Y-107932500D01*
X126633454Y-107994855D01*
X126614158Y-108011575D01*
X126428597Y-108141505D01*
X126261505Y-108308597D01*
X126125965Y-108502169D01*
X126125964Y-108502171D01*
X126026098Y-108716335D01*
X126026094Y-108716344D01*
X125964938Y-108944586D01*
X125964936Y-108944596D01*
X125944341Y-109179999D01*
X125944341Y-109180000D01*
X125964936Y-109415403D01*
X125964938Y-109415413D01*
X126026094Y-109643655D01*
X126026096Y-109643659D01*
X126026097Y-109643663D01*
X126045373Y-109685000D01*
X126125965Y-109857830D01*
X126125967Y-109857834D01*
X126261501Y-110051395D01*
X126261506Y-110051402D01*
X126428597Y-110218493D01*
X126428603Y-110218498D01*
X126614594Y-110348730D01*
X126658219Y-110403307D01*
X126665413Y-110472805D01*
X126633890Y-110535160D01*
X126614595Y-110551880D01*
X126428922Y-110681890D01*
X126428920Y-110681891D01*
X126261891Y-110848920D01*
X126261886Y-110848926D01*
X126126400Y-111042420D01*
X126126399Y-111042422D01*
X126026570Y-111256507D01*
X126026567Y-111256513D01*
X125969364Y-111469999D01*
X125969364Y-111470000D01*
X126866988Y-111470000D01*
X126834075Y-111527007D01*
X126800000Y-111654174D01*
X126800000Y-111785826D01*
X126834075Y-111912993D01*
X126866988Y-111970000D01*
X125969364Y-111970000D01*
X126026567Y-112183486D01*
X126026570Y-112183492D01*
X126126399Y-112397578D01*
X126261894Y-112591082D01*
X126428917Y-112758105D01*
X126614595Y-112888119D01*
X126658219Y-112942696D01*
X126665412Y-113012195D01*
X126633890Y-113074549D01*
X126614595Y-113091269D01*
X126428594Y-113221508D01*
X126261505Y-113388597D01*
X126125965Y-113582169D01*
X126125964Y-113582171D01*
X126026098Y-113796335D01*
X126026094Y-113796344D01*
X125964938Y-114024586D01*
X125964936Y-114024596D01*
X125944341Y-114259999D01*
X125944341Y-114260000D01*
X125964936Y-114495403D01*
X125964938Y-114495413D01*
X126026094Y-114723655D01*
X126026096Y-114723659D01*
X126026097Y-114723663D01*
X126106040Y-114895101D01*
X126125965Y-114937830D01*
X126125967Y-114937834D01*
X126234281Y-115092521D01*
X126261505Y-115131401D01*
X126428599Y-115298495D01*
X126525384Y-115366265D01*
X126622165Y-115434032D01*
X126622167Y-115434033D01*
X126622170Y-115434035D01*
X126836337Y-115533903D01*
X127064592Y-115595063D01*
X127241034Y-115610500D01*
X127299999Y-115615659D01*
X127300000Y-115615659D01*
X127300001Y-115615659D01*
X127358966Y-115610500D01*
X127535408Y-115595063D01*
X127763663Y-115533903D01*
X127977830Y-115434035D01*
X128171401Y-115298495D01*
X128338495Y-115131401D01*
X128421136Y-115013376D01*
X128475713Y-114969752D01*
X128522711Y-114960500D01*
X129777289Y-114960500D01*
X129844328Y-114980185D01*
X129878864Y-115013377D01*
X129961505Y-115131402D01*
X130047586Y-115217482D01*
X130128599Y-115298495D01*
X130225384Y-115366265D01*
X130322165Y-115434032D01*
X130322167Y-115434033D01*
X130322170Y-115434035D01*
X130536337Y-115533903D01*
X130764592Y-115595063D01*
X130941034Y-115610500D01*
X130999999Y-115615659D01*
X131000000Y-115615659D01*
X131000001Y-115615659D01*
X131058966Y-115610500D01*
X131235408Y-115595063D01*
X131463663Y-115533903D01*
X131677830Y-115434035D01*
X131871401Y-115298495D01*
X132038495Y-115131401D01*
X132174035Y-114937830D01*
X132273903Y-114723663D01*
X132335063Y-114495408D01*
X132355659Y-114260000D01*
X132335063Y-114024592D01*
X132273903Y-113796337D01*
X132174035Y-113582171D01*
X132167554Y-113572914D01*
X132038494Y-113388597D01*
X131871402Y-113221506D01*
X131871401Y-113221505D01*
X131685405Y-113091269D01*
X131641781Y-113036692D01*
X131634588Y-112967193D01*
X131666110Y-112904839D01*
X131685405Y-112888119D01*
X131871082Y-112758105D01*
X132038105Y-112591082D01*
X132173600Y-112397578D01*
X132273429Y-112183492D01*
X132273432Y-112183486D01*
X132330636Y-111970000D01*
X131433012Y-111970000D01*
X131465925Y-111912993D01*
X131500000Y-111785826D01*
X131500000Y-111654174D01*
X131465925Y-111527007D01*
X131433012Y-111470000D01*
X132247981Y-111470000D01*
X132315020Y-111489685D01*
X132335662Y-111506319D01*
X137597866Y-116768523D01*
X137627226Y-116815249D01*
X137634153Y-116835045D01*
X137637715Y-116904824D01*
X137602987Y-116965451D01*
X137540993Y-116997679D01*
X137517112Y-117000000D01*
X103124000Y-117000000D01*
X103056961Y-116980315D01*
X103011206Y-116927511D01*
X103000000Y-116876000D01*
X103000000Y-113500000D01*
X109295065Y-113500000D01*
X109314786Y-113826038D01*
X109373667Y-114147341D01*
X109470835Y-114459164D01*
X109470839Y-114459175D01*
X109604897Y-114757041D01*
X109604898Y-114757043D01*
X109773881Y-115036576D01*
X109921476Y-115224968D01*
X111063708Y-114082736D01*
X111160967Y-114216602D01*
X111283398Y-114339033D01*
X111417262Y-114436290D01*
X110275030Y-115578522D01*
X110275030Y-115578523D01*
X110463423Y-115726118D01*
X110742956Y-115895101D01*
X110742958Y-115895102D01*
X111040824Y-116029160D01*
X111040835Y-116029164D01*
X111352658Y-116126332D01*
X111673961Y-116185213D01*
X112000000Y-116204934D01*
X112326038Y-116185213D01*
X112647341Y-116126332D01*
X112959164Y-116029164D01*
X112959175Y-116029160D01*
X113257041Y-115895102D01*
X113257043Y-115895101D01*
X113536586Y-115726112D01*
X113724968Y-115578523D01*
X113724968Y-115578522D01*
X112582737Y-114436290D01*
X112716602Y-114339033D01*
X112839033Y-114216602D01*
X112936290Y-114082737D01*
X114078522Y-115224968D01*
X114078523Y-115224968D01*
X114226112Y-115036586D01*
X114395101Y-114757043D01*
X114395102Y-114757041D01*
X114529160Y-114459175D01*
X114529164Y-114459164D01*
X114626332Y-114147341D01*
X114685213Y-113826038D01*
X114704934Y-113500000D01*
X114685213Y-113173961D01*
X114626332Y-112852658D01*
X114529164Y-112540835D01*
X114529160Y-112540824D01*
X114395102Y-112242958D01*
X114395101Y-112242956D01*
X114226118Y-111963423D01*
X114078522Y-111775030D01*
X112936290Y-112917262D01*
X112839033Y-112783398D01*
X112716602Y-112660967D01*
X112582736Y-112563709D01*
X113724968Y-111421476D01*
X113536576Y-111273881D01*
X113257043Y-111104898D01*
X113257041Y-111104897D01*
X112959175Y-110970839D01*
X112959164Y-110970835D01*
X112647341Y-110873667D01*
X112326038Y-110814786D01*
X112000000Y-110795065D01*
X111673961Y-110814786D01*
X111352658Y-110873667D01*
X111040835Y-110970835D01*
X111040824Y-110970839D01*
X110742958Y-111104897D01*
X110742956Y-111104898D01*
X110463422Y-111273881D01*
X110463416Y-111273886D01*
X110275030Y-111421474D01*
X110275029Y-111421476D01*
X111417262Y-112563709D01*
X111283398Y-112660967D01*
X111160967Y-112783398D01*
X111063709Y-112917262D01*
X109921476Y-111775029D01*
X109921474Y-111775030D01*
X109773886Y-111963416D01*
X109773881Y-111963422D01*
X109604898Y-112242956D01*
X109604897Y-112242958D01*
X109470839Y-112540824D01*
X109470835Y-112540835D01*
X109373667Y-112852658D01*
X109314786Y-113173961D01*
X109295065Y-113500000D01*
X103000000Y-113500000D01*
X103000000Y-101814999D01*
X105409341Y-101814999D01*
X105409341Y-101815000D01*
X105429936Y-102050403D01*
X105429938Y-102050413D01*
X105491094Y-102278655D01*
X105491096Y-102278659D01*
X105491097Y-102278663D01*
X105580973Y-102471402D01*
X105590965Y-102492830D01*
X105590967Y-102492834D01*
X105726501Y-102686395D01*
X105726506Y-102686402D01*
X105893597Y-102853493D01*
X105893603Y-102853498D01*
X106079158Y-102983425D01*
X106122783Y-103038002D01*
X106129977Y-103107500D01*
X106098454Y-103169855D01*
X106079158Y-103186575D01*
X105893597Y-103316505D01*
X105726505Y-103483597D01*
X105590965Y-103677169D01*
X105590964Y-103677171D01*
X105491098Y-103891335D01*
X105491094Y-103891344D01*
X105429938Y-104119586D01*
X105429936Y-104119596D01*
X105411055Y-104335408D01*
X105409341Y-104355000D01*
X105429937Y-104590408D01*
X105429937Y-104590411D01*
X105429938Y-104590413D01*
X105491094Y-104818655D01*
X105491096Y-104818659D01*
X105491097Y-104818663D01*
X105580426Y-105010230D01*
X105590965Y-105032830D01*
X105590967Y-105032834D01*
X105693489Y-105179249D01*
X105710175Y-105203080D01*
X105726501Y-105226395D01*
X105726506Y-105226402D01*
X105893597Y-105393493D01*
X105893603Y-105393498D01*
X106079158Y-105523425D01*
X106122783Y-105578002D01*
X106129977Y-105647500D01*
X106098454Y-105709855D01*
X106079158Y-105726575D01*
X105893597Y-105856505D01*
X105726505Y-106023597D01*
X105590965Y-106217169D01*
X105590964Y-106217171D01*
X105491098Y-106431335D01*
X105491094Y-106431344D01*
X105429938Y-106659586D01*
X105429936Y-106659596D01*
X105409341Y-106894999D01*
X105409341Y-106895000D01*
X105429936Y-107130403D01*
X105429938Y-107130413D01*
X105491094Y-107358655D01*
X105491096Y-107358659D01*
X105491097Y-107358663D01*
X105559019Y-107504322D01*
X105590965Y-107572830D01*
X105590967Y-107572834D01*
X105694536Y-107720745D01*
X105726501Y-107766396D01*
X105726506Y-107766402D01*
X105848818Y-107888714D01*
X105882303Y-107950037D01*
X105877319Y-108019729D01*
X105835447Y-108075662D01*
X105804471Y-108092577D01*
X105672912Y-108141646D01*
X105672906Y-108141649D01*
X105557812Y-108227809D01*
X105557809Y-108227812D01*
X105471649Y-108342906D01*
X105471645Y-108342913D01*
X105421403Y-108477620D01*
X105421401Y-108477627D01*
X105415000Y-108537155D01*
X105415000Y-109185000D01*
X106331988Y-109185000D01*
X106299075Y-109242007D01*
X106265000Y-109369174D01*
X106265000Y-109500826D01*
X106299075Y-109627993D01*
X106331988Y-109685000D01*
X105415000Y-109685000D01*
X105415000Y-110332844D01*
X105421401Y-110392372D01*
X105421403Y-110392379D01*
X105471645Y-110527086D01*
X105471649Y-110527093D01*
X105557809Y-110642187D01*
X105557812Y-110642190D01*
X105672906Y-110728350D01*
X105672913Y-110728354D01*
X105807620Y-110778596D01*
X105807627Y-110778598D01*
X105867155Y-110784999D01*
X105867172Y-110785000D01*
X106515000Y-110785000D01*
X106515000Y-109868012D01*
X106572007Y-109900925D01*
X106699174Y-109935000D01*
X106830826Y-109935000D01*
X106957993Y-109900925D01*
X107015000Y-109868012D01*
X107015000Y-110785000D01*
X107662828Y-110785000D01*
X107662844Y-110784999D01*
X107722372Y-110778598D01*
X107722379Y-110778596D01*
X107857086Y-110728354D01*
X107857093Y-110728350D01*
X107972187Y-110642190D01*
X107972190Y-110642187D01*
X108058350Y-110527093D01*
X108058354Y-110527086D01*
X108108596Y-110392379D01*
X108108598Y-110392372D01*
X108114999Y-110332844D01*
X108115000Y-110332827D01*
X108115000Y-109685000D01*
X107198012Y-109685000D01*
X107230925Y-109627993D01*
X107265000Y-109500826D01*
X107265000Y-109369174D01*
X107230925Y-109242007D01*
X107198012Y-109185000D01*
X108115000Y-109185000D01*
X108115000Y-108537172D01*
X108114999Y-108537155D01*
X108108598Y-108477627D01*
X108108596Y-108477620D01*
X108058354Y-108342913D01*
X108058350Y-108342906D01*
X107972190Y-108227812D01*
X107972187Y-108227809D01*
X107857093Y-108141649D01*
X107857088Y-108141646D01*
X107725528Y-108092577D01*
X107669595Y-108050705D01*
X107645178Y-107985241D01*
X107660030Y-107916968D01*
X107681175Y-107888720D01*
X107803495Y-107766401D01*
X107939035Y-107572830D01*
X108038903Y-107358663D01*
X108100063Y-107130408D01*
X108120659Y-106895000D01*
X108100063Y-106659592D01*
X108038903Y-106431337D01*
X107939035Y-106217171D01*
X107930909Y-106205565D01*
X107803494Y-106023597D01*
X107636402Y-105856506D01*
X107636396Y-105856501D01*
X107450842Y-105726575D01*
X107407217Y-105671998D01*
X107400023Y-105602500D01*
X107431546Y-105540145D01*
X107450842Y-105523425D01*
X107497866Y-105490498D01*
X107636401Y-105393495D01*
X107803495Y-105226401D01*
X107939035Y-105032830D01*
X108038903Y-104818663D01*
X108100063Y-104590408D01*
X108120659Y-104355000D01*
X108100063Y-104119592D01*
X108038903Y-103891337D01*
X107939035Y-103677171D01*
X107910442Y-103636335D01*
X107803494Y-103483597D01*
X107636402Y-103316506D01*
X107636396Y-103316501D01*
X107450842Y-103186575D01*
X107407217Y-103131998D01*
X107400023Y-103062500D01*
X107431546Y-103000145D01*
X107450842Y-102983425D01*
X107473026Y-102967891D01*
X107636401Y-102853495D01*
X107803495Y-102686401D01*
X107939035Y-102492830D01*
X107941707Y-102487097D01*
X107987878Y-102434658D01*
X108054091Y-102415500D01*
X109814903Y-102415500D01*
X109881942Y-102435185D01*
X109902584Y-102451819D01*
X111388357Y-103937592D01*
X111421842Y-103998915D01*
X111416858Y-104068607D01*
X111374986Y-104124540D01*
X111341631Y-104142314D01*
X111250480Y-104174209D01*
X111097737Y-104270184D01*
X110970184Y-104397737D01*
X110874211Y-104550476D01*
X110814631Y-104720745D01*
X110814630Y-104720750D01*
X110794435Y-104899996D01*
X110794435Y-104900003D01*
X110814630Y-105079249D01*
X110814631Y-105079254D01*
X110874212Y-105249525D01*
X110880492Y-105259519D01*
X110899500Y-105325493D01*
X110899500Y-107231006D01*
X110899500Y-107368994D01*
X110899500Y-107368996D01*
X110899499Y-107368996D01*
X110926418Y-107504322D01*
X110926421Y-107504332D01*
X110979222Y-107631807D01*
X111055887Y-107746545D01*
X111055888Y-107746546D01*
X111608630Y-108299287D01*
X111637990Y-108346013D01*
X111674209Y-108449519D01*
X111729285Y-108537172D01*
X111770184Y-108602262D01*
X111897738Y-108729816D01*
X112050478Y-108825789D01*
X112220745Y-108885368D01*
X112220750Y-108885369D01*
X112399996Y-108905565D01*
X112400000Y-108905565D01*
X112400004Y-108905565D01*
X112579249Y-108885369D01*
X112579252Y-108885368D01*
X112579255Y-108885368D01*
X112749522Y-108825789D01*
X112902262Y-108729816D01*
X113029816Y-108602262D01*
X113125789Y-108449522D01*
X113185368Y-108279255D01*
X113188718Y-108249522D01*
X113205565Y-108100003D01*
X113205565Y-108099996D01*
X113185369Y-107920750D01*
X113185368Y-107920745D01*
X113174160Y-107888714D01*
X113125789Y-107750478D01*
X113123318Y-107746546D01*
X113080558Y-107678493D01*
X113029816Y-107597738D01*
X112902262Y-107470184D01*
X112786965Y-107397738D01*
X112749519Y-107374209D01*
X112646013Y-107337990D01*
X112599287Y-107308630D01*
X112336819Y-107046162D01*
X112303334Y-106984839D01*
X112300500Y-106958481D01*
X112300500Y-105999996D01*
X117794435Y-105999996D01*
X117794435Y-106000003D01*
X117814630Y-106179249D01*
X117814631Y-106179254D01*
X117874211Y-106349523D01*
X117925619Y-106431337D01*
X117970184Y-106502262D01*
X118097738Y-106629816D01*
X118250478Y-106725789D01*
X118353984Y-106762007D01*
X118400710Y-106791367D01*
X119708630Y-108099287D01*
X119737990Y-108146013D01*
X119774209Y-108249519D01*
X119834840Y-108346013D01*
X119870184Y-108402262D01*
X119997738Y-108529816D01*
X120150478Y-108625789D01*
X120320745Y-108685368D01*
X120320750Y-108685369D01*
X120499996Y-108705565D01*
X120500000Y-108705565D01*
X120500004Y-108705565D01*
X120679249Y-108685369D01*
X120679252Y-108685368D01*
X120679255Y-108685368D01*
X120849522Y-108625789D01*
X121002262Y-108529816D01*
X121129816Y-108402262D01*
X121225789Y-108249522D01*
X121285368Y-108079255D01*
X121299143Y-107956998D01*
X121305565Y-107900003D01*
X121305565Y-107899996D01*
X121285369Y-107720750D01*
X121285368Y-107720745D01*
X121270583Y-107678493D01*
X121225789Y-107550478D01*
X121201231Y-107511395D01*
X121129815Y-107397737D01*
X121002262Y-107270184D01*
X120849519Y-107174209D01*
X120746013Y-107137990D01*
X120699287Y-107108630D01*
X119536819Y-105946162D01*
X119503334Y-105884839D01*
X119500500Y-105858481D01*
X119500500Y-102825493D01*
X119519508Y-102759519D01*
X119525787Y-102749525D01*
X119525786Y-102749525D01*
X119525789Y-102749522D01*
X119585368Y-102579255D01*
X119585369Y-102579249D01*
X119605565Y-102400003D01*
X119605565Y-102399996D01*
X119585369Y-102220750D01*
X119585368Y-102220745D01*
X119530403Y-102063664D01*
X119525789Y-102050478D01*
X119429816Y-101897738D01*
X119302262Y-101770184D01*
X119149523Y-101674211D01*
X118979254Y-101614631D01*
X118979249Y-101614630D01*
X118800004Y-101594435D01*
X118799996Y-101594435D01*
X118620750Y-101614630D01*
X118620745Y-101614631D01*
X118450476Y-101674211D01*
X118297737Y-101770184D01*
X118170184Y-101897737D01*
X118074211Y-102050476D01*
X118014631Y-102220745D01*
X118014630Y-102220750D01*
X117994435Y-102399996D01*
X117994435Y-102400003D01*
X118014630Y-102579249D01*
X118014631Y-102579254D01*
X118074212Y-102749525D01*
X118080492Y-102759519D01*
X118099500Y-102825493D01*
X118099500Y-105317059D01*
X118079815Y-105384098D01*
X118063182Y-105404740D01*
X117970183Y-105497739D01*
X117874211Y-105650476D01*
X117814631Y-105820745D01*
X117814630Y-105820750D01*
X117794435Y-105999996D01*
X112300500Y-105999996D01*
X112300500Y-105325493D01*
X112319505Y-105259523D01*
X112325883Y-105249372D01*
X112378216Y-105203080D01*
X112447270Y-105192430D01*
X112511119Y-105220804D01*
X112547919Y-105274387D01*
X112574209Y-105349519D01*
X112640396Y-105454855D01*
X112670184Y-105502262D01*
X112797738Y-105629816D01*
X112864870Y-105671998D01*
X112942800Y-105720965D01*
X112950478Y-105725789D01*
X113072816Y-105768597D01*
X113120745Y-105785368D01*
X113120750Y-105785369D01*
X113299996Y-105805565D01*
X113300000Y-105805565D01*
X113300004Y-105805565D01*
X113479249Y-105785369D01*
X113479252Y-105785368D01*
X113479255Y-105785368D01*
X113649522Y-105725789D01*
X113802262Y-105629816D01*
X113929816Y-105502262D01*
X114025789Y-105349522D01*
X114085368Y-105179255D01*
X114089961Y-105138493D01*
X114105565Y-105000003D01*
X114105565Y-104999996D01*
X114085369Y-104820750D01*
X114085368Y-104820745D01*
X114025788Y-104650476D01*
X113962955Y-104550478D01*
X113929816Y-104497738D01*
X113802262Y-104370184D01*
X113778095Y-104354999D01*
X113649521Y-104274210D01*
X113479249Y-104214630D01*
X113392330Y-104204837D01*
X113327916Y-104177770D01*
X113318533Y-104169298D01*
X110602590Y-101453355D01*
X110602588Y-101453352D01*
X110483717Y-101334481D01*
X110483716Y-101334480D01*
X110396904Y-101284360D01*
X110396904Y-101284359D01*
X110396900Y-101284358D01*
X110346785Y-101255423D01*
X110194057Y-101214499D01*
X110035943Y-101214499D01*
X110028347Y-101214499D01*
X110028331Y-101214500D01*
X108054091Y-101214500D01*
X107987052Y-101194815D01*
X107941711Y-101142909D01*
X107939037Y-101137175D01*
X107939034Y-101137170D01*
X107939033Y-101137169D01*
X107807643Y-100949523D01*
X107803494Y-100943597D01*
X107636402Y-100776506D01*
X107636395Y-100776501D01*
X107442834Y-100640967D01*
X107442830Y-100640965D01*
X107442828Y-100640964D01*
X107354972Y-100599996D01*
X110794435Y-100599996D01*
X110794435Y-100600003D01*
X110814630Y-100779249D01*
X110814631Y-100779254D01*
X110874211Y-100949523D01*
X110966460Y-101096335D01*
X110970184Y-101102262D01*
X111097738Y-101229816D01*
X111250478Y-101325789D01*
X111361371Y-101364592D01*
X111420745Y-101385368D01*
X111420750Y-101385369D01*
X111599996Y-101405565D01*
X111600000Y-101405565D01*
X111600004Y-101405565D01*
X111779249Y-101385369D01*
X111779252Y-101385368D01*
X111779255Y-101385368D01*
X111949522Y-101325789D01*
X112102262Y-101229816D01*
X112229816Y-101102262D01*
X112325789Y-100949522D01*
X112362007Y-100846013D01*
X112391365Y-100799290D01*
X113744114Y-99446543D01*
X113820775Y-99331811D01*
X113829810Y-99310000D01*
X113873578Y-99204332D01*
X113873580Y-99204328D01*
X113900500Y-99068994D01*
X113900500Y-98931006D01*
X113900500Y-97551571D01*
X113920185Y-97484532D01*
X113972989Y-97438777D01*
X114042147Y-97428833D01*
X114098811Y-97452305D01*
X114207664Y-97533793D01*
X114207671Y-97533797D01*
X114342517Y-97584091D01*
X114342516Y-97584091D01*
X114349444Y-97584835D01*
X114402127Y-97590500D01*
X116197872Y-97590499D01*
X116257483Y-97584091D01*
X116392331Y-97533796D01*
X116507546Y-97447546D01*
X116593796Y-97332331D01*
X116644091Y-97197483D01*
X116650500Y-97137873D01*
X116650499Y-95342128D01*
X116644091Y-95282517D01*
X116630507Y-95246097D01*
X116593797Y-95147671D01*
X116593793Y-95147664D01*
X116507547Y-95032455D01*
X116507544Y-95032452D01*
X116392335Y-94946206D01*
X116392328Y-94946202D01*
X116260917Y-94897189D01*
X116204983Y-94855318D01*
X116180566Y-94789853D01*
X116195418Y-94721580D01*
X116216563Y-94693332D01*
X116338495Y-94571401D01*
X116474035Y-94377830D01*
X116573903Y-94163663D01*
X116635063Y-93935408D01*
X116655659Y-93700000D01*
X116635063Y-93464592D01*
X116573903Y-93236337D01*
X116474035Y-93022171D01*
X116473925Y-93022013D01*
X116338494Y-92828597D01*
X116171402Y-92661506D01*
X116171396Y-92661501D01*
X115985842Y-92531575D01*
X115942217Y-92476998D01*
X115935023Y-92407500D01*
X115966546Y-92345145D01*
X115985842Y-92328425D01*
X116030451Y-92297189D01*
X116171401Y-92198495D01*
X116338495Y-92031401D01*
X116474035Y-91837830D01*
X116573903Y-91623663D01*
X116635063Y-91395408D01*
X116655659Y-91160000D01*
X116635063Y-90924592D01*
X116573903Y-90696337D01*
X116474035Y-90482171D01*
X116473925Y-90482013D01*
X116338494Y-90288597D01*
X116171402Y-90121506D01*
X116171396Y-90121501D01*
X115985842Y-89991575D01*
X115942217Y-89936998D01*
X115935023Y-89867500D01*
X115966546Y-89805145D01*
X115985842Y-89788425D01*
X116067279Y-89731402D01*
X116171401Y-89658495D01*
X116338495Y-89491401D01*
X116474035Y-89297830D01*
X116573903Y-89083663D01*
X116635063Y-88855408D01*
X116655659Y-88620000D01*
X116635063Y-88384592D01*
X116573903Y-88156337D01*
X116474035Y-87942171D01*
X116473925Y-87942013D01*
X116338494Y-87748597D01*
X116171402Y-87581506D01*
X116171395Y-87581501D01*
X116148273Y-87565311D01*
X116116413Y-87543002D01*
X115977834Y-87445967D01*
X115977830Y-87445965D01*
X115892333Y-87406097D01*
X115763663Y-87346097D01*
X115763659Y-87346096D01*
X115763655Y-87346094D01*
X115535413Y-87284938D01*
X115535403Y-87284936D01*
X115300001Y-87264341D01*
X115299999Y-87264341D01*
X115064596Y-87284936D01*
X115064586Y-87284938D01*
X114836344Y-87346094D01*
X114836335Y-87346098D01*
X114622171Y-87445964D01*
X114622169Y-87445965D01*
X114428597Y-87581505D01*
X114261505Y-87748597D01*
X114126075Y-87942013D01*
X114071498Y-87985638D01*
X114002000Y-87992832D01*
X113939645Y-87961309D01*
X113904231Y-87901079D01*
X113900500Y-87870890D01*
X113900500Y-84323369D01*
X113919507Y-84257396D01*
X113987288Y-84149524D01*
X113987289Y-84149522D01*
X114046868Y-83979255D01*
X114046868Y-83979252D01*
X114046869Y-83979249D01*
X114067065Y-83800003D01*
X114067065Y-83799996D01*
X114046869Y-83620750D01*
X114046868Y-83620745D01*
X113998488Y-83482483D01*
X113987289Y-83450478D01*
X113969945Y-83422876D01*
X113903007Y-83316344D01*
X113891316Y-83297738D01*
X113763762Y-83170184D01*
X113611023Y-83074211D01*
X113440754Y-83014631D01*
X113440749Y-83014630D01*
X113261504Y-82994435D01*
X113261496Y-82994435D01*
X113082250Y-83014630D01*
X113082245Y-83014631D01*
X112911976Y-83074211D01*
X112759237Y-83170184D01*
X112631684Y-83297737D01*
X112535711Y-83450476D01*
X112476131Y-83620745D01*
X112476130Y-83620750D01*
X112455935Y-83799996D01*
X112455935Y-83800003D01*
X112476130Y-83979251D01*
X112492541Y-84026148D01*
X112499500Y-84067103D01*
X112499500Y-98658480D01*
X112479815Y-98725519D01*
X112463181Y-98746161D01*
X111400709Y-99808632D01*
X111353984Y-99837992D01*
X111250476Y-99874211D01*
X111250475Y-99874212D01*
X111097737Y-99970184D01*
X110970184Y-100097737D01*
X110874211Y-100250476D01*
X110814631Y-100420745D01*
X110814630Y-100420750D01*
X110794435Y-100599996D01*
X107354972Y-100599996D01*
X107228663Y-100541097D01*
X107228659Y-100541096D01*
X107228655Y-100541094D01*
X107000413Y-100479938D01*
X107000403Y-100479936D01*
X106765001Y-100459341D01*
X106764999Y-100459341D01*
X106529596Y-100479936D01*
X106529586Y-100479938D01*
X106301344Y-100541094D01*
X106301335Y-100541098D01*
X106087171Y-100640964D01*
X106087169Y-100640965D01*
X105893597Y-100776505D01*
X105726505Y-100943597D01*
X105590965Y-101137169D01*
X105590964Y-101137171D01*
X105491098Y-101351335D01*
X105491094Y-101351344D01*
X105429938Y-101579586D01*
X105429936Y-101579596D01*
X105409341Y-101814999D01*
X103000000Y-101814999D01*
X103000000Y-88679999D01*
X103544341Y-88679999D01*
X103544341Y-88680000D01*
X103564936Y-88915403D01*
X103564938Y-88915413D01*
X103626094Y-89143655D01*
X103626096Y-89143659D01*
X103626097Y-89143663D01*
X103697988Y-89297834D01*
X103725965Y-89357830D01*
X103725967Y-89357834D01*
X103819493Y-89491402D01*
X103852002Y-89537830D01*
X103861501Y-89551395D01*
X103861506Y-89551402D01*
X104028597Y-89718493D01*
X104028603Y-89718498D01*
X104214158Y-89848425D01*
X104257783Y-89903002D01*
X104264977Y-89972500D01*
X104233454Y-90034855D01*
X104214158Y-90051575D01*
X104028597Y-90181505D01*
X103861505Y-90348597D01*
X103725965Y-90542169D01*
X103725964Y-90542171D01*
X103626098Y-90756335D01*
X103626094Y-90756344D01*
X103564938Y-90984586D01*
X103564936Y-90984596D01*
X103544341Y-91219999D01*
X103544341Y-91220000D01*
X103564936Y-91455403D01*
X103564938Y-91455413D01*
X103626094Y-91683655D01*
X103626096Y-91683659D01*
X103626097Y-91683663D01*
X103697988Y-91837834D01*
X103725965Y-91897830D01*
X103725967Y-91897834D01*
X103819493Y-92031402D01*
X103852002Y-92077830D01*
X103861501Y-92091395D01*
X103861506Y-92091402D01*
X104028597Y-92258493D01*
X104028603Y-92258498D01*
X104214158Y-92388425D01*
X104257783Y-92443002D01*
X104264977Y-92512500D01*
X104233454Y-92574855D01*
X104214158Y-92591575D01*
X104028597Y-92721505D01*
X103861505Y-92888597D01*
X103725965Y-93082169D01*
X103725964Y-93082171D01*
X103626098Y-93296335D01*
X103626094Y-93296344D01*
X103564938Y-93524586D01*
X103564936Y-93524596D01*
X103544341Y-93759999D01*
X103544341Y-93760000D01*
X103564936Y-93995403D01*
X103564938Y-93995413D01*
X103626094Y-94223655D01*
X103626096Y-94223659D01*
X103626097Y-94223663D01*
X103697988Y-94377834D01*
X103725965Y-94437830D01*
X103725967Y-94437834D01*
X103819493Y-94571402D01*
X103861501Y-94631396D01*
X103861506Y-94631402D01*
X103983430Y-94753326D01*
X104016915Y-94814649D01*
X104011931Y-94884341D01*
X103970059Y-94940274D01*
X103939083Y-94957189D01*
X103807669Y-95006203D01*
X103807664Y-95006206D01*
X103692455Y-95092452D01*
X103692452Y-95092455D01*
X103606206Y-95207664D01*
X103606202Y-95207671D01*
X103555908Y-95342517D01*
X103549501Y-95402116D01*
X103549501Y-95402123D01*
X103549500Y-95402135D01*
X103549500Y-97197870D01*
X103549501Y-97197876D01*
X103555908Y-97257483D01*
X103606202Y-97392328D01*
X103606206Y-97392335D01*
X103692452Y-97507544D01*
X103692455Y-97507547D01*
X103807664Y-97593793D01*
X103807671Y-97593797D01*
X103942517Y-97644091D01*
X103942516Y-97644091D01*
X103949444Y-97644835D01*
X104002127Y-97650500D01*
X105797872Y-97650499D01*
X105857483Y-97644091D01*
X105992331Y-97593796D01*
X106107546Y-97507546D01*
X106193796Y-97392331D01*
X106244091Y-97257483D01*
X106250500Y-97197873D01*
X106250499Y-95402128D01*
X106244091Y-95342517D01*
X106243946Y-95342129D01*
X106193797Y-95207671D01*
X106193793Y-95207664D01*
X106107547Y-95092455D01*
X106107544Y-95092452D01*
X105992335Y-95006206D01*
X105992328Y-95006202D01*
X105860917Y-94957189D01*
X105804983Y-94915318D01*
X105780566Y-94849853D01*
X105795418Y-94781580D01*
X105816563Y-94753332D01*
X105938495Y-94631401D01*
X106074035Y-94437830D01*
X106173903Y-94223663D01*
X106235063Y-93995408D01*
X106255659Y-93760000D01*
X106235063Y-93524592D01*
X106173903Y-93296337D01*
X106074035Y-93082171D01*
X106064531Y-93068597D01*
X105938494Y-92888597D01*
X105771402Y-92721506D01*
X105771396Y-92721501D01*
X105585842Y-92591575D01*
X105542217Y-92536998D01*
X105535023Y-92467500D01*
X105566546Y-92405145D01*
X105585842Y-92388425D01*
X105646141Y-92346203D01*
X105771401Y-92258495D01*
X105938495Y-92091401D01*
X106074035Y-91897830D01*
X106173903Y-91683663D01*
X106235063Y-91455408D01*
X106255659Y-91220000D01*
X106235063Y-90984592D01*
X106173903Y-90756337D01*
X106074035Y-90542171D01*
X106064531Y-90528597D01*
X105938494Y-90348597D01*
X105771402Y-90181506D01*
X105771396Y-90181501D01*
X105585842Y-90051575D01*
X105542217Y-89996998D01*
X105535023Y-89927500D01*
X105566546Y-89865145D01*
X105585842Y-89848425D01*
X105647652Y-89805145D01*
X105771401Y-89718495D01*
X105938495Y-89551401D01*
X106074035Y-89357830D01*
X106173903Y-89143663D01*
X106235063Y-88915408D01*
X106255659Y-88680000D01*
X106235063Y-88444592D01*
X106173903Y-88216337D01*
X106074035Y-88002171D01*
X106064531Y-87988597D01*
X105938494Y-87808597D01*
X105771402Y-87641506D01*
X105771395Y-87641501D01*
X105577834Y-87505967D01*
X105577830Y-87505965D01*
X105577828Y-87505964D01*
X105363663Y-87406097D01*
X105363659Y-87406096D01*
X105363655Y-87406094D01*
X105135413Y-87344938D01*
X105135403Y-87344936D01*
X104900001Y-87324341D01*
X104899999Y-87324341D01*
X104664596Y-87344936D01*
X104664586Y-87344938D01*
X104436344Y-87406094D01*
X104436335Y-87406098D01*
X104222171Y-87505964D01*
X104222169Y-87505965D01*
X104028597Y-87641505D01*
X103861505Y-87808597D01*
X103725965Y-88002169D01*
X103725964Y-88002171D01*
X103626098Y-88216335D01*
X103626094Y-88216344D01*
X103564938Y-88444586D01*
X103564936Y-88444596D01*
X103544341Y-88679999D01*
X103000000Y-88679999D01*
X103000000Y-86499996D01*
X108456935Y-86499996D01*
X108456935Y-86500003D01*
X108477130Y-86679249D01*
X108477131Y-86679254D01*
X108536711Y-86849523D01*
X108629899Y-86997830D01*
X108632684Y-87002262D01*
X108760238Y-87129816D01*
X108912978Y-87225789D01*
X109082010Y-87284936D01*
X109083245Y-87285368D01*
X109083250Y-87285369D01*
X109262496Y-87305565D01*
X109262500Y-87305565D01*
X109262504Y-87305565D01*
X109441749Y-87285369D01*
X109441752Y-87285368D01*
X109441755Y-87285368D01*
X109612022Y-87225789D01*
X109764762Y-87129816D01*
X109892316Y-87002262D01*
X109976256Y-86868671D01*
X110028591Y-86822381D01*
X110097644Y-86811733D01*
X110161493Y-86840108D01*
X110186243Y-86868670D01*
X110270184Y-87002262D01*
X110397738Y-87129816D01*
X110550478Y-87225789D01*
X110719510Y-87284936D01*
X110720745Y-87285368D01*
X110720750Y-87285369D01*
X110899996Y-87305565D01*
X110900000Y-87305565D01*
X110900004Y-87305565D01*
X111079249Y-87285369D01*
X111079252Y-87285368D01*
X111079255Y-87285368D01*
X111249522Y-87225789D01*
X111402262Y-87129816D01*
X111529816Y-87002262D01*
X111625789Y-86849522D01*
X111685368Y-86679255D01*
X111705565Y-86500000D01*
X111701058Y-86460000D01*
X111685369Y-86320750D01*
X111685368Y-86320745D01*
X111651724Y-86224596D01*
X111625789Y-86150478D01*
X111529816Y-85997738D01*
X111402262Y-85870184D01*
X111378084Y-85854992D01*
X111331796Y-85802661D01*
X111321146Y-85733607D01*
X111349521Y-85669758D01*
X111378082Y-85645009D01*
X111402262Y-85629816D01*
X111529816Y-85502262D01*
X111625789Y-85349522D01*
X111685368Y-85179255D01*
X111694636Y-85096998D01*
X111705565Y-85000003D01*
X111705565Y-84999996D01*
X111685369Y-84820750D01*
X111685368Y-84820745D01*
X111625788Y-84650476D01*
X111552209Y-84533377D01*
X111529816Y-84497738D01*
X111402262Y-84370184D01*
X111249523Y-84274211D01*
X111079254Y-84214631D01*
X111079249Y-84214630D01*
X110900004Y-84194435D01*
X110899996Y-84194435D01*
X110720750Y-84214630D01*
X110720745Y-84214631D01*
X110550476Y-84274211D01*
X110397737Y-84370184D01*
X110270184Y-84497737D01*
X110174211Y-84650476D01*
X110114631Y-84820745D01*
X110114630Y-84820750D01*
X110094435Y-84999996D01*
X110094435Y-85000003D01*
X110114630Y-85179249D01*
X110114631Y-85179254D01*
X110174211Y-85349523D01*
X110219443Y-85421508D01*
X110270184Y-85502262D01*
X110397738Y-85629816D01*
X110421911Y-85645005D01*
X110421913Y-85645006D01*
X110468204Y-85697341D01*
X110478852Y-85766395D01*
X110450477Y-85830243D01*
X110421913Y-85854993D01*
X110419764Y-85856344D01*
X110397737Y-85870184D01*
X110270184Y-85997737D01*
X110186244Y-86131327D01*
X110133909Y-86177618D01*
X110064855Y-86188266D01*
X110001007Y-86159891D01*
X109976256Y-86131327D01*
X109892315Y-85997737D01*
X109764762Y-85870184D01*
X109612023Y-85774211D01*
X109441754Y-85714631D01*
X109441749Y-85714630D01*
X109262504Y-85694435D01*
X109262496Y-85694435D01*
X109083250Y-85714630D01*
X109083245Y-85714631D01*
X108912976Y-85774211D01*
X108760237Y-85870184D01*
X108632684Y-85997737D01*
X108536711Y-86150476D01*
X108477131Y-86320745D01*
X108477130Y-86320750D01*
X108456935Y-86499996D01*
X103000000Y-86499996D01*
X103000000Y-64744999D01*
X103635591Y-64744999D01*
X103635591Y-64745000D01*
X103656186Y-64980403D01*
X103656188Y-64980413D01*
X103717344Y-65208655D01*
X103717346Y-65208659D01*
X103717347Y-65208663D01*
X103779293Y-65341506D01*
X103817215Y-65422830D01*
X103817217Y-65422834D01*
X103952751Y-65616395D01*
X103952756Y-65616402D01*
X104119847Y-65783493D01*
X104119853Y-65783498D01*
X104305408Y-65913425D01*
X104349033Y-65968002D01*
X104356227Y-66037500D01*
X104324704Y-66099855D01*
X104305408Y-66116575D01*
X104119847Y-66246505D01*
X103952755Y-66413597D01*
X103817215Y-66607169D01*
X103817214Y-66607171D01*
X103717348Y-66821335D01*
X103717344Y-66821344D01*
X103656188Y-67049586D01*
X103656186Y-67049596D01*
X103635591Y-67284999D01*
X103635591Y-67285000D01*
X103656186Y-67520403D01*
X103656188Y-67520413D01*
X103717344Y-67748655D01*
X103717346Y-67748659D01*
X103717347Y-67748663D01*
X103779293Y-67881506D01*
X103817215Y-67962830D01*
X103817217Y-67962834D01*
X103952751Y-68156395D01*
X103952756Y-68156402D01*
X104119847Y-68323493D01*
X104119853Y-68323498D01*
X104305408Y-68453425D01*
X104349033Y-68508002D01*
X104356227Y-68577500D01*
X104324704Y-68639855D01*
X104305408Y-68656575D01*
X104119847Y-68786505D01*
X103952755Y-68953597D01*
X103817215Y-69147169D01*
X103817214Y-69147171D01*
X103717348Y-69361335D01*
X103717344Y-69361344D01*
X103656188Y-69589586D01*
X103656186Y-69589596D01*
X103635591Y-69824999D01*
X103635591Y-69825000D01*
X103656186Y-70060403D01*
X103656188Y-70060413D01*
X103717344Y-70288655D01*
X103717346Y-70288659D01*
X103717347Y-70288663D01*
X103817215Y-70502830D01*
X103896698Y-70616344D01*
X103952751Y-70696395D01*
X103952756Y-70696402D01*
X104119847Y-70863493D01*
X104119853Y-70863498D01*
X104305408Y-70993425D01*
X104349033Y-71048002D01*
X104356227Y-71117500D01*
X104324704Y-71179855D01*
X104305408Y-71196575D01*
X104119847Y-71326505D01*
X103952755Y-71493597D01*
X103817215Y-71687169D01*
X103817214Y-71687171D01*
X103717348Y-71901335D01*
X103717344Y-71901344D01*
X103656188Y-72129586D01*
X103656186Y-72129596D01*
X103635591Y-72364999D01*
X103635591Y-72365000D01*
X103656186Y-72600403D01*
X103656188Y-72600413D01*
X103717344Y-72828655D01*
X103717346Y-72828659D01*
X103717347Y-72828663D01*
X103754189Y-72907671D01*
X103817215Y-73042830D01*
X103817217Y-73042834D01*
X103952751Y-73236395D01*
X103952756Y-73236402D01*
X104119847Y-73403493D01*
X104119853Y-73403498D01*
X104305408Y-73533425D01*
X104349033Y-73588002D01*
X104356227Y-73657500D01*
X104324704Y-73719855D01*
X104305408Y-73736575D01*
X104119847Y-73866505D01*
X103952755Y-74033597D01*
X103817215Y-74227169D01*
X103817214Y-74227171D01*
X103717348Y-74441335D01*
X103717344Y-74441344D01*
X103656188Y-74669586D01*
X103656186Y-74669596D01*
X103635591Y-74904999D01*
X103635591Y-74905000D01*
X103656186Y-75140403D01*
X103656188Y-75140413D01*
X103717344Y-75368655D01*
X103717346Y-75368659D01*
X103717347Y-75368663D01*
X103750526Y-75439815D01*
X103817215Y-75582830D01*
X103817217Y-75582834D01*
X103952751Y-75776395D01*
X103952756Y-75776402D01*
X104119847Y-75943493D01*
X104119853Y-75943498D01*
X104305408Y-76073425D01*
X104349033Y-76128002D01*
X104356227Y-76197500D01*
X104324704Y-76259855D01*
X104305408Y-76276575D01*
X104119847Y-76406505D01*
X103952755Y-76573597D01*
X103817215Y-76767169D01*
X103817214Y-76767171D01*
X103717348Y-76981335D01*
X103717344Y-76981344D01*
X103656188Y-77209586D01*
X103656186Y-77209596D01*
X103635591Y-77444999D01*
X103635591Y-77445000D01*
X103656186Y-77680403D01*
X103656188Y-77680413D01*
X103717344Y-77908655D01*
X103717346Y-77908659D01*
X103717347Y-77908663D01*
X103750526Y-77979815D01*
X103817215Y-78122830D01*
X103817217Y-78122834D01*
X103952751Y-78316395D01*
X103952756Y-78316402D01*
X104119847Y-78483493D01*
X104119853Y-78483498D01*
X104305408Y-78613425D01*
X104349033Y-78668002D01*
X104356227Y-78737500D01*
X104324704Y-78799855D01*
X104305408Y-78816575D01*
X104119847Y-78946505D01*
X103952755Y-79113597D01*
X103817215Y-79307169D01*
X103817214Y-79307171D01*
X103717348Y-79521335D01*
X103717344Y-79521344D01*
X103656188Y-79749586D01*
X103656186Y-79749596D01*
X103635591Y-79984999D01*
X103635591Y-79985000D01*
X103656186Y-80220403D01*
X103656188Y-80220413D01*
X103717344Y-80448655D01*
X103717346Y-80448659D01*
X103717347Y-80448663D01*
X103745295Y-80508597D01*
X103817215Y-80662830D01*
X103817217Y-80662834D01*
X103896698Y-80776344D01*
X103952751Y-80856396D01*
X103952756Y-80856402D01*
X104074680Y-80978326D01*
X104108165Y-81039649D01*
X104103181Y-81109341D01*
X104061309Y-81165274D01*
X104030333Y-81182189D01*
X103898919Y-81231203D01*
X103898914Y-81231206D01*
X103783705Y-81317452D01*
X103783702Y-81317455D01*
X103697456Y-81432664D01*
X103697452Y-81432671D01*
X103647158Y-81567517D01*
X103642010Y-81615408D01*
X103640751Y-81627123D01*
X103640750Y-81627135D01*
X103640750Y-83422870D01*
X103640751Y-83422876D01*
X103647158Y-83482483D01*
X103697452Y-83617328D01*
X103697456Y-83617335D01*
X103783702Y-83732544D01*
X103783705Y-83732547D01*
X103898914Y-83818793D01*
X103898921Y-83818797D01*
X104033767Y-83869091D01*
X104033766Y-83869091D01*
X104040694Y-83869835D01*
X104093377Y-83875500D01*
X105889122Y-83875499D01*
X105948733Y-83869091D01*
X106083581Y-83818796D01*
X106198796Y-83732546D01*
X106285046Y-83617331D01*
X106335341Y-83482483D01*
X106341750Y-83422873D01*
X106341750Y-83399996D01*
X108494435Y-83399996D01*
X108494435Y-83400003D01*
X108514630Y-83579249D01*
X108514631Y-83579254D01*
X108574211Y-83749523D01*
X108617739Y-83818797D01*
X108670184Y-83902262D01*
X108797738Y-84029816D01*
X108950478Y-84125789D01*
X109018309Y-84149524D01*
X109120745Y-84185368D01*
X109120750Y-84185369D01*
X109299996Y-84205565D01*
X109300000Y-84205565D01*
X109300004Y-84205565D01*
X109479249Y-84185369D01*
X109479252Y-84185368D01*
X109479255Y-84185368D01*
X109649522Y-84125789D01*
X109802262Y-84029816D01*
X109929816Y-83902262D01*
X110025789Y-83749522D01*
X110085368Y-83579255D01*
X110089274Y-83544592D01*
X110105565Y-83400003D01*
X110105565Y-83399996D01*
X110085369Y-83220750D01*
X110085368Y-83220745D01*
X110035944Y-83079500D01*
X110025789Y-83050478D01*
X110003265Y-83014632D01*
X109936639Y-82908597D01*
X109929816Y-82897738D01*
X109802262Y-82770184D01*
X109649523Y-82674211D01*
X109479254Y-82614631D01*
X109479249Y-82614630D01*
X109300004Y-82594435D01*
X109299996Y-82594435D01*
X109120750Y-82614630D01*
X109120745Y-82614631D01*
X108950476Y-82674211D01*
X108797737Y-82770184D01*
X108670184Y-82897737D01*
X108574211Y-83050476D01*
X108514631Y-83220745D01*
X108514630Y-83220750D01*
X108494435Y-83399996D01*
X106341750Y-83399996D01*
X106341749Y-81627128D01*
X106335341Y-81567517D01*
X106325870Y-81542125D01*
X106285047Y-81432671D01*
X106285043Y-81432664D01*
X106198797Y-81317455D01*
X106198794Y-81317452D01*
X106083585Y-81231206D01*
X106083578Y-81231202D01*
X105952167Y-81182189D01*
X105896233Y-81140318D01*
X105871816Y-81074853D01*
X105886668Y-81006580D01*
X105907813Y-80978332D01*
X106029745Y-80856401D01*
X106165285Y-80662830D01*
X106265153Y-80448663D01*
X106326313Y-80220408D01*
X106346909Y-79985000D01*
X106326313Y-79749592D01*
X106265153Y-79521337D01*
X106165285Y-79307171D01*
X106064795Y-79163655D01*
X106029744Y-79113597D01*
X105862652Y-78946506D01*
X105862646Y-78946501D01*
X105677092Y-78816575D01*
X105633467Y-78761998D01*
X105626273Y-78692500D01*
X105657796Y-78630145D01*
X105677092Y-78613425D01*
X105699276Y-78597891D01*
X105862651Y-78483495D01*
X106029745Y-78316401D01*
X106165285Y-78122830D01*
X106265153Y-77908663D01*
X106326313Y-77680408D01*
X106346909Y-77445000D01*
X106326313Y-77209592D01*
X106265153Y-76981337D01*
X106165285Y-76767171D01*
X106064795Y-76623655D01*
X106029744Y-76573597D01*
X105862652Y-76406506D01*
X105862646Y-76406501D01*
X105677092Y-76276575D01*
X105633467Y-76221998D01*
X105626273Y-76152500D01*
X105657796Y-76090145D01*
X105677092Y-76073425D01*
X105699276Y-76057891D01*
X105862651Y-75943495D01*
X106029745Y-75776401D01*
X106165285Y-75582830D01*
X106265153Y-75368663D01*
X106326313Y-75140408D01*
X106346909Y-74905000D01*
X106346285Y-74897873D01*
X106338173Y-74805145D01*
X106326313Y-74669592D01*
X106265153Y-74441337D01*
X106165285Y-74227171D01*
X106064795Y-74083655D01*
X106029744Y-74033597D01*
X105862652Y-73866506D01*
X105862646Y-73866501D01*
X105677092Y-73736575D01*
X105633467Y-73681998D01*
X105626273Y-73612500D01*
X105657796Y-73550145D01*
X105677092Y-73533425D01*
X105699276Y-73517891D01*
X105862651Y-73403495D01*
X106029745Y-73236401D01*
X106165285Y-73042830D01*
X106265153Y-72828663D01*
X106326313Y-72600408D01*
X106346909Y-72365000D01*
X106343969Y-72331402D01*
X106338173Y-72265145D01*
X106326313Y-72129592D01*
X106278566Y-71951395D01*
X106265155Y-71901344D01*
X106265154Y-71901343D01*
X106265153Y-71901337D01*
X106165285Y-71687171D01*
X106066262Y-71545750D01*
X106029744Y-71493597D01*
X105862652Y-71326506D01*
X105862646Y-71326501D01*
X105677092Y-71196575D01*
X105633467Y-71141998D01*
X105626273Y-71072500D01*
X105657796Y-71010145D01*
X105677092Y-70993425D01*
X105818658Y-70894299D01*
X105862651Y-70863495D01*
X106029745Y-70696401D01*
X106165285Y-70502830D01*
X106265153Y-70288663D01*
X106326313Y-70060408D01*
X106346909Y-69825000D01*
X106343969Y-69791402D01*
X106338102Y-69724341D01*
X106326313Y-69589592D01*
X106274200Y-69395101D01*
X106265155Y-69361344D01*
X106265154Y-69361343D01*
X106265153Y-69361337D01*
X106165285Y-69147171D01*
X106117218Y-69078523D01*
X106029744Y-68953597D01*
X105862652Y-68786506D01*
X105862646Y-68786501D01*
X105677092Y-68656575D01*
X105633467Y-68601998D01*
X105626273Y-68532500D01*
X105657796Y-68470145D01*
X105677092Y-68453425D01*
X105840460Y-68339033D01*
X105862651Y-68323495D01*
X106029745Y-68156401D01*
X106165285Y-67962830D01*
X106265153Y-67748663D01*
X106326313Y-67520408D01*
X106328099Y-67500000D01*
X108795065Y-67500000D01*
X108814786Y-67826038D01*
X108873667Y-68147341D01*
X108970835Y-68459164D01*
X108970839Y-68459175D01*
X109104897Y-68757041D01*
X109104898Y-68757043D01*
X109273881Y-69036576D01*
X109421476Y-69224968D01*
X110563708Y-68082736D01*
X110660967Y-68216602D01*
X110783398Y-68339033D01*
X110917262Y-68436290D01*
X109775030Y-69578522D01*
X109775030Y-69578523D01*
X109963423Y-69726118D01*
X110242956Y-69895101D01*
X110242958Y-69895102D01*
X110540824Y-70029160D01*
X110540835Y-70029164D01*
X110852658Y-70126332D01*
X111173961Y-70185213D01*
X111500000Y-70204934D01*
X111826038Y-70185213D01*
X112147341Y-70126332D01*
X112459164Y-70029164D01*
X112459175Y-70029160D01*
X112757041Y-69895102D01*
X112757043Y-69895101D01*
X113036586Y-69726112D01*
X113224968Y-69578523D01*
X113224968Y-69578522D01*
X112082737Y-68436290D01*
X112216602Y-68339033D01*
X112339033Y-68216602D01*
X112436290Y-68082737D01*
X113578522Y-69224968D01*
X113578523Y-69224968D01*
X113726112Y-69036586D01*
X113895101Y-68757043D01*
X113895102Y-68757041D01*
X114029160Y-68459175D01*
X114029164Y-68459164D01*
X114126332Y-68147341D01*
X114185213Y-67826038D01*
X114204934Y-67500000D01*
X114185213Y-67173961D01*
X114126332Y-66852658D01*
X114029164Y-66540835D01*
X114029160Y-66540824D01*
X113895102Y-66242958D01*
X113895101Y-66242956D01*
X113726118Y-65963423D01*
X113578522Y-65775030D01*
X112436290Y-66917262D01*
X112339033Y-66783398D01*
X112216602Y-66660967D01*
X112082736Y-66563709D01*
X113224968Y-65421476D01*
X113036576Y-65273881D01*
X112757043Y-65104898D01*
X112757041Y-65104897D01*
X112459175Y-64970839D01*
X112459164Y-64970835D01*
X112147341Y-64873667D01*
X111826038Y-64814786D01*
X111500000Y-64795065D01*
X111173961Y-64814786D01*
X110852658Y-64873667D01*
X110540835Y-64970835D01*
X110540824Y-64970839D01*
X110242958Y-65104897D01*
X110242956Y-65104898D01*
X109963422Y-65273881D01*
X109963416Y-65273886D01*
X109775030Y-65421474D01*
X109775029Y-65421476D01*
X110917262Y-66563709D01*
X110783398Y-66660967D01*
X110660967Y-66783398D01*
X110563709Y-66917262D01*
X109421476Y-65775029D01*
X109421474Y-65775030D01*
X109273886Y-65963416D01*
X109273881Y-65963422D01*
X109104898Y-66242956D01*
X109104897Y-66242958D01*
X108970839Y-66540824D01*
X108970835Y-66540835D01*
X108873667Y-66852658D01*
X108814786Y-67173961D01*
X108795065Y-67500000D01*
X106328099Y-67500000D01*
X106346909Y-67285000D01*
X106343969Y-67251402D01*
X106334787Y-67146446D01*
X106326313Y-67049592D01*
X106273545Y-66852658D01*
X106265155Y-66821344D01*
X106265154Y-66821343D01*
X106265153Y-66821337D01*
X106165285Y-66607171D01*
X106144683Y-66577747D01*
X106029744Y-66413597D01*
X105862652Y-66246506D01*
X105862646Y-66246501D01*
X105677092Y-66116575D01*
X105633467Y-66061998D01*
X105626273Y-65992500D01*
X105657796Y-65930145D01*
X105677092Y-65913425D01*
X105829072Y-65807007D01*
X105862651Y-65783495D01*
X106029745Y-65616401D01*
X106165285Y-65422830D01*
X106265153Y-65208663D01*
X106326313Y-64980408D01*
X106346909Y-64745000D01*
X106326313Y-64509592D01*
X106265153Y-64281337D01*
X106165285Y-64067171D01*
X106029745Y-63873599D01*
X106029744Y-63873597D01*
X105862652Y-63706506D01*
X105862645Y-63706501D01*
X105669084Y-63570967D01*
X105669080Y-63570965D01*
X105599527Y-63538532D01*
X105454913Y-63471097D01*
X105454909Y-63471096D01*
X105454905Y-63471094D01*
X105226663Y-63409938D01*
X105226653Y-63409936D01*
X104991251Y-63389341D01*
X104991249Y-63389341D01*
X104755846Y-63409936D01*
X104755836Y-63409938D01*
X104527594Y-63471094D01*
X104527587Y-63471096D01*
X104527587Y-63471097D01*
X104514066Y-63477401D01*
X104313421Y-63570964D01*
X104313419Y-63570965D01*
X104119847Y-63706505D01*
X103952755Y-63873597D01*
X103817215Y-64067169D01*
X103817214Y-64067171D01*
X103717348Y-64281335D01*
X103717344Y-64281344D01*
X103656188Y-64509586D01*
X103656186Y-64509596D01*
X103635591Y-64744999D01*
X103000000Y-64744999D01*
X103000000Y-63124000D01*
X103019685Y-63056961D01*
X103072489Y-63011206D01*
X103124000Y-63000000D01*
X174449905Y-63000000D01*
X174516944Y-63019685D01*
G37*
%TD.AperFunction*%
%TA.AperFunction,Conductor*%
G36*
X129844328Y-109900185D02*
G01*
X129878864Y-109933377D01*
X129961505Y-110051402D01*
X130128597Y-110218493D01*
X130128603Y-110218498D01*
X130314594Y-110348730D01*
X130358219Y-110403307D01*
X130365413Y-110472805D01*
X130333890Y-110535160D01*
X130314595Y-110551880D01*
X130128922Y-110681890D01*
X130128920Y-110681891D01*
X129961891Y-110848920D01*
X129961886Y-110848926D01*
X129826400Y-111042420D01*
X129826399Y-111042422D01*
X129726570Y-111256507D01*
X129726567Y-111256513D01*
X129669364Y-111469999D01*
X129669364Y-111470000D01*
X130566988Y-111470000D01*
X130534075Y-111527007D01*
X130500000Y-111654174D01*
X130500000Y-111785826D01*
X130534075Y-111912993D01*
X130566988Y-111970000D01*
X129669364Y-111970000D01*
X129726567Y-112183486D01*
X129726570Y-112183492D01*
X129826399Y-112397578D01*
X129961894Y-112591082D01*
X130128917Y-112758105D01*
X130314595Y-112888119D01*
X130358219Y-112942696D01*
X130365412Y-113012195D01*
X130333890Y-113074549D01*
X130314595Y-113091269D01*
X130128594Y-113221508D01*
X129961506Y-113388596D01*
X129912095Y-113459164D01*
X129881724Y-113502539D01*
X129878864Y-113506623D01*
X129824287Y-113550248D01*
X129777289Y-113559500D01*
X128522711Y-113559500D01*
X128455672Y-113539815D01*
X128421136Y-113506623D01*
X128418276Y-113502539D01*
X128375049Y-113440804D01*
X128338494Y-113388597D01*
X128171402Y-113221506D01*
X128171401Y-113221505D01*
X127985405Y-113091269D01*
X127941781Y-113036692D01*
X127934588Y-112967193D01*
X127966110Y-112904839D01*
X127985405Y-112888119D01*
X128171082Y-112758105D01*
X128338105Y-112591082D01*
X128473600Y-112397578D01*
X128573429Y-112183492D01*
X128573432Y-112183486D01*
X128630636Y-111970000D01*
X127733012Y-111970000D01*
X127765925Y-111912993D01*
X127800000Y-111785826D01*
X127800000Y-111654174D01*
X127765925Y-111527007D01*
X127733012Y-111470000D01*
X128630636Y-111470000D01*
X128630635Y-111469999D01*
X128573432Y-111256513D01*
X128573429Y-111256507D01*
X128473600Y-111042422D01*
X128473599Y-111042420D01*
X128338113Y-110848926D01*
X128338108Y-110848920D01*
X128171078Y-110681890D01*
X127985405Y-110551879D01*
X127941780Y-110497302D01*
X127934588Y-110427804D01*
X127966110Y-110365449D01*
X127985406Y-110348730D01*
X127985842Y-110348425D01*
X128171401Y-110218495D01*
X128338495Y-110051401D01*
X128421136Y-109933376D01*
X128475713Y-109889752D01*
X128522711Y-109880500D01*
X129777289Y-109880500D01*
X129844328Y-109900185D01*
G37*
%TD.AperFunction*%
%TD*%
M02*
