%TF.GenerationSoftware,KiCad,Pcbnew,8.0.6*%
%TF.CreationDate,2024-12-18T15:27:08+01:00*%
%TF.ProjectId,RTR_submodule,5254525f-7375-4626-9d6f-64756c652e6b,rev?*%
%TF.SameCoordinates,Original*%
%TF.FileFunction,Soldermask,Top*%
%TF.FilePolarity,Negative*%
%FSLAX46Y46*%
G04 Gerber Fmt 4.6, Leading zero omitted, Abs format (unit mm)*
G04 Created by KiCad (PCBNEW 8.0.6) date 2024-12-18 15:27:08*
%MOMM*%
%LPD*%
G01*
G04 APERTURE LIST*
G04 Aperture macros list*
%AMRoundRect*
0 Rectangle with rounded corners*
0 $1 Rounding radius*
0 $2 $3 $4 $5 $6 $7 $8 $9 X,Y pos of 4 corners*
0 Add a 4 corners polygon primitive as box body*
4,1,4,$2,$3,$4,$5,$6,$7,$8,$9,$2,$3,0*
0 Add four circle primitives for the rounded corners*
1,1,$1+$1,$2,$3*
1,1,$1+$1,$4,$5*
1,1,$1+$1,$6,$7*
1,1,$1+$1,$8,$9*
0 Add four rect primitives between the rounded corners*
20,1,$1+$1,$2,$3,$4,$5,0*
20,1,$1+$1,$4,$5,$6,$7,0*
20,1,$1+$1,$6,$7,$8,$9,0*
20,1,$1+$1,$8,$9,$2,$3,0*%
%AMRotRect*
0 Rectangle, with rotation*
0 The origin of the aperture is its center*
0 $1 length*
0 $2 width*
0 $3 Rotation angle, in degrees counterclockwise*
0 Add horizontal line*
21,1,$1,$2,0,0,$3*%
G04 Aperture macros list end*
%ADD10C,4.400000*%
%ADD11RoundRect,0.237500X-0.237500X0.300000X-0.237500X-0.300000X0.237500X-0.300000X0.237500X0.300000X0*%
%ADD12RoundRect,0.237500X0.237500X-0.300000X0.237500X0.300000X-0.237500X0.300000X-0.237500X-0.300000X0*%
%ADD13R,0.300000X1.425000*%
%ADD14R,1.700000X1.700000*%
%ADD15O,1.700000X1.700000*%
%ADD16RoundRect,0.150000X0.825000X0.150000X-0.825000X0.150000X-0.825000X-0.150000X0.825000X-0.150000X0*%
%ADD17C,1.400000*%
%ADD18O,1.400000X1.400000*%
%ADD19RoundRect,0.237500X0.300000X0.237500X-0.300000X0.237500X-0.300000X-0.237500X0.300000X-0.237500X0*%
%ADD20R,1.070000X0.800000*%
%ADD21RotRect,0.282800X0.282800X225.000000*%
%ADD22R,0.200000X0.600000*%
%ADD23R,0.300000X0.850000*%
%ADD24R,0.850000X0.300000*%
%ADD25RoundRect,0.237500X-0.300000X-0.237500X0.300000X-0.237500X0.300000X0.237500X-0.300000X0.237500X0*%
%ADD26RoundRect,0.100000X0.637500X0.100000X-0.637500X0.100000X-0.637500X-0.100000X0.637500X-0.100000X0*%
G04 APERTURE END LIST*
D10*
%TO.C,H4*%
X111500000Y-67500000D03*
%TD*%
%TO.C,H3*%
X169500000Y-112500000D03*
%TD*%
%TO.C,H2*%
X171000000Y-67000000D03*
%TD*%
%TO.C,H1*%
X112000000Y-113500000D03*
%TD*%
D11*
%TO.C,M:C10*%
X110691250Y-79962500D03*
X110691250Y-81687500D03*
%TD*%
D12*
%TO.C,M:C12*%
X152700000Y-92825000D03*
X152700000Y-91100000D03*
%TD*%
D13*
%TO.C,U2*%
X107600000Y-94524000D03*
X108100000Y-94524000D03*
X108600000Y-94524000D03*
X109100000Y-94524000D03*
X109600000Y-94524000D03*
X110100000Y-94524000D03*
X110600000Y-94524000D03*
X111100000Y-94524000D03*
X111100000Y-90100000D03*
X110600000Y-90100000D03*
X110100000Y-90100000D03*
X109600000Y-90100000D03*
X109100000Y-90100000D03*
X108600000Y-90100000D03*
X108100000Y-90100000D03*
X107600000Y-90100000D03*
%TD*%
D14*
%TO.C,J7*%
X104991250Y-82525000D03*
D15*
X104991250Y-79985000D03*
X104991250Y-77445000D03*
X104991250Y-74905000D03*
X104991250Y-72365000D03*
X104991250Y-69825000D03*
X104991250Y-67285000D03*
X104991250Y-64745000D03*
%TD*%
D13*
%TO.C,U3*%
X157750000Y-72212000D03*
X158250000Y-72212000D03*
X158750000Y-72212000D03*
X159250000Y-72212000D03*
X159750000Y-72212000D03*
X160250000Y-72212000D03*
X160750000Y-72212000D03*
X161250000Y-72212000D03*
X161250000Y-67788000D03*
X160750000Y-67788000D03*
X160250000Y-67788000D03*
X159750000Y-67788000D03*
X159250000Y-67788000D03*
X158750000Y-67788000D03*
X158250000Y-67788000D03*
X157750000Y-67788000D03*
%TD*%
D14*
%TO.C,CANG_J3*%
X171562500Y-123400000D03*
%TD*%
D16*
%TO.C,SUB:U1*%
X114740000Y-107540000D03*
X114740000Y-106270000D03*
X114740000Y-105000000D03*
X114740000Y-103730000D03*
X109790000Y-103730000D03*
X109790000Y-105000000D03*
X109790000Y-106270000D03*
X109790000Y-107540000D03*
%TD*%
D14*
%TO.C,CANG_J1*%
X134100000Y-123400000D03*
%TD*%
D17*
%TO.C,Ter_R1*%
X127280000Y-120400000D03*
D18*
X134900000Y-120400000D03*
%TD*%
D17*
%TO.C,Ter_R6*%
X164752500Y-126350000D03*
D18*
X172372500Y-126350000D03*
%TD*%
D14*
%TO.C,SUB:J3*%
X104900000Y-96300000D03*
D15*
X104900000Y-93760000D03*
X104900000Y-91220000D03*
X104900000Y-88680000D03*
%TD*%
D14*
%TO.C,SUB:J2*%
X172800000Y-104140000D03*
D15*
X172800000Y-101600000D03*
X172800000Y-99060000D03*
X172800000Y-96520000D03*
%TD*%
D17*
%TO.C,Ter_R3*%
X146155000Y-120400000D03*
D18*
X153775000Y-120400000D03*
%TD*%
D14*
%TO.C,J8*%
X149900000Y-114260000D03*
D15*
X149900000Y-111720000D03*
X149900000Y-109180000D03*
X149900000Y-106640000D03*
X149900000Y-104100000D03*
X149900000Y-101560000D03*
X149900000Y-99020000D03*
X149900000Y-96480000D03*
X149900000Y-93940000D03*
X149900000Y-91400000D03*
X149900000Y-88860000D03*
X149900000Y-86320000D03*
X149900000Y-83780000D03*
X149900000Y-81240000D03*
X149900000Y-78700000D03*
X149900000Y-76160000D03*
X149900000Y-73620000D03*
X149900000Y-71080000D03*
X149900000Y-68540000D03*
X149900000Y-66000000D03*
%TD*%
D19*
%TO.C,C1*%
X113127500Y-102135000D03*
X111402500Y-102135000D03*
%TD*%
D17*
%TO.C,Ter_R8*%
X108255000Y-126350000D03*
D18*
X115875000Y-126350000D03*
%TD*%
D20*
%TO.C,U1*%
X158820000Y-92900000D03*
D21*
X158285000Y-93100000D03*
D22*
X158185000Y-92800000D03*
D20*
X158820000Y-91900000D03*
D21*
X158285000Y-91700000D03*
D22*
X158185000Y-92000000D03*
D23*
X157270000Y-90950000D03*
X156770000Y-90950000D03*
D24*
X156070000Y-91650000D03*
X156070000Y-92150000D03*
X156070000Y-92650000D03*
X156070000Y-93150000D03*
D23*
X156770000Y-93850000D03*
X157270000Y-93850000D03*
%TD*%
D14*
%TO.C,CANH_J2*%
X143275000Y-121200000D03*
%TD*%
D17*
%TO.C,SUB:R2*%
X160410000Y-96500000D03*
D18*
X152790000Y-96500000D03*
%TD*%
D25*
%TO.C,M:C7*%
X157637500Y-75000000D03*
X159362500Y-75000000D03*
%TD*%
D17*
%TO.C,Ter_R5*%
X164742500Y-120400000D03*
D18*
X172362500Y-120400000D03*
%TD*%
D14*
%TO.C,J9*%
X127300000Y-66000000D03*
D15*
X127300000Y-68540000D03*
X127300000Y-71080000D03*
X127300000Y-73620000D03*
X127300000Y-76160000D03*
X127300000Y-78700000D03*
X127300000Y-81240000D03*
X127300000Y-83780000D03*
X127300000Y-86320000D03*
X127300000Y-88860000D03*
X127300000Y-91400000D03*
X127300000Y-93940000D03*
X127300000Y-96480000D03*
X127300000Y-99020000D03*
X127300000Y-101560000D03*
X127300000Y-104100000D03*
X127300000Y-106640000D03*
X127300000Y-109180000D03*
X127300000Y-111720000D03*
X127300000Y-114260000D03*
%TD*%
D17*
%TO.C,Ter_R7*%
X108255000Y-120400000D03*
D18*
X115875000Y-120400000D03*
%TD*%
D14*
%TO.C,SUB:J5*%
X154900000Y-74000000D03*
D15*
X154900000Y-71460000D03*
X154900000Y-68920000D03*
X154900000Y-66380000D03*
%TD*%
D14*
%TO.C,J2*%
X172800000Y-92700000D03*
%TD*%
D25*
%TO.C,M:C6*%
X161000000Y-65300000D03*
X162725000Y-65300000D03*
%TD*%
%TO.C,C3*%
X129737500Y-123500000D03*
X131462500Y-123500000D03*
%TD*%
D17*
%TO.C,SUB:R3*%
X156700000Y-80580000D03*
D18*
X156700000Y-88200000D03*
%TD*%
D14*
%TO.C,CANL_J1*%
X124500000Y-125600000D03*
%TD*%
D25*
%TO.C,M:C1*%
X110937500Y-97500000D03*
X112662500Y-97500000D03*
%TD*%
D17*
%TO.C,SUB:R1*%
X170020000Y-96500000D03*
D18*
X162400000Y-96500000D03*
%TD*%
D19*
%TO.C,M:C8*%
X162725000Y-75000000D03*
X161000000Y-75000000D03*
%TD*%
D26*
%TO.C,SUB:U2*%
X114353750Y-78450000D03*
X114353750Y-77800000D03*
X114353750Y-77150000D03*
X114353750Y-76500000D03*
X114353750Y-75850000D03*
X114353750Y-75200000D03*
X114353750Y-74550000D03*
X114353750Y-73900000D03*
X114353750Y-73250000D03*
X114353750Y-72600000D03*
X108628750Y-72600000D03*
X108628750Y-73250000D03*
X108628750Y-73900000D03*
X108628750Y-74550000D03*
X108628750Y-75200000D03*
X108628750Y-75850000D03*
X108628750Y-76500000D03*
X108628750Y-77150000D03*
X108628750Y-77800000D03*
X108628750Y-78450000D03*
%TD*%
D19*
%TO.C,M:C5*%
X159250000Y-65300000D03*
X157525000Y-65300000D03*
%TD*%
D14*
%TO.C,CANH_J1*%
X124500000Y-121200000D03*
%TD*%
%TO.C,CANG_J2*%
X152975000Y-123400000D03*
%TD*%
D17*
%TO.C,Ter_R4*%
X146155000Y-126300000D03*
D18*
X153775000Y-126300000D03*
%TD*%
D12*
%TO.C,C2*%
X117265000Y-106497500D03*
X117265000Y-104772500D03*
%TD*%
D17*
%TO.C,Ter_R2*%
X127280000Y-126300000D03*
D18*
X134900000Y-126300000D03*
%TD*%
D14*
%TO.C,CANL_J3*%
X161962500Y-125600000D03*
%TD*%
%TO.C,J1*%
X163200000Y-93640000D03*
D15*
X163200000Y-91100000D03*
%TD*%
D14*
%TO.C,CANH_J3*%
X161962500Y-121200000D03*
%TD*%
D25*
%TO.C,C6*%
X110675000Y-123500000D03*
X112400000Y-123500000D03*
%TD*%
%TO.C,M:C4*%
X110900000Y-87600000D03*
X112625000Y-87600000D03*
%TD*%
%TO.C,C4*%
X148550000Y-123400000D03*
X150275000Y-123400000D03*
%TD*%
D11*
%TO.C,M:C9*%
X112301250Y-79962500D03*
X112301250Y-81687500D03*
%TD*%
D14*
%TO.C,J3*%
X131000000Y-66000000D03*
D15*
X131000000Y-68540000D03*
X131000000Y-71080000D03*
X131000000Y-73620000D03*
X131000000Y-76160000D03*
X131000000Y-78700000D03*
X131000000Y-81240000D03*
X131000000Y-83780000D03*
X131000000Y-86320000D03*
X131000000Y-88860000D03*
X131000000Y-91400000D03*
X131000000Y-93940000D03*
X131000000Y-96480000D03*
X131000000Y-99020000D03*
X131000000Y-101560000D03*
X131000000Y-104100000D03*
X131000000Y-106640000D03*
X131000000Y-109180000D03*
X131000000Y-111720000D03*
X131000000Y-114260000D03*
%TD*%
D25*
%TO.C,C5*%
X167137500Y-123400000D03*
X168862500Y-123400000D03*
%TD*%
%TO.C,M:C2*%
X107575000Y-97500000D03*
X109300000Y-97500000D03*
%TD*%
D14*
%TO.C,J5*%
X117791250Y-82525000D03*
D15*
X117791250Y-79985000D03*
X117791250Y-77445000D03*
X117791250Y-74905000D03*
X117791250Y-72365000D03*
X117791250Y-69825000D03*
X117791250Y-67285000D03*
X117791250Y-64745000D03*
%TD*%
D14*
%TO.C,SUB:J1*%
X172800000Y-89000000D03*
D15*
X172800000Y-86460000D03*
X172800000Y-83920000D03*
X172800000Y-81380000D03*
%TD*%
D19*
%TO.C,M:C3*%
X109262500Y-87600000D03*
X107537500Y-87600000D03*
%TD*%
D14*
%TO.C,SUB:J7*%
X106765000Y-109435000D03*
D15*
X106765000Y-106895000D03*
X106765000Y-104355000D03*
X106765000Y-101815000D03*
%TD*%
D14*
%TO.C,SUB:J4*%
X115300000Y-96240000D03*
D15*
X115300000Y-93700000D03*
X115300000Y-91160000D03*
X115300000Y-88620000D03*
%TD*%
D14*
%TO.C,CANL_J4*%
X105475000Y-125600000D03*
%TD*%
%TO.C,J4*%
X146200000Y-66000000D03*
D15*
X146200000Y-68540000D03*
X146200000Y-71080000D03*
X146200000Y-73620000D03*
X146200000Y-76160000D03*
X146200000Y-78700000D03*
X146200000Y-81240000D03*
X146200000Y-83780000D03*
X146200000Y-86320000D03*
X146200000Y-88860000D03*
X146200000Y-91400000D03*
X146200000Y-93940000D03*
X146200000Y-96480000D03*
X146200000Y-99020000D03*
X146200000Y-101560000D03*
X146200000Y-104100000D03*
X146200000Y-106640000D03*
X146200000Y-109180000D03*
X146200000Y-111720000D03*
X146200000Y-114260000D03*
%TD*%
D14*
%TO.C,CANG_J4*%
X115075000Y-123400000D03*
%TD*%
%TO.C,CANH_J4*%
X105475000Y-121200000D03*
%TD*%
%TO.C,CANL_J2*%
X143275000Y-125600000D03*
%TD*%
%TO.C,SUB:J6*%
X165400000Y-74000000D03*
D15*
X165400000Y-71460000D03*
X165400000Y-68920000D03*
X165400000Y-66380000D03*
%TD*%
M02*
